<?xml version="1.0" encoding="UTF-8"?><svg id="Layer_2" xmlns="http://www.w3.org/2000/svg" viewBox="0 0 103.1 103.38"><defs><style>.cls-1{fill:none;stroke:#fff;stroke-miterlimit:10;stroke-width:.5px;}</style></defs><g id="Layer_1-2"><path class="cls-1" d="m102.84,52.36c-.56,47.17-61.93,68.25-91.47,31.56C-18.42,46.93,16.08-8.64,62.42,1.46c23.56,5.13,40.75,26.8,40.42,50.9h0Z"/><path class="cls-1" d="m102.79,53.02C103.96,5.88,43.49-17.61,12.59,18.07c-31.05,35.84,1.33,92.53,47.94,84.19,23.7-4.24,41.64-25.2,42.26-49.24h0Z"/><path class="cls-1" d="m102.83,53.02C104.01,5.84,43.49-17.67,12.55,18.04c-31.07,35.87,1.33,92.61,47.98,84.26,23.72-4.24,41.68-25.22,42.3-49.29h0Z"/><path class="cls-1" d="m102.8,52.36c-.56,47.13-61.87,68.19-91.39,31.53C-18.36,46.93,16.11-8.59,62.41,1.5c23.54,5.13,40.71,26.77,40.39,50.86h0Z"/><path class="cls-1" d="m32.92,65.7c-13.47-17.85,4.88-43.28,26.09-35.98,19.29,6.65,20.75,34.27,2.32,42.96-9.78,4.61-21.89,1.7-28.4-6.99h0Z"/><path class="cls-1" d="m19.92,53.16c-1.28-28.64,34.89-43.89,54.48-23.08,20.03,21.28,1.33,57.07-27.59,52.79-14.82-2.2-26.02-14.84-26.89-29.71h0Z"/><path class="cls-1" d="m19.23,70.16C2.07,39.95,33.88,3.89,66,17.56s28.71,59.66-3.65,69.6c-16.42,5.05-34.54-2.15-43.11-17.01h0Z"/><path class="cls-1" d="m19.63,77.94C-4.5,48.13,22.99,2.77,60.74,11.53c35.84,8.32,42.93,57.75,11.1,75.97-17.28,9.89-39.49,5.57-52.21-9.56h0Z"/><path class="cls-1" d="m15.62,77.81C-8.3,44.94,23.09-1.35,62.46,8.75c39.03,10.01,44.66,65.01,8.49,82.75-19.06,9.35-42.84,3.5-55.33-13.68h0Z"/><path class="cls-1" d="m12.87,78.04C-10.94,43.17,22.3-4.1,63.15,6.48c42.33,10.95,46.74,71.64,6.14,88.38-20.22,8.34-44.05,1.2-56.42-16.82h0Z"/><path class="cls-1" d="m12.64,80.82C-14.24,44.88,20.13-6.5,63.59,4.73c42.83,11.07,48.7,71.47,8.87,90.68-20.57,9.92-46.15,3.71-59.82-14.59h0Z"/><path class="cls-1" d="m12.91,83.31C-17.02,47.06,18.12-8.02,63.56,3.36c43.51,10.9,50.71,71.86,10.86,92.56-20.76,10.79-46.62,5.29-61.51-12.61h0Z"/><path class="cls-1" d="m12.13,83.77C-17.9,47.11,16.96-8.55,63.1,2.31c44.14,10.4,52.63,71.71,12.97,93.74-21.17,11.76-48.67,6.53-63.94-12.29h0Z"/><path class="cls-1" d="m12.4,84.91C-1.57,68.42-3.74,44.3,7.27,25.66S40.31-2.79,61.5,1.42s37.45,21.56,40.61,42.6c3.15,20.94-7.25,42.14-25.76,52.46s-42.25,7.9-58.36-5.96c-2-1.72-3.87-3.6-5.59-5.61h0Z"/></g></svg>