<?xml version="1.0" encoding="UTF-8"?><svg id="Layer_2" xmlns="http://www.w3.org/2000/svg" viewBox="0 0 103.51 67.11"><defs><style>.cls-1{fill:none;stroke:#fff;stroke-miterlimit:10;stroke-width:.5px;}</style></defs><g id="Layer_1-2"><path class="cls-1" d="m31.24,51.2V14.52l-.02-.02v36.71l.02-.02h0Z"/><path class="cls-1" d="m44.65,51.2h-13.4l-.02.02h13.42v-.02h0Z"/><path class="cls-1" d="m44.65,64.87v-13.67.02c0,4.56,0,9.12,0,13.69v-.03h0Z"/><path class="cls-1" d="m1.47,64.87h43.18v.03H1.42l.04-.03h0Z"/><path class="cls-1" d="m1.47,51.2v13.67l-.04.03v-13.69l.04-.02h0Z"/><path class="cls-1" d="m14.87,51.2H1.47l-.04.02h13.42l.03-.02h0Z"/><path class="cls-1" d="m14.87,14.52v36.68l-.03.02V14.51l.03.02h0Z"/><path class="cls-1" d="m1.47,14.52h13.4l-.03-.02H1.42l.04.02h0Z"/><path class="cls-1" d="m1.47.85v13.67l-.04-.02V.82l.04.03h0Z"/><path class="cls-1" d="m44.65.85H1.47l-.04-.03h43.22v.03h0Z"/><path class="cls-1" d="m44.23,14.52h.42v-.02h-13.42l.02.02h12.99Z"/><path class="cls-1" d="m44.65,14.52c0-4.57,0-9.14,0-13.7v13.7h0Z"/><path class="cls-1" d="m44.64,14.51V.82H1.42v13.69h13.42c0,12.24,0,24.47,0,36.71H1.42v13.69h43.22v-13.69h-13.42V14.51h13.42Z"/><path class="cls-1" d="m44.65,14.11v.41h-13.4v36.68h13.4v13.67H1.47v-13.67h13.4V14.52H1.47V.85h43.18v13.26h0Z"/><path class="cls-1" d="m17.03,57.33l-.16-.43c.06-.3.07-.61.05-.92.15-.26.24-.53.3-.82,1.98-3.46,2.93-7.36,3.35-11.27l.05-.17c.05-.37.09-.73.11-1.1l.1-.38c0-.32,0-.62.03-.94l.13-.54c-.04-.3-.04-.53-.03-.81l.14-.66-.06-.7v-.03s0-.03,0-.03l.14-.7-.06-.61.03-.12-.02-.14.11-.59-.06-.54.05-.19-.04-.2.09-.53-.06-.5.05-.23-.05-.24.07-.49-.07-.49.05-.24-.05-.24.07-.49-.08-.5.04-.23-.05-.22.06-.51-.09-.54.03-.19-.05-.18.06-.55-.11-.61.02-.12-.03-.11.06-.62-.14-.72h0s0-.02,0-.02l.05-.73-.14-.64c-.02-.28-.01-.53.02-.83l-.12-.5c-.03-.33-.04-.64-.04-.97l-.09-.33c0-.39-.05-.77-.13-1.15l-.04-.11c-.42-3.96-1.52-7.82-3.47-11.33-.09-.28-.17-.57-.23-.86.07-.32.12-.65.15-.98l.14-.22c3.16-2.49,8.45-2.46,11.69-.11l.21.31c.12.32.18.65.17.98-.14.26-.22.55-.24.85-2.19,4.01-3.2,8.34-3.65,12.82l-.04.12c-.07.39-.11.78-.11,1.18l-.08.3c0,.35-.02.69-.03,1.04l-.11.44c.03.32.03.61.02.93l-.12.54c.05.31.06.56.05.85l-.12.62.08.67s-.01.08,0,.13l-.12.67.1.7s0,.04,0,.06l-.12.7.11.71s0,.02,0,.03l-.11.71.12.71s0,.03,0,.05l-.1.71.12.68s0,.07,0,.1l-.09.68.12.63c0,.28,0,.52-.06.83l.12.56c.01.31,0,.59-.03.9l.11.46c.02.34.02.66.02,1.01l.09.33c0,.38.03.76.09,1.14l.05.17c.44,4.42,1.31,8.82,3.54,12.76.05.29.15.56.29.82-.02.31,0,.61.05.92l-.22.54c-3.12,2.63-8.88,2.66-11.9-.11h0Z"/><path class="cls-1" d="m13.38,59.24l-.26-.15c-.35-.33-.62-.73-.81-1.17.09-.34.17-.68.25-1.02.32-.24.58-.54.76-.89.36-.19.66-.45.91-.78.21-.14.42-.28.62-.43l.22-.26.29-.19c.11-.21.26-.37.45-.49,5.72-6.53,5.55-34.76.33-41.6-.17-.13-.31-.3-.42-.5l-.23-.16-.25-.3-.52-.36-.03-.03c-.25-.28-.53-.51-.85-.7-.23-.34-.53-.62-.89-.82-.18-.33-.38-.65-.61-.95-.01-.36.02-.72.09-1.08,4.64-3.99,16.45-3.98,21.09,0,.08.35.11.71.1,1.08-.26.28-.46.59-.6.95-.33.23-.63.51-.89.82-.35.17-.65.41-.88.73l-.06.03c-.16.16-.33.29-.53.41l-.17.22-.31.22c-5.72,6.64-5.71,35.33-.08,42.01.19.12.34.28.45.48l.35.23.16.2c.22.17.45.34.68.49.24.33.54.59.91.78.22.32.48.63.77.89.1.34.19.68.26,1.02-.21.43-.48.83-.81,1.18-5.49,2.84-13.95,2.82-19.51.16h0Z"/><path class="cls-1" d="m10.68,60.68c-.66-.25-1.29-.59-1.87-1-.29-.33-.53-.7-.73-1.1-.03-.36-.04-.71-.03-1.07.17-.36.36-.7.57-1.04,1.44-1.04,3.04-1.86,4.73-2.43.37-.11.7-.27,1.03-.47l.12-.1.43-.19.36-.34.1-.05c.11-.15.24-.28.4-.39,4.14-6.95,4.24-32.49-.08-39.35-.16-.11-.3-.25-.4-.42l-.3-.16-.2-.19c-.2-.07-.39-.18-.56-.3l-.17-.05c-1.61-.7-3.21-1.43-4.8-2.2-.34-.32-.67-.66-.99-1.01-.12-.35-.23-.7-.32-1.06.06-.37.16-.73.29-1.08,1.85-1.7,4.38-2.5,6.93-2.63h0c6.33-.81,17.49-2,22.53,2.63.13.35.22.71.28,1.08-.09.36-.19.71-.31,1.06-.32.35-.65.69-.99,1.01-1.58.77-3.18,1.51-4.78,2.19l-.27.09c-.16.14-.34.25-.54.34l-.12.11-.37.21c-.11.17-.24.3-.4.41-4.21,7.09-4.21,32.15-.06,39.26.15.12.28.26.38.42l.15.08.31.3.49.23.06.05c.33.23.69.4,1.08.51,1.69.58,3.29,1.4,4.74,2.44.21.34.4.68.58,1.04.02.36.01.71-.01,1.07-.21.39-.46.76-.73,1.1-6.84,4.09-19.16,3.16-26.53,1h0Z"/><path class="cls-1" d="m5.49,58.48c.13-4.37,5.17-4.81,8.64-5.58l.35-.22.2-.05c.14-.13.3-.23.48-.31.1-.13.23-.24.39-.33,3.33-7.83,3.62-30.63-.09-38.29-.16-.08-.29-.2-.41-.33l-.09-.03-.4-.31-.51-.15-.08-.06C1.62,9.73,6.03,3.7,16.61,2.98c4.55-.31,21.74-2.14,23.7,3.32,1.84,5.13-5.69,5.76-8.94,6.77l-.31.26-.16.06c-.1.15-.22.28-.37.38-3.61,7.74-3.42,30.3-.09,38.18.15.08.28.19.38.32.17.08.32.2.45.34l.26.07.29.19c12.8,3.03,7.91,9.24-2.88,9.91-5.51.34-21.39,2.15-23.45-4.29h0Z"/><path class="cls-1" d="m5.39,61.75c-6.07-7.22,4.57-8.52,9.13-9.54l.2-.15.31-.07c.09-.14.2-.28.32-.4,3.03-9.5,2.34-27.39.19-37.14l-.23-.41c-.16-.08-.29-.19-.39-.33-.19-.03-.37-.09-.54-.17h-.01c-3.96-.94-11.2-.52-10.36-6.5.74-5.32,7.94-4.52,12.04-4.71,5.52-.25,24.12-2.54,25.9,4.08s-6.23,6.18-10.23,7.11l-.14.02c-.16.1-.33.17-.51.21-.1.14-.22.24-.37.32-2.85,9.29-2.74,28.14-.04,37.48.11.13.21.26.31.4l.35.1.15.12c3.51.85,9.25.32,10.49,4.46,1.94,6.47-6.09,6.41-10.18,6.68-7.75.53-19.24,1.8-26.37-1.56h0Z"/><path class="cls-1" d="m5.93,63.19c-.65-.15-1.25-.44-1.77-.85-1.51-2.55-1.51-5.61-.26-8.29,2.99-1.92,6.77-1.6,10.22-2.15h.24c.18-.08.36-.13.55-.16.09-.13.2-.25.31-.37l.16-.38c1.24-11.37,1.65-25.23-.11-36.53l-.1-.18-.38-.24-.02-.02h0s-.01,0-.01,0l-.51-.24c-3.27-.39-6.65-.44-9.74-1.58-.25-.24-.49-.48-.74-.71-.97-2.39-.99-5-.13-7.44.22-.28.45-.56.69-.83C12.77-.36,33.03-.12,41.59,3.14c.27.22.51.48.72.77.98,2.53.97,5.25-.14,7.72-3.01,1.96-6.94,1.73-10.47,2.18l-.38.21-.1.02-.06-.02-.12.18-.22.15c-2.1,11.09-1.39,25.41-.19,36.65l.14.32c.1.12.2.24.3.37.18.04.35.1.52.19l.31.02c3.42.57,7.07.28,10.13,2.03,1.23,2.41,1.27,5.11.4,7.67-.19.31-.41.6-.68.85-8.84,4.09-26.33,2.32-35.82.75h0Z"/><path class="cls-1" d="m3.07,62.66c-.93-2.85-.92-5.92-.19-8.82.18-.32.4-.61.66-.86,3.4-1.24,7.11-1.02,10.71-1.29l.5-.17s.05,0,.08,0l.04-.09.25-.27.07-.17c.65-11.85,1.17-24.72-.12-36.51l-.29-.35-.19.05-.31-.04-.18-.08c-3.31-.25-6.66-.27-9.92-.92-.27-.17-.54-.34-.81-.51-.24-.31-.44-.64-.61-.99-.61-2.91-.65-5.98.44-8.74.23-.23.5-.42.79-.57C14.51-.31,31.35-.15,41.9,2.24c.3.13.57.3.82.51,1.26,2.82,1.2,6.06.48,9.06-.18.33-.4.63-.65.9-3.34,1.3-7.14,1.05-10.71,1.36l-.08.05-.37.07-.21-.07-.24.37v.16c-1.21,11.68-.93,24.61-.07,36.34l.04.09.13.16.1.27h.17s.39.16.39.16c3.57.3,7.27.08,10.68,1.23.27.23.51.49.71.78.85,2.98.88,6.22-.22,9.12-.27.19-.53.39-.78.61-10,2.68-28.32,2.8-38.26-.07-.24-.23-.49-.46-.75-.67h0Z"/><path class="cls-1" d="m2.76,63.61c-.23-.33-.41-.68-.55-1.06-.4-3.25-.5-6.6.31-9.78.22-.24.48-.43.77-.58,3.55-.67,7.23-.59,10.85-.7l.19-.06c.17.01.34.02.51.01l.19-.45c.51-12.06.53-24.47,0-36.51l-.21-.26-.32.09c-.15,0-.3-.02-.44-.08-3.64-.15-7.38.05-10.93-.76-.23-.25-.47-.5-.72-.74-.65-3.23-.61-6.59-.11-9.85.16-.34.37-.64.63-.9.3-.08.59-.19.86-.34C15.82.04,30.07.19,42.12,1.6c.28.14.57.24.87.3.28.22.51.49.69.8.63,3.34.65,6.88-.12,10.18-.26.21-.52.42-.76.65-3.58.72-7.33.58-10.98.69-.13.06-.26.08-.4.08l-.24-.08-.18.27c-.38,12.12-.38,24.4,0,36.53l.16.42h.53s.12.04.12.04c3.61.15,7.25.08,10.81.68.25.2.52.36.81.5.18.4.33.81.47,1.22.31,2.95.32,5.95-.12,8.89-.16.35-.37.66-.62.95-.3.1-.58.23-.85.38-11.81,1.69-26.94,1.83-38.73-.04-.26-.17-.54-.32-.83-.44h0Z"/><path class="cls-1" d="m1.84,62.79c-.28-3.21-.25-6.46-.05-9.69.13-.35.26-.69.39-1.04l.09-.09h.08c.26-.09.52-.19.78-.3,3.88-.32,7.81-.29,11.71-.3l.13-.3c-.02-12.19,0-24.41,0-36.58l-.14-.18-.21.06c-.19.01-.39,0-.58-.05-3.67.08-7.42.06-11.09-.27-.26-.18-.53-.34-.83-.46-.74-3.74-.64-7.83-.15-11.63.21-.27.46-.47.77-.61C15.46-.19,30.43-.03,43.19,1.31c.31.1.58.26.82.47.63,3.49.49,7.18.28,10.72-.13.41-.28.81-.44,1.21-.31.08-.59.2-.85.36-3.44.28-6.91.3-10.35.26-.29.08-.58.07-.87-.02-.13.05-.27.07-.41.05l-.16-.05-.12.18c.08,12.19.14,24.4,0,36.59l.11.28c3.87.02,7.76,0,11.61.28.25.09.51.18.77.26h.1s.15.12.15.12c.1.31.24.61.42.88.29,3.57.34,7.26-.12,10.82-.25.22-.51.44-.76.66-12.75,1.58-27.11.98-39.94.14-.27-.12-.56-.18-.86-.19-.28-.23-.51-.51-.68-.82-.05-.24-.06-.48-.04-.72h0Z"/><path class="cls-1" d="m1.71,64.41c-.02-.09-.04-.19-.05-.28l-.11-.26c-.12-3.95-.13-7.94.06-11.89l-.02-.03.07-.2c.1-.1.2-.2.31-.29.2-.04.39-.06.59-.04l.21-.08h.2s.04,0,.04,0c3.93-.1,7.87-.09,11.8-.05l.06-.15c-.1-9.48-.04-18.96-.03-28.45,0-2.73,0-5.47.02-8.19l-.07-.09-.11.03c-.24.01-.48,0-.71-.03-3.37.08-6.78.08-10.15-.05-.29.06-.58.05-.87-.05-.13.03-.27.04-.4.04l-.04.02c-.1-.02-.19-.03-.29-.04-.15-.07-.31-.13-.48-.17-.04-.16-.1-.32-.18-.46,0-.09-.01-.18-.04-.27v-.03c-.09-3.76-.09-7.55,0-11.32.04-.18.06-.36.06-.55l.18-.27v-.05c.14-.04.26-.07.39-.09l.34-.17h.09c13.57-.35,27.25-.36,40.82-.01l.41.18h.36s.27.52.27.52c.03.14.04.28.03.43v.03c.15,3.83.17,7.7-.05,11.51l-.15.42.03.08c-.2.13-.41.22-.64.27-.23,0-.46-.02-.68-.04-3.45.21-6.96.18-10.43.1-.28.05-.57.04-.85,0-.13.04-.27.05-.41.03l-.08-.03-.06.09c.08,9.44.03,18.89.02,28.33,0,2.77,0,5.55-.03,8.32l.05.14c3.92-.04,7.85-.03,11.76.03h.2s.21.07.21.07l.17-.02c.14.01.28.03.43.05.16.13.31.27.46.41v.13c.03.12.06.23.07.36l-.03.05c.16,3.64.14,7.29.03,10.93v.03c0,.37-.05.74-.14,1.1-.17.06-.33.16-.47.28h-.07c-.11.02-.23.04-.35.05l-.24-.05c-10.42.49-20.95.17-31.38.13-3.05-.01-6.09.02-9.14-.14l-.22.05c-.13-.02-.26-.04-.39-.04-.11-.13-.25-.23-.4-.3h0Z"/><path class="cls-1" d="m69.52,26.53c5.44,12.78,10.88,25.56,16.33,38.34l.03.03c-5.45-12.79-10.89-25.59-16.34-38.38h-.02Z"/><path class="cls-1" d="m69.52,64.87V26.53h.02v38.37l-.02-.03h0Z"/><path class="cls-1" d="m54.72,64.87h14.79l.02.03h-14.81v-.03h0Z"/><path class="cls-1" d="m54.72.85v50.23c0,4.61,0,9.21,0,13.82,0-16.6,0-33.19,0-49.79V.82v.03h0Z"/><path class="cls-1" d="m71.57.85h-16.85v-.03h16.87l-.02.03h0Z"/><path class="cls-1" d="m87.81,39.16c-5.41-12.77-10.82-25.54-16.24-38.31l.02-.03c5.42,12.78,10.83,25.56,16.25,38.34h-.03Z"/><path class="cls-1" d="m87.81.85c0,12.77,0,25.54,0,38.31h.03c0-12.78,0-25.56,0-38.34l-.03.03h0Z"/><path class="cls-1" d="m102.6.85h-14.79l.03-.03h14.8l-.04.03h0Z"/><path class="cls-1" d="m102.11,64.87h.49l.04.03h-16.77l-.03-.03h16.26Z"/><path class="cls-1" d="m102.6,64.87c0-16.58,0-33.16,0-49.74V.85l.04-.03c0,16.6,0,33.19,0,49.79v14.3l-.04-.03h0Z"/><path class="cls-1" d="m102.6,64.38v.49h-16.76c-5.44-12.78-10.88-25.56-16.33-38.34v38.34h-14.79V.85h16.85c5.41,12.77,10.82,25.54,16.24,38.31,0-12.77,0-25.54,0-38.31h14.79c0,16.5,0,33,0,49.5v14.04h0Z"/><path class="cls-1" d="m87.89,40.05l-.05-.88c-5.42-12.78-10.83-25.56-16.25-38.34h-16.86c0,16.6,0,33.19,0,49.79v14.3h14.81c0-13.12-.33-26.29.06-39.4l-.06,1.02c5.45,12.79,10.89,25.58,16.34,38.38h16.77c0-16.6,0-33.19,0-49.79V.82h-14.8c0,13.06-.29,26.17.05,39.23h0Z"/><path class="cls-1" d="m86.84,51.4c-3.16-5.67,1.24-7.97,5.68-10.26.5-.14,1.01-.27,1.51-.39.33.2.67.38,1.03.53.19.39.42.74.69,1.07,1.47,4.06,1.63,9.41-1,13-.34.23-.68.46-1.03.67-.42.12-.85.23-1.27.3-2.71-.41-4.65-2.38-5.62-4.94h0Z"/><path class="cls-1" d="m61.64,23.32c-1.37-3.83-1.43-8.4.31-12.11.27-.33.54-.66.81-.99.35-.21.71-.42,1.06-.63,3.91-.75,8.18,4.13,7.88,8.11s-3.37,5.11-6.84,6.88c-.5.14-1,.26-1.51.37-.33-.21-.67-.39-1.02-.54-.19-.39-.42-.75-.69-1.08h0Z"/><path class="cls-1" d="m84.63,50.95c-1.16-2.55-1.71-5.36-.87-8.03.33-.22.65-.45.96-.69,1.84-.16,3.59-.67,5.2-1.53,1.23-1.18,2.24-2.54,3.01-4.05l.21-.58.25-.29.24-.69.2-.17.32-.81.16-.05.58-.74.95.39.05.34.55.77v.09c.13.27.2.56.21.86l.25.39c.06.46.18.91.36,1.34l.05.09c1.09,4.64,2.61,12.3.59,16.87-3.89,8.81-10.85,3-13.28-3.52h0Z"/><path class="cls-1" d="m60.96,30.82l-.02-.18c-.14-.27-.22-.56-.25-.86l-.19-.29c-.02-.51-.15-.98-.41-1.43-1.07-4.76-3.47-16.47,1.1-20.19,7.61-6.2,14.29,8.89,12.6,14.8-.33.24-.64.5-.94.77-.34.12-.69.21-1.04.26-1.22,0-2.42.28-3.5.83-.21.18-.45.31-.73.38-1.23,1.15-2.25,2.5-3.02,3.99l-.22.59-.23.27-.25.71-.18.16-.33.83-.08.03-.59.83-1.12-.38-.07-.45-.52-.68h0Z"/><path class="cls-1" d="m83.91,52.42c-1.7-3.83-3.3-8.23-2.5-12.44.38-.17.75-.38,1.09-.62l.74.3.72.08.22.16c.28.09.55.2.81.34l.31.02.49.28.63.07.22.11c.5.05.99.02,1.49-.07.19-.14.41-.24.64-.3.17-.18.36-.33.59-.43,1.73-2.47,2.35-5.47,2.5-8.43.41-4.27.5-8.54.61-12.82v-.05c.13-.52.16-1.04.1-1.57l.04-.18c.06-.47.1-.94.1-1.42l.1-.35c.02-.41.05-.8.09-1.21.21-.48.29-.98.26-1.5l.02-.03c.19-.41.34-.83.44-1.27.29-.31.52-.65.69-1.04l.93-.48h.2s.88.53.88.53c.16.39.38.75.67,1.06.12.39.24.79.36,1.19l.07.14c-.02.52.07,1.01.27,1.49.01.53.07,1.05.18,1.57.02.44.04.87.07,1.31l.06.28c-.02.49,0,.98.06,1.46l.03.16c-.06.53-.04,1.05.06,1.57v.06c.19,9.39,1.77,18.82,1.57,28.26-.27,12.55-10.88,16.62-15.8,3.75h0Z"/><path class="cls-1" d="m59.92,52.26l-.19-.6c-.04-.4-.07-.8-.09-1.2l-.09-.36c0-.47-.03-.94-.09-1.41l-.04-.19c.05-.53.02-1.04-.09-1.55v-.06c-.22-8.99-1.42-17.93-1.61-26.97-.21-9.89,6.24-22.63,14.47-9.58,2.58,4.09,4.66,10.45,3.93,15.27-.34.26-.68.52-1.03.77-.31-.12-.68-.24-.96-.31h-.48s-.41-.29-.41-.29c-.3-.06-.59-.15-.88-.27h-.09s-.68-.34-.68-.34l-.47-.04-.37-.16c-.46-.03-.92-.02-1.37.05-.21.12-.43.2-.67.27-.18.17-.38.3-.61.39-1.75,2.44-2.4,5.44-2.57,8.4-.34,3.7-.46,7.4-.53,11.11v.03c-.13.53-.15,1.06-.08,1.6l-.03.12c-.08.5-.1.99-.07,1.5l-.06.24c-.04.45-.06.9-.07,1.36-.1.52-.16,1.04-.17,1.57-.2.48-.29.98-.25,1.51l-.03.06c-.16.41-.3.84-.4,1.27-.29.32-.5.69-.64,1.09-.34.19-.68.4-1.01.62h-.11c-.34-.21-.68-.4-1.03-.59-.15-.4-.36-.76-.65-1.08-.09-.45-.24-.89-.44-1.31h0s-.06-.92-.06-.92h0Z"/><path class="cls-1" d="m59.87,59.28c-.26-.33-.51-.66-.77-.99-2.95-7.65-1.39-17.74-1.72-25.84s-2.53-19.19,1.1-26.76c.27-.31.55-.61.85-.89,17.19-9.01,17.61,26.22,25.32,33.53.31.38.65.72,1.03,1.03l.46.18.22.23c.26.05.5.13.73.26.26,0,.52,0,.78,0h0s0,0,0,0l.63-.11.25-.38.22-.13c4.64-9.79-.81-22.14,3.32-32.11.26-.32.53-.64.79-.95.34-.22.69-.4,1.07-.55.76-.21,1.52-.2,2.28.03.37.16.72.35,1.05.57.26.33.52.65.78.98.17.43.35.85.54,1.28,1.82,8.26.87,17.29,1.23,25.71.31,7.36,3.02,20.3-1.85,26.44-16.69,9.65-18.37-27.53-26.49-34.46l-.28-.09-.37-.36-.67-.17-.07-.08-.7-.04-.03-.04-.11.09c-.19.02-.38.05-.56.1l-.28.38-.15.08c-4.75,9.68.52,22.03-3.29,32.06-.25.33-.51.67-.76,1-.32.24-.66.44-1.02.62-.83.3-1.67.31-2.51.01-.36-.17-.7-.38-1.02-.61h0Z"/><path class="cls-1" d="m56.76,50.4c-.19-14.02-3.15-31.14.43-44.79.22-.4.44-.79.67-1.18.31-.25.61-.5.91-.76,18.87-7.48,19.1,26.2,27.9,35.66l.34.11.2.24c.15.06.32.08.48.07l.19.17.11-.2.39-.07.28-.43c.08-.3.19-.58.32-.86,2.13-10.46-1.68-22.78,2.22-32.78.27-.31.54-.63.81-.94,2.12-1.13,4.48-1.12,6.57.05.27.32.53.64.79.96,3.05,8.29,1.31,19.41,1.51,28.16.19,8.21,2.35,19.72-1.24,27.33-.3.27-.59.54-.88.82-18.8,7.9-19.23-26.24-28.06-35.59l-.18-.05-.37-.41-.47-.03-.12-.19-.32.26-.04.12-.19.05c-.25.32-.44.69-.56,1.08-2.24,10.55,1.44,22.55-2.17,32.78-.25.34-.51.67-.77.99-2.16,1.29-4.56,1.29-6.74.02-.27-.32-.53-.65-.78-.98-1.12-3.06-1.18-6.37-1.24-9.61h0Z"/><path class="cls-1" d="m56.62,59.49c-1.44-9.02-.6-18.65-.73-27.77s-1.53-18.8.76-27.3c.22-.37.47-.73.74-1.07.32-.2.64-.4.96-.61,3.65-.94,7.78-1.05,11.41-.04.31.2.62.41.92.62,8.04,10.54,8.22,25.76,16.59,36.03l.25.07.05.1.29.27.21-.38.15-.03.11-.16c.07-.29.17-.58.29-.86,1.15-10.62-2.11-24.16,1.8-34.15.27-.3.56-.57.88-.81,2.59-1.03,5.37-1.02,7.95.04.31.26.6.54.86.85,3.08,8.22,1.23,19.64,1.35,28.36.12,9.17,1.48,19.47-.66,28.45-.21.4-.44.78-.69,1.15-.29.25-.61.47-.94.65-3.67,1.04-7.94,1.16-11.6.05-.3-.21-.6-.43-.89-.67-7.64-10.39-8.39-24.66-15.91-35.09-.21-.38-.47-.72-.78-1.02h-.23s-.2-.35-.2-.35l-.27.21-.17.44h-.01c-.12.24-.23.48-.32.72-1.33,10.83,1.88,23.81-1.74,34.15-.27.3-.55.6-.84.88-2.62,1.13-5.51,1.13-8.14.02-.29-.28-.58-.57-.85-.86-.29-.6-.5-1.25-.61-1.9h0Z"/><path class="cls-1" d="m56.68,62.56c-.21-.43-.4-.86-.59-1.3-2.1-14.52-.82-30.36-.74-45.03.02-4.28-.23-8.76.88-12.91.28-.29.56-.59.83-.89,4.03-1.3,8.97-1.2,13.1-.34.31.2.62.41.92.63,7.46,10.94,9.36,25.05,16.29,36.32l.08.02.19.39.23.21.25-.46c.03-.29.09-.61.17-.87,1.15-11.26-.83-22.86.97-34.06.2-.42.41-.83.63-1.23.33-.2.64-.41.95-.63,2.92-.73,5.98-.73,8.9.03.31.23.62.45.94.66.21.42.41.84.6,1.27,2.18,14.46.83,30.35.76,44.98-.02,4.26.18,8.67-.79,12.84-.26.33-.52.66-.78,1-.33.16-.67.3-1.01.44-3.96.71-8.36.86-12.29-.07-.29-.23-.58-.45-.87-.68-7.3-11.16-9.02-25.4-16.45-36.45,0,0,0,0,0,0l-.29-.47-.21.17-.14.37c0,.23-.02.47-.08.7v.02c-1.31,11.24.65,22.77-.94,34-.18.44-.37.88-.58,1.31-.31.23-.61.47-.91.71-2.97.79-6.13.79-9.11.01-.3-.24-.61-.47-.92-.7h0Z"/><path class="cls-1" d="m57.28,64.01c-.33-.16-.66-.31-.99-.46-.26-.37-.49-.76-.67-1.17-1.89-14.76-.57-30.61-.53-45.51,0-4.75-.51-9.94.8-14.53.33-.19.63-.4.93-.64,4.4-.78,9.22-.71,13.63-.14.31.2.62.4.92.61,6.79,11.35,9.56,24.86,15.97,36.41.09.27.21.53.35.78l.18.16.19-.34c.12-.4.15-.81.09-1.23.44-11.46-1.03-23.44.66-34.8.2-.39.44-.74.73-1.06.35-.1.69-.23,1.01-.4,3.15-.41,6.37-.41,9.52.02.32.18.66.32,1.01.43.28.35.51.72.69,1.13,2.01,15.01.63,31.24.57,46.4-.02,4.47.3,9.17-.7,13.53-.28.26-.58.52-.89.76-4.41.84-9.4.85-13.84.15-.29-.23-.58-.46-.87-.69-6.61-11.42-9.68-24.69-15.95-36.29-.13-.36-.3-.7-.51-1.02l-.16.13-.11.28c0,.22-.01.43-.06.65l.06.32c-.64,11.56.8,23.37-.63,34.86-.18.42-.4.81-.66,1.19-.33.15-.66.31-.98.48-3.22.47-6.51.46-9.73,0h0Z"/><path class="cls-1" d="m55.01,59.23c-.52-14.43-.14-28.95-.11-43.4,0-4.32-.09-8.65.2-12.96.14-.33.25-.67.33-1.02l.22-.28h.23c.26-.11.52-.23.78-.35,4.63-.34,9.36-.35,13.99-.06.29.19.59.36.9.51,6.23,12.07,10.78,25.17,16.19,37.62l.12.11.13-.23c.1-.53.1-1.05,0-1.59.19-11.23-.12-22.49.19-33.72.15-.56.23-1.12.24-1.7.27-.28.57-.54.88-.78,3.92-.49,8.08-.5,11.99.02.34.24.62.53.84.87,1.59,15.57.4,31.94.37,47.61,0,4.6.53,9.67-.62,14.12-.36.11-.69.26-1.01.46-4.68.37-9.51.37-14.2.04-.28-.21-.55-.41-.83-.61-6.15-12.21-10.52-25.29-16.3-37.67l-.11.09-.07.18c.01.2,0,.4-.04.59.22,11.9.78,24.35-.29,36.2-.24.34-.51.68-.8.98-.35,0-.69.07-1.01.2-3.38.2-6.78.2-10.15,0-.32-.13-.66-.19-1.01-.19-.29-.3-.57-.62-.82-.95-.18-1.37-.25-2.75-.23-4.13h0Z"/><path class="cls-1" d="m54.87,63.71l.02-.04c0-.16.02-.31.09-.46-1.31-15.62-.24-31.86-.21-47.56,0-4.61-.03-9.25.16-13.85l-.03-.06c.07-.23.17-.44.31-.63.31-.03.6-.08.9-.16,4.88-.06,9.77-.09,14.65-.02.12.02.23.04.35.07h.06c.12.03.24.09.36.15,4.67,9.51,8.42,19.58,12.54,29.35,1.23,2.92,2.47,5.84,3.72,8.76l.06.05.06-.11c.05-12.23-.44-24.6.11-36.81l-.04-.22c.02-.07.02-.14,0-.21l.11-.29c.19-.25.41-.47.66-.66,4.18-.11,8.38-.16,12.56.03l.07-.05c.12.01.23.03.34.07h.06c.15.13.32.23.51.28.02.23.09.45.2.65l-.02.08c.03.21.05.43.06.65.12,15.7.08,31.41.06,47.12,0,4.59,0,9.18-.09,13.75-.02.16-.04.31-.04.47-.09.17-.16.35-.21.53-.29.04-.56.11-.83.21l-.14-.02c-4.75.1-9.56.19-14.32,0l-.31.06c-.15-.03-.29-.05-.44-.07-.12-.04-.22-.1-.31-.18-4.64-9.6-8.47-19.69-12.64-29.5-1.23-2.89-2.46-5.79-3.73-8.66l-.05.04-.04.09c.02.18.01.36-.02.54.19,11.92.78,24.27-.14,36.14.06.16.09.32.08.48l.02.04-.03.21c-.08.15-.17.3-.26.45l-.02.08-.08.02-.35.23h-.06c-.11.02-.21.03-.33.03l-.28-.07c-3.89.21-7.82.21-11.71,0l-.28.07c-.11,0-.22,0-.33-.04h-.06s-.35-.22-.35-.22l-.09-.03-.02-.09c-.09-.14-.17-.28-.25-.43l-.03-.23h0Z"/></g></svg>