<?xml version="1.0" encoding="UTF-8"?><svg id="Layer_2" xmlns="http://www.w3.org/2000/svg" viewBox="0 0 351.08 71.39"><defs><style>.cls-1{fill:none;stroke:#fff;stroke-miterlimit:10;stroke-width:.5px;}</style></defs><g id="Layer_1-2"><path class="cls-1" d="m239.41,49.97v15.84h.01v-15.84h-.01Z"/><path class="cls-1" d="m284.84,4.84c-16.16-6.76-49.31-7.2-45.52,18.82,1.4,9.62,9.82,13.47,18.02,16.47,4.32,1.58,11,2.46,13.78,6.54,2.93,4.29.68,9.07-3.91,10.75-9.11,3.32-20.47-2.63-27.8-7.46h.01c7.21,4.76,16.46,9.4,25.42,7.97,4.41-.7,8.58-3.53,7.48-8.62-1.13-5.21-7.12-6.48-11.43-7.97-7.76-2.68-17.64-5.62-20.72-14.15-3.33-9.23.81-19.49,9.44-23.87,10.69-5.43,24.69-2.93,35.25,1.5h-.02Z"/><path class="cls-1" d="m284.84,19.94V4.84h.02v15.1h-.02Z"/><path class="cls-1" d="m288.94,50.64c.33-14.04-10.91-19.06-22.29-22.99-3.84-1.33-10.83-2.7-11.48-7.58-.77-5.76,5.92-6.97,10.2-6.95,7.08.04,13.66,3.02,19.48,6.83h.02c-5.91-3.87-22.56-12.07-28.59-3.96-6.79,9.14,15.19,12.94,19.81,15.13,19.04,9.05,15.93,34.76-4.44,38.82-10.75,2.14-22.32.43-32.22-4.13,12.68,5.84,36.84,9.68,46.26-3.91,2.27-3.28,3.19-7.32,3.26-11.26h0Z"/><path class="cls-1" d="m288.94,50.31c-.11,18.84-20.24,22.2-35.31,19.83-4.92-.77-9.7-2.25-14.22-4.33v-15.84c7.2,4.76,16.46,9.4,25.41,7.97,4.41-.7,8.58-3.53,7.48-8.62s-7.12-6.48-11.43-7.96c-7.76-2.68-17.64-5.61-20.72-14.15-3.33-9.23.81-19.48,9.44-23.87,10.69-5.43,24.69-2.93,35.25,1.49v15.1c-5.27-3.46-26.7-13.43-29.56-1.89-2.18,8.83,19.3,11.67,24.59,15.16,5.96,3.93,9.18,9.94,9.07,17.1h0Z"/><path class="cls-1" d="m239.52,50.16l-.1-.19v15.84c13.4,6.17,41.16,10.14,48.12-7.42,3.87-9.77.18-20.52-8.75-25.85-5.39-3.21-23.98-5.3-23.62-13.43.57-13.08,24.88-2.33,29.7.83l-.1-.18.1.18V4.84c-16.16-6.76-49.32-7.2-45.53,18.82,1.4,9.63,9.82,13.48,18.02,16.48,4.32,1.58,11,2.46,13.79,6.54,2.93,4.29.68,9.08-3.91,10.75-9.11,3.33-20.47-2.63-27.8-7.46l.1.19h0Z"/><path class="cls-1" d="m253.19,32.36c-8.45-3.23-12.15-15.12-3.82-20.87.55-.18,1.1-.38,1.63-.6.33.22.68.36,1.06.43v.4c-.27,1.69-.7,3.37-1.04,5.05l.02.56-.06.25c0,.26-.04.53-.09.79l.1.7v.09c0,.26,0,.53-.02.79.11.25.16.51.15.79.1.25.17.52.2.78.48,2.11,1.63,4.06,3.11,5.62.43.32.81.7,1.14,1.12l.32.2.28.32c.23.11.46.25.66.41l.07.04.52.5.6.27.08.09.13.05.5.42.58.21.12.13.17.05.49.37.71.22.04.04h.04s.61.45.61.45l.64.16.12.07.23.06.46.33.41.07.34.19.74.15.05.04h.04s.65.37.65.37l.54.07.24.12.58.1.19.11h.14s.59.3.59.3l.59.07c.21.12.44.18.69.18l.29.14h.2s.55.27.55.27l.66.11c.31.1.6.21.9.36l.36.06c.39.18.79.33,1.21.43l.1.02c9.93,3.86,16.93,20.97,3.58,25.8-.46,0-.91.08-1.34.22l-.53-.2-.57-.03-.33-.65.16-.54-.02-.42.31-.65.04-.24c1.07-2.32,1.97-4.69,2.14-7.26-.06-.26-.07-.52,0-.78-.06-.26-.07-.52-.02-.78-.33-3.3-1.84-6.35-4.1-8.76-.43-.3-.82-.66-1.14-1.08l-.32-.2-.27-.31c-.23-.11-.45-.25-.65-.41l-.1-.05-.49-.47-.66-.3-.03-.03-.05-.02-.56-.47-.66-.25-.05-.05-.07-.02-.56-.43-.71-.22-.04-.02-.06-.02-.59-.43-.57-.14-.18-.11-.34-.09-.36-.27-.33-.06-.4-.24-.77-.16s-.04-.02-.07-.02l-.64-.38-.5-.07-.28-.15-.64-.12-.14-.09h-.11s-.61-.33-.61-.33l-.59-.09c-.19-.12-.4-.18-.63-.19l-.33-.18-.25-.02-.51-.25-.73-.14c-.28-.1-.55-.23-.8-.38l-.5-.1c-.44-.21-.9-.39-1.37-.54l-.44-.25h0Z"/><path class="cls-1" d="m250.03,32.73c-11.88-6.98-7.38-23.98,5.38-26.4.73-.06,1.45-.11,2.18-.16.34.07.68.08,1.02,0,.32.1.64.12.97.07l.42.13.51.02.48.21.39.05.68.39.11.03.2.14-.22.07c-.23.14-.48.26-.73.36l-.47.61-.14.03c-.25.09-.5.18-.76.25l-.46.36-.2.08-.14.17-.55.19c-.18.2-.4.34-.65.42l-.2.23-.45.2c-.17.2-.38.37-.6.51l-.08.11-.55.33-.38.46-.16.11c-.14.23-.32.42-.53.58-1.61,1.66-2.49,3.87-2.73,6.15.06.25.06.5,0,.75.06.25.07.5.02.75,1.24,9.41,13.32,10.83,20.37,13.82,9.29,3.94,15.96,13.2,11.07,23.44-2.5,5.23-7.81,7.81-13.4,8.09-.34-.02-.7,0-1.04.05-1.51-.03-3.02-.19-4.51-.46l-.12-.07c-.17-.32-.36-.63-.59-.91l-.04-.24c.3-.07.61-.15.91-.23.22-.16.46-.27.73-.34l.43-.41c.32-.1.65-.2.97-.31.2-.17.42-.32.65-.43l.13-.14.56-.21c.18-.19.4-.33.64-.43l.18-.2.46-.21c.18-.19.38-.36.59-.51l.07-.09.55-.34.38-.45.17-.11c.15-.22.33-.41.54-.57,14.34-14.75-14.37-21.38-22.05-25.95h0Z"/><path class="cls-1" d="m249.81,65.43c-1.32-.45-2.54-1.11-3.64-1.97-.26-.36-.52-.72-.79-1.07-.07-.37-.15-.73-.22-1.1l.24-.96.12-.17.77-.53c.37-.03.72-.1,1.07-.2.38.07.76.08,1.14.05,7.07,1.05,13.83,3.38,20.69.03.19-.15.4-.3.6-.44.21-.12.42-.24.64-.35,15.81-12.33-11.66-20.16-18.84-23.88-14.13-7.33-11.79-26.59,3.91-30.14,6.55-1.48,15.07-1.08,21.11,2.02.42.35.84.7,1.27,1.04.17.37.34.73.51,1.1l-.03.32-.39.84-.31.22c-.34.07-.68.16-1.01.27-.36-.03-.72-.02-1.07.04-6.1-.33-11.68-1.68-17.51,1-.19.15-.4.3-.61.44-.21.13-.43.24-.64.35-.15.21-.34.37-.57.48-.15.21-.33.38-.54.53-1.44,1.35-2.25,3.21-2.5,5.15.02.24.03.49.03.73,0,.24,0,.49-.02.73,1.52,11.68,23.01,11.02,29.66,19.51,9.3,11.88.06,25.93-13.17,27.54-6.49.79-13.64.37-19.89-1.56h0Z"/><path class="cls-1" d="m243.66,63.53c-.93-1.53-1.01-3.36-.24-4.99.26-.29.55-.56.86-.81.37-.07.73-.17,1.09-.28.4.06.8.08,1.2.06,7.61,1.43,15.41,4.81,22.91.9.17-.18.38-.31.61-.4,16.61-11.53-15.35-20.17-20.97-23.65-16.59-10.29-5.08-30.14,11.08-31.43,4.45-.35,24.87.3,20.41,8.72-.27.26-.57.5-.9.7-.37.05-.73.12-1.09.22-.38-.06-.77-.07-1.16-.05-6.55-1-13.36-3.14-19.65.13-.18.17-.38.3-.62.38-.17.17-.36.33-.56.47-1.58,1.24-2.57,3.01-2.77,5.01-.01.24-.04.48-.09.71.04.24.07.48.08.72.58,6.52,9.36,8.42,14.39,10.19,6.55,2.31,13.62,4.95,16.99,11.55,7.53,14.78-5.24,25.85-19.08,26.64-6.54.38-17.67.47-22.47-4.8h0Z"/><path class="cls-1" d="m243.03,64.69c-1.68-1.79-1.63-4.46-1.07-6.73.2-.42.4-.83.62-1.24.31-.22.62-.43.95-.62.39,0,.79-.04,1.18-.1,8.23,1.38,16.99,6.4,25.12,1.53,16.88-11.37-20.93-21.22-25.3-25.95-5.19-5.62-5.25-15.14-.93-21.29s12.51-8.23,19.81-8.28c6.24-.04,21.79.87,18.73,10.45-.23.36-.47.72-.72,1.06-.33.17-.67.31-1.02.45-.39-.02-.79-.01-1.18.02-6.99-1.28-14.24-4.15-21.17-.86-.18.17-.38.3-.6.39-.17.17-.38.29-.61.38-1.4,1.16-2.35,2.81-2.61,4.61.01.24.02.48.02.72,0,.24-.02.47-.04.71.78,6.41,9.81,8.07,14.76,9.82,6.5,2.29,13.42,5.08,16.75,11.61,8.01,15.7-5.79,26.97-20.21,27.73-6.98.37-16.73.08-22.47-4.41h0Z"/><path class="cls-1" d="m241.95,64.92c-1.68-2.3-1.27-5.76-.68-8.4.21-.39.42-.78.62-1.18.33-.18.66-.36.99-.53.41.03.83.05,1.25.05,7.44,2.13,21.38,8.73,27.48.53,6.9-9.27-7.29-13.64-13.32-15.83-8.92-3.24-17.82-7.54-18.21-18.28s8.08-18.08,18.44-19.46c8.3-1.11,28.52-.71,24.29,12.16-.25.32-.5.64-.76.96-.37.09-.73.18-1.09.3-.41-.1-.83-.15-1.25-.16-6.79-1.81-14.61-4.87-21.48-1.55-.19.15-.4.27-.64.34-.18.16-.37.31-.57.45-1.4,1.02-2.26,2.51-2.43,4.23-.03.24-.07.47-.11.71.03.24.06.48.08.71.54,6.48,11.12,8.16,16.02,9.93,6.35,2.29,12.82,5.4,15.81,11.87,7.6,16.48-7.08,27.35-22.03,27.96-6.86.28-16.91-.19-22.41-4.8h0Z"/><path class="cls-1" d="m241.74,65.65c-2.39-2.15-1.62-7.37-1.04-10.29.21-.39.4-.79.57-1.19.34-.15.68-.3,1.02-.46.43.12.87.19,1.32.21,7.2,2.68,19.77,8.66,26.76,2.4,10.09-9.05-7.5-14.67-13.43-16.9-9-3.38-17.24-8.09-17.22-18.9.02-11.04,8.61-17.79,18.91-19.14,5.56-.73,11.41-.22,16.84,1.13,7.28,1.81,10.03,4.81,7.94,12.67-.25.31-.5.62-.75.94-.39.03-.78.07-1.16.15-.42-.13-.87-.24-1.31-.31-6.82-2.45-15.51-5.62-22.45-1.82-.18.17-.38.3-.61.39-1.27,1-2.1,2.42-2.35,4.01.03.24.02.49-.03.72.05.24.05.48,0,.72.71,6.31,11.34,7.95,16.12,9.7,6.85,2.5,13.61,5.88,16.34,13.17,6.26,16.74-8.11,26.74-23.02,27.25-7.19.25-16.23-.45-22.45-4.44h0Z"/><path class="cls-1" d="m240.18,64.83c-.61-3.34-.39-7.09.03-10.42.2-.41.36-.84.47-1.28.34-.14.69-.28,1.04-.41.44.17.9.3,1.36.38,7.35,3.39,21.18,9.62,28.04,2.21,9.5-11.7-20.59-16.99-26.12-21.77-15.04-12.99.2-31.4,15.53-32.64,7.14-.57,17.2.14,23.21,4.43,1.13,2.76.7,6.39.47,9.35-.16.49-.26,1-.29,1.51-.25.32-.48.64-.71.97-.41-.04-.82-.05-1.23-.02-.43-.21-.88-.36-1.34-.46-6.69-2.96-16.59-6.4-23.43-1.98-.58.49-1.08,1.05-1.5,1.69-.35.67-.6,1.38-.75,2.13-.01.49-.03.97-.04,1.47.95,6.28,11.22,7.68,16.12,9.45,6.98,2.52,13.91,6.18,16.52,13.61,6,17.07-8.42,26.85-23.53,27.34-6.63.21-19.23-.05-23.85-5.56h0Z"/><path class="cls-1" d="m240.06,65.63s-.02-.02-.03-.02c-.96-3.73-.46-8.19-.21-12.01.17-.46.27-.93.33-1.42.36-.11.71-.23,1.07-.35.44.23.9.43,1.37.57,7.2,3.88,21.42,10.13,28.51,2.83,8.82-11.88-19.13-16.38-24.92-20.59-14.93-10.87-4.27-30.92,11.15-33.55,8.35-1.43,18.95-.37,26.48,3.74l.67.71.03.07c.24,2.72.16,5.48.12,8.22-.05,1.09-.13,2.19-.25,3.28-.21.35-.41.69-.61,1.04-.43-.09-.86-.16-1.29-.21-6.64-3.11-20.95-9.43-26.69-1.48-.56,1.11-.8,2.34-.7,3.57.46,5.72,10.29,7.31,14.52,8.79,6.83,2.39,13.98,5.36,17.34,12.28,8.14,16.75-6.36,28.61-21.76,29.46-8.11.45-18.06-.5-25.11-4.91h0Z"/><path class="cls-1" d="m239.76,65.79l-.14-.1c-.03-.16-.06-.32-.09-.48l.02-.23c-.03-.12-.05-.25-.06-.37l.02-.08c-.08-4.25-.23-8.62.21-12.85l-.06-.06v-.29s.08-.04.08-.04l.33-.33h.34s.17.09.17.09v.06c7.23,3.91,15.48,8.15,24.01,6.94,2.45-.35,4.73-1.04,6.47-2.9,8.98-11.74-24.04-16.98-29.16-24.53-9.41-13.89,3.46-28.29,17.36-29.89,8.4-.96,17.02.71,24.78,3.87.16.14.32.25.51.35l.06.21.15.25c.09,4.24.03,8.5-.13,12.74l.03.05c-.04.19-.07.37-.12.56h0s-.01.02-.01.02c-.17.07-.34.16-.5.25l-.18-.14h-.25s-.05-.06-.05-.06c-.09-.02-.18-.06-.26-.12l-.03-.08c-6.43-3.44-21.74-10.38-27.43-2.15-4.5,8.7,11.42,11.25,16.54,13.18,7.23,2.74,13.91,6.96,15.93,14.92,1.58,6.23.53,13.84-3.8,18.77-4.62,5.27-12.05,6.83-18.73,7.26-7.93.51-16.19-.57-23.55-3.67-.84-.35-1.66-.72-2.46-1.15h0Z"/><path class="cls-1" d="m197.1,27.34v-12.33h0v12.33h0Z"/><path class="cls-1" d="m225.19,27.34h-28.09,0c9.36,0,18.73,0,28.09,0h0Z"/><path class="cls-1" d="m225.19,40.73v-13.39h0v13.39h0Z"/><path class="cls-1" d="m197.1,40.73c9.37,0,18.73,0,28.1,0-9.37,0-18.73,0-28.1,0h0Z"/><path class="cls-1" d="m197.1,56.11v-15.38h0v15.38h0Z"/><path class="cls-1" d="m228.12,56.11h-31.02,0c10.34,0,20.68,0,31.03,0h0Z"/><path class="cls-1" d="m228.12,69.51v-13.39h0v13.4h0Z"/><path class="cls-1" d="m180.79,69.51h47.34c-15.78,0-31.56,0-47.34,0h0Z"/><path class="cls-1" d="m180.79,1.61v53.31c0,4.86,0,9.73,0,14.59V1.61h0Z"/><path class="cls-1" d="m228.12,1.61h-47.33,0c15.78,0,31.56,0,47.34,0h0Z"/><path class="cls-1" d="m227.65,15.01h.49c-10.34,0-20.68,0-31.03,0h0c10.18,0,20.36,0,30.54,0Z"/><path class="cls-1" d="m228.12,15.01V1.61h0v13.39h0Z"/><path class="cls-1" d="m228.13,15V1.61h-47.34c0,17.61,0,35.23,0,52.84v15.06h47.34v-13.4h-31.03v-15.38h28.09v-13.4h-28.09v-12.33h31.03Z"/><path class="cls-1" d="m228.12,14.53v.48h-31.02v12.33h28.09v13.39h-28.09v15.38h31.02v13.39h-47.33V1.61h47.33v12.92h0Z"/><path class="cls-1" d="m188.59,56.59l-.14-.54.09-.38-.1-.26.11-.65-.21-.81v-.09s-.02-.13-.02-.13l.29-.75-.25-.63.05-.24-.09-.35.3-.52-.32-.42.09-.43-.24-.66.12-.2-.17-.13.12-.71-.33-.71v-.13s-.04-.17-.04-.17l.05-.67-.25-.48v-.36s-.13-.46-.13-.46v-.37s-.14-.26-.14-.26v-.57c-.11-.27-.19-.55-.24-.83l-.04-.09c.02-.53-.07-1.05-.26-1.55-.79-5.66-.69-11.11.06-16.75l.24-.83v-.7s.07-.13.07-.13c.02-.28.09-.57.19-.84v-.51s.14-.33.14-.33l-.02-.46.1-.38-.02-.28.22-.57-.08-.77.02-.09v-.06s.23-.8.23-.8l-.07-.63.11-.25-.08-.35.13-.53-.02-.31.18-.59-.06-.87.02-.05v-.1c.13-.36.23-.73.29-1.11.18-.35.33-.72.45-1.1.22-.28.43-.56.65-.84l.61-.43c.36.11.7.26,1.03.45-.05.93-.12,1.88-.22,2.8-.12.42-.25.84-.39,1.25v.39s-.19.5-.19.5l.11.79-.02.09v.05s-.21.83-.21.83l.14.68-.06.19.09.17-.1.69.25.82v.03s0,.02,0,.02l-.03.83.24.55v.29c.13.26.22.55.27.83l.04.07.12.76.19.36.09.47c1.11,2.82,2.89,5.01,4.86,7.27.14.35.31.69.49,1.02-.02.35-.03.71-.05,1.06-.2.33-.38.67-.55,1.01-1.94,2.13-3.82,4.31-4.72,7.09l-.09.14c-.07.3-.15.59-.26.88l-.33.76-.03.3-.27.53-.04.64-.14.19v.4s-.16.44-.16.44v.22s-.3.61-.3.61l.09.78-.08.06.05.1-.29.74.14.61-.27.24.22.27-.18.58.31.86h0s0,0,0,0l-.23.87.32.58-.02.3.34.87v.02s.03.07.03.07l-.03.83.19.38c.15.82.35,1.64.58,2.45-.22.36-.47.71-.73,1.03-.3-.17-.61-.39-.87-.62-.18-.31-.38-.62-.58-.91-.08-.4-.2-.8-.38-1.17v-.22h-.01Z"/><path class="cls-1" d="m185.47,57.46c-.78-14.02-2.77-30.37.02-44.27,1.2-5.97,6.08-7.87,11.6-5.27l.39.47.22.81-.35.33-.29.67-.24.15c-.18.24-.36.48-.55.7v.02s-.59.5-.59.5l-.18.31-.34.31c-3.12,4.38-3.29,13.49.78,17.44.8.65,1.68,1.23,2.6,1.71.51.4,1.07.74,1.67,1,.39.42.8.8,1.25,1.16-.04.4-.07.81-.09,1.21-.49.34-.96.72-1.38,1.15-1.1.57-2.16,1.21-3.19,1.9-5.43,3.71-5.18,16.05-1.76,20.97.18.2.35.43.49.67l.28.22.26.41.54.42.06.15c.23.2.42.43.59.68l.14.09.29,1.07.02.02-.02.03c-.25.23-.5.46-.75.7-.31.11-.6.26-.87.44-5.29,1.77-10.2-.23-10.56-6.18h0Z"/><path class="cls-1" d="m186.15,64.4c-3.69-4.03-2.26-12.95-2.36-18.02-.11-5.29-.31-10.56-.22-15.86.09-5.7-.11-11.56.49-17.23.84-7.94,5.56-8.54,12.73-7.93,6.25.53,13.04.74,19.14,2.24.1.41.19.83.27,1.25-5.62,1.65-11.58,1.07-17.19,2.73l-.25.15-.5.12c-.22.14-.45.25-.7.32l-.27.23-.37.14c-.17.17-.36.33-.54.48-.17.14-.35.28-.53.42-2.59,3.34-2.58,12.4.57,15.43l.14.07.42.36c5.34,2.54,11.42,2.12,16.89,4.21-.06.42-.13.83-.2,1.25-5.34,1.66-11.35,1.43-16.4,3.93-.19.14-.4.26-.63.35-.15.18-.32.32-.53.42-2.96,3.91-3.06,14.09-.4,18.12.19.13.35.3.48.51l.54.32.05.05c.21.13.41.28.6.44l.5.16.2.15c5.05,2.03,10.84,1.78,16.19,2.42.82.33,1.6.75,2.33,1.25-3.92,2.65-10.76,1.86-15.29,2.37s-11.14,2.12-15.15-.83h0Z"/><path class="cls-1" d="m184.63,65.04c-2.92-4.64-1.63-12.39-1.7-17.68-.08-5.95-.24-11.91-.15-17.87.08-5.46-.08-10.99.3-16.44.66-9.59,6.58-9.18,14.77-8.83,6.98.3,18.04-1.55,24.15,2.2.31.37.58.77.78,1.2.04.4.06.8.04,1.2-.18.42-.4.82-.65,1.2-6.17,4.43-17.02.97-24.24,3.01l-.53.31-.11.02c-.18.14-.37.24-.59.3-.12.18-.28.32-.47.41-1.99,3.35-1.7,10.53.03,13.9.18.1.34.24.46.4.21.08.4.18.58.32l.21.05c6.48,2.49,16.16-.6,21.78,3.57.25.38.46.79.64,1.2,0,.4,0,.8-.05,1.2-.2.44-.46.84-.77,1.2-5.91,3.73-14.92,1.14-21.54,3.32l-.24.17-.39.12-.43.39-.05.02c-2.44,3.66-2.39,13.1-.32,16.92.15.16.29.33.41.5l.3.13.26.24c.24.05.46.14.66.26l.24.04c6.31,2.06,20.05-1.71,24.61,3.64.09.4.18.8.26,1.2-.1.4-.2.8-.31,1.2-3.81,3.9-13.59,2.38-18.67,2.57-5.2.19-15.22,2.45-19.27-1.59h0Z"/><path class="cls-1" d="m182.34,57.19c-.17-13.65-.24-27.32-.02-40.97.05-3.5-.24-7.44,1.21-10.7.24-.32.51-.62.79-.9,7.09-4.15,21.96-1.15,29.94-.91,3.57.11,12.55-.36,10.61,5.79-1.43,4.54-9.57,3.38-13.28,3.46-4.61.1-9.6-.26-14.1.87l-.35.25-.24.04-.29.35-.12.08c-1.52,3.31-1.36,9.72.02,13.06.13.15.26.3.38.46l.28.06.32.21c6.6,1.61,14.2-.46,20.61,1.56,4.1,1.29,5.77,5.54,1.36,7.95-2.84,1.55-8.15.81-11.24.93-3.62.14-7.61-.01-11.06,1.14l-.13.11-.42.17c-.22.33-.39.7-.49,1.09-.78,4.51-1.21,10.84.23,15.22.17.1.32.24.43.4.21.07.39.18.55.32l.32.05.35.19c4.61.83,32.02-1.63,26.28,7.96-3.97,3.82-14.72,2.08-19.92,2.19-5.68.11-15.42,2.09-20.28-1.3-1.86-2.5-1.68-6.1-1.75-9.1h0Z"/><path class="cls-1" d="m182.77,66.2c-2.53-6.71-.97-15.9-1.02-23.02-.05-8.36-.04-16.72.04-25.07.04-4.22-.72-9.89,1.28-13.77.3-.23.59-.47.88-.71,5.83-2.3,14.01-.84,20.15-.77,6.11.07,14.79-1.32,20.52,1.18.32.22.61.47.86.76.95,1.94.95,4.23.37,6.29-.2.38-.44.75-.71,1.09-7.19,4.69-19.82.32-28.09,2.19l-.23.29-.18.02.02.19c-.08.17-.16.35-.22.53-.53,3.69-.47,7.78.06,11.48l.16.41-.02.28.2.04.22.26c7.45,1.71,18.8-1.99,25.2,2.32.26.35.5.73.7,1.12.55,2.06.53,4.24-.36,6.18-.25.3-.53.56-.85.79-7.11,3.19-16.55.26-24.09,1.86l-.28.04c-.18.1-.38.19-.57.27-.13.26-.24.54-.34.82-.55,4.57-.96,10.37.13,14.87.14.17.28.34.42.51l.18.04.32.22c8.37,1.39,19.69-1.95,27.4,1.83.26.31.53.62.79.92.74,2.04.74,4.33-.02,6.37-.27.3-.54.6-.8.9-5.33,2.7-14.14,1.3-20.02,1.36-6.33.07-15.32,1.66-21.16-.94-.28-.28-.55-.57-.81-.86l-.11-.28h0Z"/><path class="cls-1" d="m182.51,67.51c-.22-.42-.41-.85-.59-1.28-2.4-14.9-.63-31.63-.54-46.71.03-4.94-.39-10.2.65-15.04.2-.39.43-.75.69-1.1.33-.14.65-.31.95-.51,6.54-1.5,14.01-.54,20.69-.5,6.66.04,14.07-.81,20.59.71.31.18.63.34.96.49.26.34.5.71.71,1.09.57,2.54.65,5.39-.26,7.86-.26.28-.55.55-.85.78-8.63,3.1-19.36-.14-28.35,1.34l-.05.07-.39.05.04.42c-.05.12-.1.24-.13.36-.19,3.74-.26,7.57.08,11.3l.05.13-.04.55.4.08.05.06c8.05,1.24,17.77-1.43,25.46,1.41.31.24.59.51.84.81.86,2.45.77,5.22.25,7.74-.21.39-.44.76-.7,1.12-.32.15-.64.32-.96.5-7.89,1.92-16.5.08-24.53,1.09l-.3.15-.36.06c-.91,4.62-.74,10.47-.16,15.14-.02.14-.03.29-.03.43l.48.3.03.04.44.1.02.02c8.98,1.18,18.8-1.21,27.6,1.11.32.19.62.41.9.65.23.42.43.85.6,1.3.33,2.13.33,4.27-.01,6.41-.17.44-.37.87-.61,1.28-.29.23-.6.44-.9.64-6.57,1.68-14.26.72-21.03.77-6.67.05-14.3,1.13-20.79-.59-.32-.18-.62-.39-.9-.63h0Z"/><path class="cls-1" d="m183.2,68.75c-.33-.1-.66-.23-.97-.38-.24-.36-.47-.73-.67-1.11-2.47-15.69-.43-33.17-.42-49.04,0-4.81-.47-10.03.55-14.75.23-.32.5-.61.8-.86.35-.05.68-.15.99-.29,7.23-.85,14.76-.3,22.04-.28,6.59.02,14.28-.95,20.68.64.32.22.6.48.84.78.78,2.77.64,6,.27,8.83-.17.44-.37.87-.59,1.28-.33.14-.64.3-.95.49-9.23,1.64-18.91-.34-28.18.71-.26-.03-.52-.01-.77.03.01.24.04.47.06.71l-.05.15c-.12,3.93.05,7.88-.02,11.81.26.08.52.1.79.06,8.32.84,17.03-.78,25.28.75.3.19.62.36.94.51.21.43.4.88.56,1.34.32,2.81.47,5.93-.26,8.69-.23.32-.51.59-.83.82-8.34,2.18-17.82-.01-26.38.96-.38,4.79-.33,9.84-.08,14.66-.04.29-.06.58-.06.87l.4.25c.16,0,.31.02.46.08,9.09.11,18.82-.76,27.85.51.34.09.67.21.99.37.26.34.5.69.72,1.06.52,2.86.53,6.05-.01,8.9-.22.35-.47.7-.73,1.02-4.92,1.81-11.74.74-16.95.75-5.51.01-11.02.08-16.52.07-3.25,0-6.56.09-9.79-.39h0Z"/><path class="cls-1" d="m181.24,68.11v-.02c-.04-.57-.1-1.14-.19-1.7-.5-16.46-.14-33.02-.1-49.49,0-4.37-.31-8.91.28-13.23v-.33s.16-.71.16-.71c.26-.2.53-.39.82-.56,13.66-1.71,30.59-1.44,44.27.02.3.14.6.28.89.42.97,3.33.61,7.4.31,10.83-.19.38-.43.72-.72,1.02l-.11-.03c-.29.08-.59.17-.88.26-9.61.74-19.41.17-29.05.31.18,4.15.15,8.4,0,12.55,8.69.27,17.49-.33,26.17.35.29.09.58.17.87.26l.12-.02.22.16c.13.31.29.62.47.91.31,3.4.61,7.39-.29,10.7-.28.17-.58.32-.88.46-8.77.99-17.79.03-26.6.39-.17,5.13.12,10.33-.1,15.48l.27.17c.16-.02.31,0,.46.05.31-.1.63-.1.95-.02,8.96-.22,18.14-.33,27.1.17.33.08.68.13,1.02.16.28.26.56.51.86.75.54,3.48.56,7.43-.02,10.9-.31.22-.61.45-.89.69-10.97,1.46-22.79.37-33.86.35-3.25,0-6.52.04-9.77-.16-.32-.07-.65-.13-.98-.16-.27-.3-.54-.61-.82-.91h0Z"/><path class="cls-1" d="m180.91,68.35l.02-.05c0-.16.02-.31.08-.45-1.75-16.64-.11-34.22-.17-50.97-.02-4.67,0-9.35.07-14.01l.04-.14c-.01-.12,0-.25.02-.37l.14-.24.03-.14c.19-.03.36-.1.52-.21h.03c11.84-.26,23.73-.09,35.58-.08,3.29,0,6.58,0,9.86.09.19.1.4.17.61.2.14.3.21.62.2.94l-.02.05c.21,3.67.37,7.62-.1,11.24v.13c-.18.16-.37.32-.56.48-.13.02-.26.04-.39.04l-.23-.06-.36.1c-9.76.15-19.53.06-29.29.04.13,4.13.09,8.31,0,12.44,8.8.07,17.61-.08,26.4.06l.35.1.26-.05c.12,0,.24.02.36.04.21.14.41.29.6.45v.18c.03.13.06.26.08.39l-.03.05c.27,3.55.2,7.22,0,10.77l.02.04c0,.33-.07.66-.2.96-.21.04-.41.1-.59.2h-.01c-9.05.22-18.13-.08-27.18.12-.07,5.13.07,10.29-.05,15.43l.13.08c.16-.03.32-.02.47.03.31-.06.64-.06.95-.01,9.25-.21,18.97-.67,28.16.13.14-.02.28-.03.43-.03l.06-.02.31.09c.11.08.22.15.33.23.11.43.17.87.16,1.32l-.02.05c.11,3.39.14,6.81-.03,10.19l.03.06c-.02.27-.08.54-.17.8-.19.06-.36.15-.52.27l-.11-.02c-.13.04-.26.06-.39.07l-.3-.06c-11.34.63-22.84.14-34.2.14-3.32,0-6.66.06-9.97-.14l-.3.07c-.11,0-.21-.01-.32-.05h-.09s-.29-.18-.29-.18l-.14-.04-.03-.13c-.07-.12-.14-.23-.21-.35l-.04-.28h0Z"/><path class="cls-1" d="m31.1,56.11V15.01h-.02v41.11h.02Z"/><path class="cls-1" d="m45.61,56.11c-4.84,0-9.69,0-14.53,0,4.84,0,9.69,0,14.53,0Z"/><path class="cls-1" d="m45.61,69.51v-13.39h-.02v13.4h.02Z"/><path class="cls-1" d="m.28,69.51h45.33c-15.12.06-30.24,0-45.36,0h.03Z"/><path class="cls-1" d="m.28,56.11v13.39h-.03v-13.39h.03Z"/><path class="cls-1" d="m14.79,56.11c-4.85,0-9.69,0-14.54,0,4.85,0,9.69,0,14.54,0Z"/><path class="cls-1" d="m14.79,15.01c0,13.7,0,27.4,0,41.11h-.03c0-13.7,0-27.41,0-41.11h.03Z"/><path class="cls-1" d="m.28,15.01h14.51c-4.85-.01-9.69,0-14.54,0h.03Z"/><path class="cls-1" d="m.28,1.61v13.39h-.03V1.61h.03Z"/><path class="cls-1" d="m45.61,1.61c-15.12,0-30.24.06-45.36,0,15.12,0,30.24-.06,45.36,0Z"/><path class="cls-1" d="m45.18,15.01h.43c-4.84-.01-9.69,0-14.53,0,4.7.01,9.4,0,14.11,0Z"/><path class="cls-1" d="m45.61,15.01V1.61h-.02v13.39h.02Z"/><path class="cls-1" d="m45.59,15V1.61H.25v13.4h14.51v41.11H.25v13.4h45.34v-13.4h-14.51V15h14.51Z"/><path class="cls-1" d="m45.61,14.57v.43h-14.51c0,13.7,0,27.4,0,41.11h14.51v13.39H.28v-13.39h14.51c0-13.7,0-27.4,0-41.11H.28V1.61h45.33v12.96h0Z"/><path class="cls-1" d="m17.07,62.17l-.1-.22-.13-.8c.12-.28.19-.58.21-.88,1.89-3.71,2.86-7.51,3.29-11.61l.05-.18c.05-.38.08-.76.1-1.15l.09-.37c0-.34,0-.66.02-1l.12-.52c-.03-.29-.04-.59-.02-.88l.13-.63c-.09-.51-.07-1.01.08-1.51l-.07-.71v-.04s0-.05,0-.05l.12-.7-.07-.65.03-.11-.02-.11.1-.64-.07-.6.03-.15-.03-.16.09-.59-.07-.57.04-.18-.03-.18.08-.57-.08-.56.04-.19-.04-.19.08-.56-.08-.57.04-.18-.04-.18.08-.57-.09-.59.03-.16-.04-.16.07-.6-.1-.63.02-.12-.03-.11.07-.64-.12-.69v-.06s0-.05,0-.05l.07-.7-.14-.73c.01-.26.03-.52.06-.78l-.13-.64c-.01-.29,0-.58.03-.86l-.12-.53c-.02-.33-.03-.64-.02-.98l-.1-.39c-.02-.38-.04-.75-.09-1.13l-.06-.21c-.43-4.06-1.31-7.91-3.24-11.56-.04-.3-.13-.59-.27-.85,0-.32.01-.65.03-.97l.59-.78c2.9-1.92,7.67-1.86,10.65-.13.2.25.41.49.63.71l.09.19c-.01.32,0,.65.04.97-.12.27-.21.56-.27.86-2.2,4.12-3.04,8.61-3.39,13.19l-.03.09c-.09.42-.12.84-.1,1.27l-.06.24c-.02.38-.03.76-.03,1.15l-.08.36c.02.36.02.7,0,1.06l-.1.45.06.5c-.05.16-.05.33-.02.49l-.1.52.07.55c-.03.13-.04.26,0,.39l-.1.56.08.59c-.03.11-.03.21,0,.32l-.1.6.09.61c-.02.09-.02.18,0,.28l-.1.61.1.62c-.02.09-.02.18,0,.27l-.1.62.1.61c-.02.09-.02.19,0,.28l-.09.61.1.59c-.02.11-.02.21,0,.32l-.08.59.1.56c-.03.13-.03.26,0,.39l-.07.55.1.51c-.04.17-.03.34.02.51l-.06.49.1.44c0,.36,0,.7,0,1.06l.08.35c0,.39.01.77.04,1.16l.06.23c-.03.44,0,.86.11,1.29l.02.07c.32,4.65,1.35,9.05,3.48,13.25.05.3.11.59.2.88-.08.34-.15.68-.23,1.02h0c-2.68,2.5-8.11,2.39-11.1.52l-.52-.52h0Z"/><path class="cls-1" d="m12.59,63.37l-.15-.14c-.05-.38-.11-.75-.19-1.12.27-.29.49-.61.66-.96.37-.21.69-.49.94-.83l.08-.04c.19-.15.39-.28.59-.41l.24-.28.3-.18.45-.49h.02c.13-.18.29-.31.47-.43,3.46-4.14,2.66-11.76,2.74-16.8.11-6.52.16-13.1-.28-19.6-.22-3.25-.32-6.7-2.41-9.38-.19-.11-.34-.26-.45-.44-.18-.13-.35-.28-.49-.45l-.13-.07-.38-.42-.48-.29-.1-.13c-.27-.25-.55-.47-.86-.67-.2-.36-.47-.67-.79-.92,0-.36-.05-.72-.13-1.07,3.69-4.32,17.56-4.21,21.29-.01-.04.36-.08.72-.12,1.08-.31.27-.58.58-.79.92-.37.2-.69.47-.96.81h-.01c-.19.14-.39.27-.59.39l-.27.32-.25.15-.45.51h0c-6.2,6-3.34,26.42-2.93,34.56.2,3.88.01,8.95,2.98,11.88l.13.09.34.4.42.27.12.15c.21.13.4.28.56.46l.22.12.35.42.59.41c.19.33.42.66.65.97-.03.38-.11.76-.21,1.12-4.58,3.7-16.09,3.62-20.73.12h0Z"/><path class="cls-1" d="m9.39,65.07c-.63-.31-1.22-.71-1.75-1.16-.16-.36-.3-.74-.42-1.12.11-.37.23-.73.36-1.09.41-.36.83-.7,1.26-1.04,1.34-.54,2.67-1.07,4.01-1.58.42-.11.82-.27,1.19-.48l.13-.11.45-.18.44-.37.05-.02c.13-.14.28-.26.45-.34.1-.16.23-.3.38-.41,2.51-4.28,1.58-11.42,1.61-16.22.05-6.13.1-12.3-.15-18.43-.12-2.82-.01-5.92-1.43-8.45-.14-.13-.26-.28-.36-.44-.18-.08-.32-.2-.44-.35-.18-.09-.35-.22-.49-.37l-.23-.09-.32-.25c-2.14-.87-4.38-1.5-6.3-2.83-.21-.35-.41-.72-.59-1.08.05-.37.11-.74.16-1.11,4.58-5.12,26.32-5.08,30.93-.01.07.37.13.74.2,1.11-.19.36-.39.73-.59,1.08-1.66,1.18-3.58,1.76-5.44,2.5-.34.11-.67.24-.99.41l-.21.17-.35.14-.44.41h-.02c-.12.15-.26.27-.43.36-3.11,4.29-1.82,12.59-1.83,17.69s-.03,9.99.08,14.99c.08,3.39-.43,8.28,1.83,11.06.16.11.3.25.41.41l.17.08.32.3.58.25h0c1.73.83,3.55,1.45,5.33,2.18.43.33.84.68,1.25,1.04.12.36.24.73.36,1.09-.14.37-.28.75-.42,1.12-6.2,5.21-21.61,3.41-28.74,1.15h0Z"/><path class="cls-1" d="m4.54,63.79c-1.15-4.99,6.07-5.06,9.22-5.91l.42-.23.18-.04c.16-.12.34-.2.53-.26l.16-.17.27-.15c2.51-4.11,1.36-11.18,1.39-15.79.03-6.33.12-12.68-.08-19.01-.08-2.53.07-5.26-.98-7.61-.13-.13-.23-.28-.3-.46l-.14-.08-.26-.28-.48-.19-.05-.04c-.2-.07-.4-.17-.58-.29l-.61-.13c-2.89-.77-9.5-.94-8.79-5.39.58-3.61,6.27-3.54,9.07-3.8,6.39-.59,12.9-.6,19.29.05,3.21.33,10.1.69,8.29,5.72-1.83,2.83-6.31,2.76-9.3,3.59l-.49.29h-.07c-.15.13-.32.21-.51.27-.1.15-.23.27-.39.36-2.47,4.43-1.26,11.98-1.27,16.97-.01,5.18-.08,10.38.03,15.56.07,3.21-.43,7.36,1.29,10.18l.36.23.06.07c.18.08.35.18.5.32l.32.08.27.17c2.99.88,7.77.71,9.33,3.87,1.89,7.27-33.82,9.02-36.68,2.1h0Z"/><path class="cls-1" d="m5.14,66.86c-3.48-1.65-2.69-6.33.04-8.11,2.17-1.42,6.49-.98,9-1.56l.29-.18.26-.04c.11-.14.25-.25.41-.32,2.15-4.39.97-11.74.99-16.63.02-5.21,0-10.41-.06-15.62-.03-3.19.41-6.93-.89-9.88-.17-.08-.29-.16-.42-.27h-.05s-.45-.28-.45-.28l-.61-.11h-.03c-3.77-.8-13.68-.78-10.46-7.51,1.84-3.84,9.02-3.09,12.69-3.23,5.58-.23,21.96-2.45,26.01,2,6.38,6.99-6.95,8.06-10.48,8.9l-.33.23-.19.07c-.08.15-.19.26-.33.35-2.46,5.86-.87,14.99-.89,21.28s-1.57,15.06.93,20.61v.04s.04,0,.04,0l.32.35.38.09.16.12c4.3,1.16,15.34.94,10.61,8.7-3.83,3.42-13.35,2.29-18.25,2.31-6,.04-12.91.42-18.72-1.29h0Z"/><path class="cls-1" d="m5.71,67.96c-.98-.07-1.89-.4-2.67-.98-1.51-2.07-1.48-5.14-.62-7.51.2-.32.43-.62.69-.88,3.33-1.88,7.82-1.15,11.52-1.87l.23-.21h.2s0-.18,0-.18l.19-.39c1.81-10.22.47-21.9.4-32.3-.02-2.88.26-6.05-.59-8.8v-.07s-.12-.05-.12-.05c-.09-.12-.21-.22-.35-.28l-.37-.05-.1-.06c-3.54-.61-7.62-.03-10.89-1.68-.27-.25-.51-.52-.72-.82-.95-2.37-.98-5.42.43-7.58C9.71-.2,25.83,2.38,33.72,2.7c2.95.12,6.36-.06,8.99,1.38,1.68,2.11,1.58,5.58.45,7.95-.22.28-.47.52-.77.72-3.35,1.49-7.3.92-10.83,1.62h0s-.62.22-.62.22c-.09.11-.18.23-.27.34-.08.15-.15.32-.18.48-.91,6.51-.37,13.46-.36,20.03.02,6.7-.66,13.87.39,20.49l.16.33v.24s.27.02.27.02l.12.14c.32.1.63.17.96.19,3.42.56,7.32.08,10.49,1.61.27.23.52.49.74.78.92,2.21.9,4.83.06,7.06-.22.29-.46.57-.72.82-4.6,2.46-12.7,1.44-17.82,1.48-6.3.04-12.8.16-19.06-.64h0Z"/><path class="cls-1" d="m1.92,67.29c-1.05-2.7-1.09-6.38.06-9.05.27-.2.54-.41.8-.62,3.7-1.25,7.91-.61,11.74-1.16l.03-.03.45-.02v-.39s.09-.18.09-.18c1.06-12.69,1.92-28.21-.1-40.78v-.26s-.26-.1-.26-.1h-.19s-.15-.08-.15-.08c-3.8-.53-7.76-.03-11.48-1.07-.28-.17-.56-.35-.83-.54-1.28-2.59-1.21-6.33-.25-9.04.23-.27.48-.52.74-.76,5.73-2.05,13.78-1.02,19.8-1.03,6.4,0,14.51-.95,20.67.94.28.19.55.41.79.65,1.09,2.52.97,5.75.36,8.4-.2.34-.41.68-.64,1-.29.15-.58.3-.86.46-3.77.93-7.71.33-11.49,1.09h-.24s-.11.33-.11.33l-.1.12c-.05.12-.09.24-.11.37-.49,10.27-.21,20.64-.15,30.92.02,3.14-.05,6.29.21,9.41l.05.1v.45c.18.03.37.04.56.03,3.77.61,7.81.01,11.51,1.09.27.19.55.37.83.53.22.35.42.71.59,1.09.46,2.35.45,4.82.04,7.18-.16.39-.34.77-.56,1.14-.28.19-.55.39-.81.59-6.13,1.76-13.61.88-19.95.88-6.33,0-14.24,1.07-20.28-.97-.25-.23-.51-.46-.78-.68h0Z"/><path class="cls-1" d="m1.04,67.17c-.42-2.89-.43-5.96.03-8.84.17-.36.37-.69.62-1,.3-.1.59-.23.87-.39,3.78-.63,7.63-.25,11.42-.6.32.02.64.02.96,0,.54-13.75.47-27.74,0-41.49l-.19-.08c-3.99-.16-8.09,0-12.05-.58-.29-.13-.58-.24-.89-.32-.26-.27-.49-.57-.68-.89-.55-2.86-.49-5.95-.14-8.83.15-.41.32-.81.51-1.2.26-.2.54-.37.84-.48,11.89-2.15,28.98-1.96,40.93-.05.3.11.6.23.88.38.22.34.42.69.6,1.04.46,3.01.58,6.43-.18,9.39-.21.29-.46.53-.75.73-4.03,1.06-8.66.62-12.82.8l-.15.44c0,.09,0,.17.02.26l-.04.17c-.09,2.9-.09,5.82-.06,8.73-.09,8.15-.06,16.31-.01,24.46.01,2.5.05,5,.08,7.5.33.03.66.04.99,0,3.73.33,7.52,0,11.24.55.29.13.59.24.89.31.27.25.5.53.7.83.62,3,.61,6.4.05,9.41-.19.32-.41.63-.66.92-.29.11-.59.23-.88.36-10.11,1.55-21.19.52-31.4.4-3.08-.04-6.25.1-9.3-.45-.28-.15-.56-.3-.85-.44-.23-.34-.42-.7-.58-1.08h0Z"/><path class="cls-1" d="m.82,68.29l-.11-.19c-.39-3.49-.42-7.22.04-10.71.22-.27.47-.52.76-.73,4.32-.69,8.99-.46,13.38-.4-.09-13.79-.06-27.58,0-41.36l-.13-.05c-4.34.06-8.89.26-13.19-.35-.28-.16-.52-.36-.74-.6-.1-.24-.13-.48-.1-.72-.49-3.23-.34-6.72-.05-9.98.19-.34.39-.68.6-1.01C11.55-.06,24.12,1.71,34.64,1.77c3.22.02,6.55-.17,9.73.35.24.27.48.53.71.8.48,3.48.7,7.82-.21,11.22-.26.15-.53.29-.81.41-4.29.48-8.72.32-13.05.3l-.1.29c.29,10.32,0,20.71.01,31.05,0,3.35.06,6.72-.02,10.06,4.36-.05,8.91-.19,13.23.35.27.18.56.36.85.52l.02.05c.63,3.51.63,7.69.02,11.2-.28.19-.54.4-.8.62-10.5,1.47-21.92.39-32.52.33-3.13-.02-6.28.02-9.41-.21-.28-.1-.58-.16-.88-.18l-.59-.66h0Z"/><path class="cls-1" d="m.65,69.11v-.06c-.1-.13-.18-.27-.25-.41l-.02-.18.02-.03c0-.14.02-.28.08-.41-.39-3.37-.13-6.85-.11-10.24v-.04c0-.19.02-.37.05-.56l-.02-.07c.11-.18.17-.37.19-.57.17-.05.33-.13.48-.24h.02c.1-.02.21-.04.32-.04,4.47-.11,8.95-.1,13.43-.06-.02-10.54-.02-21.09-.02-31.64,0-3.2,0-6.4.02-9.6l-.06-.03c-4.56.03-9.13.02-13.68-.09-.13-.1-.29-.17-.46-.21l-.02-.07-.16-.26c-.02-.1-.02-.21-.01-.31l-.05-.2c-.13-3.68-.22-7.47.08-11.15l-.04-.04c.02-.11.03-.23.04-.34.08-.15.19-.29.31-.41.35-.07.71-.12,1.08-.13l.06.03c11.03-.37,22.11-.1,33.15-.08,3.18,0,6.38-.09,9.54.15l.16-.03c.1.04.2.09.3.13l.29.23c.38,3.8.27,7.8.07,11.62l.02.04c0,.3-.07.59-.19.86-.19.04-.37.1-.55.19h0c-4.53.14-9.09.1-13.64.09l-.05.15c.11,10.65.02,21.33.02,31.98,0,3.04,0,6.09-.02,9.13,4.55-.02,9.11-.07,13.65.08.18.08.38.16.57.21.05.16.12.33.2.48l.02.21-.02.04c.17,3.55.15,7.12.03,10.67l.02.04c0,.4-.06.79-.18,1.17-.17.05-.33.13-.48.24h-.08c-.12.02-.23.04-.36.05l-.26-.05c-10.92.62-22.01.15-32.95.12-3.18,0-6.38.07-9.56-.14l-.24.06c-.1,0-.2,0-.29-.03h-.04s-.32-.21-.32-.21l-.06-.02h0Z"/><path class="cls-1" d="m72.53,25.26c6.28,14.75,12.56,29.5,18.84,44.25h-.01c-6.28-14.75-12.56-29.5-18.84-44.25h.02Z"/><path class="cls-1" d="m72.53,69.51V25.26h-.02v44.25h.02Z"/><path class="cls-1" d="m57.92,69.51h14.6-.02c-4.87,0-9.74,0-14.61,0h.02Z"/><path class="cls-1" d="m57.92,1.61v67.89h-.02V1.61h.02Z"/><path class="cls-1" d="m74.99,1.61h-17.09c5.69,0,11.38,0,17.07,0h.02Z"/><path class="cls-1" d="m93.73,45.84c-6.25-14.74-12.49-29.49-18.74-44.23h-.02c6.25,14.74,12.5,29.48,18.74,44.23h.01Z"/><path class="cls-1" d="m93.73,1.61v44.23h-.01V1.61h.01Z"/><path class="cls-1" d="m108.34,1.61h-14.62c4.87,0,9.74,0,14.61,0h.01Z"/><path class="cls-1" d="m107.84,69.51h.5-.01c-5.66,0-11.31,0-16.97,0h.01c5.49,0,10.98,0,16.47,0Z"/><path class="cls-1" d="m108.34,69.51V1.61h-.01v67.9h.01Z"/><path class="cls-1" d="m108.33,69.51V1.61h-14.61v44.24c-6.25-14.75-12.5-29.49-18.74-44.24h-17.07v67.91h14.61V25.26c6.28,14.75,12.56,29.5,18.84,44.26h16.97Z"/><path class="cls-1" d="m108.34,69v.51h-16.97c-6.28-14.75-12.56-29.5-18.84-44.25v44.25h-14.6V1.61h17.07c6.25,14.74,12.49,29.49,18.74,44.23V1.61h14.6v67.39h0Z"/><path class="cls-1" d="m91.76,53.98c-.52-3.73,4.27-4.86,6.67-6.67.54-.2,1.09-.37,1.64-.51.35.2.69.42,1.02.65.2.41.42.82.66,1.21,1.14,3.68,1.51,8.78-1.06,11.96-.33.26-.68.5-1.03.72-4.43,1.79-7.48-3.72-7.89-7.36h0Z"/><path class="cls-1" d="m67.07,24.05l-.98.27c-.35-.2-.69-.42-1.02-.65-.2-.41-.42-.82-.66-1.21-1.15-3.68-1.51-8.77,1.03-11.98.33-.26.67-.51,1.02-.74,3.93-1.65,7.73,3.05,7.94,6.73.26,4.57-3.56,4.96-6.67,7.34l-.67.24h0Z"/><path class="cls-1" d="m89.53,53.67c-.24-1.13-.26-2.3-.08-3.43l.35-.65.5-.52c.37-.1.72-.23,1.05-.4.96-.13,1.91-.29,2.85-.5.23-.16.47-.29.74-.38.21-.19.44-.34.7-.45,1.17-1.13,2.1-2.5,2.64-4.03l.16-.24.24-.84.04-.05c.1-.3.22-.6.37-.89l.02-.18.38-.71.04-.45.34-.44.05-.78.2-.1v-.36s.3-.52.3-.52v-.15s.68-.51.68-.51l-.11.66.75.41v.48s.46.82.46.82v.07s.03.1.03.1l.04.79.29.49v.39c.14.28.22.58.26.89l.11.2c0,.54.12,1.06.34,1.55.81,4.82,2.44,12.23.08,16.85-4.8,9.38-12.43-1.45-13.82-7.1h0Z"/><path class="cls-1" d="m64.45,32.48l-.47-.83v-.05s-.03-.07-.03-.07l-.04-.81-.29-.51v-.38c-.16-.28-.23-.58-.25-.89l-.12-.22c0-.54-.12-1.06-.34-1.55-.85-4.81-3.04-15.03,1.12-18.88,7.03-6.5,13.89,6.92,12.73,12.75l-.28.49-.6.59c-.37.08-.72.2-1.06.36-.95.11-1.9.26-2.84.47-.23.16-.47.29-.73.38-.21.19-.44.34-.7.45-.99.99-1.8,2.12-2.41,3.38l-.22.66-.16.23-.25.85-.03.04c-.11.3-.24.6-.38.89l-.02.19-.38.7-.04.46-.33.42-.06.8-.17.08v.3s-.34.58-.34.58v.16s-.68.48-.68.48l.1-.64-.74-.42v-.46h.01Z"/><path class="cls-1" d="m90.28,59.38c-1.66-3.64-3.1-7.56-2.99-11.61.22-.51.47-1,.74-1.48.45.08.92.08,1.38,0l.22.15c.3.09.59.21.87.34h.35s.5.32.5.32l.71.09.18.11.8.06.08.03.74-.05c.2-.14.43-.23.69-.26.17-.19.35-.36.55-.52,2.58-3.2,2.45-8.43,2.54-12.34.27-6.79-.04-13.63.71-20.38.14-.49.25-1,.31-1.51.22-.44.37-.9.44-1.39.26-.34.5-.71.71-1.08.39-.15.78-.31,1.16-.49l.52.07c.31.27.63.52.97.74.15.42.36.82.62,1.19.08.48.23.95.42,1.4,0,.54.07,1.07.23,1.59.02.55.07,1.1.16,1.64,0,.56.04,1.12.11,1.67-.03.52-.01,1.03.05,1.55-.03.59,0,1.19.07,1.78-.07.59-.05,1.18.05,1.77.11,6.91.22,13.76.73,20.67.42,5.75,3.09,19.61-4.09,22.1-5.06,1.75-8.63-2.06-10.54-6.17h0Z"/><path class="cls-1" d="m65.21,61.74l-.52-.07c-.3-.27-.62-.52-.96-.75-.15-.42-.36-.82-.62-1.19-.09-.48-.23-.95-.42-1.4.02-.54-.06-1.08-.23-1.59-.02-.55-.07-1.1-.16-1.64-.1-1.66-.18-3.31-.23-4.97.06-.59.04-1.18-.05-1.77-.16-8.75-.68-17.39-1.13-26.17-.19-3.79-.94-9.59.74-13.16,2.59-5.49,9.47-4.44,12.72-.24,2.92,3.77,4.86,10.09,4.62,14.8-.23.47-.5.92-.8,1.36-.46-.12-.93-.15-1.41-.08l-.22-.16c-.29-.1-.58-.22-.86-.36l-.36-.02-.48-.3-.72-.1-.16-.1-.81-.07-.07-.03-.74.04c-.2.14-.43.23-.68.26-.17.19-.35.37-.54.52-2.57,3.21-2.46,8.43-2.53,12.34-.27,6.8-.04,13.63-.71,20.41-.15.49-.25,1-.31,1.51-.22.44-.37.9-.44,1.39-.26.34-.5.71-.71,1.08-.39.15-.78.3-1.17.47h0Z"/><path class="cls-1" d="m62.03,63.31c-.17-.45-.35-.9-.53-1.35-2.87-13.31-1.4-29.28-1.54-42.9-.04-4.07-.5-9.08,1.5-12.77.29-.3.58-.61.87-.91,15.61-8.82,19.02,21.59,22.14,30.48l.13.19.22.69c1.65,3.37,3.72,6.48,6.47,9.08l.47.21.23.26c.26.07.5.19.72.35h.17s.55.22.55.22l.27-.02.4-.24h.18s0-.05,0-.05l.06-.1.46-.31c5.57-10.59-.71-26.07,2.68-37.45.22-.41.43-.82.63-1.24.29-.3.59-.59.89-.88,1.02-.52,2.15-.64,3.25-.34.37.18.74.37,1.1.56.27.33.54.66.81,1,.18.45.35.9.53,1.35,2.89,13.38,1.4,29.46,1.55,43.15.04,4.01.44,8.93-1.52,12.55-.29.3-.58.6-.88.91-14.73,8.26-16.74-16.04-19.94-24.19-.26-1.79-.94-3.48-1.78-5.08l-.06-.31-.05-.08-.23-.81c-1.66-3.71-3.92-7.15-6.88-9.99l-.5-.23-.2-.23c-.26-.08-.49-.2-.71-.36l-.19-.02-.52-.2-.29.02-.43.26h-.14s0,.04,0,.04l-.05.09-.48.33c-5.56,10.66.75,26.05-2.68,37.48-.22.41-.43.82-.63,1.23-.29.3-.59.59-.9.87-1.02.51-2.15.63-3.25.33-.37-.18-.73-.37-1.1-.57-.27-.33-.54-.66-.81-1h0Z"/><path class="cls-1" d="m60.01,60.24c-.65-14.12-.7-28.41-.7-42.57,0-3.92-.5-9.11,1.58-12.58.29-.28.61-.54.94-.77,16.89-7.1,20.22,20.86,24.82,31.49,1.52,3.51,3.17,7.09,5.67,10.02l.39.15.22.31.63.14.04.07.59-.02v-.24s.31-.52.31-.52c4.29-11.93-1.11-26.29,1.95-38.63.21-.42.42-.84.63-1.25.31-.28.62-.55.93-.81,2-.91,4.39-.91,6.29.22.29.31.57.63.84.95,2.91,6.8,1.31,16.52,1.36,23.84.04,7.18.31,14.35.37,21.54.04,4.36.76,10.58-1.58,14.47-.3.28-.61.53-.94.76-16.78,6.99-20.07-20.76-24.7-31.33-1.57-3.58-3.24-7.21-5.78-10.21l-.42-.17-.2-.29-.64-.15-.03-.06-.59.03v.23s-.31.54-.31.54c-4.32,11.93,1.13,26.32-1.95,38.66-.21.42-.42.83-.64,1.24-.31.27-.62.54-.93.81-2,.9-4.39.9-6.29-.24-.29-.31-.57-.63-.84-.96-.62-1.47-.95-3.07-1.03-4.67h0Z"/><path class="cls-1" d="m60.2,65.92c-2.72-6.6-1.12-16.63-1.14-23.7-.02-7.33-.15-14.65-.2-21.99-.03-4.92-.49-10.31.83-15.08.24-.38.49-.75.75-1.12.34-.19.67-.38,1.01-.58,3.55-.99,8.64-1.26,12.1.14,4.11,3.67,5.89,11.06,7.8,16.12,2.18,5.78,4.37,11.53,6.87,17.19,1.4,3.18,2.71,6.39,4.84,9.16l.42.1.13.25.49-.02v-.44s.19-.31.19-.31c.01-.28.08-.55.2-.8,1.37-12.64-2-26.74,1.22-39.06.21-.41.44-.81.68-1.21.31-.25.64-.48.97-.69,2.43-.75,5.22-.76,7.6.16.3.28.59.57.89.85.19.45.39.9.57,1.35,2.62,14.31.81,30.61.9,45.16.03,4.76.44,9.97-.85,14.58-.25.37-.5.75-.75,1.12-.34.19-.68.38-1.01.57-3.55.98-8.67,1.3-12.09-.22-7.72-7.39-10.37-23.61-14.68-33.32-1.4-3.16-2.71-6.34-4.82-9.1l-.44-.1-.12-.23-.49.02v.43s-.19.32-.19.32c0,.28-.07.55-.2.81-1.33,12.6,2.04,26.83-1.23,39.08-.21.41-.44.8-.68,1.2-.31.25-.64.48-.98.69-2.43.75-5.22.76-7.6-.18-.3-.29-.59-.57-.89-.86l-.12-.29h0Z"/><path class="cls-1" d="m59.81,67.33c-.22-.43-.43-.87-.62-1.31-2.74-15.09-.71-32.47-.72-47.82,0-4.52-.53-9.76.82-14.11.25-.34.53-.65.84-.93,3.8-1.38,9.94-1.44,13.78-.17.28.27.56.54.84.8,6.2,9.68,9.32,21.95,13.87,32.48,1.4,3.24,2.72,6.55,4.58,9.56l.22.05.22.42.4-.02v-.64s.06-.09.06-.09c0-.25.03-.49.12-.72.52-12.84-1.97-27.71.95-40.24.24-.37.5-.73.76-1.09.34-.19.68-.35,1.04-.48,2.73-.54,5.75-.57,8.45.11.34.19.67.4.97.65.22.43.43.86.62,1.3,2.8,15.05.72,32.5.73,47.82,0,4.53.55,9.8-.83,14.15-.25.33-.53.64-.85.92-3.76,1.34-8.79,1.09-12.7.51-.36-.14-.71-.27-1.07-.41-.27-.28-.54-.56-.81-.84-6.18-9.78-9.32-21.99-13.93-32.58-1.38-3.17-2.73-6.41-4.53-9.37l-.24-.06-.21-.39-.39.02v.63s-.06.1-.06.1c.01.25-.03.49-.12.73-.51,12.84,1.98,27.74-.95,40.26-.25.36-.5.72-.77,1.08-.34.18-.69.34-1.05.48-2.73.54-5.75.57-8.44-.12-.34-.19-.67-.41-.97-.66h0Z"/><path class="cls-1" d="m59.45,68.26c-.25-.38-.49-.77-.7-1.17-2.42-15.31-.51-32.37-.53-47.88,0-4.82-.15-9.7.29-14.5.16-.52.31-1.05.46-1.58.29-.27.6-.48.95-.65,4.32-.84,10-1.07,14.29-.02.27.28.54.56.81.84,5.96,10.46,9.64,22.61,14.36,33.67,1.23,2.89,2.42,5.87,3.96,8.62h.01s.32.59.32.59h.3c.31-10.58.14-21.15.2-31.72.02-3.62-.2-7.39.58-10.94.29-.29.58-.58.87-.87,3.2-.78,6.85-.66,10.1-.2.36.1.7.24,1.04.4.25.38.49.77.71,1.16,2.58,15.52.5,33.05.51,48.79,0,4.55.11,9.11-.27,13.64-.16.52-.31,1.04-.46,1.57-.29.26-.61.47-.96.64-4.2.81-8.94.68-13.19.27-.36-.11-.73-.22-1.09-.32-.26-.3-.52-.59-.78-.89-5.75-10.63-9.6-22.49-14.36-33.59-1.24-2.9-2.44-5.86-3.96-8.62h-.04s-.3-.57-.3-.57h-.29c-.29,10.87-.09,21.73-.19,32.59-.03,3.33.19,6.84-.6,10.09-.29.29-.58.58-.88.86-3.21.77-6.85.66-10.1.19-.36-.11-.7-.24-1.04-.41h0Z"/><path class="cls-1" d="m58.38,68.02h0c-1.85-16.89-.36-34.78-.33-51.77,0-4.05-.16-8.16.19-12.2l-.02-.16c.14-.34.23-.71.27-1.07l.22-.43c.35-.12.7-.26,1.04-.41,4.74-.39,9.95-.55,14.67.06.26.28.52.57.78.85,5.19,11.32,9.75,22.95,14.63,34.41,1.25,2.94,2.47,5.89,3.84,8.78h.2c.03-10.81,0-21.61.03-32.4.01-3.58-.4-7.56.5-11.04.35-.16.69-.34,1.02-.56,3.45-.35,7.02-.28,10.48-.09.34.08.69.13,1.04.16.29.32.58.63.87.95v.02c0,.58.07,1.16.19,1.73.41,15.98.16,32,.16,48,0,4.81.04,9.65-.19,14.44-.14.33-.24.68-.27,1.03l-.23.44c-.35.12-.7.25-1.04.4-4.48.36-9.06.24-13.54.1-.37-.09-.75-.16-1.12-.21-.23-.32-.48-.64-.73-.94-5.19-11.36-9.79-23.01-14.72-34.48-1.23-2.87-2.44-5.75-3.79-8.57h-.2c0,10.87.01,21.73-.03,32.58-.01,3.55.39,7.45-.52,10.89-.36.15-.7.33-1.02.54-3.46.34-7.02.28-10.48.08-.34-.08-.69-.14-1.04-.17-.29-.32-.57-.64-.86-.96h0Z"/><path class="cls-1" d="m58.33,69.09l-.04-.14c-.08-.12-.15-.25-.22-.37l-.04-.29.02-.05c0-.16.02-.32.09-.48-1.82-16.22-.21-33.54-.19-49.88,0-4.59-.12-9.21.12-13.78-.08-.53-.08-1.06-.01-1.59.1-.18.18-.37.24-.57.29-.05.57-.12.86-.19l.17.03c4.81-.08,9.66-.05,14.48-.08.31.04.62.07.94.1h.02c.09.06.17.14.22.24l.03.1c.06.08.12.16.18.25v.08c5.13,11.05,9.61,22.47,14.34,33.69,1.38,3.27,2.72,6.57,4.17,9.81h.1c-.02-11.24-.03-22.48-.01-33.72,0-3.06-.02-6.13.12-9.19l-.05-.09c0-.11.02-.22.05-.32v-.08c.08-.18.14-.36.17-.56.29-.04.57-.12.83-.24l.14.03c.24-.06.48-.06.71.02,3.62-.16,7.3-.19,10.92.04l.32-.08c.14,0,.28.03.41.07l.14-.02c.17.19.34.39.5.59l.15.45c-.02.1-.02.2,0,.3l-.03.15c.19,17.22.09,34.47.09,51.72,0,4.3-.04,8.61-.05,12.9-.04.24-.06.48-.06.73-.1.18-.18.36-.24.56-.29.06-.57.12-.86.19l-.17-.03c-4.89.08-9.83.07-14.73.06-.21-.04-.42-.07-.63-.09l-.03-.02-.19-.26-.03-.09c-.06-.08-.11-.17-.16-.26v-.07c-5.11-10.92-9.53-22.22-14.23-33.31-1.44-3.39-2.82-6.82-4.37-10.16h-.1c0,11.07.02,22.14,0,33.21,0,3.09.03,6.18-.08,9.26l.04.08c0,.18,0,.36,0,.54-.12.29-.2.59-.23.9-.29.04-.57.12-.84.23l-.14-.02c-3.85.06-7.78.19-11.64-.06l-.31.08c-.11,0-.23-.01-.34-.05h-.09s-.31-.19-.31-.19l-.15-.04h0Z"/><path class="cls-1" d="m114.85,1.61c4.64,17.67,9.29,35.34,13.93,53.01,1.3,4.96,2.61,9.93,3.91,14.89h0c-4.64-17.61-9.26-35.23-13.89-52.85-1.32-5.02-2.64-10.04-3.96-15.05h0Z"/><path class="cls-1" d="m131.35,1.61h-16.51c5.5,0,11,0,16.5,0h0Z"/><path class="cls-1" d="m143.39,53.49c-4.02-17.29-8.03-34.58-12.05-51.87h0c4.02,17.29,8.03,34.58,12.05,51.88h0Z"/><path class="cls-1" d="m155.48,1.61c-4.03,17.29-8.06,34.58-12.09,51.87h0c4.03-17.29,8.06-34.59,12.09-51.88h0Z"/><path class="cls-1" d="m171.98,1.61h-16.5c5.5,0,11,0,16.5,0h0Z"/><path class="cls-1" d="m153.69,69.51h.45,0c-7.15,0-14.3,0-21.45,0h0c7,0,14,0,21,0Z"/><path class="cls-1" d="m154.14,69.51c4.63-17.63,9.26-35.25,13.9-52.88,1.32-5.01,2.63-10.01,3.95-15.02h0c-4.63,17.62-9.27,35.25-13.9,52.88-1.32,5.01-2.63,10.01-3.95,15.02h0Z"/><path class="cls-1" d="m154.25,69.07l-.11.44h-21.45c-4.64-17.61-9.26-35.23-13.89-52.84-1.32-5.02-2.64-10.03-3.96-15.05h16.5c4.02,17.29,8.03,34.58,12.05,51.87,4.03-17.29,8.06-34.58,12.09-51.87h16.5c-4.61,17.55-9.23,35.11-13.84,52.66-1.3,4.93-2.59,9.87-3.89,14.8h0Z"/><path class="cls-1" d="m114.84,1.61l.13.1-.13-.1c4.64,17.67,9.29,35.34,13.93,53.01,1.3,4.96,2.61,9.93,3.91,14.89h21.45c4.63-17.63,9.27-35.26,13.9-52.89,1.32-5.01,2.63-10.01,3.95-15.02l-.13.1.13-.1h-16.5c-4.03,17.29-8.06,34.59-12.09,51.88-4.02-17.29-8.03-34.59-12.05-51.88h-16.5Z"/><polygon class="cls-1" points="158.53 21.8 158.52 21.67 159.16 21.04 159.14 20.96 159.25 20.99 159.23 21.04 159.23 21.06 158.76 21.81 158.78 21.97 158.19 22.4 158.53 21.8 158.53 21.8"/><polygon class="cls-1" points="158.22 24.18 158.21 24.13 158.34 24.06 158.27 24.18 158.27 24.2 158.1 24.37 158.22 24.18 158.22 24.18"/><polygon class="cls-1" points="128.44 22.59 128.44 22.59 128.43 22.57 128.44 22.59 128.44 22.59 128.44 22.59 128.44 22.59 128.44 22.59"/><path class="cls-1" d="m135.62,58.7c-.34-1.38-.55-2.79-.64-4.21.13-.7.17-1.42.13-2.13l.7-.73.07-.23.19.14c.68.66,1.41,1.29,2.17,1.88.46.61,1.03,1.11,1.68,1.49l.07.03.55.47.68.26.05.04c.24.08.47.19.69.31.89.26,1.81.28,2.71.04.22-.11.45-.21.67-.32.25-.09.49-.18.74-.27l.44-.37.21-.08c1.45-1.13,2.76-2.45,4.02-3.8l.48.43.48.2c-.05.67.01,1.35.18,2-.14,4.56-1.34,9.01-6.2,10.19-4.4,1.07-8.9-.8-10.07-5.33h0Z"/><path class="cls-1" d="m131.32,47.43c-2.59-11.32-9.5-24.84-8.49-36.57.17-.45.33-.89.49-1.34.28-.26.57-.52.86-.78.39-.12.78-.2,1.19-.24.6.13,1.16.37,1.68.7,4,4.06,4.7,12.26,5.88,17.6,1.31,5.94,2.38,11.98,4,17.85.94,3.41,1.83,7.09,4.38,9.7l.54.27.08.09c.22.06.42.16.59.31.54.17,1.09.19,1.64.04.19-.11.38-.22.58-.31l.02-.02.61-.29c4.39-4.27,5.13-12.35,6.4-18.07,1.35-6.11,2.58-12.27,4.18-18.32.85-3.21,1.71-8.2,5.19-9.51.43-.02.86,0,1.28.09.32.21.63.43.94.65.19.41.38.81.57,1.22,1.51,9.91-4.73,22.87-7.24,32.4-2.31,8.78-3.87,29.87-18.67,22.05-5.41-2.86-5.41-12.22-6.68-17.51h0Z"/><path class="cls-1" d="m130.24,48.82c-1.64-6.85-3.6-13.61-5.41-20.41-1.58-5.93-5.06-14.13-3.64-20.27.19-.38.41-.75.65-1.1,7.62-6.31,10.34,10.87,11.3,15.01,1.59,6.83,3.03,13.69,4.69,20.5.9,3.7,1.55,8.04,3.93,11.14.18.15.34.31.48.49l.3.1.23.23c.38.07.75.08,1.13.03l.18-.18.36-.11c.14-.18.29-.34.47-.48,4.15-4.91,4.84-14.37,6.22-20.52,1.51-6.69,2.71-13.59,4.81-20.13,1.22-3.8,3.87-9.7,8.86-6.26.25.32.49.65.72.99,2.75,9.13-4.64,24.56-7.03,33.52-2.91,10.93-3.24,29.92-19.63,25.16-6.85-1.99-7.09-11.73-8.62-17.7h0Z"/><path class="cls-1" d="m130.33,52.69c-3.02-11.77-6.43-23.47-9.22-35.3-.8-3.41-2.34-7.83-.94-11.22.25-.29.52-.56.8-.81,12.27-6.64,15.51,27.7,17.3,35.22.99,4.15,1.63,8.91,3.79,12.64l.29.26.14.25c.16.12.31.25.44.41.27.05.55.07.82.05.12-.16.26-.3.43-.4l.05-.1.41-.35c7.1-12.25,6.4-29.43,11.05-42.74,1.6-4.59,4.72-7.9,9.95-5.37.28.24.57.48.85.71,2.37,4.52-1.03,12.46-2.23,17.07-1.44,5.54-2.93,11.07-4.39,16.61-1.54,5.82-2.96,11.67-4.48,17.5-1.97,7.52-3.88,10.51-12.11,10.49-10.08-.03-11.02-6.33-12.96-14.92h0Z"/><path class="cls-1" d="m130.47,55.88c-3.11-12.95-6.87-25.72-10.04-38.65-.89-3.62-2.36-7.77-1.6-11.51.19-.36.42-.7.69-1.02,2.56-1.61,6.85-1.72,9.49-.22,4.19,4.22,4.76,13.78,6.07,19.42,1.43,6.17,2.81,12.35,4.26,18.51.87,3.69,1.54,7.66,3.3,11.05l.41.32s.02.04.02.07c.18,0,.35,0,.53.02.13-.13.28-.23.45-.3,5.86-10.81,6.69-26.18,9.65-38.07.88-3.55,1.45-8.01,3.91-10.85,2.58-1.68,6.84-1.48,9.5-.08.26.29.51.58.76.88,1.93,6.78-2.84,17.24-4.59,23.86-2.08,7.88-4.19,15.75-6.2,23.65-1.14,4.45-1.79,10.08-4.64,13.79-3.71,2.64-13.31,2.15-17.4.49-.27-.21-.55-.43-.81-.66-2.18-3.02-2.8-7.14-3.75-10.67h0Z"/><path class="cls-1" d="m130.43,57.44c-3.53-13.62-7.29-27.19-10.67-40.85-.88-3.56-3.06-8.83-1.49-12.34.27-.23.54-.46.83-.67,3.02-1.02,7.44-1.29,10.38.08.26.25.51.5.76.75,5.74,10.74,6.79,26.04,9.57,37.85.86,3.63,1.52,7.47,2.98,10.91l.17.13c.08.15.14.31.17.47h.44s.11-.3.11-.3l.26-.17c5.01-11.39,6.32-25.47,9.21-37.57.88-3.7,1.57-7.7,3.29-11.11.23-.28.47-.55.71-.82,2.84-1.57,7.33-1.2,10.37-.3.3.16.59.35.87.56.26.36.47.75.62,1.17.63,7.82-3.42,17.2-5.4,24.71-2.08,7.88-4.17,15.76-6.21,23.65-1.13,4.39-1.77,10.22-4.59,13.86-.29.18-.58.36-.88.52-4.86,1.3-12.38,1.42-17.2-.08-.29-.18-.57-.38-.84-.59-1.93-2.81-2.61-6.6-3.44-9.86h0Z"/><path class="cls-1" d="m129.43,54.97c-3.33-13.27-7.05-26.43-10.37-39.69-.88-3.53-2.43-7.59-1.88-11.25.26-.28.5-.57.74-.86,3.34-1.24,8.54-1.36,11.91-.2.26.24.52.48.78.72,5.52,11.43,6.78,26.6,9.66,38.95.8,3.43,1.48,6.93,2.64,10.26v.09c.11.24.2.48.27.73h.35s.23-.61.23-.61l.06-.04c4.06-12.21,6.12-25.33,9.08-37.85.89-3.76,1.58-7.77,3.17-11.31.23-.27.47-.55.71-.82.31-.14.62-.28.93-.42,3.44-.6,7.64-.67,10.99.37.26.24.53.48.8.72,1.78,6.9-3.47,18.21-5.25,24.98-2.2,8.34-4.41,16.68-6.57,25.04-1.16,4.47-2.06,9.22-3.92,13.46-.23.29-.46.58-.68.86-.31.14-.61.28-.92.42-5.37.97-12.36,1.07-17.7-.06-.3-.15-.6-.32-.88-.5-2.39-3.66-3.03-8.81-4.15-12.99h0Z"/><path class="cls-1" d="m129.6,56.59c-3.45-13.62-7.2-27.17-10.7-40.78-.97-3.78-2.12-7.62-2.55-11.51l.16-.83.31-.58c.3-.14.59-.29.87-.46,3.82-.76,8.58-.82,12.39-.03.27.22.54.44.82.65,5.08,11.75,6.48,26.22,9.41,38.68.86,3.64,1.62,7.33,2.68,10.92l.02.35c.11.21.18.43.22.66h.26c4.12-12.48,6.18-25.95,9.22-38.74.92-3.87,1.65-7.9,3.06-11.63.24-.27.48-.53.73-.79.32-.09.65-.18.96-.29,3.71-.37,7.75-.45,11.44.16.29.13.59.26.9.36l.52.73.11.35c-.37,8.35-3.9,17.18-6.01,25.23-2.12,8.09-4.27,16.18-6.38,24.27-1.26,4.82-2.27,9.82-4.06,14.48-.23.29-.46.57-.69.85-.32.09-.63.19-.94.29-5.8.63-12.29.69-18.08-.03-.32-.11-.63-.24-.93-.38-.2-.32-.41-.65-.62-.97-1.29-3.57-2.14-7.31-3.12-10.98h0Z"/><path class="cls-1" d="m129.56,57.08c-3.59-13.97-7.37-27.88-10.99-41.84-1.04-4.01-2.54-8.24-2.76-12.38v-.03s.81-.65.81-.65c.32,0,.62-.06.91-.18,4.19-.32,8.54-.38,12.72-.01.27.18.56.34.85.48,4.81,12.6,6.57,27.14,9.65,40.28.8,3.41,1.73,6.83,2.36,10.27.09.19.15.38.18.58h.18c3.37-12.87,6.11-25.96,9.13-38.94.93-3.98,1.79-7.99,2.96-11.9.25-.26.51-.5.78-.74,4.38-.51,9.28-.51,13.66.08.26.16.52.32.79.47h.09s.1.16.1.16c.03,8.2-4.05,17.61-6.13,25.51-2.19,8.33-4.4,16.65-6.58,24.99-1.31,5.01-2.51,10.09-4.07,15.02-.23.28-.47.56-.71.84-.32.05-.63.1-.95.15-6.09.25-12.29.26-18.39-.01-.32-.1-.65-.18-.98-.24-.18-.34-.38-.67-.59-.99-1.12-3.61-2.03-7.29-3-10.94h0Z"/><path class="cls-1" d="m129.93,58.84c-3.96-14.55-7.67-29.18-11.5-43.77-1.07-4.09-2.26-8.18-3.07-12.33l-.04-.04-.02-.26c.06-.12.13-.25.19-.37l.02-.08s.08-.02.13-.02c.15-.08.31-.15.48-.19l.03-.02h.34s.07.03.07.03c4.54-.21,9.12-.2,13.66-.06l.05-.03c.1,0,.21.02.31.04h.06c.16.09.34.15.53.17.06.21.16.41.28.59,3.06,13.08,6.09,26.17,9.16,39.25.88,3.75,1.82,7.51,2.59,11.28.07.16.12.33.14.51h.09c3.32-13.22,6.2-26.57,9.29-39.85.88-3.76,1.76-7.53,2.68-11.28.09-.11.15-.24.19-.37.09-.1.19-.18.3-.24h.04c.1-.03.19-.06.29-.08l.08.04c4.73-.23,9.49-.07,14.22,0l.06.03h.07c.21.07.4.11.61.14.08.15.17.3.28.43-.03.13-.05.26-.04.39l-.09.18c-1.57,8.8-4.42,17.53-6.69,26.19-2.3,8.78-4.62,17.56-6.92,26.34-1.19,4.54-2.2,9.21-3.71,13.65l-.07.09-.17.12c-.13.01-.26.04-.39.08l-.29-.07c-6.45.45-13,.08-19.46.1-.26-.06-.53-.09-.79-.1h0s-.01,0-.01,0h0c-1.33-3.35-2.05-7.01-2.96-10.49h0Z"/><path class="cls-1" d="m332.28,69.51c0-14.15,0-28.29,0-42.44v-12.15h.02v54.59h-.02Z"/><path class="cls-1" d="m315.96,69.51c5.45,0,10.89-.02,16.34,0-5.45,0-10.89.02-16.34,0h0Z"/><path class="cls-1" d="m315.96,14.92c0,14.15,0,28.29,0,42.44,0,4.05,0,8.1,0,12.15h.02V14.91h-.02Z"/><path class="cls-1" d="m297.45,14.92c6.18,0,12.36.01,18.54,0-6.18,0-12.36-.01-18.54,0h0Z"/><path class="cls-1" d="m297.45,1.61v13.31h.02V1.61h-.02Z"/><path class="cls-1" d="m350.79,1.61h-53.34.02c13.87,0,27.74,0,41.61,0h11.75-.03Z"/><path class="cls-1" d="m350.4,14.92c.14.02.28.01.42,0-6.18,0-12.36-.01-18.54,0h18.12Z"/><path class="cls-1" d="m350.79,14.92V1.61h.03v13.3h-.03Z"/><path class="cls-1" d="m350.82,14.91V1.61h-53.35v13.31h18.52v54.6h16.32V14.91h18.52Z"/><path class="cls-1" d="m350.79,14.53v.39h-18.52v54.59h-16.31c0-14.15,0-28.29,0-42.44v-12.15h-18.52V1.61h53.34v12.91h0Z"/><path class="cls-1" d="m322.59,45.95h0s.08-.69.08-.69l-.13-.63s0-.09,0-.13l.08-.63-.12-.59c.02-.07.01-.15,0-.22l.08-.58-.11-.55c.02-.1.02-.19,0-.29l.08-.54-.1-.52c.03-.12.02-.23,0-.35l.07-.51-.09-.49c.03-.14.03-.27,0-.41l.07-.49-.09-.47c.04-.15.03-.31,0-.46l.07-.46-.08-.44c.04-.17.04-.34,0-.52l.06-.43-.08-.41c.04-.19.04-.39-.01-.58l.06-.4-.07-.38c.05-.22.04-.43-.02-.65l.05-.36-.07-.34c.05-.25.05-.49-.02-.74l.04-.31-.06-.29c.06-.29.05-.57-.03-.85l.03-.25-.05-.23c.07-.33.05-.66-.05-.99l.02-.17-.04-.15c.06-.4.03-.79-.07-1.17v-.06s0-.05,0-.05c-.16-5.64-1.08-11.34-3.74-16.41-.02-.28-.1-.55-.22-.8,0-.31.04-.62.13-.92l.47-.56c2.93-1.98,8.37-2.08,11.18.2l.24.33c.09.3.14.62.16.93-.09.26-.16.53-.22.8-1.96,3.91-2.96,7.88-3.39,12.21l-.02.09c-.08.38-.12.76-.11,1.15l-.06.25c0,.47-.04.94-.13,1.39.04.47,0,.93-.1,1.39.06.47.04.93-.08,1.39.08.47.06.93-.06,1.39l.07.68h0s0,.02,0,.02l-.11.68.07.62-.02.07v.08s-.09.62-.09.62l.06.58-.03.12.02.13-.09.57.06.54-.03.16.03.17-.08.53.06.5-.04.19.03.2-.07.49.06.47-.05.22.04.23-.07.46.05.44-.05.25.04.26-.06.43.05.41-.06.28.05.3-.06.4.04.38-.07.32.05.33-.06.36.04.34-.08.35.06.38-.05.32.03.3-.09.4.06.43-.04.26.02.24-.11.45.07.5-.03.19.02.17-.13.52.07.6c-.02.06-.02.12-.01.19l-.16.61.06.67-.02.03v.05s-.19.66-.19.66l.03.47-.13.24.03.36-.11.34v.22s-.3.49-.3.49v.56s-.41.15-.41.15l-.18.58-.61-.44v-.15s-.22-.41-.22-.41v-.31s-.16-.12-.16-.12l.02-.59-.25-.55v-.16s-.05-.22-.05-.22l.04-.48-.15-.36.03-.35-.11-.44.03-.26-.08-.2.05-.5-.14-.6.02-.1-.03-.08.07-.61-.15-.69h0Z"/><path class="cls-1" d="m320.54,55.12c-1.35-11.3.16-22.83-.81-34.17-.26-3.11-.5-6.57-2.93-8.81l-.08-.05-.36-.39-.36-.22-.14-.16c-.19-.11-.37-.24-.52-.39l-.24-.11-.3-.31c-.23-.15-.47-.29-.72-.42-.25-.34-.57-.62-.93-.84-.08-.33-.19-.66-.32-.97,3.94-4.4,18.68-4.37,22.69-.02-.17.3-.26.63-.3.98-.33.21-.63.47-.89.77l-.05.07c-.39.17-.73.42-1.02.73-.2.11-.41.23-.6.35l-.29.3-.2.11c-.14.16-.29.3-.46.42-.11.16-.26.29-.45.37-3.82,4.15-2.82,12.07-2.93,17.32-.13,6.58-.02,13.16-.21,19.74-.11,3.73.12,8.07-1.72,11.45-.23.24-.44.49-.66.74-.27.18-.55.34-.84.48-.37.03-.74.06-1.11.09-.3-.13-.6-.26-.9-.39-.24-.22-.48-.44-.72-.65-.17-.3-.35-.6-.54-.89-.65-1.63-1.01-3.4-1.07-5.15h0Z"/><path class="cls-1" d="m319.24,57.37c-.69-10.66-.23-21.38-.45-32.06-.08-3.59.39-8.36-1.63-11.49-.14-.1-.27-.21-.37-.35-.15-.1-.29-.22-.4-.36l-.17-.07-.3-.25c-.19-.05-.37-.13-.54-.23-2.9-1.34-6.2-1.48-9.1-2.88-.31-.32-.59-.66-.86-1.02.02-.34.06-.69.1-1.03,5.55-5.41,21.37-3.52,28.42-2.6,2.93.38,6.63.5,8.87,2.59.06.34.1.69.13,1.03-.27.36-.56.7-.87,1.02-2.83,1.37-6.03,1.61-8.93,2.77l-.12.09-.43.15-.45.35h-.01c-.13.12-.28.22-.45.29-.1.15-.22.27-.37.36-4,6.03-1.8,18.41-1.83,25.35-.02,5.92,1.89,18.17-1.37,23.36-4,6.38-8.53-.15-8.87-5.01h0Z"/><path class="cls-1" d="m317.92,23.07c-.02-2.84.16-6.09-1.06-8.72-.12-.11-.23-.23-.32-.37l-.4-.22-.03-.03c-.17-.07-.33-.17-.47-.3l-.38-.1-.17-.1c-3.13-.94-8.6-.16-11.23-2.13-5.08-3.82.92-6.16,4.58-6.68,8.57-1.22,17.48-1.04,26.09-.44,3.26.23,12.07-.36,11.88,4.65-1,4.65-9.78,3.46-13.33,4.68l-.22.04c-.16.1-.33.17-.51.22l-.17.15-.28.12c-.09.14-.2.27-.32.38-2.95,5.51-1.27,15.2-1.29,21.32-.01,5.32.05,10.64-.04,15.96-.08,4.81.4,19.21-8.76,14.53-5.43-2.77-3.45-16.15-3.46-21.22,0-7.25.08-14.51-.13-21.76h0Z"/><path class="cls-1" d="m318.4,64.79c-3.6-11.88-.91-27.51-1.04-39.82-.04-3.3.31-7.06-.72-10.22-.11-.12-.21-.25-.3-.39l-.08-.03-.3-.25-.45-.11-.07-.05c-4.35-1.18-14.35.85-15.21-5.06-.98-6.77,10.14-5.49,14.21-5.65,6.13-.24,33.77-3.13,33.67,5.1-.08,6.43-10.66,4.56-15.05,5.51l-.23.12-.31.05c-.13.12-.28.2-.44.27-.09.12-.2.22-.33.3-1.79,5.19-.79,12.22-.81,17.67-.03,7.47.05,14.94-.09,22.41-.07,3.52.29,7.92-1.38,11.13-2.28,2.44-7.92,2.38-10.41.26-.29-.38-.52-.8-.67-1.25h0Z"/><path class="cls-1" d="m317.9,66.13c-2.28-7.06-.97-16.15-.95-23.5,0-5.59,0-11.19-.02-16.78-.02-3.6.25-7.44-.49-10.96-.06-.13-.15-.25-.26-.34l-.31-.12-.05-.05c-.18-.04-.36-.1-.53-.19-4.67-.71-10.58.51-14.81-1.74-.26-.22-.48-.47-.67-.75-.96-2.3-.98-5.3.37-7.42,4.68-3.13,13.89-1.65,19.29-1.74,5.81-.09,11.62.02,17.43.19,3.44.1,7.52-.27,10.73,1.17.27.18.51.4.71.65,1.15,2.31,1.21,5.55-.26,7.72-4.11,2.7-10.7,1.13-15.43,2.01-.16.13-.34.21-.54.25-2.28,5.94-.71,14.85-.72,21.18s.04,13.11-.07,19.67c-.06,3.68.49,8.21-1.34,11.5-.24.21-.49.4-.75.58-3.03,1.17-7.83,1.33-10.68-.35-.21-.27-.42-.55-.62-.83l-.05-.14h0Z"/><path class="cls-1" d="m317.1,66.15c-1.91-12.62-.51-26.35-.53-39.06,0-3.98.31-8.18-.31-12.1l-.15-.31h-.2s-.25-.1-.25-.1l-.27-.03-.23-.09c-4.88-.37-10.3.4-15.01-1.02-.25-.19-.5-.36-.76-.52-.2-.32-.39-.65-.54-1-.52-2.58-.63-5.49.3-7.98.21-.25.44-.48.69-.68,5.61-2.24,13.65-1.01,19.59-1.07s12.25.03,18.38.13c3.34.06,6.9-.18,10.15.68.26.16.52.3.79.43.23.26.44.55.62.85.72,2.64.78,5.82-.21,8.38-.24.21-.48.43-.71.64-4.76,1.83-10.61.62-15.63,1.23-.02,0-.05-.01-.07-.01l-.59.19v.1c-.12.2-.19.42-.23.66-.76,13.82-.07,27.79-.23,41.63-.04,3.25.16,6.72-.72,9.88-.18.29-.39.57-.61.83-.27.12-.54.27-.8.42-3.39.83-8.07,1-11.35-.26-.24-.21-.48-.44-.69-.67-.14-.38-.29-.77-.42-1.15h0Z"/><path class="cls-1" d="m316.72,67.13c-1.69-13.32-.39-27.48-.41-40.89,0-3.76.06-7.52-.12-11.27l-.11-.24h-.54s-.04-.02-.04-.02c-5.17-.42-10.45.19-15.59-.58-.27-.11-.54-.21-.82-.32-.23-.24-.45-.5-.65-.77-.66-2.91-.57-6.13-.15-9.08.15-.35.32-.7.52-1.02.27-.12.53-.27.78-.43,12.02-2.47,26.27-.63,38.52-.52,3.57.03,7.44-.29,10.91.62.24.19.48.39.72.58.9,2.94.72,6.42.27,9.44-.14.35-.32.68-.54.99-.27.13-.53.27-.79.42-5.08,1.01-10.51.27-15.66.63-.13-.05-.25-.07-.39-.06l-.44.14v.37c-.06.1-.1.21-.12.33-.15,13.44-.03,26.89-.09,40.34-.02,3.93.42,8.33-.66,12.14-.24.2-.48.41-.71.62-3.75,1.02-8.85.89-12.64.1-.24-.18-.5-.33-.77-.47-.18-.34-.34-.7-.48-1.06h0Z"/><path class="cls-1" d="m316.62,68.42l-.23-.43c-1.27-14.18-.25-28.87-.27-43.11,0-3.31-.04-6.62-.01-9.93l-.07-.16c-5.64-.01-11.55.36-17.15-.36-.24-.18-.5-.35-.76-.5l-.09-.25v-.12c-.65-3.35-.48-7.18-.1-10.56.17-.29.39-.56.64-.79.28-.02.56-.08.81-.2,12.46-1.03,25.31-.28,37.81-.23,3.98.02,8.03-.14,11.99.27.25.15.52.26.8.31.17.35.32.71.46,1.08.22,3.35.32,6.81-.11,10.14-.21.25-.44.5-.66.74-.28.04-.57.11-.84.19-5.35.38-10.98.49-16.33.18l-.29.09c-.34,12.67-.08,25.4-.08,38.07,0,4.89.11,9.8-.18,14.68-.11.32-.22.65-.3.98l-.1.17c-.29.08-.55.2-.8.36-4.23.45-8.74.4-12.98.04-.25-.13-.52-.2-.81-.22l-.35-.48h0Z"/><path class="cls-1" d="m316.11,67.75c-.29-13.48-.07-27-.07-40.49,0-4.11-.01-8.22.02-12.33l-.04-.08c-5.8.03-11.65.2-17.44-.1l-.04.02c-.09-.03-.19-.04-.29-.04-.14-.08-.28-.14-.43-.19-.06-.13-.09-.27-.09-.41l-.1-.24c-.11-3.75-.18-7.56,0-11.31l.11-.28c0-.07.02-.15.04-.22.15-.07.28-.17.39-.29.12,0,.23-.02.35-.04l.19.05c13.21-.85,26.68-.16,39.92-.14,3.76,0,7.6-.18,11.34.21l.18-.06c.09.04.19.08.28.12v.02s.18.42.18.42h0c.04.13.08.26.11.39.11,3.83.28,7.79-.11,11.6-.13.09-.25.18-.36.29l-.18.07c-5.82.37-11.82.27-17.64.08l-.15.05c0,8.05-.02,16.1,0,24.16-.04,9.73-.1,19.49-.07,29.19-.03.15-.05.32-.05.49-.1.17-.18.34-.25.52-.23.04-.45.09-.67.16h-.06c-4.65.09-9.38.26-14.03-.08l-.19.05c-.12-.02-.23-.03-.35-.03-.14-.09-.26-.21-.35-.36-.01-.17-.06-.33-.13-.48v-.02c0-.23-.01-.46,0-.7h0Z"/></g></svg>