<?xml version="1.0" encoding="UTF-8"?><svg id="Layer_2" xmlns="http://www.w3.org/2000/svg" xmlns:xlink="http://www.w3.org/1999/xlink" viewBox="0 0 603.91 459.39"><defs><style>.cls-1{fill:url(#linear-gradient);}</style><linearGradient id="linear-gradient" x1="302.36" y1="513.13" x2="301.79" y2="113.21" gradientUnits="userSpaceOnUse"><stop offset=".07" stop-color="#7b7b99"/><stop offset="1" stop-color="#fff" stop-opacity="0"/></linearGradient></defs><g id="Layer_1-2"><path class="cls-1" d="m431.07,351.61c-4.12-6.58-15.33-26.8-36.22-32.24-19.52-5.09-26.9,8.06-46.63,2.09-19.7-5.96-22.91-22.27-43.36-25.47-9.85-1.54-18.34.8-23.48,2.7-23.82-7.23-51.54-20.31-72.28-45.68-39.52-48.35-20.59-100.9-60.44-128.15-28.43-19.44-51.12-1.63-71.06-24.64-19.18-22.14-6.02-47.65-26.14-73.11C37.58,9.54,16.42,2.85,0,0c1.42,152.17,2.83,304.34,4.25,456.51,148.84.96,297.68,1.92,446.52,2.88,51.04-1.44,102.09-2.88,153.14-4.32-114.75-44.53-157.38-78.78-172.83-103.46Z"/></g></svg>