<?xml version="1.0" encoding="UTF-8"?><svg id="Layer_2" xmlns="http://www.w3.org/2000/svg" viewBox="0 0 629.08 94.26"><defs><style>.cls-1{fill:none;stroke:#fff;stroke-miterlimit:10;stroke-width:.5px;}</style></defs><g id="Layer_1-2"><path class="cls-1" d="m326.18,65.31v21.44h0v-21.44h0Z"/><path class="cls-1" d="m386.28,6.37c-21.26-8.98-65.04-9.63-60.25,24.65,1.8,12.93,12.84,18.03,23.83,22.11,5.59,2.07,14.6,3.21,18.07,8.66,3.71,5.82.42,11.6-5.58,13.69-11.89,4.14-26.69-3.87-36.17-10.16h0c9.36,6.2,21.5,12.56,33.2,10.73,5.7-.89,11.25-4.17,9.99-10.86s-9.07-8.44-14.58-10.36c-10.37-3.62-23.44-7.42-27.61-18.82-4.51-12.34,1.2-25.99,12.72-31.76,14.09-7.06,32.53-3.74,46.4,2.12h0Z"/><path class="cls-1" d="m386.28,26.84V6.37h0v20.47h0Z"/><path class="cls-1" d="m391.66,66.67c.51-19.78-16.05-25.55-31.58-31.18-4.15-1.5-11.13-3.03-12.53-7.99-2.23-7.9,7.25-9.85,12.93-9.84,9.38,0,18.14,4.11,25.81,9.18h0c-7.52-4.97-30.12-16.36-37.68-5.34-7.81,11.38,17.17,15.6,22.94,17.98,24.9,10.28,27.78,45.11-.64,52.3-14.68,3.71-31.13,1.28-44.74-5.03h0c16.79,7.77,48.65,12.85,61.15-5.16,3.01-4.34,4.24-9.7,4.33-14.93h0Z"/><path class="cls-1" d="m391.66,66.24c-.12,24.99-26.88,29.46-46.84,26.25-6.45-1.04-12.72-3-18.64-5.74v-21.44c9.36,6.2,21.5,12.56,33.19,10.73,5.7-.89,11.25-4.17,9.99-10.86s-9.07-8.44-14.58-10.36c-10.37-3.62-23.43-7.42-27.61-18.82-4.51-12.34,1.2-25.98,12.72-31.76,14.09-7.06,32.52-3.74,46.4,2.12v20.47c-6.11-4.04-38.27-18.59-38.94-1.55-.43,10.71,24.65,13.45,31.6,17.83,8.26,5.21,12.89,13.26,12.72,23.11h0Z"/><path class="cls-1" d="m326.31,65.55l-.13-.24v21.44c18.25,8.44,56.22,13.5,64.2-11.53,4.43-13.9-1.83-27.27-14.51-33.81-6.68-3.45-28.26-5.73-28.54-15.64-.5-17.67,33.07-2.83,38.96,1.07l-.12-.24.12.24V6.37c-21.26-8.98-65.04-9.63-60.26,24.65,1.8,12.93,12.84,18.04,23.84,22.11,5.59,2.07,14.6,3.21,18.08,8.66,3.71,5.82.42,11.6-5.58,13.69-11.89,4.14-26.69-3.87-36.18-10.16l.13.24h0Z"/><path class="cls-1" d="m343.18,42.22c-10.52-4.79-14.69-22.18-2.35-27.79.62-.03,1.24-.12,1.84-.27l.34.3c.15.46.31.92.49,1.37v.07c-.85,2.49-1.5,5.03-1.75,7.64l.07.52-.08.53c.09.35.09.7.02,1.05.12.34.16.69.1,1.05.1.34.2.69.27,1.04.59,3.22,2.36,6.17,4.68,8.46.31.18.58.4.8.68.27.23.53.49.75.76l.59.34.25.28c.33.12.62.32.85.59l.33.15.5.48.74.31.18.14.21.08.63.54.77.26.19.13.28.09.6.47.64.17.33.21.57.16.37.28.36.07.59.36.99.22s.1.05.15.05l.81.48.63.1.39.2.88.17.16.09h.12s.84.43.84.43l.74.11c.31.17.64.27,1,.27l.34.17.24.02.76.35.85.14c.42.13.82.28,1.23.47l.43.07c.53.27,1.09.45,1.68.55h.02c12.89,5.05,23.84,26.2,6.48,34.18-.66.17-1.31.36-1.96.59-.56-.11-1.11-.08-1.66.09l-.57-.44-.7-.28-.1-.6.14-.24.18-1.02.25-.36.27-.82c1.43-2.68,2.41-5.61,2.77-8.62-.05-.35-.01-.7.1-1.04-.07-.35-.07-.69,0-1.04-.09-.34-.11-.69-.05-1.04-.13-.34-.18-.68-.17-1.03-.65-4.16-2.79-7.79-5.71-10.78l-.7-.5-.11-.14c-.31-.17-.57-.4-.77-.7l-.34-.19-.45-.48c-.34-.1-.64-.26-.89-.5l-.1-.04-.7-.63-.93-.39h-.01s-.02-.02-.02-.02l-.81-.64c-.33-.11-.66-.23-.98-.35h-.04s-.81-.61-.81-.61l-.82-.23-.18-.11-.3-.09-.6-.43-.56-.12-.42-.25-.83-.2-.18-.13-.16-.02-.78-.45-.82-.15-.22-.11-.47-.1-.51-.3-.39-.05-.61-.31-.97-.18c-.38-.12-.7-.26-1.06-.49l-.57-.08c-.42-.25-.87-.39-1.36-.42l-.16-.08h-.12c-2.03-.74-4.01-1.57-5.96-2.51h0Z"/><path class="cls-1" d="m339,42.51c-15.49-10.59-6.56-33.41,10.81-34.46.47.07.93.05,1.4-.07.44.06.9.05,1.34,0l.14.04,1.15.02.07.03,1.16.14.12.07,1.03.25c.29.28.64.48,1.04.58l.74.74c-.66.18-1.26.39-1.88.66l-.8.69c-.37.1-.74.2-1.1.3-.28.22-.6.38-.95.46l-.46.42-.43.13c-.28.21-.59.36-.93.44l-.58.54-.24.1c-.25.23-.54.4-.88.51l-.42.46-.37.2c-.2.29-.46.53-.76.71l-.1.15-.68.51c-1.91,2.14-3.27,4.72-3.63,7.57-.04.33-.1.67-.17.99.08.33.1.67.05,1,.08.33.09.66.03,1,3.35,21.06,60.31,16.59,40.33,50.1-3.78,6.35-10.7,9.11-17.83,9.4-2.82.03-5.63-.26-8.41-.7l-.22-.15c-.38-.47-.73-.96-1.06-1.46.85-.12,1.69-.3,2.51-.54.3-.21.62-.37.97-.46l.37-.32c.54-.13,1.05-.27,1.59-.45.27-.24.57-.41.9-.52l.22-.21.71-.23c.26-.23.56-.39.9-.49l.41-.39.44-.18c.24-.24.53-.43.85-.55l.31-.34.5-.27c.23-.26.48-.51.74-.74l.03-.05.76-.57c2.67-2.86,4.47-6.57,4.46-10.52-.25-16.35-23.62-17.7-34.16-24.53h0Z"/><path class="cls-1" d="m341.53,86.71c-2.32-.56-4.49-1.6-6.38-3.05-.36-.48-.72-.95-1.09-1.42-.12-.49-.24-.97-.35-1.46.08-.49.17-.99.26-1.48h0c.39-.33.78-.66,1.16-.98.48-.08.95-.19,1.41-.34.51.07,1.02.09,1.52.05,8.49,1.4,17.33,4.35,25.72.76.62-.23,1.2-.51,1.77-.85.24-.23.52-.4.84-.49.22-.26.47-.47.76-.64,20.41-15.41-15.9-26.09-24.45-30.5-19.6-10.11-15.73-36.09,5.9-40.43,8.57-1.72,19.4-.91,27.14,3.2.49.46.99.93,1.48,1.4.18.49.37.98.57,1.47l-.18.95-.37.58-.73.46c-.47.06-.93.15-1.38.3-.48-.08-.96-.07-1.44.02-7.2-.61-14.39-2.18-21.35.7-.27.2-.58.32-.92.37-.26.21-.54.38-.86.48-.23.24-.51.41-.84.5-.22.26-.47.48-.76.64-.21.25-.48.44-.79.58-1.97,1.95-3.19,4.46-3.44,7.21.04.32.02.65-.06.97.1.32.13.64.11.97,1.97,14.27,28.58,14.22,37.31,23.58,14.67,15.73,1.77,36.17-16.92,38.19-7.74.84-16.18.39-23.66-1.73h0Z"/><path class="cls-1" d="m331.1,82.33c-.53-1.77-.43-3.6.28-5.3.34-.41.71-.81,1.1-1.17.47-.14.95-.3,1.42-.46.53.05,1.06.06,1.59.04,10.21,1.91,21.52,6.93,31.27.56,21.2-16.02-23.45-26.6-30.64-32.5-19.74-16.22-.15-38.97,19.61-39.77,5.99-.24,31.17,1.22,24.74,12.18-.4.29-.82.57-1.25.81-.5.03-.99.11-1.47.23-9.15-.6-17.69-4.26-26.68-.18-.23.24-.5.43-.8.55-.24.21-.52.37-.83.48-.21.26-.45.46-.74.62-1.79,1.68-2.92,3.93-3.18,6.36.06.32.06.64-.01.95.08.31.1.63.06.95,2.71,15.63,34.11,13.17,41.41,28.89,9.6,20.66-9,34.06-27.58,34.62-7.79.24-24.26.3-28.28-7.85h0Z"/><path class="cls-1" d="m330.97,85.25c-2.5-2.97-2.3-7.29-.7-10.68.4-.32.8-.63,1.21-.93.52-.03,1.03-.1,1.54-.21.55.15,1.1.23,1.67.24,9.23,2.6,23.46,8.55,32.11,1.33,13.73-11.46-6.63-19.94-15.14-23.09-12.72-4.71-25.22-11.17-23.9-26.9,1.18-13.99,13.1-21.1,25.98-22.22,8.91-.78,33.76-.05,28.81,14.23-.34.44-.68.87-1.02,1.31-.46.17-.93.34-1.4.5-.52-.04-1.05-.05-1.58-.02-9.18-1.81-18.96-5.54-27.98-.93-.23.24-.49.42-.78.55-.22.24-.47.44-.75.6-1.7,1.49-2.73,3.5-2.94,5.75.04.32.02.63-.05.94.08.31.11.62.08.94,1.38,8.61,14.35,10.55,21.11,13.08,8.45,3.16,16.94,7.23,20.71,16.03,9.21,21.47-9.73,34.73-28.78,35.41-8.99.32-20.77-.32-28.2-5.95h0Z"/><path class="cls-1" d="m329.54,85.54c-2.11-3.21-1.72-7.52-.95-11.17.27-.55.52-1.1.76-1.66.41-.29.83-.56,1.26-.82.54.03,1.09.03,1.63-.01.57.18,1.16.33,1.75.43,8.95,3.19,25.68,10.04,33.67,1.31,11.71-12.78-10.97-19.08-18.95-22.16-12.66-4.89-23.51-12.65-21.44-27.81,1.93-14.18,14.56-20.81,27.72-21.64,11.34-.71,33.95.59,28.46,17.01-.35.39-.71.78-1.07,1.17-.5.08-1,.18-1.5.3-.55-.15-1.11-.23-1.67-.25-8.78-2.49-19.59-6.58-28.38-1.83-.25.2-.53.36-.83.47-.22.24-.47.44-.76.59-1.51,1.43-2.47,3.28-2.75,5.34.06.32.07.64.01.95.06.31.07.62.02.94,1.54,8.54,15.31,10.38,22.11,12.97,9.03,3.44,17.63,8.36,20.69,18.14,6.9,22.05-12.15,33.8-31.47,34.18-8.89.17-21.13-.63-28.31-6.44h0Z"/><path class="cls-1" d="m329.26,86.53c-3.11-3.16-2.1-9.57-1.43-13.72.27-.54.5-1.1.7-1.68.43-.26.86-.51,1.29-.77.57.12,1.14.18,1.72.2,9.43,3.37,24.96,11.24,34.51,3.95,14.24-10.87-7.57-19-15.21-21.81-10.25-3.76-21.24-8.34-23.75-20.14-2.68-12.6,4.08-24.14,15.85-28.73,10.43-4.06,33.13-4.74,41.55,4.24.92,3.44.74,7.11.3,10.63-.21.63-.4,1.26-.55,1.91-.36.38-.71.75-1.07,1.13-.53,0-1.06.03-1.59.1-.57-.2-1.16-.35-1.75-.45-8.94-3.35-19.57-6.93-28.85-2.69-.51.4-1.04.76-1.59,1.1-1.7,1.58-2.61,3.64-2.64,5.96.33,8.94,15.88,11.11,22.35,13.6,8.74,3.36,17.1,8.11,20.38,17.42,7.37,20.9-9.18,34.22-28.2,35.55-10.28.72-23.04-.21-32.02-5.8h0Z"/><path class="cls-1" d="m327.19,85.41c-.73-4.55-.46-9.32,0-13.87.26-.58.44-1.18.56-1.81.43-.24.86-.49,1.29-.73.59.2,1.2.34,1.81.42,9.16,4.1,23.06,10.96,33.23,5.86,16.87-8.47-4.21-18.99-12.29-21.9-11.12-4.01-23.08-8.77-25.22-21.81-2.34-14.29,6.65-25.85,20.22-29.33,11.15-2.86,28.21-1.97,37.96,4.72l.13.16c1.35,4,.83,8.73.5,12.9-.21.64-.36,1.3-.42,1.97-.34.38-.69.76-1.03,1.14-.55-.1-1.12-.14-1.68-.13-.57-.31-1.19-.53-1.83-.66-8.48-3.79-20.24-7.85-29.29-3.37-2.58,1.32-4.13,3.88-4.13,6.79.4,8.35,13.57,10.2,19.82,12.45,9.35,3.37,18.76,7.71,22.66,17.59,9.24,23.39-11.64,36.77-32.16,37.07-8.61.13-24.02-.51-30.14-7.46h0Z"/><path class="cls-1" d="m327.03,86.5s-.03-.02-.04-.03c-1.16-5.1-.58-10.86-.3-16.06.18-.61.3-1.24.35-1.88.41-.27.82-.53,1.24-.78.39.09.75.26,1.07.5l.88.2.02.02c.59.4,1.21.71,1.87.94,8.3,4.56,22.4,10.35,31.85,5.71,11.33-5.57,3.62-15.53-4.45-18.88-10.86-4.5-25.59-6.57-31.31-18.33-6.38-13.11.53-28.71,13.44-34.25s30.58-3.29,43.23,2.57c.29.34.58.67.87,1,.41,3.89.26,7.81.21,11.7-.13.73-.17,1.48-.11,2.21-.11.55-.21,1.1-.3,1.65,0,.12,0,.24.05.36-.34.4-.65.82-.93,1.25-.58-.17-1.17-.3-1.77-.39-7.88-3.8-25.12-11.68-33.19-3.94-8.65,8.29,4.7,13.52,10.7,15.7,12.8,4.65,27.12,8.63,30.49,23.86s-4.45,27.47-18.57,31.58c-13.73,4-32.95,2.83-45.27-4.72h0Z"/><path class="cls-1" d="m326.69,86.76l-.21-.14c-.05-.22-.1-.45-.14-.68-.18-5.94-.23-12,.18-17.93-.07-.22-.08-.45-.03-.68.36-.16.67-.4.91-.7h.21s.09.03.09.03v.02c.27.26.55.49.85.7l.56.14c.51.21.98.48,1.41.83,8.88,4.75,22.16,11.14,32.5,7,6.36-2.55,8.7-9.21,4.07-14.72-3.96-4.7-12.36-5.74-17.85-7.81-10.54-3.97-21.05-8.93-23.06-21.2s4.31-23.47,15.74-28.23,27.15-3.29,39.07,1.04c1.7.62,3.34,1.26,4.97,2.06.52,5.07.15,10.22.17,15.27l-.2.63c-.02.47.02.94.11,1.4l.05.1c-.01.17-.04.34-.1.51l.03.17c-.06.32-.18.62-.36.9l-.16.06h-.55s-.09-.03-.09-.03l-.22-.21-.44-.08-.09-.07c-7.12-4.39-31.66-14.8-36.4-2.04-4.22,11.34,20.49,14.67,26.96,17.79,12.37,5.97,19.13,17.25,16.45,31.14-2.16,11.18-10.5,17.47-21.2,19.92-12.59,2.88-26.97,1.51-38.94-3.27-1.46-.58-2.89-1.22-4.27-1.93h0Z"/><path class="cls-1" d="m268.97,57.46c15.96-1.1,22.3,22.66,28.4,34.24h0c-6.1-11.57-12.44-35.34-28.4-34.24h0Z"/><path class="cls-1" d="m268.97,91.69v-34.24h0v34.24h0Z"/><path class="cls-1" d="m247.06,91.69h21.92,0c-7.31,0-14.61,0-21.92,0h0Z"/><path class="cls-1" d="m247.06,2.04v89.65h0c0-23.24,0-46.49,0-69.73V2.04h0Z"/><path class="cls-1" d="m296.77,49.84c13.52-3.7,17.86-18.56,13.76-31.04-4.7-14.3-19.83-16.39-32.91-16.74-10.17-.27-20.39-.01-30.57-.01h0c21.62,0,78.9-4.59,63.37,35.72-2.36,6.13-7.35,10.35-13.65,12.07h0Z"/><path class="cls-1" d="m320.95,91.69h.66c-8.08,0-16.16,0-24.23,0h0c7.86,0,15.72,0,23.58,0Z"/><path class="cls-1" d="m321.6,91.69c-6.96-12.54-13.62-32.62-24.83-41.85h0c11.21,9.23,17.87,29.32,24.83,41.86h0Z"/><path class="cls-1" d="m268.97,40.05v-20.6h0v20.6h0Z"/><path class="cls-1" d="m289.33,29.04c.87,12.29-11.81,11.02-20.36,11.01,8.56,0,20.53,1.39,20.37-10.5-.16-11.61-11.93-10.1-20.37-10.1h0c7.62,0,20.58-1.59,20.36,9.59h0Z"/><path class="cls-1" d="m321.28,91.12l.32.58h-24.23c-6.1-11.57-12.44-35.34-28.4-34.24v34.24h-21.92c0-23.24,0-46.49,0-69.73V2.04c21.61,0,78.89-4.58,63.36,35.73-2.36,6.13-7.35,10.35-13.65,12.07,11.08,9.13,17.63,28.88,24.51,41.28h0Z"/><path class="cls-1" d="m289.33,29.03c.87,12.3-11.81,11.02-20.36,11.02v-20.6c7.62,0,20.58-1.6,20.36,9.59h0Z"/><path class="cls-1" d="m289.34,29.38c.39-11.47-12.52-9.93-20.36-9.93v20.6c8.32,0,21.08,1.36,20.36-10.67h0Z"/><path class="cls-1" d="m321.6,91.7l-.26-.15.26.15c-6.96-12.55-13.62-32.62-24.83-41.86,13.52-3.7,17.86-18.56,13.76-31.05-4.7-14.3-19.83-16.39-32.91-16.74-10.18-.27-20.39-.01-30.57-.01v89.66h21.92v-34.24c15.96-1.1,22.3,22.66,28.4,34.24h24.23Z"/><path class="cls-1" d="m284.7,52.34l-.06-.04c-.26-.48-.56-.94-.88-1.37l.06-.54.4-.96c.77-.47,1.64-.77,2.54-.86.46.09.89.22,1.32.41.27.44.53.89.77,1.35.02.3.08.59.16.88-.03.78-.09,1.56-.16,2.34-.45.24-.93.43-1.43.57-.95-.53-1.86-1.12-2.72-1.78h0Z"/><path class="cls-1" d="m257.74,65.77l-.19-.66-.79-.63-.06-.53c-.21-.38-.41-.77-.61-1.16h0s-.13-1.16-.13-1.16l-.37-.81c-.06-.71-.2-1.41-.43-2.08-1.05-6.69-1.01-13.26-.17-19.97.2-.71.32-1.45.34-2.19l.18-.48c-.03-.4.03-.78.17-1.15v-.48s.28-.67.28-.67v-.88s.07-.28.07-.28v-.23s.37-.93.37-.93l-.07-1.11.05-.06-.02-.09.39-1.08-.09-.71.32-.47-.2-.66.16-.53-.05-.36.4-.84-.32-1.1.03-.11v-.07s.37-1.15.37-1.15l-.15-.8.26-.44-.23-.63.17-.63v-.29s.39-.98.39-.98l.04-.73.41-.57.29-.84c.43-.21.84-.43,1.25-.66h.26c-.08.88-.06,1.75.07,2.63l-.08.2.11.24-.33,1.02v.32s-.37.93-.37.93l.16.96-.22.27.22.35-.27.87.09.48-.33.72.39.78-.09.42.09.36-.24.82.39.7-.06.48.21.63-.09.54.24.35-.04.82.42.98v.18l.14.39.05.77.21.35.08.8.36.75.05.4c1.29,3.78,3.36,7.23,6.34,9.9.34.46.72.91,1.14,1.3.16.49.36.98.59,1.45-.19.49-.36.99-.51,1.49-.45.41-.86.87-1.22,1.36-2.69,2.35-4.91,5.4-6.12,8.78l-.1.14c-.1.4-.25.78-.44,1.14v.07s-.58,1.08-.58,1.08l-.05.27-.59.89-.09.46-.76.71-.13.46-.94.2h0Z"/><path class="cls-1" d="m254.2,74.72c-.14-.48-.26-.97-.36-1.45-1.26-9.6-1.85-19.36-1.63-29.08.19-8.4-1.37-20.69,1.53-28.63,2.16-5.92,6.8-7.58,12.89-5.54.39.22.81.43,1.22.61l.28.2c.07.55.17,1.11.31,1.65l-.74.96-.1.35-.65.6-.29.58-.4.38c-4.45,6.6-5.16,22.73,1.63,28.02.28.21.56.43.82.66l.8.35c5.87,3.42,12.98,1.38,18.8-1.2,1.04-.31,1.97-.85,2.76-1.61,2.92-2.37,3.73-6.19,3.96-9.81-.12-.8-.13-1.59-.02-2.39-.35-4.14-1.55-8.48-4.02-11.89l-.12-.32-.73-.9v-.07c-.26-.36-.49-.75-.68-1.14l-.1-.08-.42-1.39-.03-.03.02-.08.08-.03,1.13-.96.69.02.87-.24c.58.12,1.18.17,1.77.13.67.21,1.35.39,2.04.54,14.81,5.55,9.5,22.41.49,30.01-.29.27-.59.54-.89.81-1.35,1.7-2.14,3.71-2.29,5.86.06.33.05.67-.02,1,.13.34.18.69.17,1.05,1.99,8.59,7.88,15.74,9.73,24.44-.26.64-.58,1.26-.95,1.84-.93-.3-1.83-.71-2.66-1.23-6.9-7.97-10.6-17.73-19.94-23.41l-.84-.31-.15-.11c-.32-.14-.64-.31-.94-.49-2.89-.84-5.93-.35-8.53,1.14-.28.22-.56.44-.83.66-.27.19-.55.39-.83.58-4.09,4.51-3.95,11.65-4.67,17.35-.18.64-.3,1.31-.36,1.97-.22.63-.36,1.28-.44,1.94-.28.55-.5,1.12-.68,1.71-.35.44-.67.91-.94,1.41-.44.3-.88.6-1.32.91l-.08.02c-.59-.1-1.18-.2-1.76-.29-.41-.35-.81-.71-1.19-1.1-.25-.53-.52-1.07-.8-1.58-.1-.64-.28-1.26-.55-1.86l-.06-.53h0Z"/><path class="cls-1" d="m271.32,43.57c15.51,3.41,29.65-11.29,17.49-25.07-.34-.18-.61-.42-.82-.73-.34-.15-.62-.37-.87-.64l-.24-.11-.62-.57c-.36-.09-.69-.24-.98-.46l-.2-.06-.73-.53c-.62-.24-1.21-.43-1.86-.59l-.24-.14c-3.37-1.14-7.14-1.13-10.52,0l-.16.1-.92.21c-.3.21-.63.36-.99.45l-.35.3-.57.2c-.24.24-.5.47-.77.68l-.03.04-.72.54c-3.87,5.37-3.71,19.38.46,24.64.3.11.56.28.77.51.3.13.59.3.84.51.68.23,1.32.46,2,.72h0Z"/><path class="cls-1" d="m257.27,84.66c-1.13-.14-2.11-.61-2.93-1.39-.33-.47-.66-.93-1-1.39-4-9.71-2.7-23.46-2.67-33.83.03-9.92-.35-20.44.76-30.29,1.65-14.65,13.83-10.42,25.02-9.68,10.23.67,22.3-.78,28.2,9.72,2.66,4.73,3.2,11.2,1.53,16.35-2.16,6.65-9.29,8.82-11.62,14.75v.16s-.21.65-.21.65l.06.32-.07.56c.13.31.21.63.23.97,3.46,9.63,13.43,19.54,13.06,30.14-.28.59-.61,1.18-.98,1.72-.48.27-.98.52-1.5.73-15.71,2.25-15.34-37.87-35.84-29.43-.26.21-.55.37-.86.48-.21.23-.47.4-.78.52-5.57,7.39-1.23,18.63-5.35,26.78-.38.4-.76.81-1.14,1.21-1.17.78-2.52,1.11-3.92.96h0Z"/><path class="cls-1" d="m274.14,42.82c12.95,1.04,24.95-11.75,14-23.1-.31-.18-.57-.42-.79-.71-.3-.16-.61-.34-.9-.51-.29-.2-.57-.42-.85-.63-4.83-2.21-10.25-2.51-15.39-1.17l-.72.42-.19.04c-.25.19-.53.33-.85.4l-.29.33-.38.24c-3.03,5.18-2.77,17.99.37,23.08l.18.06.53.45.8.23.11.08c1.42.43,2.89.69,4.38.79Z"/><path class="cls-1" d="m251.2,82.32c-3.81-18.35-1.62-39.5-1.27-58.16.1-5.3-.66-12.14,2.66-16.59,7.65-5.47,27.52-2.31,36.49-.81,12.83,2.14,21.48,11.75,19.11,25.27-1.34,7.65-6.25,11.13-11.89,15.71-.36.4-.67.84-.92,1.31.02.25-.01.5-.1.73.07.26.07.53,0,.81l.25.52.04.4c4.76,9.18,15.71,21.84,14.91,32.47-.25.57-.59,1.12-1,1.6-17.12,10.85-20.05-36.31-39.74-30.06l-.15.1-.77.21-.6.51-.1.03c-5.01,8.14-.04,19.7-4.37,28.35-.37.41-.75.81-1.15,1.19-3.01,1.76-6.86,1.67-9.69-.4-.35-.46-.69-.92-1.01-1.39-.22-.61-.45-1.21-.69-1.81h0Z"/><path class="cls-1" d="m267.64,39.08l.04.37c.16.5.4.97.71,1.4l.73.26.07.06c11.99,3.54,32.15-7.76,18.53-20.63-.3-.18-.56-.41-.78-.69-.33-.13-.61-.34-.84-.6-.34-.09-.65-.24-.93-.45-4.8-2.12-10.48-2.2-15.56-1.01l-.5.35-.33.05-.4.46-.2.13c-2.37,5.42-1.53,14.56-.52,20.31h0Z"/><path class="cls-1" d="m249.73,81.96c-1.89-19.36-.87-39.23-.65-58.66.06-5.27-.44-11.19,1.7-16.13.35-.42.73-.82,1.14-1.19,9.48-4.89,29.62-2.4,39.78.03,12.73,3.05,20.25,14.1,17.41,27.27-1.59,7.4-6.48,11.09-12.39,15.11-.19.28-.39.55-.63.79h-.04s0,.09,0,.09l-.21.45c.09.29.1.58.05.88,5.63,9.67,16.97,23.17,16.87,34.75l-.04.16-.93,1.49-.07.06c-22.72,12.16-20.25-37.38-42.61-30.71l-.15.13-.64.22c-.32.47-.55.99-.7,1.54-1.54,8.86,1.44,20.19-2.86,28.3-.4.36-.79.73-1.19,1.09-3.65,1.53-8.18,1.56-11.65-.37-.37-.43-.73-.86-1.08-1.29-.53-1.3-.9-2.63-1.11-4.01h0Z"/><path class="cls-1" d="m268.02,38.56l.1.91c.14.35.31.7.51,1.02.27.09.52.21.75.37l.67.05c11.72,1.98,29.14-6.76,17.41-19.87-.31-.17-.58-.39-.8-.65-.33-.12-.62-.3-.88-.53-.34-.1-.64-.27-.91-.51-4.84-1.9-10.89-1.92-15.94-.82l-.36.41-.24.02v.27c-1.5,5.88-.96,13.29-.31,19.32h0Z"/><path class="cls-1" d="m251.03,88.52l-.97-.97c-3.55-8.43-1.69-20.97-1.76-30.07-.08-10.32,0-20.63.08-30.94.05-6.37-.39-12.96.92-19.23.27-.57.56-1.14.87-1.69.43-.3.84-.61,1.25-.94,10.78-3.63,28.16-2.08,39.15.23,13.18,2.77,21.25,12.63,19.62,26.44-.99,8.37-5.79,13.33-12.85,17.27l-.37.14-.48.48-.31.06v.39s.22.89.22.89c.02.02.05.03.08.05,6.28,9.31,17.2,24.13,18.21,35.71l-.04.28-.73,1.33-.25.22c-4.1,2-9.67,2.07-14.04.87-10.73-7.38-12.62-36.78-30.22-32.34-.28.13-.56.24-.85.33-.19.38-.36.79-.49,1.2-.87,9.28.64,19.23-1.62,28.31-.29.53-.6,1.05-.92,1.55-.4.33-.83.62-1.29.86-4.1,1.19-9,1.28-13-.27l-.2-.16h0Z"/><path class="cls-1" d="m268.24,36.11c.01,1.14.08,2.29.21,3.43l.27.84h.35s.48.25.48.25c5.7.41,12.34.96,17.3-2.33,4.3-4.09,4.46-12.53.42-16.81-.55-.43-1.1-.83-1.67-1.24-5.06-2.26-11.1-2.12-16.49-1.35l-.11.12-.54.05.03.59c-.64,5.42-.34,10.99-.25,16.44h0Z"/><path class="cls-1" d="m251.09,89.86l-.34-.06c-.46-.23-.88-.51-1.27-.84-.29-.57-.57-1.15-.82-1.73-3.05-19.48-.87-40.86-.81-60.56.02-6.83-.57-14.16.89-20.85.27-.53.6-1.02.99-1.47.46-.19.9-.41,1.33-.66,21.37-4.35,62.96-3.3,59.74,27.44-.85,8.16-5.33,14.23-12.79,17.58l-.88.34-.27.27-.58.1v.31s.17.71.17.71c.12.1.25.18.4.24,7.39,8.76,17.64,25.42,19.48,36.68v.06s-.76,1.54-.76,1.54l-.17.14c-.44.17-.87.37-1.3.57-4.78,1.08-10.26,1.33-15.08.26-.4-.28-.8-.56-1.2-.85-7.75-9.77-12.13-34.46-28.18-32.13-.3.17-.62.26-.96.27-1.92,10.07.82,20.77-1.59,30.81-.34.46-.69.92-1.03,1.37-.46.19-.92.39-1.38.58-4.38.81-9.26.89-13.6-.12h0Z"/><path class="cls-1" d="m268.59,36.98c.07.89.06,1.79-.01,2.68l.2.63h.77s.17.09.17.09c5.58.3,12.15.82,17.01-2.38,4.48-4.24,4.37-14.19-1.31-17.37-4.66-2.27-10.68-2-15.74-1.49-.36-.03-.72-.02-1.09.03-.04,5.94-.13,11.88,0,17.82h0Z"/><path class="cls-1" d="m250.42,90.64c-.46-.14-.92-.31-1.36-.51-.33-.5-.64-1.01-.94-1.53-2.94-21.12-.67-44.08-.63-65.4.01-6.16-.5-12.7.77-18.74.34-.41.73-.79,1.15-1.13.48-.06.94-.18,1.39-.37,22.26-2.28,67.68-3.6,60.01,31.24-1.62,7.36-6.46,12.49-13.49,15.1l-.06.06-.85.15v.23s.13.53.13.53c.21.18.45.33.72.44,7.81,8.73,18.44,26.03,20.49,37.7l-.67,1.4c-5.34,1.95-12.9,1.75-18.49.81-.39-.29-.79-.59-1.18-.89-7.17-10.54-12.58-34.96-28.65-32.47-.96,10.44,1.31,21.84-1.15,32.1-.37.38-.77.73-1.19,1.05-5.09,1.08-10.85.92-16,.22h0Z"/><path class="cls-1" d="m270.6,40.2c6.86.26,15.71,1.08,18.49-6.55,2.54-6.98-1.49-12.58-8.05-14.1-3.91-.91-8.34-.33-12.32-.28.11,6.83.21,13.71,0,20.54l.13.42c.59,0,1.17,0,1.76-.02Z"/><path class="cls-1" d="m247.66,89.76v-.05c-.04-.79-.13-1.56-.25-2.35-.4-21.42-.15-42.91-.13-64.36,0-6.43-.68-13.35.62-19.66.36-.26.74-.5,1.12-.73,14.51-1.53,35.24-3.01,48.98,3.03,12.4,5.45,17.49,21.78,11.37,33.9-2.53,5.02-7.35,8.83-12.85,10.07v.16s.09.36.09.36c9.08,6.58,17.91,27.46,22.15,38.06-.03.46.05.91.24,1.33l-.36.84c-.44.12-.85.31-1.23.56-6.17.89-12.91.76-19.13.26-.38-.27-.75-.54-1.12-.82-.8-1.25-1.54-2.54-2.24-3.85h0c-5.87-10.97-10.84-30.71-26.1-29.18-.36,10.5,1.93,23.01-.84,33.16-.47.18-.92.4-1.35.65-5.43.48-11.03.39-16.47.1-.45-.09-.91-.16-1.37-.22-.38-.42-.76-.84-1.14-1.27h0Z"/><path class="cls-1" d="m268.9,40.13c6.06-.03,15.54,1.5,19.33-4.48,4.28-6.74-.17-14.33-6.94-15.96-3.9-.94-8.48-.32-12.45-.34.05,6.85.11,13.72,0,20.57l.07.21h0Z"/><path class="cls-1" d="m247.27,90.47h0c-.03-.13-.05-.26-.05-.4l.03-.07c-.01-.22.02-.43.11-.63-2.19-22.11-.25-45.42-.25-67.68,0-5.91.08-11.83.09-17.72.01-.48.1-.93.25-1.38h0c.18-.11.37-.21.55-.31.27.01.53-.01.79-.08,14.93-.23,32.5-2.51,46.88,2.38,13.3,4.52,19.57,19.22,14.91,32.53-2.25,6.43-7.36,10.93-13.93,12.61v.08s.04.18.04.18c10.08,7.9,17.62,27.86,23.11,39.18l.11.04c.12.14.22.29.28.46h0c0,.35-.04.69-.12,1.04l-.69.7-.14-.04-.17.04-.36-.02-.34-.12c-6.48.51-13.17.5-19.67.21l-.39.07c-.19-.04-.38-.06-.58-.08-.16-.06-.3-.15-.42-.27-5.25-8.93-9.84-26.3-18.81-32.04-2.98-1.91-6.11-2.08-9.62-1.77-.21,10.59.14,21.24-.14,31.84l.06.11c-.02.25-.02.5-.01.75-.16.37-.26.75-.32,1.14-.39.05-.75.15-1.11.28l-.2-.03c-5.95.11-12,.27-17.97-.08l-.42.1c-.15,0-.3-.02-.44-.06l-.13.02-.39-.26-.21-.06-.05-.2-.28-.47h0Z"/><path class="cls-1" d="m156.63,47.89c-.11,16.71-4.34,36.63-21.76,43.27-16,6.1-34.98.53-42.88-14.98s-7.8-38.47-1.8-54.33C96.59,4.96,113.42-2.7,130.83,1.48c18.71,4.49,24.83,23.13,25.69,40.43.1,1.99.13,3.99.11,5.98h0Z"/><path class="cls-1" d="m156.65,48.36c.2-16.51-2.99-36.95-19.65-44.77-15.15-7.12-35.13-2.66-43.83,11.98s-8.88,37.88-3.79,53.95c5.53,17.46,21.01,26.4,39.08,23.32,19.26-3.29,26.65-20.94,27.95-38.65.14-1.94.22-3.89.24-5.83h0Z"/><path class="cls-1" d="m133.94,47.58c.05-7.79.7-21.92-6.67-26.99s-14.2,1.19-16.39,8.29c-2.93,9.52-6,51.85,13.58,45.73,9.89-3.09,9.47-18.79,9.48-27.03h0Z"/><path class="cls-1" d="m133.97,46.96c0,7.73.56,21.68-6.96,26.51-7.92,5.09-14.21-1.92-16.25-9.06-2.69-9.42-5.66-51.97,14.06-45.06,9.74,3.42,9.15,19.32,9.15,27.6h0Z"/><path class="cls-1" d="m156.63,48.36c.2-16.51-2.99-36.95-19.65-44.78-15.16-7.12-35.13-2.66-43.84,11.98s-8.88,37.88-3.79,53.96c5.53,17.46,21.01,26.41,39.08,23.33,19.27-3.29,26.65-20.94,27.95-38.66.14-1.94.22-3.89.24-5.83h0Z"/><path class="cls-1" d="m156.65,47.89c-.11,16.7-4.34,36.62-21.75,43.26-15.99,6.1-34.98.53-42.87-14.98s-7.8-38.47-1.8-54.33C96.62,4.96,113.45-2.69,130.85,1.49c18.71,4.49,24.83,23.12,25.69,40.43.1,1.99.13,3.98.11,5.98h0Z"/><path class="cls-1" d="m133.95,46.96c0,7.73.56,21.68-6.96,26.51-7.92,5.09-14.21-1.92-16.25-9.06-2.69-9.42-5.66-51.97,14.06-45.06,9.74,3.42,9.15,19.33,9.15,27.61h0Z"/><path class="cls-1" d="m133.97,47.58c.05-7.79.7-21.92-6.67-26.98s-14.19,1.19-16.38,8.29c-2.93,9.51-6,51.84,13.58,45.73,9.89-3.09,9.46-18.79,9.48-27.03h0Z"/><path class="cls-1" d="m133.12,81.16l-1.19-.76.62-.98-.07-.35.72-.74.12-.49.53-.58.25-.62c9.8-15.19,8.58-44.35-.12-59.71l-.28-.3-.34-.81-.43-.41-.16-.76-.56-.52.51-1.45,1.03.36.7-.17.59.33c.41.06.82.18,1.2.34l.21.02c.78.55,1.6,1.03,2.45,1.47,13.96,11.12,14.01,37.79,7.79,52.9-2.04,4.96-5.01,9.35-9.7,12.13l-1.09.29-1.01.6h-.02s-.03,0-.03,0l-1.31.05-.39.17h0Z"/><path class="cls-1" d="m95.61,66.2c-5.22-15.03-5.22-40.29,8.45-51.18.85-.43,1.67-.92,2.45-1.47l.22-.03c.37-.17.78-.29,1.19-.35l.59-.32.7.17,1.02-.36.52,1.44-.56.52-.16.76-.43.42-.34.81-.28.3c-8.7,15.36-9.9,44.52-.12,59.71l.25.63.53.58.12.5.71.74-.07.37.62.97-1.18.76-.39-.17-1.31-.05h-.03s-.02,0-.02,0l-1.01-.6-1.09-.29c-5.21-3.07-8.43-8.24-10.37-13.85h0Z"/><path class="cls-1" d="m105.24,57.64c.54,6.67,2.21,13.76,7.02,18.69.33.16.61.38.83.66.32.16.59.4.8.71.32.14.64.3.95.45l.04.02.83.6c.36.05.7.17,1,.37.37.03.71.15,1.01.36,2.43.78,5.09.77,7.51,0,.3-.21.64-.33,1.01-.36.3-.19.64-.31,1-.37l.82-.6.04-.02c.31-.16.63-.31.95-.45.21-.31.48-.55.8-.71.23-.28.51-.5.83-.66,10.2-10.4,8.99-32.69,6.2-45.8-1.01-4.76-2.63-9.19-6-12.82-.33-.17-.6-.4-.81-.7-.33-.15-.61-.36-.85-.64l-.32-.15-.53-.48c-.35-.08-.67-.24-.94-.47l-.46-.14-.49-.33c-.36-.06-.69-.2-.99-.4-2.63-.7-5.43-.7-8.07,0-.31.2-.64.33-.99.4l-.48.33-.46.15c-.27.23-.59.39-.94.47l-.53.48-.32.16c-.23.28-.51.49-.85.64-.21.3-.48.53-.81.7-9.02,9.73-8.14,27.74-6.82,39.94h0Z"/><path class="cls-1" d="m95.06,70.68c-11.64-26.32-1.65-71.76,34.99-63.05,28.08,6.67,30.5,62.66,6.86,76.08-14.73,8.36-35.18,2.63-41.86-13.03h0Z"/><path class="cls-1" d="m115.42,76.71l.13.1c.33.11.62.28.88.52,3.29,1.3,6.84,1.3,10.12,0,.26-.24.56-.41.88-.52.26-.22.56-.37.91-.46.26-.23.52-.46.78-.69,10.89-8.54,9.22-32.62,6.64-44.64-1.03-4.81-2.65-9.37-6.39-12.75-.33-.13-.62-.31-.86-.55-.32-.14-.59-.34-.83-.62-.35-.07-.66-.21-.94-.4-.34-.08-.65-.22-.93-.44-2.82-.89-5.84-.89-8.66,0-.28.22-.59.36-.93.44-.28.2-.6.33-.94.41-.23.27-.51.48-.83.62-.24.24-.53.43-.86.56-10.6,9.57-9.58,34.85-5.73,47.48,1.15,3.78,2.82,7.43,5.99,9.91h0s.78.69.78.69l.79.36h0Z"/><path class="cls-1" d="m94.29,72.47c-12.27-26.13-3.36-74,33.78-67.23,30.69,5.59,34.56,62.52,11.35,78.88-14.9,10.5-37.63,4.91-45.13-11.65h0Z"/><path class="cls-1" d="m117.34,76.5c2.82,1.09,5.95,1.03,8.75-.12.29-.18.6-.31.94-.38.24-.25.52-.45.83-.58.25-.23.53-.4.86-.52,11.31-9.82,11.4-45.82.19-55.78-.31-.15-.58-.35-.81-.61-.33-.11-.62-.28-.87-.51-.33-.09-.63-.24-.9-.46-3.09-1.25-6.58-1.26-9.67,0-.27.22-.57.37-.9.46-.25.23-.54.4-.87.51-.23.26-.5.46-.81.61-11.21,9.98-11.11,45.96.19,55.79.33.12.61.29.86.52.31.13.59.32.83.58.34.07.65.19.94.38l.44.11Z"/><path class="cls-1" d="m94.29,74.87C80.7,48.97,88.57-.59,125.8,3.65c32.99,3.75,38.17,60.34,16.43,79.69-14.2,12.64-39.21,8.32-47.94-8.47h0Z"/><path class="cls-1" d="m117.2,75.8c2.78.95,5.81.94,8.59,0,.27-.22.57-.37.89-.47.27-.2.57-.35.9-.44.23-.26.49-.47.8-.63,11.03-9.21,10.96-44.92.2-54.52-.31-.15-.58-.35-.81-.61-.32-.12-.6-.3-.85-.53-.33-.09-.63-.23-.91-.43-2.91-1.14-6.13-1.15-9.04,0-.28.2-.58.35-.91.44-.25.24-.53.41-.85.53-.23.26-.5.46-.8.61-10.76,9.62-10.82,45.31.2,54.53.3.16.57.37.79.63.33.09.63.23.9.44.32.1.62.25.89.47h0Z"/><path class="cls-1" d="m93.2,74.49c-6.54-13.3-6.75-31.67-3.24-45.87C94.6,9.82,110.46-.97,129.75,3.31s24.53,23.31,25.18,40.4c.56,14.83-1.72,33.75-15.2,42.73s-33.85,6.13-43.37-6.66c-1.22-1.64-2.26-3.45-3.16-5.29h0Z"/><path class="cls-1" d="m119.46,75.9c2.05.33,4.13.12,6.07-.6.29-.17.61-.29.95-.36.27-.2.55-.39.83-.57.28-.18.57-.35.86-.52.53-.47,1.01-.97,1.45-1.52,8.55-10.28,8.99-42.9-1.26-52.16-.3-.16-.57-.37-.81-.62-.33-.11-.62-.27-.88-.49-.33-.09-.63-.24-.9-.46-2.78-.98-5.79-.98-8.57,0-.27.21-.57.36-.9.45-.26.22-.55.38-.88.49-11.43,8.72-11.11,44.89-.61,54.31.29.17.58.34.86.52.28.19.56.38.83.58.34.07.66.18.95.36.66.23,1.32.42,2,.59h0Z"/><path class="cls-1" d="m92.88,75.27c-6.74-14.1-7.16-33.06-3.17-48.02,4.84-18.15,20.18-28.32,38.97-24.83,18.22,3.38,25.19,20.26,26.52,36.99,1.21,15.17,0,34.88-12.46,45.56-13.21,11.33-36.62,9.17-46.97-4.88-1.11-1.5-2.08-3.13-2.9-4.81h0Z"/><path class="cls-1" d="m120.83,75.62c1.53.04,3.07-.16,4.55-.58.28-.21.58-.37.91-.47.27-.21.58-.35.91-.44.26-.23.52-.45.78-.67,10.68-8.92,9.94-43.45.25-52.95-.59-.35-1.15-.73-1.69-1.16-3.23-1.49-6.84-1.49-10.07,0-12.44,7.73-11.97,46.46-.66,54.79.34.09.64.24.91.45.33.1.63.26.91.46,1.05.29,2.11.48,3.19.58Z"/><path class="cls-1" d="m92.1,74.63C79.15,46.85,87.64-3.55,126.85,1.63c33.95,4.49,38.84,62.84,16.94,83.06-15.45,14.27-43.02,8.94-51.7-10.06h0Z"/><path class="cls-1" d="m109.97,62.76c.85,4.22,2.39,8.48,5.96,11.12.63.3,1.25.59,1.87.89,2.41.78,5.01.77,7.41,0,.62-.3,1.24-.6,1.87-.89,10.54-7.75,8.67-33.23,5.6-44.31-1.1-3.95-2.59-7.8-6.29-9.94-3.08-1.48-6.68-1.49-9.77,0-11.48,6.69-8.78,32.28-6.65,43.15h0Z"/><path class="cls-1" d="m92.63,76.47c-7.06-13.3-7.29-31.51-4.39-45.97C92.18,10.84,106.75-1.52,127.2,1.32s27.76,21.32,28.86,39.62c.9,14.99-.51,34.1-12.69,44.66-12.92,11.2-36.27,9.73-47.14-3.57-1.39-1.7-2.57-3.62-3.59-5.56h0Z"/><path class="cls-1" d="m109.77,60.29c1.03,7.38,4.83,16.91,14.14,14.62s9.77-15.37,10.13-23.1c.39-8.4,1.35-22.57-4.66-29.39-5.33-6.04-13.45-4.21-17.2,2.38-5.28,9.29-3.93,25.38-2.41,35.5h0Z"/><path class="cls-1" d="m92.61,76.97c-7.07-13.73-7.62-32.04-4.51-46.98C92.18,10.41,107.14-2.04,127.66,1.09s27.67,22.01,28.67,40.42c.85,15.64-.92,35.58-14.56,45.69s-35.72,7.75-46.11-5.52c-1.15-1.47-2.17-3.05-3.05-4.7h0Z"/><path class="cls-1" d="m109.43,56.72c.62,7.76,3.11,19.56,13.32,18.27,9.62-1.21,10.52-13.38,11.04-21.02.6-8.75,1.58-22.22-3.45-29.95-4.47-6.86-13.21-6.87-17.67,0-5.47,8.41-4.08,23.2-3.25,32.69h0Z"/><path class="cls-1" d="m92.81,77.61c-8.18-15.13-8.56-37.37-3.31-53.55C95.14,6.65,110.73-2.08,128.76,1.15s26.21,20.77,27.52,38.21c1.21,16.02-.14,36.89-13.94,47.59s-35.42,8.44-46.16-4.36c-1.28-1.53-2.4-3.23-3.38-4.97h0Z"/><path class="cls-1" d="m188.24,2.04h-21.94c7.31,0,14.61,0,21.92,0h.02Z"/><path class="cls-1" d="m212.78,2.04v34.05c0,9.14,2.53,22.4-.61,31.06s-15.96,10.81-21.64,3.39c-5.3-6.92-2.29-21.85-2.29-30V2.04h-.02v34.05c0,9.14-2.53,22.4.61,31.07s15.96,10.82,21.64,3.39c5.3-6.92,2.29-21.85,2.29-30V2.04h.01Z"/><path class="cls-1" d="m234.69,2.04h-21.93c7.31,0,14.61,0,21.92,0h.01Z"/><path class="cls-1" d="m234.69,58.21V2.04h-.01c0,17.97.21,35.96,0,53.94-.14,12.28-1.6,25.93-13.21,32.82-10.5,6.23-27.2,6.34-38.31,1.74-11.93-4.94-15.99-16.33-16.76-28.47-1.25-19.86-.1-40.14-.1-60.04h.02v42.77c0,11.32-1.36,24.22,4.25,34.58,9.03,16.67,38.24,18.58,52.68,8.28,9.3-6.63,11.45-18.73,11.43-29.46h0Z"/><path class="cls-1" d="m234.68,58.21V2.04h-21.92v34.06c0,9.14,2.53,22.4-.61,31.07s-15.96,10.82-21.64,3.39c-5.3-6.92-2.29-21.85-2.29-30V2.04h-21.92v42.77c0,11.32-1.36,24.22,4.25,34.58,9.03,16.67,38.25,18.58,52.69,8.28,9.3-6.63,11.45-18.74,11.43-29.46h0Z"/><path class="cls-1" d="m234.69,57.58c.2,24.05-13.32,37-37.41,35.73-26.06-1.37-30.95-19.95-30.95-42.75V2.04h21.92v34.05c0,9.14-2.53,22.4.61,31.06s15.96,10.81,21.64,3.39c5.3-6.92,2.29-21.85,2.29-30V2.04h21.92v55.53h0Z"/><path class="cls-1" d="m205.25,82.42l.65-.16.28-.23.71-.26.44-.64.42-.14.26-.23.7-.3.43-.54.42-.19.42-.42.45-.26.21-.3.65-.39.62-.76.14-.1c.21-.31.48-.57.8-.78,9.71-10.72,5.77-30.41,6.04-43.83.1-4.76.18-9.57.98-14.28.18-.6.34-1.22.48-1.83.29-.51.53-1.04.71-1.59.38-.38.72-.78,1.02-1.22l1.21-.6.24-.04,1.41.38c.36.37.74.72,1.14,1.06.21.53.47,1.04.77,1.52.11.61.29,1.2.55,1.77,2.88,15.02,4.78,41.19-1.91,55.41-2.24,4.77-5.86,8.48-10.96,10.03-.59.14-1.19.28-1.78.44-.56,0-1.1.07-1.64.23l-.61-.05-.93.18-.31-.08-1.15.12-.08-.04c-.87.06-1.72-.08-2.53-.4l-.26-1.46h0Z"/><path class="cls-1" d="m177.29,76.77c-9.32-13.63-6.55-42.94-3.85-58.44.23-.58.41-1.17.53-1.78.32-.49.56-1.01.74-1.56.39-.35.75-.74,1.07-1.15l1.31-.52h.22s1.34.48,1.34.48c.34.4.7.78,1.09,1.13.19.55.44,1.06.75,1.55,5.52,17.65-6.32,45.7,7.52,60.03.26.27.52.58.74.89l.28.19.49.64.8.5.09.14.2.12.62.65.58.27.3.41.53.24.39.35.58.2.31.51.57.23.38.34.8.21-.44,1.52-1.27.29h0s-1.25-.01-1.25-.01l-.14.07-1.1-.14-.38.09c-.51-.18-1.03-.23-1.56-.14-1.18-.15-2.33-.4-3.48-.76-3.53-1.16-6.65-3.5-8.76-6.57h0Z"/><path class="cls-1" d="m172.35,70.77c-2.47-9.65-1.75-19.88-1.73-29.73.02-9.22-1.3-20.24,1.96-29.05.31-.46.62-.92.93-1.38.41-.32.83-.63,1.25-.93,1.58-.76,3.31-.77,4.9-.03.43.29.85.6,1.26.92.32.45.63.91.95,1.36,6.26,15.64-.04,35.35,2.39,51.7.74,4.96,2.39,9.35,6.37,12.62.33.15.61.35.85.61.34.12.63.32.87.58.34.09.65.25.93.47.35.07.67.21.95.44,4,1.57,8.31,1.58,12.34.08.28-.23.59-.39.94-.46.28-.21.6-.35.95-.43.24-.28.53-.48.86-.61.25-.24.55-.43.88-.56,11.8-9.66,6.66-34.57,7-48.45.13-5.26-.02-10.71,1.76-15.73.3-.48.6-.95.89-1.43.4-.33.81-.66,1.22-.98,1.55-.83,3.28-.9,4.9-.22.45.26.88.56,1.29.88.33.44.65.88.98,1.32,5.84,12.98,3.12,36.74,1.8,50.67-1.92,20.26-16.17,26.92-35.12,25.22-10.89-.98-19.31-5.85-22.56-16.88h0Z"/><path class="cls-1" d="m171.95,73.72c-5.11-14.12-2.81-32.5-2.49-47.35.12-5.58-.64-13.06,2.73-17.84,2.93-2.32,7.11-2.32,10.07-.05,8.08,11.16,2.11,38.03,2.91,51.49.35,5.84,1.2,11.3,6.06,15.22.3.16.59.33.89.5.28.2.55.4.83.61,4.38,2.11,9.48,2.41,13.97.44.31-.13.64-.25.96-.36.25-.25.54-.44.85-.57.25-.23.54-.4.88-.51,11.85-9.29,6.05-38.82,6.44-52.16.14-4.73-.18-10.32,2.48-14.45,2.84-2.45,7.03-2.5,10.07-.34.34.43.67.87,1,1.3,5.53,13.72,2.76,36.18,1.83,50.7-1.32,20.64-13.56,30.11-33.89,29.15-11.09-.52-21.6-4.54-25.6-15.78h0Z"/><path class="cls-1" d="m172.55,77.6c-8.32-16.42-4.17-41.24-3.85-59.03h0c.11-3.48.26-7.1,1.55-10.36.32-.45.65-.89,1-1.31,3.46-2.23,8.47-2.23,11.95-.05.36.42.69.85,1.01,1.29,6.48,16.14-.14,37.61,1.93,54.59.61,4.96,1.91,9.36,6.32,12.29.33.1.63.25.9.45,4.72,2.36,10.36,2.13,14.99-.36,12.11-7.95,6.46-36.75,6.67-49.7.09-5.58-.29-11.69,1.59-17,.31-.47.63-.93.95-1.38,3.39-2.36,8.41-2.36,11.95-.29.38.39.73.79,1.05,1.23,3.35,7.77,1.82,18.51,1.86,26.76.04,8.92.48,18-.16,26.9-1.45,20.09-13.87,29.64-33.68,29.04-10.36-.31-20.89-3.24-26.03-13.06h0Z"/><path class="cls-1" d="m172.5,79.11c-8.84-15.65-4.82-40.02-4.57-57.27.07-4.94-.27-10.47,1.56-15.13.34-.41.7-.81,1.08-1.18,3.86-1.91,9.42-1.91,13.31-.04.39.36.75.74,1.1,1.14,6.51,16.17.01,38.4,1.73,55.5.49,4.92,1.64,9.46,6.07,12.26.31.13.6.31.85.54,4.42,2.03,10.2,2.06,14.4-.48.29-.16.59-.32.88-.48,11.38-8.76,5.26-39.98,5.51-52.83.09-4.72-.21-9.76,1.42-14.25.31-.45.66-.86,1.03-1.26,3.81-2.06,9.39-1.98,13.31-.25.39.34.77.7,1.14,1.07,3.51,7.99,1.76,19.42,1.79,27.99s.33,16.92-.08,25.33c-1,20.27-11.66,31.67-32.34,31.72-10.61.02-22.55-2.37-28.2-12.39h0Z"/><path class="cls-1" d="m171.7,78.94c-8.71-15.9-4.47-40.58-4.29-58,.05-5.06-.48-10.8,1.48-15.55.4-.32.79-.64,1.18-.96,4.37-1.44,9.9-1.42,14.29-.03.39.32.79.63,1.2.93,4.21,9.62,1.61,24.62,1.62,34.98,0,8.91-3.27,25.83,4.16,32.52,4.36,3.92,11.52,3.88,16.52,1.31.27-.21.54-.42.8-.63,7.27-5.25,5.16-16.9,5.16-24.67,0-9.92-.12-19.84.05-29.76.08-4.47-.2-9.28,1.36-13.51.36-.36.75-.72,1.14-1.05,4.34-1.57,9.89-1.48,14.3-.19.4.3.81.59,1.23.86.29.53.56,1.07.82,1.62,3.03,15.88,1.34,34.78.88,50.99-.64,22.2-11.82,34.98-34.67,34.34-10.5-.3-21.96-3.15-27.23-13.19h0Z"/><path class="cls-1" d="m171.06,78.74c-8.08-16.51-4.2-39.98-4.05-57.79.04-5.03-.11-10.11.62-15.1.25-.55.53-1.1.83-1.62.44-.21.86-.44,1.27-.7,4.78-.94,10.19-.95,14.98-.02.41.25.84.48,1.28.67.31.51.6,1.03.85,1.57,2.88,18.63-1.25,37.96.73,56.64.53,4.98,1.69,9.3,6.44,11.84,4.26,1.8,9.58,1.8,13.67-.43,8.28-5.04,5.75-18.24,5.73-26.46-.02-9.79-.08-19.58.05-29.36.05-3.96.05-7.92.57-11.86.23-.59.48-1.17.74-1.75.42-.24.84-.51,1.24-.78,4.78-1.05,10.18-.97,14.99-.13.42.24.85.45,1.3.61.35.46.66.94.92,1.45,2.8,15.97.94,34.19.76,50.44-.25,23.3-10.95,37.38-35.48,36.61-10.82-.34-22.16-3.52-27.47-13.84h0Z"/><path class="cls-1" d="m170.95,79.21c-8.58-16.27-4.36-40.86-4.27-58.68.03-5.26-.14-10.6.52-15.83.27-.5.59-.97.95-1.41.45-.08.91-.22,1.34-.41,5.08-.55,10.4-.54,15.48-.01.43.18.89.31,1.34.39.37.41.7.87.97,1.35,1.44,10.8.55,22.19.55,33.08,0,9.36-2.23,21.98,1.17,30.83.32.73.71,1.42,1.17,2.07,1.05,1.44,2.4,2.59,3.98,3.4,5.08,2.12,11.89,1.81,15.82-2.38,1.11-1.17,1.92-2.59,2.38-4.13,4.35-15.07.65-35.67.81-51.38.04-3.73.05-7.45.42-11.16.25-.54.54-1.06.86-1.56.45-.12.9-.28,1.33-.47,5.36-.63,11.57-.87,16.85.28.43.32.78.71,1.06,1.18,2.88,18.5,2.29,41.84.28,60.47-2.28,21.12-17.95,29.47-38.01,27.95-10.04-.76-20-4.18-25-13.58h0Z"/><path class="cls-1" d="m171.41,80.53c-9.17-15.47-4.99-39.94-4.93-57.2.02-5.74,0-11.49.12-17.22.04-.7.12-1.38.25-2.08l-.05-.21c.36-.4.72-.82,1.06-1.24l.05-.03c6.05-.67,12.66-.68,18.71,0,.35.44.73.87,1.11,1.28l-.04.17c.04.62.11,1.23.22,1.84.23,16.59.09,33.21.12,49.81,0,4.27-.38,8.69,1.06,12.79.24.32.41.68.53,1.06.26.3.47.63.62,1,4.47,5.8,14.45,6.11,19.61,1.12,1.08-1.25,1.91-2.69,2.45-4.25,3.66-15.42.58-34.61.65-50.47.02-4.3-.06-8.62.28-12.91l.03-.09c.31-.43.63-.86.94-1.29,6.03-.83,12.68-.69,18.73-.09.38.28.75.56,1.12.86,2.61,17.89,1.21,38.7.45,56.83-.94,22.44-14.42,33.89-36.67,32.93-10.08-.43-20.94-3.38-26.39-12.61h0Z"/><path class="cls-1" d="m171.06,80.18c-9.02-16.25-4.66-40.52-4.7-58.38-.01-5.81-.23-11.72.22-17.49-.08-.2-.11-.4-.09-.61l-.04-.09c0-.13.03-.25.06-.38v-.07s.2-.35.2-.35l.07-.3.31-.09.27-.18.18.03c6.41-.36,13.12-.41,19.53.03l.1-.05c.14.06.28.11.42.13.15.11.26.25.34.42.02.27.08.52.18.77-.04.19-.03.38.01.57v.06c.08,17.22-.01,34.47.02,51.71,0,4.16-.38,8.48,1.03,12.47.2.34.38.69.52,1.06.23.31.44.64.61.98,4.29,5.76,14.35,6.11,19.41,1.22,1.15-1.26,2.01-2.74,2.53-4.36,3.52-14.99.6-33.74.63-49.15,0-4.77,0-9.56.08-14.32l-.03-.16c.1-.31.16-.64.18-.97.12-.18.29-.32.49-.42,6.57-.27,13.26-.25,19.82.01l.11-.04c.31.06.6.17.85.35.04.41.11.79.21,1.18,0,.22,0,.43,0,.65l-.04.11c.63,20.77,3.39,45.46-1.03,65.81-4.18,19.21-21.65,24.68-39.65,22.66-9.08-1.02-18.08-4.49-22.77-12.81h0Z"/><path class="cls-1" d="m429.21,35.81v-15.67h.02v15.67h-.02Z"/><path class="cls-1" d="m466.05,35.81h-36.84c12.29,0,24.57,0,36.86,0h-.02Z"/><path class="cls-1" d="m466.05,53.92v-18.1h.02v18.1h-.02Z"/><path class="cls-1" d="m429.21,53.92c12.29,0,24.57,0,36.86,0-12.29,0-24.57,0-36.86,0h0Z"/><path class="cls-1" d="m429.21,73.59v-19.67h.02v19.68h-.02Z"/><path class="cls-1" d="m469.89,73.59h-40.68c13.57.03,27.14,0,40.71,0h-.02Z"/><path class="cls-1" d="m469.89,91.69v-18.1h.02v18.11h-.02Z"/><path class="cls-1" d="m407.29,91.69c20.87,0,41.73,0,62.6,0h.02c-20.87,0-41.74,0-62.61,0h-.01Z"/><path class="cls-1" d="m407.29,2.04c0,23.27,0,46.53,0,69.8v19.85h.01V2.04h-.01Z"/><path class="cls-1" d="m469.89,2.04h-62.6.01c20.87,0,41.74,0,62.61,0h-.02Z"/><path class="cls-1" d="m469.26,20.15c.22.04.44.03.66,0-13.57,0-27.14-.02-40.71,0,13.35,0,26.7,0,40.05,0Z"/><path class="cls-1" d="m469.89,20.15V2.04h.02v18.1h-.02Z"/><path class="cls-1" d="m469.92,20.14V2.04h-62.61v89.66h62.61v-18.11h-40.69v-19.68h36.84v-18.11h-36.84v-15.67h40.69Z"/><path class="cls-1" d="m469.89,19.52v.62h-40.68v15.67h36.84v18.1h-36.84v19.67h40.68v18.1h-62.6V2.04h62.6v17.48h0Z"/><path class="cls-1" d="m417.73,74.5l-.11-.44.11-.79-.17-.49.09-.72-.28-1.16v-.03s0-.05,0-.05l.34-1.13-.31-.9.04-.26-.09-.37.33-.78-.36-.62.09-.52-.25-.76.15-.37-.23-.25.11-.87-.42-1.01v-.11s-.03-.14-.03-.14l.05-.98-.33-.72v-.39s-.14-.49-.14-.49v-.62s-.22-.45-.22-.45v-.65c-.17-.35-.25-.72-.26-1.1l-.11-.25c-.02-.71-.13-1.41-.34-2.09-.86-6.65-.88-13.17-.11-19.83.21-.69.31-1.39.31-2.11l.08-.2c.16-.6.24-1.21.25-1.83l.16-.39c-.04-.38.02-.76.16-1.12v-.47s.24-.65.24-.65l-.04-.88.06-.25v-.19s.3-.95.3-.95l-.09-.99.08-.16-.04-.23.24-.94-.05-.58.2-.6-.11-.9c.06-.15.08-.3.06-.45.22-.57.33-1.17.31-1.78.22-.55.34-1.14.36-1.74.21-.46.44-.93.67-1.38.29-.35.64-.65,1.02-.91.48-.18.98-.31,1.48-.39l.12.14c.25.53.46,1.07.64,1.63-.27,1.15-.55,2.29-.84,3.43v1.18s-.01.01-.01.01v.02s-.33,1.16-.33,1.16l.03.49-.21.68.2.88-.06.28.03.21-.18.94.29.89-.03.24.08.3-.06.83.25.56v.56s.4,1.08.4,1.08v.03c.07.36.13.74.17,1.1l.21.4.13.7c1.39,3.69,3.6,6.79,6.36,9.59.24.46.53.91.84,1.32.07.47.15.94.24,1.41-.18.46-.36.92-.52,1.39-2.94,3.36-5.49,6.62-7.16,10.8l-.07.4-.35.7-.1.73-.22.37c.03.39-.02.76-.17,1.11v.09s-.43,1.02-.43,1.02l.02.61-.31.5.09.8-.1.32.03.24-.42.89.26,1.03-.02.1.02.12-.39,1.02.37.9-.04.25.14.46-.25.7.32.47-.06.7.4.94v.24s.36.98.36.98l-.02.22.06.1.07,1.11c.31,1,.52,2.05.62,3.09-.39.31-.81.6-1.24.85-.37-.27-.75-.59-1.08-.91-.24-.42-.49-.84-.75-1.25-.12-.53-.29-1.05-.51-1.55v-.18h-.01Z"/><path class="cls-1" d="m415.66,81.98c-4.69-7.37-2.77-21.75-3.09-30.32-.38-10.17-.25-20.89.82-31.01.97-9.12,6.19-14.63,15.88-10.15l.8.55.12.55-.06,1.03-.26.17c-.23.36-.48.71-.75,1.04l-.03.07-.82.62-.33.51-.43.3-.55.77-.13.1c-4.46,5.65-4.4,17.15.58,22.48,1.61,1.34,3.4,2.49,5.3,3.39.65.56,1.35,1.06,2.09,1.49.21.54.42,1.08.64,1.61-.48.5-.92,1.03-1.34,1.58-.81.38-1.58.85-2.29,1.41-1.34.66-2.62,1.45-3.81,2.34-6.27,5.44-6.05,20.05-1.63,26.59.29.22.52.51.67.84l.65.54.11.2c.3.23.56.49.78.8l.21.12.54.85.55.39.09.96.24.53-.36.38c-.39.2-.75.45-1.08.74-4.11,1.73-9.88,2.01-13.14-1.47h0Z"/><path class="cls-1" d="m415.71,85.62c-8.69-5.52-4.77-34.89-4.69-44.38.06-6.89.09-13.85.51-20.73.66-10.89,4.28-14.14,15.23-13.61,8.62.41,19.79.4,27.94,3.57-.18.56-.4,1.12-.65,1.66-7.92,2.01-16.26,1.22-23.96,4.06l-.8.56h-.04c-.25.21-.52.36-.84.45l-.36.4-.33.21c-.15.28-.34.53-.56.75-2.83,4.87-2.78,14.76.94,19.1l.1.05.6.55c.33.08.61.23.86.45,6.59,2.83,14.01,3.03,20.92,4.82.42.53.81,1.08,1.16,1.65-5.96,4.18-15.46,3.07-22.27,5.88l-.61.46-.19.08c-.21.22-.44.41-.7.57-4.12,4.93-4.05,18.02-.64,23.34.26.16.48.37.66.62.28.15.53.34.74.59l.26.1.56.46c.34.07.65.19.95.36l.19.04c6.96,2.89,15.14,2.25,22.5,3.57.64.51,1.24,1.06,1.8,1.66-7.55,4.47-31.1,6.26-39.26,2.72h0Z"/><path class="cls-1" d="m412.32,85.43c-6.18-11.48-2.47-35.82-2.3-48.58.1-7.26-.72-15.34.57-22.48,2.09-11.55,12.91-9.13,22.42-8.74,8.16.34,22.62-1.83,29.17,3.27.26.52.5,1.06.73,1.6-.02.53-.07,1.06-.13,1.59-.28.57-.63,1.11-1.04,1.6-9.18,5.47-22.08.53-32.04,4.1l-.28.22-.54.18-.56.56-.07.03c-.13.25-.31.46-.54.62-2.01,4.85-1.83,12.28.23,17.07.2.19.39.39.55.62.28.1.53.24.76.41l.08.02.75.43c8.75,2.48,19.4-.07,27.53,4.06.5.47.94,1.01,1.3,1.6.11.52.18,1.06.21,1.59-.11.56-.29,1.09-.55,1.59-6.29,5.88-20.65,2.67-28.64,5.12-.26.16-.55.29-.84.39l-.22.21-.48.26c-3.02,4.97-3.01,16.63-.49,21.87.22.18.41.4.56.64l.7.33.08.07c.3.11.58.26.83.46l.83.18.15.08c8.09,1.96,25.99-2.12,31.65,4.93.13.52.21,1.05.25,1.59-.1.56-.28,1.09-.53,1.59-6.15,5.92-43.89,6.79-49.94,1.17-.05-.08-.09-.16-.14-.24h0Z"/><path class="cls-1" d="m409.34,70.99c-.05-16.67-.35-33.35.02-50.01.1-4.66-.33-9.94,1.94-14.14.38-.34.77-.68,1.15-1.02,7.65-3.41,18.35-1.39,26.61-1.22,7.34.15,19.33-1.76,25.45,2.63,9.17,13.03-27.6,9.94-33.69,11.15l-.79.11c-.25.18-.52.3-.81.39l-.1.1-.61.27c-2.01,4.64-1.73,11.94-.17,16.73.18.18.31.39.41.63.28.1.54.26.75.47,8.58,2.1,19.08-.89,27.2,2.18,5.65,2.14,7.39,7.5,1.49,10.86-3.21,1.83-9.42,1.05-13.05,1.19-5,.2-10,.2-14.92,1.16l-.42.23-.46.08c-.19.2-.41.36-.65.49-2.6,5.08-2.29,15.37-.45,20.77.22.15.38.34.5.57.28.1.53.27.74.5l.85.16.08.05c5.78,1.23,38.94-2.43,35.16,9.08-2.52,7.66-25.85,4.75-32.69,4.91-6.43.15-15.64,1.74-21.15-1.93-3.1-4.42-2.33-11.15-2.39-16.36h0Z"/><path class="cls-1" d="m409.29,84.76c-3.07-19.87-.82-41.85-.61-61.93.06-5.3-.32-10.89,1.12-16.05.28-.5.6-.97.94-1.42.4-.27.82-.54,1.23-.8,8.19-2.29,17.69-.95,26.11-.85s19.36-1.63,27.15,1.61c.38.34.77.67,1.15,1,1.27,2.84,1.33,5.97.32,8.92-.29.47-.64.91-1.02,1.3-9.68,5.03-24.75,1.14-35.39,2.46l-.33.17-.49.07c-.22.18-.45.33-.71.43-1.41,4.74-.93,10.41-.43,15.31.1.44.28.85.53,1.23.34.07.64.21.91.41,10.08,1.8,21.61-1.11,31.34,2.3.43.25.84.54,1.2.89,1.73,3.17,1.77,7.22-.21,10.27-8.21,5.12-23.08,1.36-32.53,2.96-.24.21-.5.39-.78.53-1.66,5.8-1.17,13.23-.51,19.21.1.49.29.93.58,1.33.34.07.64.21.9.42,10.31,1.95,27.4-3,36.37,3.03,1.76,3.16,1.79,7.2-.17,10.26-6.3,4.05-18.6,2.1-25.98,2.18-8.85.1-20.58,2.16-28.78-1.28-.36-.39-.72-.77-1.08-1.16-.44-.9-.72-1.86-.83-2.85h0Z"/><path class="cls-1" d="m409.62,89c-.29-.56-.55-1.13-.78-1.71-3.09-19.88-.83-42-.72-62.08.04-6.46-.68-13.67,1.12-19.92.36-.38.72-.77,1.07-1.16,7.73-2.77,18.12-1.13,26.2-1.06,9.42.08,19.95-1.2,29.19.93.41.24.83.47,1.26.69.38.44.7.92.94,1.44.79,3.58.92,7.55-.53,10.96-.38.31-.79.61-1.2.88-11.47,3.38-24.68.02-36.47,1.6l-.23.15-.6.11v.4c-.77,4.81-.48,9.94-.23,14.82.05.23.14.45.28.65l.02.44.79.31h.1l.23-.06c10.34,1.23,22.97-1.81,32.8,1.89.38.38.73.8,1.04,1.25.98,3.56,1.03,7.54-.16,11.04-.38.35-.75.71-1.11,1.08-10.02,3.37-22.34.68-32.86,1.77-.27.2-.59.34-.91.41,0,.11,0,.21,0,.32-.88,6.06-.55,12.57-.28,18.7.06.29.17.55.33.79l.02.35.82.33h.09l.2-.06c11.58,1.49,25.59-2.27,36.63,1.8.38.38.73.8,1.05,1.23,1.03,3.54,1.06,7.54-.12,11.05-.38.36-.74.72-1.11,1.1-8.29,2.81-19.09,1.21-27.78,1.27s-19.19,1.46-27.9-.81c-.43-.23-.83-.52-1.2-.85h0Z"/><path class="cls-1" d="m410.53,90.67c-.45-.13-.88-.3-1.29-.52-.32-.48-.62-.98-.89-1.48-3.01-20.61-.57-43.32-.57-64.12,0-6.59-1-14.22,1.03-20.52.41-.26.82-.53,1.2-.83,13.88-2.84,30.3-.69,44.45-.56,4.28.04,8.73-.21,12.88.85.38.33.76.67,1.12,1.01.96,4,.87,8.39.26,12.45-.26.52-.56,1.02-.91,1.48-.45.12-.89.3-1.31.51-12.34,1.86-25.14-.2-37.54.96v.85c-.36,4.72-.25,9.57-.02,14.31,0,.02,0,.03.02.04l.05.94.59.23h.24l.52-.14c10.78.56,22.25-1.02,32.85,1.02.45.2.86.48,1.21.82.23.65.44,1.3.64,1.96.31,3.43.31,6.9-.07,10.32-.21.6-.47,1.17-.77,1.73-.42.22-.84.46-1.24.7-10.7,1.92-22.47.56-33.3.86l-.73.28c0,.32,0,.65.01.97-.37,5.95-.29,12.04-.08,18.01.01.07.04.13.08.18l.04.86.62.25h.23l.5-.15c12.02.67,24.85-1.29,36.68.96.45.2.86.46,1.21.8.24.64.46,1.28.66,1.93.32,3.44.32,6.91-.06,10.34-.21.6-.46,1.19-.76,1.75-.41.23-.83.47-1.23.72-16.92,2.97-39.26,2.66-56.31.21h0Z"/><path class="cls-1" d="m407.92,89.82h0c-2.27-21.78-.37-44.63-.39-66.53,0-6.13-.16-12.3.26-18.42v-.07s.34-.91.34-.91l.02-.36.34-.51h.29c.34-.14.68-.28,1.01-.44,18.55-1.49,39.27-1.69,57.79.12.37.19.74.38,1.11.56h.18s.14.26.14.26c.94,4.71.79,9.99.16,14.75-.28.41-.61.78-.98,1.1-12.76,1.8-26.29.33-39.16.6-.04,5.33-.06,10.65.03,15.99l.4.15h.37l.39-.11c10.85-.07,24.06-1.86,34.56.77.27.58.52,1.16.74,1.76.26,4.36.26,8.74-.06,13.09-.26.52-.58,1-.97,1.43-.46.01-.89.11-1.3.29-11.12.81-22.54.51-33.69.32l-.49.19c.02,6.63-.11,13.28.04,19.91l.41.16h.36l.4-.12c12.05-.08,26.63-2.14,38.35.73.29.55.54,1.12.77,1.7.29,4.37.29,8.77-.04,13.14-.26.52-.57,1-.94,1.45-.44.05-.88.15-1.3.3-14.52,1.08-29.37.36-43.93.33-4.29,0-8.58.03-12.86-.22-.42-.1-.87-.17-1.3-.22-.36-.4-.72-.81-1.08-1.21h0Z"/><path class="cls-1" d="m407.47,90.14l.03-.06c-.01-.21.02-.41.11-.61-1.89-21.65-.31-44.23-.25-65.98.02-6.14-.16-12.32.18-18.44-.11-.68-.1-1.37.03-2.05.16-.19.3-.39.4-.61.39-.05.75-.12,1.14-.21.17,0,.36,0,.53-.01l.11.05c14.89-.45,29.83-.1,44.72-.09,4.37,0,8.75-.03,13.12.11l.08-.04h.49s.07.04.07.04c.35.1.7.17,1.06.22.07.24.19.46.35.66v.05c.03.13.05.27.06.42l-.06.07c.23,4.85.16,9.71.08,14.56v.06c-.08.21-.1.42-.07.65l-.31.45v.2c-.23.12-.47.23-.72.33l-.34-.07c-12.96.91-26.16.1-39.15.22.04,5.28.02,10.55.02,15.83l.2.08h.5l.2-.05c11.46-.06,22.93-.08,34.38.09.29.09.59.14.89.14.1.11.2.23.3.34l-.04.28.23.45c-.02.26.02.51.11.75.03,4.75.05,9.53-.04,14.28v.07s-.15.43-.15.43c0,.13-.03.26-.05.39-.14.22-.33.39-.55.52-.2,0-.4.02-.6.05l-.33-.08c-11.53.71-23.27.27-34.82.18l-.24.09c.11,6.59-.02,13.2.02,19.79l.21.08h.5l.2-.06c12.5-.09,25.06-.3,37.55.09l.08-.04c.19,0,.4.01.6.01.37.17.74.27,1.14.31.05.25.13.48.24.71l.03.38-.04.07c.23,4.91.16,9.85.06,14.76v.07s-.13.4-.13.4c0,.14-.03.28-.05.42-.14.22-.32.4-.54.53-.21,0-.41.02-.62.05l-.34-.09c-15.13,1.01-30.59.24-45.76.23-4.3,0-8.62.06-12.91-.19l-.4.09c-.15,0-.29-.02-.42-.06l-.11.02-.4-.27-.17-.05-.04-.17c-.1-.16-.2-.32-.29-.48l-.05-.36h0Z"/><path class="cls-1" d="m588.1,35.81v-15.67h.04v15.67h-.04Z"/><path class="cls-1" d="m625.14,35.81h-37.03c12.36,0,24.72,0,37.08,0h-.04Z"/><path class="cls-1" d="m625.14,53.92v-18.1h.04v18.1h-.04Z"/><path class="cls-1" d="m588.1,53.92c12.36,0,24.72,0,37.08,0-12.36,0-24.72,0-37.08,0h0Z"/><path class="cls-1" d="m588.1,91.69v-37.78h.04v37.78h-.04Z"/><path class="cls-1" d="m566.19,91.69c7.32,0,14.64-.02,21.95,0-7.32,0-14.64.02-21.95,0h0Z"/><path class="cls-1" d="m566.19,2.04c0,23.33,0,46.66,0,69.99v19.67h.04V2.04h-.04Z"/><path class="cls-1" d="m628.79,2.04h-62.6c20.88-.07,41.76,0,62.64,0h-.04Z"/><path class="cls-1" d="m628.21,20.15c.21.02.41.01.62,0-13.58,0-27.15-.02-40.73,0h40.11Z"/><path class="cls-1" d="m628.79,20.15V2.04h.04v18.1h-.04Z"/><path class="cls-1" d="m628.83,20.14V2.04h-62.61c0,23.33,0,46.66,0,70v19.67h21.92v-37.78h37.04v-18.11h-37.04v-15.67h40.69Z"/><path class="cls-1" d="m628.79,19.58v.57h-40.68v15.67h37.03v18.1h-37.03v37.78h-21.92V2.04h62.6v17.54h0Z"/><path class="cls-1" d="m575.69,59.53c-.17-.31-.28-.65-.31-1l-.16-.25c-.03-.6-.17-1.17-.43-1.72-1.66-8.13-1.36-16.27-.12-24.42l.24-.82c0-.34.02-.69.03-1.03l.29-1v-.77s.1-.25.1-.25v-.36s.16-.67.16-.67l-.02-.48.2-.56-.07-.78.06-.26v-.18s.23-.87.23-.87l-.08-.89.07-.17-.04-.26c.17-.41.22-.84.17-1.28l.18-.63c-.08-.9.04-1.77.38-2.61.22-.43.4-.88.53-1.34.25-.35.5-.71.74-1.08.32-.31.69-.6,1.07-.83.47.07.93.15,1.4.23.17.82.24,1.65.23,2.49-.31,1.05-.59,2.11-.84,3.17v1.08s0,0,0,0h0s-.29,1.07-.29,1.07l.04.51-.16.55.15.69-.07.36.04.28-.13.76.22.71-.03.32.1.39-.03.63.19.43v.59s.34.94.34.94v.07c.12.32.18.66.17,1.01l.18.35.11.65c1.51,4.19,4.05,7.46,6.99,10.75.16.43.34.85.56,1.25-.02.43-.03.86-.05,1.29-.22.41-.43.82-.63,1.24-2.87,3.11-5.52,6.31-7.06,10.3l-.26.4-.23.77-.17.22c-.1.33-.21.67-.31,1h0s-.57,1-.57,1l-.03.16-.67.84-.05.22-.71.43-.42-.65-.62-.23-.14-.77-.48-.65-.03-.35h0Z"/><path class="cls-1" d="m573.76,75.25c-2.08-9.88-2.35-20.71-2.36-30.82,0-7.96-2.08-24.8,2.48-31.57,3.11-4.61,9.6-4.68,14.31-2.43.25.33.55.61.9.85l.26.45-.25.35-.26.95-.34.23-.65.89h-.02c-.22.25-.47.46-.76.63l-.25.38-.43.33c-.14.31-.35.57-.62.77-7.35,9.39-2.09,21.55,7.08,26.53.46.51.95.98,1.47,1.43-.05.49-.09.98-.13,1.47-.56.44-1.1.91-1.6,1.41-12.56,6.49-8.81,17.88-12.3,29.5-.29.43-.51.9-.67,1.4-.35.32-.66.68-.93,1.07-.43.19-.87.39-1.3.59h-.07c-.46-.16-.92-.32-1.38-.47-.3-.36-.63-.7-.98-1.01-.18-.48-.41-.94-.69-1.37-.11-.54-.28-1.06-.51-1.57h0Z"/><path class="cls-1" d="m571.86,79.39c-3.17-13.4-2.12-29.23-1.82-42.96.15-6.67-.61-14.39.83-20.93,2.08-9.44,8.93-9.05,17.29-8.41s16.43,1.08,24.27,2.69c.53.47,1.02.97,1.48,1.5-6.81,4.58-17.48,1.85-25.17,5.09l-.5.39-.26.1c-.2.21-.44.37-.7.5-.17.22-.38.4-.63.52-3.59,4.7-3.33,15.05.31,19.69.24.13.44.31.61.53,7.14,3.89,16.04,2.27,23.05,6.09-.04.5-.11,1-.18,1.5-7.11,3.26-15.52,2.07-22.54,5.75-.21.18-.44.33-.69.45-.17.21-.36.38-.58.53-5.86,8.63-.22,21.2-5.42,30.22-.34.34-.68.67-1.03.99-1.82,1.14-3.89,1.18-5.76.11-.36-.31-.71-.62-1.06-.94-.74-1.03-1.25-2.19-1.5-3.43h0Z"/><path class="cls-1" d="m571.88,85.12c-6.85-11.25-3.09-35.16-2.92-47.99.09-7.32-.67-15.33.55-22.56,1.96-11.55,12.23-9.36,21.73-8.95,7.32.31,25.76-2.36,30.42,4.22.1.48.17.96.22,1.44-.13.48-.26.96-.39,1.45-6.63,6.89-23.45,2.48-32.26,4.83l-.73.41h-.04c-.22.16-.47.27-.74.34l-.31.33-.27.17c-2.75,4.43-2.64,13.83.25,18.14.22.12.42.28.59.47l.25.07.48.31c8.3,2.53,22.04-.66,28.86,5,.25.47.47.95.65,1.45,0,.48-.02.96-.06,1.44-.19.51-.44,1-.75,1.45-7.28,5.57-20.6,1.9-29.13,5.03l-.22.18-.46.2c-.14.21-.31.39-.51.53-2.77,5.17.21,46.01-15.22,32.05h0Z"/><path class="cls-1" d="m569.99,85.68c-3.37-9.21-1.68-21.31-1.82-31-.15-10.38-.04-20.76.1-31.14.07-5.31-.92-13.06,2.65-17.38,8.71-5.14,25.26-1.64,35.3-1.42,5.14.11,16.96-1.55,18.42,5.18,1.72,7.9-9.11,7.24-13.93,7.41-7.24.26-14.84-.39-21.94,1.25l-.44.29-.28.06c-.14.2-.33.36-.54.47-2.12,4.42-1.46,11.08-.52,15.85.14.49.36.94.67,1.34l.38.15.24.21c8.65,2.43,18.47-.45,26.92,2.21,5.56,1.75,8.63,6.97,2.58,10.84-3.03,1.94-9.54,1.13-13.09,1.27-5.18.2-10.48.08-15.52,1.28l-.57.11c-.2.16-.42.28-.66.38-.15.17-.33.31-.54.42-3.78,10.17,2.18,23.85-3.68,33.31-3.45,2.65-9.31,2.58-12.84.14-.3-.4-.59-.82-.87-1.23h0Z"/><path class="cls-1" d="m567.74,75.75c-.27-18.16-.37-36.35-.16-54.52.06-4.96-.58-11.03,1.76-15.54.36-.29.71-.58,1.06-.89,7.97-3.07,18.68-1.21,27.08-1.11s19.83-1.89,27.11,1.9c.37.33.69.7.95,1.12,1.09,2.88,1.1,6.08-.11,8.92-.29.38-.62.74-.98,1.05-10.54,4.97-24.92.29-36.23,2.6l-.29.29-.28.02v.24s-.26.52-.26.52c-.78,4.82-.65,10.05-.05,14.9.12.35.29.7.5,1.01.22.07.43.17.63.28,9.44,1.95,24.55-2.28,32.84,3.14,1.84,2.94,1.79,6.69.42,9.84-.34.33-.68.66-1.01,1-9.27,4.08-21.99.9-31.9,2.51l-.26.15-.37.07-.18.11-.27.31-.12.07v.11c-2.61,10.71,1.37,22.73-2.27,33.26-.28.41-.59.8-.91,1.17-4,2.17-10.26,2.14-14.32.11-.35-.34-.66-.71-.95-1.1-1.37-3.66-1.33-7.67-1.43-11.55h0Z"/><path class="cls-1" d="m568.5,88.66c-3.67-9.26-1.41-22.76-1.46-32.61-.07-11.49-.03-22.99.05-34.48.03-5.23-.34-10.79.93-15.9.26-.44.55-.87.87-1.27.37-.23.75-.44,1.14-.63,8.33-1.86,17.63-.76,26.1-.69,9.21.07,20.03-1.41,28.94,1.11.35.27.72.53,1.1.77.29.48.54.98.77,1.49.59,3.17.59,6.41-.08,9.56-.26.47-.53.93-.82,1.38-.38.22-.76.44-1.13.68-11.65,3.18-24.66-.26-36.53,1.59h-.01s-.63.06-.63.06v.54s-.09.21-.09.21c-.48,4.87-.42,9.96.06,14.83.12.25.21.49.26.79l.26.04.31.17c10.66,1.46,23.06-1.61,33.3,1.86.35.31.69.65,1,1.01,1.22,3.4,1.14,7.23.32,10.73-.25.47-.54.91-.85,1.33-.35.27-.73.49-1.13.66-10.59,2.51-21.99.03-32.73,1.58l-.2.12h-.18s-.33.19-.33.19l.03.5c-1.51,10.85,2.06,23.9-1.78,34.31-.33.32-.68.64-1.02.94-4.51,1.61-10.8,1.56-15.34.08-.35-.29-.7-.58-1.06-.87l-.05-.09h0Z"/><path class="cls-1" d="m568.93,90.36l-.83-.4c-.31-.44-.57-.91-.78-1.4-3.15-21.07-.7-44.3-.63-65.6.02-6.07-.62-12.71.84-18.63.34-.32.67-.65,1-.99,8.45-2.12,18.51-.78,27.16-.74,9.72.04,20.05-.9,29.69.58.39.17.79.32,1.19.47.34.36.65.75.93,1.16.84,4.1.9,8.74-.1,12.8-.27.39-.6.73-.99,1-11.68,3.11-25.24.22-37.25,1.19-.44-.04-.89-.03-1.33.01-.16,5.2-.14,10.41-.02,15.6l.19.6c11.26.97,23.04-.93,34.16,1.08.39.17.78.37,1.14.6.28.49.52,1.01.74,1.53.53,4.01.7,8.35-.34,12.27-.31.34-.66.67-1.01.97-10.89,2.68-23.42.49-34.62,1.21l-.25.14.06.88c-.6,11.15.64,22.53-.76,33.63-.21.52-.44,1.03-.7,1.52-.39.19-.77.41-1.12.66-5.08.98-10.96.93-16.05.05l-.32-.19h0Z"/><path class="cls-1" d="m566.8,89.08c-1.89-20.99-.39-42.82-.36-63.92,0-6.7-.12-13.43.24-20.12.12-.61.28-1.22.5-1.8.39-.19.77-.4,1.14-.63,15.09-1.55,30.96-.39,46.15-.3,4.13.03,8.31-.09,12.4.42.34.29.71.54,1.1.75l.09.26v.13c.8,4.69.89,10.23-.14,14.88l-.07.12h-.1c-.35.19-.71.37-1.06.56-12.64,1.42-26,.56-38.73.48.08,5.2.12,10.43-.01,15.62l.12.4c11.62.28,24.15-1.3,35.59.69.31.38.61.77.88,1.18.48,4.35.41,8.81.15,13.18-.17.59-.36,1.18-.56,1.76-.36.22-.73.4-1.13.54-11.47,1.21-23.36.39-34.88.46l-.17.09c.3,11.77.64,23.97-.35,35.69-.23.47-.52.91-.86,1.31-.42.02-.81.12-1.18.3-5.46.44-11.09.42-16.55.02-.38-.16-.77-.25-1.18-.25-.35-.35-.67-.73-.94-1.14l-.08-.7h0Z"/><path class="cls-1" d="m566.43,90.26c0-.19.03-.37.11-.54-1.07-11.19-.21-22.82-.22-34.07s-.03-21.95-.03-32.91c0-6.38-.05-12.78.15-19.15l-.02-.05c.03-.13.05-.26.05-.39.11-.2.19-.42.24-.64.22-.06.44-.14.64-.24.14,0,.29-.02.43-.05l.07.03c.19,0,.37.01.56.05.39-.13.79-.15,1.19-.07,14.48-.72,29.17-.13,43.66-.12,4.09,0,8.21-.09,12.28.14.41-.1.81-.07,1.2.07.19-.04.39-.06.58-.06l.05-.02c.12.03.24.05.36.05.2.13.41.22.64.28.06.17.1.35.1.53l.16.4v.02c.16,5.09.13,10.22-.01,15.33h0s-.02.14-.02.14c-.14.23-.26.48-.37.73-.11.03-.23.05-.34.05-.19.09-.39.15-.59.16l-.08.04c-13.05.19-26.13.13-39.18.07.06,5.21.06,10.43,0,15.65l.06.2c11.81.1,23.76-.51,35.55.21.17-.05.35-.06.52-.03.22.11.41.25.57.42l.2.42c.25,5.12.3,10.33,0,15.46l.03.05v.28c-.1.25-.18.5-.26.75-.29.08-.57.17-.85.28-11.89.37-23.83.11-35.73.13l-.08.05c.17,12.08.13,24.2-.07,36.27v.04s-.15.41-.15.41c0,.1-.02.2-.04.3-.13.21-.29.38-.5.51-.18,0-.35.02-.53.05l-.29-.08c-6.08.43-12.35.4-18.42.02l-.31.07c-.13,0-.26,0-.39-.04h-.04s-.46-.3-.46-.3h-.05s-.01-.06-.01-.06c-.12-.19-.23-.39-.34-.58l-.03-.21.02-.04h0Z"/><path class="cls-1" d="m31.59,91.69h21.92c-7.32.02-14.64,0-21.96,0h.04Z"/><path class="cls-1" d="m.98,2.04c10.2,18.14,20.4,36.28,30.61,54.42v35.23h-.04v-35.23C21.35,38.32,11.14,20.18.94,2.04h.04Z"/><path class="cls-1" d="m24.84,2.04c-7.97,0-15.93.02-23.9,0,7.97,0,15.93-.02,23.9,0Z"/><path class="cls-1" d="m42.52,35.17c-5.89-11.04-11.79-22.08-17.68-33.13h-.04c5.89,11.04,11.79,22.08,17.68,33.12h.04Z"/><path class="cls-1" d="m60.26,2.04c-5.91,11.04-11.83,22.08-17.74,33.13h-.04c5.91-11.05,11.83-22.09,17.74-33.13h.04Z"/><path class="cls-1" d="m84.11,2.04c-7.96,0-15.93.02-23.89,0,7.96,0,15.93-.02,23.89,0Z"/><path class="cls-1" d="m53.51,56.46c10.2-18.14,20.4-36.28,30.61-54.42h-.03c-10.2,18.14-20.41,36.28-30.61,54.42v35.24h.04c0-11.75,0-23.49,0-35.24h0Z"/><path class="cls-1" d="m53.77,55.98l-.27.48v35.23h-21.92v-35.23C21.39,38.32,11.19,20.18.98,2.04h23.86c5.89,11.04,11.79,22.08,17.68,33.13,5.91-11.04,11.83-22.08,17.74-33.13h23.86c-10.11,17.98-20.23,35.96-30.34,53.94h0Z"/><path class="cls-1" d="m42.67,36.06l-.19-.9c-5.89-11.04-11.79-22.09-17.68-33.13H.94l.21.12-.21-.12c10.2,18.14,20.41,36.28,30.61,54.43v35.24h21.92v-35.24c10.2-18.14,20.41-36.28,30.61-54.43l-.21.13.21-.13h-23.86c-5.91,11.04-11.83,22.09-17.74,33.13l.19.9h0Z"/><path class="cls-1" d="m36.95,51.95c-1.67-3.56-3.53-7.71-2.7-11.66.37-.27.73-.54,1.09-.82.44-.01.88-.04,1.32-.07.44.12.89.18,1.34.18,3.21.72,6.56.6,9.75-.18.42,0,.86-.02,1.29-.05l.07-.02c.42.11.83.26,1.22.45,2.17,5.38-2.67,12.8-4.65,17.8-.25.35-.4.74-.46,1.17l-.09.13c-.14.34-.27.68-.41,1.02l-.47.71-.1.39-.49.5-.2.51-.9.38-.19.21-.32-.07-.06-.14-.81-.68-.06-.21-.59-.83v-.05c-.16-.27-.28-.56-.35-.87l-.18-.22-.18-.64-.31-.52c-.85-2.13-1.71-4.27-2.57-6.41h0Z"/><path class="cls-1" d="m31.83,45.65c-3.03-7.25-6.38-15.15-7.91-22.85.88.42,1.72.91,2.51,1.48,3.36,4.7,7.13,9.61,12.07,12.67.28.12.53.27.77.46.3.05.58.16.83.34,1.43.43,2.94.46,4.38.07.26-.15.54-.25.85-.3.23-.21.49-.36.78-.44,6.25-3.63,9.3-10.38,14.72-14.93-.03,1-.06,2-.09,3-6.87,16.43-11.13,32.07-14.98,49.15-.24.47-.39.97-.46,1.5-.22.44-.42.89-.61,1.34-.29.35-.57.7-.85,1.06-.41.19-.84.36-1.27.5l-.72-.09c-.34-.29-.7-.54-1.09-.75-.2-.43-.45-.82-.76-1.16-.11-.49-.3-.96-.56-1.39-.11-.51-.25-1.02-.44-1.51-1.92-10.02-3.2-18.58-7.17-28.13h0Z"/><path class="cls-1" d="m25.56,36.2c-3.02-6.31-11.43-17.04-9.38-24.35.32-.36.68-.68,1.06-.97.46-.12.93-.24,1.4-.34,9.98,1.28,13.65,19.94,21.39,25.77l.42.16.31.23c.28.02.54.09.77.23.5.09,1.01.1,1.52.03.25-.1.51-.16.78-.18.22-.18.48-.29.76-.33.19-.24.42-.41.68-.52,7.72-6.1,10.54-23.01,20.46-25.39.5.03,1,.09,1.5.15.4.24.8.48,1.2.73.28.52.52,1.08.7,1.64-.17,8.69-7.28,17.98-11.01,25.71-4.63,9.62-8.31,17.51-9.11,28.18-.4,5.28.04,11.68-3.38,16.05-1.7,1.33-3.73,1.51-5.69.54-6.21-5.16-3.4-17.91-4.88-25.07-1.6-7.72-6.15-15.14-9.53-22.27h0Z"/><path class="cls-1" d="m32.16,52.48C27.63,43.27,9.08,18.27,13.21,8.87,24.35-.3,34.61,29.72,40.09,35.12l.41.45.71.38h0c.23.09.44.2.64.35.31.04.61.05.92.02.21-.12.44-.2.67-.24.21-.16.44-.28.7-.37l.23-.25.44-.27c6.14-6.47,14.73-34.02,26.58-26.67,5.89,9.18-16.04,36.17-19.24,45.25-2.66,7.55-1.23,15.69-2.35,23.52-1.53,10.71-11.98,13.3-14.54,1.65-1.89-8.59,1.1-18.37-3.12-26.46h0Z"/><path class="cls-1" d="m31.86,53.57C27.69,45.25,6.14,15.57,11.06,7.01c15.2-9.63,22.74,19.95,29.8,28l.14.07.44.49.49.18.12.11h.48s.14.12.14.12l.08-.13.54-.14.29-.34.31-.15c7.63-8.54,14.06-36.63,29.67-28.49.32.33.64.66.96.99,2.44,9.35-11.41,26.81-15.57,34.66-6.78,12.79-6.68,21.25-7.95,35.31-.72,8-5.73,15.07-14.65,9.22-6.68-9.01.34-23.46-4.49-33.34h0Z"/><path class="cls-1" d="m33.08,76.59c-.29-11.3.07-19.49-5.4-29.59-3.89-7.18-7.84-14.32-11.74-21.49-2.91-5.35-8.04-12.16-7.72-18.45l.15-.4c.28-.37.59-.73.9-1.06,19.13-8.72,23.36,18.86,32.36,29.61l.15.05.31.3h.15s.38.3.38.3l.22-.37.28-.07C52.26,24.38,56.31-1.94,75.33,5.38c.38.21.71.48.99.83l.41.84c.58,8.97-9.56,21.75-13.74,29.37-6.51,11.86-10.69,19.75-10.97,33.29-.12,5.73.8,12.96-2,18.12-.32.3-.66.58-1.02.83-4.07,1.52-9.42,1.58-13.4-.22-.32-.32-.63-.65-.94-.98-1.5-3.36-1.5-7.22-1.57-10.86h0Z"/><path class="cls-1" d="m30.19,52.57C22.41,38.45,10.53,23.06,6.46,7.51c.03-.39.02-.79-.03-1.18l.31-.98.28-.34.7-.49c4.63-1.6,11.54-2.12,16.1-.16,8.25,8.41,10.95,21.56,18.21,30.77.04.08.09.17.13.25l.44.33.37-.6h.03c6.52-9.08,9.94-24.25,18.87-31.17,4.67-1.17,10.43-.97,15.04.4.34.21.69.41,1.04.61l.05.06c.18.44.38.88.58,1.32-2.01,17.25-19.36,34.46-25.78,50.38-.45,10.1,1.32,21.52-1.33,31.33-.26.4-.54.78-.85,1.15-.38.17-.75.37-1.11.59-4.53,1.06-9.92,1.13-14.4-.15-.36-.24-.71-.48-1.05-.73-.25-.45-.49-.91-.73-1.37-2.13-9.94-.53-20.72-1.2-30.82-.46-1.45-1.12-2.84-1.93-4.14h0Z"/><path class="cls-1" d="m30.11,53.09C21.92,38.13,10.58,22.85,5.07,6.68c0-.38-.05-.76-.16-1.14.11-.42.21-.83.31-1.25l.02-.02c.34-.2.69-.41,1.03-.62,5.29-1.33,11.55-1.28,16.95-.56.37.17.73.35,1.1.52,7.38,9.09,11.29,21.14,17.56,31,.12.24.25.48.38.72l.33.25c6.19-10.27,10.7-22.01,17.82-31.67.33-.24.67-.47,1-.7,5.36-.95,11.64-.8,16.97.31.33.22.68.38,1.06.48l.29.27.43,1.23v.05c-3.57,14.77-15.3,29.61-22.7,42.96h0c-1.51,2.68-3.08,5.34-4.36,8.13-.17,10.33,1.72,22.81-1.09,32.78-.31.3-.64.59-.98.87-5.02,1.31-11.14,1.09-16.25.28-.36-.19-.73-.35-1.12-.47-.34-.34-.62-.72-.85-1.14-1.96-10.36-.65-21.8-.88-32.32-.54-1.21-1.14-2.39-1.8-3.54h0Z"/><path class="cls-1" d="m32.33,90.19c-1.94-10.77-.47-22.7-.64-33.64C23.1,39.38,11.38,23.47,3.87,5.78c-.02-.38-.12-.74-.29-1.08.08-.4.13-.81.16-1.21l.06-.07c.35-.14.71-.3,1.05-.47,6.04-.97,12.61-.86,18.71-.41.35.16.71.31,1.07.45,6.89,9.91,12.07,21.6,17.69,32.29l.22.17c5.67-10.72,11.12-21.8,17.53-32.09.33-.25.66-.49.99-.73,6.08-.62,12.66-.55,18.72.25.34.19.7.31,1.08.35l.34.27c.08.41.18.83.29,1.23-6.22,18.03-19.19,34.92-28.18,51.74-.22,10.82.38,21.74-.36,32.53-.17.53-.36,1.06-.57,1.57-.39.1-.75.27-1.09.49-5.79.63-12.15.72-17.92-.08-.34-.26-.69-.51-1.04-.75v-.03h0Z"/><path class="cls-1" d="m31.74,89.65c-.41-11.03-.11-22.11-.13-33.15-6.78-12.35-13.79-24.57-20.69-36.85-2.16-3.85-4.42-7.68-6.39-11.63-.27-.28-.44-.61-.52-.98-.28-.27-.45-.61-.51-.99-.16-.16-.28-.33-.38-.52l-.1-.49c-.16-.15-.29-.32-.38-.5l-.06-.56c-.16-.12-.28-.27-.38-.43h0s0-.01,0-.01c.09-.23.18-.47.26-.7l.49-.12.34-.35c.12,0,.24,0,.36.03,6.7-.42,13.53-.42,20.24-.16l.63.21h.17c6.65,10.37,11.97,21.88,17.71,32.8l.11.08c5.63-10.94,11.35-22.1,17.61-32.7.13-.15.28-.26.45-.34.12-.02.24-.04.36-.07l.04.03c6.97-.29,14.3-.52,21.22.3l.02-.02h.08s.11.09.11.09l.03.17.36.73c-.03.09-.09.16-.16.22-6.6,14.84-15.84,28.89-23.77,43.05-1.79,3.19-3.58,6.39-5.41,9.55-.27,11.21,1.78,23.96-.54,34.89v.02c-.11.06-.23.12-.35.17l-.23-.08c-6.36.72-13.02.37-19.42.18h-.06c-.27-.17-.56-.28-.87-.34-.16-.47-.25-.96-.27-1.45l.02-.05h0Z"/><path class="cls-1" d="m489.94,2.04c0,23.32,0,46.64,0,69.96v19.69h.02V2.04h-.02Z"/><path class="cls-1" d="m511.86,2.04h-21.92c7.31-.02,14.63,0,21.94,0h-.03Z"/><path class="cls-1" d="m511.86,73.59c0-18.58,0-37.16,0-55.74V2.04h.03c0,18.57,0,37.16,0,55.74v15.82h-.03Z"/><path class="cls-1" d="m552.29,73.59h-40.43c13.49.03,26.97,0,40.46,0h-.03Z"/><path class="cls-1" d="m551.77,91.69c.19-.03.37-.03.55,0-20.79,0-41.59.06-62.38,0,20.61,0,41.22,0,61.83,0Z"/><path class="cls-1" d="m552.29,91.69v-18.1h.03v18.11h-.03Z"/><path class="cls-1" d="m552.32,91.7v-18.11c-13.48,0-26.96,0-40.43,0,0-18.58,0-37.16,0-55.74V2.04h-21.92v89.66c20.78,0,41.57,0,62.35,0Z"/><path class="cls-1" d="m552.29,91.18v.52c-20.78,0-41.56,0-62.34,0,0-23.32,0-46.64,0-69.96V2.04h21.92c0,18.58,0,37.16,0,55.74v15.81h40.43v17.59h0Z"/><path class="cls-1" d="m497.11,78.28c-3.01-14.31-.72-31.75-.32-46.32.12-4.44.23-8.95,1.27-13.29.2-.44.35-.91.47-1.38.25-.37.48-.75.68-1.14.3-.28.61-.57.92-.84.5-.02,1-.04,1.49-.07l.06.02c.31.27.63.54.95.8.2.39.44.77.7,1.12.16.45.33.9.5,1.34,3.67,15.36.24,31.93,1.85,47.55.46,4.48,1.03,8.83,4.17,12.33l.25.4.55.5.07.16c.23.23.44.48.61.75l.1.07.42.97.12.13-.04.37-.45.98c-4.94,2.83-13.15,2.24-14.38-4.46h0Z"/><path class="cls-1" d="m494.71,76.05c-1.14-18.07-2.11-39.01.5-56.93.64-4.37,3.49-13.38,9.25-7.72,7.72,12.08,2.49,37.45,3,51.41.16,4.47-.29,9.96,3.05,13.4.21.15.39.34.55.55.25.1.46.25.64.46.26.09.5.21.72.37l.15.05c5.37,2.68,11.93,3.12,17.85,3.74.98.39,1.94.84,2.87,1.34-9.91,4.74-38.24,9.08-38.57-6.68h0Z"/><path class="cls-1" d="m494.82,84.22c-3.34-8.46-1.56-19.81-1.55-28.74.01-9.75-.07-19.51.15-29.26.1-4.3-.85-11.99,1.68-15.69,4.17-6.13,10.48-3.12,12.53,2.7,2.91,8.28.93,20.31.95,28.99.02,9.18-2.69,24.48,1.93,32.61.19.12.36.27.49.44.21.12.39.27.54.45l.24.09.4.3c8.76,3.4,25.31-1.81,31.79,5.31.13.43.24.87.32,1.31-.11.44-.24.88-.4,1.31-5.77,5.64-44.73,7.76-49.08.18h0Z"/><path class="cls-1" d="m493.5,84.9c-5.14-18.04-1.38-42.59-1.03-61.29.08-4.18-.9-12.23,1.99-15.6,3.25-3.79,10.47-3.37,13.36.56,4.65,6.32,1.74,23.75,1.75,31.31,0,10.21-2.55,24.84,1.32,34.38.16.14.3.3.41.48l.48.23.1.09c.23.08.45.18.65.33l.47.09c7.11,1.93,31.75-2.43,34.28,5.63,3.3,10.52-28.56,7.79-34.45,7.93-5.35.12-16.7,2.09-19.34-4.13h0Z"/><path class="cls-1" d="m492.87,86.62c-2.95-9.42-1.23-21.14-1.22-30.9.01-10.46-.1-20.92.04-31.37.07-5.62-.96-13.6,2.38-18.36,3.75-2.33,9.88-2.26,13.67-.08,4.67,6.17,2.45,19.03,2.49,26.43.04,8.88,0,17.76.05,26.64.03,4.88-.45,10.16.86,14.88.17.12.3.26.41.43h.03s.5.38.5.38l.49.09.21.12c8.18,1.54,31.37-3.11,35.87,4.37,8.16,13.57-27.62,10.5-33.61,10.59-6.38.1-15.91,1.84-21.4-1.99-.26-.39-.52-.8-.77-1.2h0Z"/><path class="cls-1" d="m493.2,89.03c-.3-.31-.59-.64-.85-.99-3.36-9.56-1.28-22.61-1.28-32.66,0-10.51-.05-21.02.06-31.53.06-5.83-.75-12.74,1.48-18.21.28-.32.58-.62.89-.9,4.28-1.79,10.46-1.76,14.77-.06.33.26.64.54.92.86,6.02,13.84,1.58,37.68,1.62,52.69.01,4.85-.16,9.76.35,14.58.08.25.15.5.2.76.15.16.28.33.39.52l.28.08.21.16c10.85,1.82,27.19-3.13,36.71,2.53,1.88,3.07,1.8,7.1.74,10.51-.24.39-.5.77-.79,1.13-7.17,4.11-20.18,1.82-28.28,1.89s-19.93,2.28-27.43-1.35h0Z"/><path class="cls-1" d="m490.86,84.01c-.83-20.18-.27-40.51-.15-60.69.04-5.81-.35-11.86.75-17.59.21-.44.44-.88.67-1.31.33-.22.66-.45.99-.67,4.79-1.25,10.73-1.22,15.54-.05.33.21.67.42,1.01.62.25.41.48.82.71,1.24,3.39,16.33.81,35.46.85,52.11.01,5.04-.04,10.1.16,15.13.06.21.12.42.15.64.16.14.28.3.36.48h.03l.44.13.07-.02c11.64,1.24,25.84-2.3,36.93,1.56.3.29.61.57.91.86,1.29,3.86,1.31,8.62-.05,12.46-.3.28-.61.55-.93.82-8.82,2.95-20.5,1.1-29.73,1.16-8.46.05-18.49,1.49-26.72-.86-.3-.27-.62-.52-.94-.77-.75-1.64-1.11-3.44-1.07-5.26h0Z"/><path class="cls-1" d="m491.14,89.56l-.25-.52c-3.01-21.17-.55-44.34-.49-65.72.02-6.21-.42-12.67.61-18.8.21-.41.47-.77.78-1.1.37-.1.72-.24,1.06-.43,5.21-.74,10.87-.71,16.09-.03.34.17.7.3,1.07.39.33.3.6.63.82,1.01,3.18,16.9.73,36.4.7,53.59,0,4.95-.04,9.9.09,14.84.07.2.09.4.06.61l.23.44h.15l.33.09.34-.08c.21,0,.42.01.63.04,11.91.6,24.55-1.34,36.31.77.33.2.67.4,1.02.57.26.43.48.87.66,1.34.54,4.01.55,8.22-.03,12.23-.18.45-.41.88-.69,1.28-.36.15-.69.32-1.02.53-14.33,2.5-30.33.75-44.86.67-4.04-.02-8.13.11-12.13-.52-.34-.17-.68-.34-1.02-.51l-.46-.72h0Z"/><path class="cls-1" d="m490.51,90.06c-2.3-21.79-.39-44.81-.36-66.73,0-6.56-.44-13.37.46-19.86.25-.33.56-.59.93-.78,5.98-.82,12.69-.78,18.68-.03.34.19.68.41.98.65.06.58.17,1.16.32,1.73.76,17.99.21,36.13.21,54.15,0,4.76.03,9.53.01,14.29l.15.29h.28l.22.06c.33-.1.66-.11,1-.02,12.06-.21,24.46-.56,36.49.27.34.15.71.24,1.09.26.3.34.56.71.8,1.1.46,4.78.5,9.78-.04,14.56-.24.36-.53.7-.85,1-.37,0-.72.08-1.05.23-18.7,1.31-38.69,1.28-57.4.06-.33-.14-.69-.21-1.05-.22-.31-.31-.6-.65-.85-1h0Z"/><path class="cls-1" d="m490.46,91.22l-.02-.07c-.1-.16-.19-.32-.29-.48l-.03-.22.02-.04c0-.17.02-.33.09-.49-.93-11.27-.19-22.89-.19-34.22s0-22.56,0-33.84c0-6.31-.13-12.65.16-18.94l.21-.32.03-.1c.3-.14.62-.25.94-.32l.05.02c6.29-.23,12.63-.23,18.92,0l.06-.02.23.02c.24.16.51.26.81.28.21.37.31.77.29,1.18v.03c.61,17.89.08,35.9.08,53.82,0,5.33.11,10.67,0,16.01l.08.15h.4l.11.03c.33-.06.68-.06,1.02-.01,9.47-.16,18.97-.1,28.44-.04,2.66.02,5.33,0,7.98.14.21-.04.41-.05.62-.04l.47.14c.17-.02.33-.03.5-.03l.04-.03.23.09c.21.32.38.67.5,1.03,0,.04,0,.07,0,.11l-.05.28c.19,4.86.19,9.79,0,14.64l.06.25c-.01.05-.01.11,0,.16l-.09.25c-.19.28-.4.55-.63.79h-.06c-.14.03-.29.05-.44.05l-.27-.06c-15.18.85-30.59.2-45.8.19-4.43,0-8.88.07-13.3-.18l-.29.07c-.12,0-.23,0-.34-.04h-.05s-.38-.25-.38-.25l-.07-.02h0Z"/></g></svg>