<?xml version="1.0" encoding="UTF-8"?><svg id="Layer_2" xmlns="http://www.w3.org/2000/svg" viewBox="0 0 317.71 330.29"><defs><style>.cls-1{fill:#fff;stroke-width:0px;}</style></defs><g id="Layer_2-2"><path class="cls-1" d="m316.46,175.68l-1.9-.32c.48-2.83.9-5.7,1.24-8.54l1.91.23c-.34,2.87-.77,5.77-1.25,8.63Z"/><path class="cls-1" d="m187.26,317.41l-.5-1.86c5.35-1.43,10.69-3.14,15.88-5.07l.67,1.81c-5.25,1.96-10.65,3.68-16.06,5.13Zm31.56-11.77l-.84-1.73c4.98-2.42,9.91-5.11,14.64-8l1,1.65c-4.79,2.92-9.77,5.64-14.8,8.09Zm28.77-17.54l-1.15-1.54c4.44-3.32,8.77-6.89,12.88-10.62l1.3,1.43c-4.15,3.77-8.53,7.38-13.02,10.73Zm24.96-22.64l-1.42-1.3c3.74-4.1,7.32-8.42,10.66-12.85l1.54,1.16c-3.37,4.48-6.99,8.84-10.77,12.99Zm20.27-26.93l-1.64-1.01c2.9-4.73,5.61-9.65,8.05-14.63l1.73.85c-2.46,5.03-5.2,10-8.14,14.79Zm14.83-30.28l-1.8-.68c1.95-5.19,3.68-10.54,5.13-15.89l1.86.5c-1.46,5.41-3.21,10.82-5.18,16.07Z"/><path class="cls-1" d="m162.08,322.22l-.22-1.91c2.85-.33,5.72-.74,8.54-1.21l.32,1.9c-2.85.48-5.76.89-8.64,1.23Z"/><polygon class="cls-1" points="168.87 309.97 170.8 311.56 162.92 321.08 172.98 328.25 171.52 330.29 159.27 321.55 168.87 309.97"/><path class="cls-1" d="m160.97,2.29c-2.85-.19-5.75-.31-8.62-.36l.03-1.93c2.9.05,5.83.17,8.71.36l-.13,1.92Z"/><path class="cls-1" d="m262.66,43.35c-4.72-3.99-9.7-7.76-14.81-11.23l1.08-1.6c5.16,3.5,10.2,7.32,14.97,11.35l-1.24,1.47Zm-30.71-20.83c-5.45-2.91-11.11-5.56-16.83-7.87l.72-1.79c5.78,2.34,11.51,5.01,17.02,7.96l-.91,1.7Zm-34.41-13.91c-5.93-1.69-12.03-3.08-18.12-4.13l.33-1.9c6.16,1.06,12.32,2.47,18.32,4.18l-.53,1.85Z"/><path class="cls-1" d="m282.02,62.44c-1.88-2.16-3.84-4.31-5.82-6.37l1.39-1.33c2,2.09,3.98,4.26,5.88,6.44l-1.45,1.26Z"/><polygon class="cls-1" points="269.53 62.44 269.77 59.94 282.07 61.12 282.35 48.77 284.86 48.83 284.51 63.88 269.53 62.44"/><path class="cls-1" d="m1.62,82.14l-1.62-1.05c1.58-2.43,3.23-4.85,4.93-7.2l1.56,1.13c-1.68,2.32-3.31,4.72-4.87,7.12Z"/><path class="cls-1" d="m14.97,64.18l-1.47-1.25c2.98-3.52,6.15-6.98,9.4-10.26l1.37,1.36c-3.22,3.25-6.34,6.66-9.3,10.15Zm19.35-19.54l-1.26-1.46c3.5-3.02,7.15-5.94,10.87-8.68l1.14,1.55c-3.68,2.71-7.3,5.6-10.76,8.58Z"/><path class="cls-1" d="m56.47,28.33l-1.02-1.64c2.46-1.53,4.99-3.02,7.52-4.42l.94,1.68c-2.5,1.39-5.01,2.86-7.43,4.38Z"/><polygon class="cls-1" points="61.35 36.18 58.96 35.44 62.63 23.64 50.59 20.84 51.17 18.4 65.82 21.81 61.35 36.18"/></g></svg>