<?xml version="1.0" encoding="UTF-8"?><svg id="Layer_2" xmlns="http://www.w3.org/2000/svg" viewBox="0 0 614.41 518.04"><defs><style>.cls-1{fill:none;stroke:#fff;stroke-miterlimit:10;stroke-width:.25px;}</style></defs><g id="Layer_1-2"><path class="cls-1" d="m614.27,353.59c.39,26.74-5.8,54.31-25.86,73.29-19.19,18.16-46.25,26.59-70.27,36.28-55.58,22.41-112.48,43.83-172.24,51.65-30.39,3.98-62.61,5.6-92.09-4.21-26.64-8.86-48.62-27.09-71.12-43.2-52.93-37.92-114.8-64.38-137.25-130.55-9.6-28.28-15.54-57.99-22.77-86.95-6.79-27.2-14.63-54.37-19.19-82.05-4.14-25.11-6.23-53.05,4.65-76.83,12.03-26.29,39.32-34.92,61.6-50.23,21.73-14.94,43.81-33.01,71.75-31.71,16.48.76,32.08,7.55,48.59,8.11,14.13.48,25.87-5.38,38.76-10.21,27.07-10.14,55.66-7.15,83.61-2.96,30.92,4.63,61.86,10.57,91.48,20.76s59.1,25.45,81.33,48.51c20.58,21.34,32.39,48.09,42.82,75.44,10.82,28.36,21,57.17,40.29,81.09,9.72,12.05,20.57,23.15,27.57,37.13,7.37,14.71,11.1,31,14.07,47.09,2.4,13.05,4.1,26.27,4.27,39.55h0Z"/></g></svg>