<?xml version="1.0" encoding="UTF-8"?><svg id="Layer_2" xmlns="http://www.w3.org/2000/svg" viewBox="0 0 477.78 412.67"><defs><style>.cls-1{fill:none;stroke:#fff;stroke-miterlimit:10;stroke-width:.25px;}</style></defs><g id="Layer_1-2"><path class="cls-1" d="m61.06,312.71c-31.47-34.29-46.15-79.32-54.94-124.16C-2.57,144.19-5.89,93.72,25.2,56.98,55.78,20.83,101.78,13.04,146.01,5.98c47.08-7.52,91.64-9.04,138.17,2.91,43.3,11.12,83.5,33.14,111.39,68.69,28.27,36.03,47.01,81.58,65.04,123.37,17.77,41.17,27.6,89.72-.97,128.64-27.2,37.06-76.89,56.8-119.36,69.79s-93.1,18.77-137.93,5.41c-42.6-12.7-83.57-40.35-117.14-68.93-8.55-7.28-16.54-14.86-24.15-23.14h0Z"/></g></svg>