<?xml version="1.0" encoding="UTF-8"?><svg id="Layer_2" xmlns="http://www.w3.org/2000/svg" viewBox="0 0 612.79 517.11"><defs><style>.cls-1{fill:none;stroke:#fff;stroke-miterlimit:10;stroke-width:.25px;}</style></defs><g id="Layer_1-2"><path class="cls-1" d="m85.06,397.61c-43.18-43.73-50.79-104.51-65.31-161.8-12.34-48.71-39.31-124.68,4.25-165.35,10.81-10.09,24.63-16.15,37.09-23.84,12.07-7.45,23.13-16.4,35.3-23.71,12.3-7.39,25.66-12.77,40.14-13.27s28.36,4.07,42.43,6.34c29.24,4.71,53.76-14.08,82.7-15.61,28-1.48,56.67,4.22,84.05,9.48,58.3,11.21,120.9,32.52,155.3,84.29,16.82,25.31,25.66,54.73,36.99,82.66,6.06,14.93,12.99,29.6,22.05,42.97,8.14,12,18.6,22.16,26.84,34.08,15.89,22.99,21.87,52.42,24.65,79.85s1.12,59.55-17.11,83.19c-17.73,22.99-47.49,32.77-73.43,43.3-27.48,11.17-55.11,21.87-83.26,31.24-53.6,17.84-118.59,34.35-174.81,20.27-28.47-7.13-51.72-25.1-75.11-41.91-22.48-16.15-46.44-29.97-69.19-45.71-11.78-8.15-22.89-16.92-33.58-26.46h0Z"/></g></svg>