<?xml version="1.0" encoding="UTF-8"?><svg id="Layer_2" xmlns="http://www.w3.org/2000/svg" viewBox="0 0 593.8 501.66"><defs><style>.cls-1{fill:none;stroke:#fff;stroke-miterlimit:10;stroke-width:.25px;}</style></defs><g id="Layer_1-2"><path class="cls-1" d="m87.89,391.4c-44.15-40.25-55.25-96.37-68.56-152.18-11.7-49.03-36.51-119.86-.22-164.07,16.73-20.39,44.8-36.16,67.47-49.15,13.44-7.7,27.7-13.51,43.35-14.27,13.57-.66,26.8,2.12,40.28,3.03,29.97,2.01,56.53-13.67,86.31-14.55,27.56-.81,55.43,4.18,82.33,9.71,53.37,10.96,108.75,31.4,142.45,76.61,17.68,23.72,27.6,51.8,38.92,78.83,10.39,24.82,22.61,47.04,38.29,68.9,30.02,41.86,48.01,106.03,24.15,155.14-13.32,27.4-40.97,41.24-67.55,53.13-25.58,11.45-51.52,21.91-77.97,31.18-52.67,18.45-112.76,34.2-168.88,25.26-28.77-4.58-53.13-18.7-76.83-34.96s-47.67-31.61-71.29-47.75c-11.16-7.62-22.3-15.67-32.24-24.85h0Z"/></g></svg>