<?xml version="1.0" encoding="UTF-8"?><svg id="Layer_2" xmlns="http://www.w3.org/2000/svg" viewBox="0 0 574.76 488.06"><defs><style>.cls-1{fill:none;stroke:#fff;stroke-miterlimit:10;stroke-width:.25px;}</style></defs><g id="Layer_1-2"><path class="cls-1" d="m79.22,376.12c-42.1-40.31-52.57-99.52-65.42-153.94C2.01,172.22-15.12,105.77,26.77,64.97c17.29-16.84,40.58-32.24,62.4-42.42,26.84-12.52,52.5-7.76,80.87-8.99,26.74-1.17,51.56-12.48,78.43-13.33,26.16-.82,52.96,3.46,78.46,8.96,52.99,11.42,106.51,31.7,140.1,76.53,16.29,21.74,26.43,46.93,36.93,71.77,11.02,26.06,23.91,50.27,39.53,73.85,28.76,43.41,46.56,112.38,12.62,158.21-16.9,22.82-43.79,35.1-68.89,46.75s-50.45,21.23-76.4,29.69c-51.45,16.77-111.07,30.05-164.64,16.08-25.8-6.72-48.34-21.27-70.22-36s-44.43-29.05-65.94-44.57c-10.82-7.81-21.09-16.23-30.8-25.39h0Z"/></g></svg>