<?xml version="1.0" encoding="UTF-8"?><svg id="Layer_2" xmlns="http://www.w3.org/2000/svg" viewBox="0 0 604.81 511.54"><defs><style>.cls-1{fill:none;stroke:#fff;stroke-miterlimit:10;stroke-width:.25px;}</style></defs><g id="Layer_1-2"><path class="cls-1" d="m79.62,389.57c-41.28-42.88-50-106.99-63.15-162.91-11.88-50.51-36.07-124.64,14.23-162.39,10.89-8.17,22.94-14.45,34.22-22.02,11.92-8,23.4-16.75,36.39-23.03,13.88-6.71,27.89-9.78,43.33-8.42,13.53,1.2,26.73,5.27,40.35,5.54,14.99.3,27.96-5.62,41.86-10.25C240.36,1.6,254.53-.05,268.73.14c27.45.38,55.48,5.55,82.23,11.44,56.4,12.41,114.41,34.89,146.38,86.03,15.09,24.14,23.59,51.25,34.48,77.35,11.38,27.26,27.17,48.86,44.41,72.51,17.34,23.77,24.59,52.92,27.42,81.89,2.82,28.89.85,60.92-18.57,84.2s-49.72,33.47-76.31,44.24-53.19,21.13-80.48,29.96c-52.58,17.01-115.29,32.38-170.15,17.89-28.47-7.52-51.69-25.39-75.38-42.01-23.04-16.17-47.41-30.37-70.31-46.73-11.57-8.27-22.95-17.06-32.84-27.33h0Z"/></g></svg>