<?xml version="1.0" encoding="UTF-8"?><svg id="Layer_2" xmlns="http://www.w3.org/2000/svg" viewBox="0 0 517.56 444.87"><defs><style>.cls-1{fill:none;stroke:#fff;stroke-miterlimit:10;stroke-width:.25px;}</style></defs><g id="Layer_1-2"><path class="cls-1" d="m65.97,337.7C31.31,299.06,17.53,249.15,7.45,199.29-2.43,150.36-8.18,94.64,30.04,56.11c16.74-16.88,38.31-30.25,61.15-37.01,23.66-7,48.94-7.31,73.2-11.25S212.24-.5,236.85.2c24.81.71,49.58,4.84,73.57,11.13,49.58,13,94.46,38.79,123.03,82.26,13.53,20.58,23.44,43.26,33.91,65.46,10.67,22.63,22.92,44.49,33.45,67.17,20.17,43.44,26.72,97.96-7.74,136.25-31.67,35.19-84.4,53.88-128.51,67.27-46.94,14.24-98.71,21.52-146.51,7.31s-89.53-45.38-126.07-75.1c-9.2-7.48-18.07-15.44-26.02-24.26h0Z"/></g></svg>