<?xml version="1.0" encoding="UTF-8"?><svg id="Layer_2" xmlns="http://www.w3.org/2000/svg" viewBox="0 0 549.22 468.63"><defs><style>.cls-1{fill:none;stroke:#fff;stroke-miterlimit:10;stroke-width:.25px;}</style></defs><g id="Layer_1-2"><path class="cls-1" d="m49.37,329.04C24.4,284.99,12.82,231.5,4.82,181.84c-4.04-25.08-7.46-51.44-1.44-76.5,6.34-26.39,23.41-45.51,45.01-61.11,23.65-17.09,47.94-28.59,77.27-30.67,26.77-1.9,51.83-4.32,78.22-9.45,50.18-9.74,104.8-.64,152.6,16.26,51.65,18.26,89.77,51.17,114.28,100.29,11.39,22.83,20.71,46.65,32.48,69.3s26.88,43.57,35.77,67.49c19.06,51.26,12.85,107.8-33.76,141.02-42.23,30.1-97.4,49.3-147.55,60.94-53.12,12.33-108.14,15.07-157.75-10.76-21.94-11.43-42.61-25.81-63.05-39.69-21.91-14.88-44.1-29.79-62.79-48.72-9.42-9.55-17.39-20.01-24.74-31.2h0Z"/></g></svg>