<?xml version="1.0" encoding="UTF-8"?><svg id="Layer_2" xmlns="http://www.w3.org/2000/svg" viewBox="0 0 427.15 372.58"><defs><style>.cls-1{fill:none;stroke:#fff;stroke-miterlimit:10;stroke-width:.25px;}</style></defs><g id="Layer_1-2"><path class="cls-1" d="m54.64,282.06c-26.73-30.09-41.89-67.89-49.67-106.96S-3.71,87.92,23.95,54.4C50.11,22.68,91.54,12.25,130.24,5.3c40.49-7.27,80.91-7.33,120.94,2.7s75.79,30.23,102.61,61.27c26.81,31.04,45.04,70.82,59.55,108.89s22.43,82.4-2.46,118.66c-23.78,34.64-66.88,53.91-105.94,65.34-38.6,11.29-81.12,14.57-120.11,3.3s-76.82-34.22-107.66-61.28c-7.94-6.97-15.31-14.44-22.54-22.13h0Z"/></g></svg>