<svg xmlns="http://www.w3.org/2000/svg" version="1.1" xmlns:xlink="http://www.w3.org/1999/xlink" xmlns:svgjs="http://svgjs.com/svgjs" width="1000" height="1000"><rect width="1000" height="1000" rx="400" ry="400" fill="#555555"></rect><g transform="matrix(1.678866429386878,0,0,1.678866429386878,2.048218079719902,2.0717357074317988e-7)"><svg xmlns="http://www.w3.org/2000/svg" version="1.1" xmlns:xlink="http://www.w3.org/1999/xlink" xmlns:svgjs="http://svgjs.com/svgjs" width="593.2" height="595.64"><svg id="Layer_2" xmlns="http://www.w3.org/2000/svg" viewBox="0 0 593.2 595.64"><defs><style>.cls-1{fill:#fff;stroke-width:0px;}</style></defs><g id="Layer_1-2"><path class="cls-1" d="m104.31,70.52C157.02,26.53,224.79,0,298.65,0s141.69,26.53,194.4,70.56l-.16,1.89-10.85,46.11c-9.42,40.03-28.2,77.19-54.34,107.42-15.34,17.73-33.49,33.11-52.53,44.48-50.31,30.05-101.04,29.84-151.63-.08-18.74-11.09-36.69-26.02-51.91-43.19-27.09-30.57-46.55-68.25-56.25-108.99l-10.87-45.61-.2-2.07Zm194.34-51.02c-63.56,0-123.38,20.43-173.39,59.17,4.71,51.48,25.34,100.11,58.45,137.42,28.76,32.45,68.97,58.78,113.46,60.16,46.35,1.44,89.11-27.36,118.38-61.21,32.16-37.19,52.13-85.42,56.58-136.3-50.03-38.78-109.89-59.25-173.47-59.25Z"></path><path class="cls-1" d="m146.56,88.71c44.54-31.62,96.87-48.28,152.06-48.28s107.62,16.69,152.2,48.38c-5.82,42.59-23.53,82.66-50.52,113.9-23.95,27.72-58.53,49.26-95.93,52.33-43.06,3.54-78.18-20.51-105.64-51.47-27.79-31.36-46.09-71.79-52.17-114.86Z"></path><path class="cls-1" d="m88.84,82.13c6.3,58.17,30.25,113.33,67.89,155.78,24.96,28.14,54.62,49.39,85.42,61.81-30.79,12.42-60.46,33.67-85.42,61.81-37.66,42.49-60.96,95.46-67.63,153.39-6.34-6.26-12.42-12.76-18.21-19.54,0,0-6.62-8.31-6.62-8.31C-30.29,368.36-19.17,188.49,88.84,82.13Zm55.87,166.07c-31.68-35.74-54.04-79.08-65.31-126.36-39.57,49.95-61.14,111.68-61.14,175.91s21.78,126.56,61.73,176.65c11.45-46.33,33.61-88.84,64.73-123.94,18.13-20.45,39.15-37.88,61.53-51.14-22.38-13.24-43.39-30.67-61.53-51.12Z"></path><path class="cls-1" d="m72.66,168.05c13.38,34.52,32.71,66.4,56.96,93.77,12.48,14.09,26.08,26.73,40.62,37.78-14.53,11.05-28.14,23.69-40.62,37.78-23.81,26.85-42.87,58.09-56.23,91.9-22.78-39.69-35.04-85.12-35.04-131.25s12-90.59,34.32-129.98Z"></path><path class="cls-1" d="m104.3,525.12c52.71,44,120.48,70.52,194.34,70.52s141.69-26.53,194.4-70.56l-.16-1.89-10.85-46.11c-9.42-40.03-28.2-77.19-54.34-107.42-15.34-17.73-33.49-33.11-52.53-44.48-50.31-30.05-101.04-29.84-151.63.08-18.74,11.09-36.69,26.02-51.91,43.19-27.09,30.57-46.55,68.25-56.25,108.99l-10.87,45.61-.2,2.07Zm194.34,51.02c-63.56,0-123.38-20.43-173.39-59.17,4.71-51.48,25.34-100.11,58.45-137.42,28.76-32.45,68.97-58.78,113.46-60.16,46.35-1.44,89.11,27.36,118.38,61.21,32.16,37.19,52.13,85.42,56.58,136.3-50.03,38.78-109.89,59.25-173.47,59.25Z"></path><path class="cls-1" d="m146.55,506.93c44.54,31.62,96.87,48.28,152.06,48.28s107.62-16.69,152.2-48.38c-5.82-42.59-23.53-82.66-50.52-113.9-23.95-27.72-58.53-49.26-95.93-52.33-43.06-3.54-78.18,20.51-105.64,51.47-27.79,31.36-46.09,71.79-52.17,114.86Z"></path><path class="cls-1" d="m504.36,82.27c-6.3,58.17-30.25,113.33-67.89,155.78-24.96,28.14-54.62,49.39-85.42,61.81,30.79,12.42,60.46,33.67,85.42,61.81,37.66,42.49,60.96,95.46,67.63,153.39,6.34-6.26,12.42-12.76,18.21-19.54,0,0,6.62-8.31,6.62-8.31,94.56-118.71,83.44-298.57-24.57-404.93Zm-55.87,166.07c31.68-35.74,54.04-79.08,65.31-126.36,39.57,49.95,61.14,111.68,61.14,175.91s-21.78,126.56-61.73,176.65c-11.45-46.33-33.61-88.84-64.73-123.94-18.13-20.45-39.15-37.88-61.53-51.14,22.38-13.24,43.39-30.67,61.53-51.12Z"></path><path class="cls-1" d="m520.54,168.19c-13.38,34.52-32.71,66.4-56.96,93.77-12.48,14.09-26.08,26.73-40.62,37.78,14.53,11.05,28.14,23.69,40.62,37.78,23.81,26.85,42.87,58.09,56.23,91.9,22.78-39.69,35.04-85.12,35.04-131.25s-12-90.59-34.32-129.98Z"></path></g></svg></svg></g></svg>