<?xml version="1.0" encoding="UTF-8"?><svg id="Layer_2" xmlns="http://www.w3.org/2000/svg" viewBox="0 0 2320.33 595.64"><defs><style>.cls-1{fill:#fff;stroke-width:0px;}</style></defs><g id="Layer_1-2"><path class="cls-1" d="m1297.24,256.68c-.93,15.92-1.61,31.91-.82,47.79,1.16,23.54,4,46.97,10.61,69.72,7.51,25.82,18.38,49.92,35.53,71.07,16.44,20.18,36.77,35.05,60.01,45.96,17.9,8.41,36.8,14.09,56.34,17.11,13.53,2.09,27.2,3.59,40.88,4.45,14.12.9,28.32,1.49,42.41.86,23.73-1.05,47.19-4,70.06-10.95,19.43-5.9,37.44-14.42,53.39-26.86,14.35-11.21,26.08-24.88,35.64-40.5,10.42-17.11,17.86-35.46,23.58-54.55.93-3.1,2.17-4.37,5.49-4.22,14.09.75,28.21,1.2,42.26,2.02,1.2.07,2.69,1.91,3.29,3.25,5.79,13.23,10.69,26.86,17.26,39.68,9.12,17.67,22.12,32.43,37.33,45.32,19.24,16.33,41.21,27.28,65.12,34.64,15.06,4.63,30.45,7.62,46.07,9.83,24.59,3.47,49.32,3.14,73.94,2.24,23.24-.82,46.26-4.52,68.49-11.92,26.64-8.89,49.84-23.17,68.45-44.39,13.45-15.36,23.13-33.1,30.71-51.97,3.29-8.18,6.05-16.55,8.52-25,1.23-4.22,3.96-3.74,6.91-3.55,3.06.19,6.16.67,9.27.78,15.73.67,31.46,1.2,47.19,1.83,11.99.52,23.99,1.16,35.98,1.79,9.3.52,18.57,1.16,29.18,1.83-4,10.39-7.29,19.8-11.21,28.92-7.66,17.67-17.3,34.19-29.14,49.39-10.57,13.49-22.49,25.63-35.76,36.47-15.54,12.74-32.58,22.94-50.63,31.53-22.38,10.69-45.77,18.46-69.98,23.58-15.66,3.33-31.46,5.94-47.3,8.07-13.45,1.83-27.05,2.95-40.61,3.59-20.92,1.01-41.92,1.64-62.88,1.79-13.34.07-26.71-.71-40.02-1.79-16.89-1.38-33.81-2.88-50.59-5.42-34.04-5.16-67.52-12.67-99.35-26.27-10.01-4.26-19.73-9.15-29.52-13.9-2.65-1.31-4.63-1.72-7.58,0-27.01,15.77-56.19,26.27-86.61,32.99-17.49,3.85-35.23,6.61-52.98,9-14.31,1.91-28.81,3.1-43.27,3.55-24.44.78-48.91,1.23-73.38.86-14.87-.22-29.78-1.79-44.61-3.47-17.67-1.98-35.38-4.15-52.91-7.25-27.95-4.93-55.19-12.78-81.27-24.17-7.17-3.14-14.2-6.58-21.11-10.2-3.55-1.83-6.09-1.76-10.05-.04-17.22,7.51-34.6,14.83-52.35,20.96-21.11,7.32-42.89,12.29-65.05,15.39-14.12,1.94-28.28,4.07-42.48,5.27-17,1.42-34.04,1.91-51.08,2.8-6.35.34-12.74.97-19.13.82-16.03-.37-32.1-.6-48.09-1.87-18.64-1.49-37.29-3.4-55.78-6.31-33.7-5.34-66.69-13.86-98.19-27.2-23.31-9.9-45.51-21.97-65.35-37.74-15.28-12.11-28.92-25.93-41.03-41.32-18.46-23.58-31.2-49.96-39.34-78.5-3.96-13.75-6.76-28.02-8.44-42.22-2.17-17.93-3.4-36.02-3.55-54.03-.11-13.68,2.02-27.39,3.33-41.06,1.83-18.94,6.35-37.36,12.63-55.26,9.23-26.19,22.42-50.22,40.17-71.78,18.87-22.98,41.55-41.14,67.1-56.01,21.97-12.82,45.17-22.87,69.65-29.67,18.91-5.23,38.11-9.53,57.39-13.38,14.38-2.84,29.03-4.67,43.64-6.24,11.17-1.23,22.49-1.61,33.74-1.91,18.46-.49,36.95-1.23,55.45-.78,17.56.41,35.12,2.09,52.68,3.44,26.75,2.05,53.06,6.8,79.02,13.49,22.38,5.72,44.28,12.89,65.09,23.09,5.57,2.69,11.02,5.64,16.66,8.11,1.42.6,3.7.26,5.16-.52,19.02-10.09,38.82-18.31,59.45-24.59,20.21-6.13,40.69-11.36,61.69-14.2,14.42-1.98,28.92-3.66,43.38-5.38,33.25-4.04,66.62-3.03,99.95-2.43,18.83.34,37.63,3.1,56.42,5.12,28.28,3.06,55.86,9.38,82.72,18.76,18.83,6.54,36.8,14.95,53.8,25.44,1.23.75,3.66.86,4.93.15,22.27-12.67,45.85-22.16,70.43-29.03,13.97-3.89,28.17-7.14,42.37-10.05,10.95-2.24,22.01-4.11,33.1-5.16,19.69-1.91,39.46-3.55,59.26-4.48,18.46-.9,36.95-.97,55.41-.9,10.84.04,21.67.6,32.43,1.79,17.97,1.98,35.91,4.45,53.8,7.02,19.84,2.8,39.08,7.92,58.06,14.31,22.01,7.36,42.89,17.15,62.21,30.19,25.44,17.19,45.77,39.01,60.9,65.8,10.09,17.79,17,36.77,22.19,56.46.22.82.04,1.76.04,2.84-3.55.45-6.99,1.16-10.5,1.35-9.04.41-18.12.52-27.16.97-17.93.82-35.87,1.72-53.8,2.69-11.51.64-23.02,1.46-33.44,2.13-6.58-16.03-11.88-31.53-19.13-46.03-13.23-26.38-32.62-47.34-58.59-61.91-17.93-10.05-37.14-16.33-57.28-19.65-10.91-1.79-21.93-2.95-32.95-3.59-12.93-.78-25.93-1.46-38.86-.82-19.69.97-39.31,3.03-58.66,7.47-19.2,4.41-37.59,10.76-54.92,20.06-12.44,6.69-23.76,14.83-34.19,24.36-16.96,15.54-29.52,34.08-39.19,54.74-2.24,4.78-4.71,9.64-5.83,14.76-1.46,6.73-6.09,7.25-11.32,7.55-5.31.3-10.65.6-15.95.9-12.18.6-24.32,1.01-36.47,1.87-4.04.3-5.19-1.61-6.43-4.86-5.31-14.01-10.16-28.28-16.59-41.77-7.47-15.73-17.9-29.67-30.82-41.44-18.64-17-40.32-28.43-64.71-35.01-15.84-4.26-31.83-7.4-48.24-7.88-16.85-.49-33.74-1.64-50.52-.71-27.65,1.53-54.92,5.9-81.08,15.8-19.02,7.21-36.8,16.51-52.57,29.55-16.85,13.94-30.3,30.56-40.61,49.81-11.43,21.33-18.98,43.98-22.49,67.85-1.91,12.97-3.66,26-4.41,39.08Zm-12.44-1.05c-.78-10.68-2.22-21.95-4.41-36.8-2.76-18.72-8.29-36.69-16.07-53.92-10.91-24.17-25.93-45.32-46.41-62.55-15.21-12.78-32.17-22.53-50.4-29.93-29.93-12.14-61.43-17.26-93.45-18.79-15.77-.75-31.61-.07-47.34.86-13.23.75-26.45,2.35-39.53,4.45-21.15,3.33-41.51,9.83-60.68,19.35-21.33,10.65-40.28,24.62-55.82,43.04-14.42,17.19-25.03,36.35-32.77,57.28-10.5,28.51-14.38,58.21-15.92,88.29-.64,12.14-.04,24.4.82,36.58,1.01,13.94,2.54,27.87,4.45,41.77,2.88,21.11,9.49,41.17,18.57,60.42,10.87,23.13,26.15,42.82,45.77,59.3,14.16,11.88,29.85,21.07,46.85,28.13,16.48,6.8,33.44,12.14,51.15,14.46,16.07,2.13,32.17,4.3,48.35,5.12,14.24.71,28.58.11,42.86-.82,13.38-.86,26.83-2.06,39.94-4.6,25.82-5.01,50.63-13.34,73.38-26.94,20.89-12.48,38.37-28.58,52.38-48.5,12.33-17.52,21.04-36.77,27.31-57.17,7.37-23.95,9.43-42.89,10.84-57.95,2.51-26.86,1.07-47.86.11-61.09Z"/><path class="cls-1" d="m104.31,70.52C157.02,26.53,224.79,0,298.65,0s141.69,26.53,194.4,70.56l-.16,1.89-10.85,46.11c-9.42,40.03-28.2,77.19-54.34,107.42-15.34,17.73-33.49,33.11-52.53,44.48-50.31,30.05-101.04,29.84-151.63-.08-18.74-11.09-36.69-26.02-51.91-43.19-27.09-30.57-46.55-68.25-56.25-108.99l-10.87-45.61-.2-2.07Zm194.34-51.02c-63.56,0-123.38,20.43-173.39,59.17,4.71,51.48,25.34,100.11,58.45,137.42,28.76,32.45,68.97,58.78,113.46,60.16,46.35,1.44,89.11-27.36,118.38-61.21,32.16-37.19,52.13-85.42,56.58-136.3-50.03-38.78-109.89-59.25-173.47-59.25Z"/><path class="cls-1" d="m146.56,88.71c44.54-31.62,96.87-48.28,152.06-48.28s107.62,16.69,152.2,48.38c-5.82,42.59-23.53,82.66-50.52,113.9-23.95,27.72-58.53,49.26-95.93,52.33-43.06,3.54-78.18-20.51-105.64-51.47-27.79-31.36-46.09-71.79-52.17-114.86Z"/><path class="cls-1" d="m88.84,82.13c6.3,58.17,30.25,113.33,67.89,155.78,24.96,28.14,54.62,49.39,85.42,61.81-30.79,12.42-60.46,33.67-85.42,61.81-37.66,42.49-60.96,95.46-67.63,153.39-6.34-6.26-12.42-12.76-18.21-19.54,0,0-6.62-8.31-6.62-8.31C-30.29,368.36-19.17,188.49,88.84,82.13Zm55.87,166.07c-31.68-35.74-54.04-79.08-65.31-126.36-39.57,49.95-61.14,111.68-61.14,175.91s21.78,126.56,61.73,176.65c11.45-46.33,33.61-88.84,64.73-123.94,18.13-20.45,39.15-37.88,61.53-51.14-22.38-13.24-43.39-30.67-61.53-51.12Z"/><path class="cls-1" d="m72.66,168.05c13.38,34.52,32.71,66.4,56.96,93.77,12.48,14.09,26.08,26.73,40.62,37.78-14.53,11.05-28.14,23.69-40.62,37.78-23.81,26.85-42.87,58.09-56.23,91.9-22.78-39.69-35.04-85.12-35.04-131.25s12-90.59,34.32-129.98Z"/><path class="cls-1" d="m104.3,525.12c52.71,44,120.48,70.52,194.34,70.52s141.69-26.53,194.4-70.56l-.16-1.89-10.85-46.11c-9.42-40.03-28.2-77.19-54.34-107.42-15.34-17.73-33.49-33.11-52.53-44.48-50.31-30.05-101.04-29.84-151.63.08-18.74,11.09-36.69,26.02-51.91,43.19-27.09,30.57-46.55,68.25-56.25,108.99l-10.87,45.61-.2,2.07Zm194.34,51.02c-63.56,0-123.38-20.43-173.39-59.17,4.71-51.48,25.34-100.11,58.45-137.42,28.76-32.45,68.97-58.78,113.46-60.16,46.35-1.44,89.11,27.36,118.38,61.21,32.16,37.19,52.13,85.42,56.58,136.3-50.03,38.78-109.89,59.25-173.47,59.25Z"/><path class="cls-1" d="m146.55,506.93c44.54,31.62,96.87,48.28,152.06,48.28s107.62-16.69,152.2-48.38c-5.82-42.59-23.53-82.66-50.52-113.9-23.95-27.72-58.53-49.26-95.93-52.33-43.06-3.54-78.18,20.51-105.64,51.47-27.79,31.36-46.09,71.79-52.17,114.86Z"/><path class="cls-1" d="m504.36,82.27c-6.3,58.17-30.25,113.33-67.89,155.78-24.96,28.14-54.62,49.39-85.42,61.81,30.79,12.42,60.46,33.67,85.42,61.81,37.66,42.49,60.96,95.46,67.63,153.39,6.34-6.26,12.42-12.76,18.21-19.54,0,0,6.62-8.31,6.62-8.31,94.56-118.71,83.44-298.57-24.57-404.93Zm-55.87,166.07c31.68-35.74,54.04-79.08,65.31-126.36,39.57,49.95,61.14,111.68,61.14,175.91s-21.78,126.56-61.73,176.65c-11.45-46.33-33.61-88.84-64.73-123.94-18.13-20.45-39.15-37.88-61.53-51.14,22.38-13.24,43.39-30.67,61.53-51.12Z"/><path class="cls-1" d="m520.54,168.19c-13.38,34.52-32.71,66.4-56.96,93.77-12.48,14.09-26.08,26.73-40.62,37.78,14.53,11.05,28.14,23.69,40.62,37.78,23.81,26.85,42.87,58.09,56.23,91.9,22.78-39.69,35.04-85.12,35.04-131.25s-12-90.59-34.32-129.98Z"/></g></svg>