<?xml version="1.0" encoding="UTF-8"?><svg id="Layer_2" xmlns="http://www.w3.org/2000/svg" viewBox="0 0 2320.33 719.85"><defs><style>.cls-1{stroke:#fff;stroke-miterlimit:10;}.cls-1,.cls-2{fill:#fff;}.cls-2{stroke-width:0px;}</style></defs><g id="Layer_1-2"><path class="cls-2" d="m1297.24,256.68c-.93,15.92-1.61,31.91-.82,47.79,1.16,23.54,4,46.97,10.61,69.72,7.51,25.82,18.38,49.92,35.53,71.07,16.44,20.18,36.77,35.05,60.01,45.96,17.9,8.41,36.8,14.09,56.34,17.11,13.53,2.09,27.2,3.59,40.88,4.45,14.12.9,28.32,1.49,42.41.86,23.73-1.05,47.19-4,70.06-10.95,19.43-5.9,37.44-14.42,53.39-26.86,14.35-11.21,26.08-24.88,35.64-40.5,10.42-17.11,17.86-35.46,23.58-54.55.93-3.1,2.17-4.37,5.49-4.22,14.09.75,28.21,1.2,42.26,2.02,1.2.07,2.69,1.91,3.29,3.25,5.79,13.23,10.69,26.86,17.26,39.68,9.12,17.67,22.12,32.43,37.33,45.32,19.24,16.33,41.21,27.28,65.12,34.64,15.06,4.63,30.45,7.62,46.07,9.83,24.59,3.47,49.32,3.14,73.94,2.24,23.24-.82,46.26-4.52,68.49-11.92,26.64-8.89,49.84-23.17,68.45-44.39,13.45-15.36,23.13-33.1,30.71-51.97,3.29-8.18,6.05-16.55,8.52-25,1.23-4.22,3.96-3.74,6.91-3.55,3.06.19,6.16.67,9.27.78,15.73.67,31.46,1.2,47.19,1.83,11.99.52,23.99,1.16,35.98,1.79,9.3.52,18.57,1.16,29.18,1.83-4,10.39-7.29,19.8-11.21,28.92-7.66,17.67-17.3,34.19-29.14,49.39-10.57,13.49-22.49,25.63-35.76,36.47-15.54,12.74-32.58,22.94-50.63,31.53-22.38,10.69-45.77,18.46-69.98,23.58-15.66,3.33-31.46,5.94-47.3,8.07-13.45,1.83-27.05,2.95-40.61,3.59-20.92,1.01-41.92,1.64-62.88,1.79-13.34.07-26.71-.71-40.02-1.79-16.89-1.38-33.81-2.88-50.59-5.42-34.04-5.16-67.52-12.67-99.35-26.27-10.01-4.26-19.73-9.15-29.52-13.9-2.65-1.31-4.63-1.72-7.58,0-27.01,15.77-56.19,26.27-86.61,32.99-17.49,3.85-35.23,6.61-52.98,9-14.31,1.91-28.81,3.1-43.27,3.55-24.44.78-48.91,1.23-73.38.86-14.87-.22-29.78-1.79-44.61-3.47-17.67-1.98-35.38-4.15-52.91-7.25-27.95-4.93-55.19-12.78-81.27-24.17-7.17-3.14-14.2-6.58-21.11-10.2-3.55-1.83-6.09-1.76-10.05-.04-17.22,7.51-34.6,14.83-52.35,20.96-21.11,7.32-42.89,12.29-65.05,15.39-14.12,1.94-28.28,4.07-42.48,5.27-17,1.42-34.04,1.91-51.08,2.8-6.35.34-12.74.97-19.13.82-16.03-.37-32.1-.6-48.09-1.87-18.64-1.49-37.29-3.4-55.78-6.31-33.7-5.34-66.69-13.86-98.19-27.2-23.31-9.9-45.51-21.97-65.35-37.74-15.28-12.11-28.92-25.93-41.03-41.32-18.46-23.58-31.2-49.96-39.34-78.5-3.96-13.75-6.76-28.02-8.44-42.22-2.17-17.93-3.4-36.02-3.55-54.03-.11-13.68,2.02-27.39,3.33-41.06,1.83-18.94,6.35-37.36,12.63-55.26,9.23-26.19,22.42-50.22,40.17-71.78,18.87-22.98,41.55-41.14,67.1-56.01,21.97-12.82,45.17-22.87,69.65-29.67,18.91-5.23,38.11-9.53,57.39-13.38,14.38-2.84,29.03-4.67,43.64-6.24,11.17-1.23,22.49-1.61,33.74-1.91,18.46-.49,36.95-1.23,55.45-.78,17.56.41,35.12,2.09,52.68,3.44,26.75,2.05,53.06,6.8,79.02,13.49,22.38,5.72,44.28,12.89,65.09,23.09,5.57,2.69,11.02,5.64,16.66,8.11,1.42.6,3.7.26,5.16-.52,19.02-10.09,38.82-18.31,59.45-24.59,20.21-6.13,40.69-11.36,61.69-14.2,14.42-1.98,28.92-3.66,43.38-5.38,33.25-4.04,66.62-3.03,99.95-2.43,18.83.34,37.63,3.1,56.42,5.12,28.28,3.06,55.86,9.38,82.72,18.76,18.83,6.54,36.8,14.95,53.8,25.44,1.23.75,3.66.86,4.93.15,22.27-12.67,45.85-22.16,70.43-29.03,13.97-3.89,28.17-7.14,42.37-10.05,10.95-2.24,22.01-4.11,33.1-5.16,19.69-1.91,39.46-3.55,59.26-4.48,18.46-.9,36.95-.97,55.41-.9,10.84.04,21.67.6,32.43,1.79,17.97,1.98,35.91,4.45,53.8,7.02,19.84,2.8,39.08,7.92,58.06,14.31,22.01,7.36,42.89,17.15,62.21,30.19,25.44,17.19,45.77,39.01,60.9,65.8,10.09,17.79,17,36.77,22.19,56.46.22.82.04,1.76.04,2.84-3.55.45-6.99,1.16-10.5,1.35-9.04.41-18.12.52-27.16.97-17.93.82-35.87,1.72-53.8,2.69-11.51.64-23.02,1.46-33.44,2.13-6.58-16.03-11.88-31.53-19.13-46.03-13.23-26.38-32.62-47.34-58.59-61.91-17.93-10.05-37.14-16.33-57.28-19.65-10.91-1.79-21.93-2.95-32.95-3.59-12.93-.78-25.93-1.46-38.86-.82-19.69.97-39.31,3.03-58.66,7.47-19.2,4.41-37.59,10.76-54.92,20.06-12.44,6.69-23.76,14.83-34.19,24.36-16.96,15.54-29.52,34.08-39.19,54.74-2.24,4.78-4.71,9.64-5.83,14.76-1.46,6.73-6.09,7.25-11.32,7.55-5.31.3-10.65.6-15.95.9-12.18.6-24.32,1.01-36.47,1.87-4.04.3-5.19-1.61-6.43-4.86-5.31-14.01-10.16-28.28-16.59-41.77-7.47-15.73-17.9-29.67-30.82-41.44-18.64-17-40.32-28.43-64.71-35.01-15.84-4.26-31.83-7.4-48.24-7.88-16.85-.49-33.74-1.64-50.52-.71-27.65,1.53-54.92,5.9-81.08,15.8-19.02,7.21-36.8,16.51-52.57,29.55-16.85,13.94-30.3,30.56-40.61,49.81-11.43,21.33-18.98,43.98-22.49,67.85-1.91,12.97-3.66,26-4.41,39.08Zm-12.44-1.05c-.78-10.68-2.22-21.95-4.41-36.8-2.76-18.72-8.29-36.69-16.07-53.92-10.91-24.17-25.93-45.32-46.41-62.55-15.21-12.78-32.17-22.53-50.4-29.93-29.93-12.14-61.43-17.26-93.45-18.79-15.77-.75-31.61-.07-47.34.86-13.23.75-26.45,2.35-39.53,4.45-21.15,3.33-41.51,9.83-60.68,19.35-21.33,10.65-40.28,24.62-55.82,43.04-14.42,17.19-25.03,36.35-32.77,57.28-10.5,28.51-14.38,58.21-15.92,88.29-.64,12.14-.04,24.4.82,36.58,1.01,13.94,2.54,27.87,4.45,41.77,2.88,21.11,9.49,41.17,18.57,60.42,10.87,23.13,26.15,42.82,45.77,59.3,14.16,11.88,29.85,21.07,46.85,28.13,16.48,6.8,33.44,12.14,51.15,14.46,16.07,2.13,32.17,4.3,48.35,5.12,14.24.71,28.58.11,42.86-.82,13.38-.86,26.83-2.06,39.94-4.6,25.82-5.01,50.63-13.34,73.38-26.94,20.89-12.48,38.37-28.58,52.38-48.5,12.33-17.52,21.04-36.77,27.31-57.17,7.37-23.95,9.43-42.89,10.84-57.95,2.51-26.86,1.07-47.86.11-61.09Z"/><path class="cls-2" d="m104.31,70.52C157.02,26.53,224.79,0,298.65,0s141.69,26.53,194.4,70.56l-.16,1.89-10.85,46.11c-9.42,40.03-28.2,77.19-54.34,107.42-15.34,17.73-33.49,33.11-52.53,44.48-50.31,30.05-101.04,29.84-151.63-.08-18.74-11.09-36.69-26.02-51.91-43.19-27.09-30.57-46.55-68.25-56.25-108.99l-10.87-45.61-.2-2.07Zm194.34-51.02c-63.56,0-123.38,20.43-173.39,59.17,4.71,51.48,25.34,100.11,58.45,137.42,28.76,32.45,68.97,58.78,113.46,60.16,46.35,1.44,89.11-27.36,118.38-61.21,32.16-37.19,52.13-85.42,56.58-136.3-50.03-38.78-109.89-59.25-173.47-59.25Z"/><path class="cls-2" d="m146.56,88.71c44.54-31.62,96.87-48.28,152.06-48.28s107.62,16.69,152.2,48.38c-5.82,42.59-23.53,82.66-50.52,113.9-23.95,27.72-58.53,49.26-95.93,52.33-43.06,3.54-78.18-20.51-105.64-51.47-27.79-31.36-46.09-71.79-52.17-114.86Z"/><path class="cls-2" d="m88.84,82.13c6.3,58.17,30.25,113.33,67.89,155.78,24.96,28.14,54.62,49.39,85.42,61.81-30.79,12.42-60.46,33.67-85.42,61.81-37.66,42.49-60.96,95.46-67.63,153.39-6.34-6.26-12.42-12.76-18.21-19.54,0,0-6.62-8.31-6.62-8.31C-30.29,368.36-19.17,188.49,88.84,82.13Zm55.87,166.07c-31.68-35.74-54.04-79.08-65.31-126.36-39.57,49.95-61.14,111.68-61.14,175.91s21.78,126.56,61.73,176.65c11.45-46.33,33.61-88.84,64.73-123.94,18.13-20.45,39.15-37.88,61.53-51.14-22.38-13.24-43.39-30.67-61.53-51.12Z"/><path class="cls-2" d="m72.66,168.05c13.38,34.52,32.71,66.4,56.96,93.77,12.48,14.09,26.08,26.73,40.62,37.78-14.53,11.05-28.14,23.69-40.62,37.78-23.81,26.85-42.87,58.09-56.23,91.9-22.78-39.69-35.04-85.12-35.04-131.25s12-90.59,34.32-129.98Z"/><path class="cls-2" d="m104.3,525.12c52.71,44,120.48,70.52,194.34,70.52s141.69-26.53,194.4-70.56l-.16-1.89-10.85-46.11c-9.42-40.03-28.2-77.19-54.34-107.42-15.34-17.73-33.49-33.11-52.53-44.48-50.31-30.05-101.04-29.84-151.63.08-18.74,11.09-36.69,26.02-51.91,43.19-27.09,30.57-46.55,68.25-56.25,108.99l-10.87,45.61-.2,2.07Zm194.34,51.02c-63.56,0-123.38-20.43-173.39-59.17,4.71-51.48,25.34-100.11,58.45-137.42,28.76-32.45,68.97-58.78,113.46-60.16,46.35-1.44,89.11,27.36,118.38,61.21,32.16,37.19,52.13,85.42,56.58,136.3-50.03,38.78-109.89,59.25-173.47,59.25Z"/><path class="cls-2" d="m146.55,506.93c44.54,31.62,96.87,48.28,152.06,48.28s107.62-16.69,152.2-48.38c-5.82-42.59-23.53-82.66-50.52-113.9-23.95-27.72-58.53-49.26-95.93-52.33-43.06-3.54-78.18,20.51-105.64,51.47-27.79,31.36-46.09,71.79-52.17,114.86Z"/><path class="cls-2" d="m504.36,82.27c-6.3,58.17-30.25,113.33-67.89,155.78-24.96,28.14-54.62,49.39-85.42,61.81,30.79,12.42,60.46,33.67,85.42,61.81,37.66,42.49,60.96,95.46,67.63,153.39,6.34-6.26,12.42-12.76,18.21-19.54,0,0,6.62-8.31,6.62-8.31,94.56-118.71,83.44-298.57-24.57-404.93Zm-55.87,166.07c31.68-35.74,54.04-79.08,65.31-126.36,39.57,49.95,61.14,111.68,61.14,175.91s-21.78,126.56-61.73,176.65c-11.45-46.33-33.61-88.84-64.73-123.94-18.13-20.45-39.15-37.88-61.53-51.14,22.38-13.24,43.39-30.67,61.53-51.12Z"/><path class="cls-2" d="m520.54,168.19c-13.38,34.52-32.71,66.4-56.96,93.77-12.48,14.09-26.08,26.73-40.62,37.78,14.53,11.05,28.14,23.69,40.62,37.78,23.81,26.85,42.87,58.09,56.23,91.9,22.78-39.69,35.04-85.12,35.04-131.25s-12-90.59-34.32-129.98Z"/><path class="cls-1" d="m819.63,687.72c0,17.45-8.11,31.64-25.9,31.64-16.79,0-25.25-13.38-25.25-31.59,0-15.91,8.27-30.9,25.96-30.9,16.75,0,25.19,13.33,25.19,30.85Zm-43.3-.09c0,14.26,5.77,25.37,17.81,25.37s17.78-10.95,17.78-25.23-5.45-24.55-17.76-24.55-17.83,10.96-17.83,24.41Z"/><path class="cls-1" d="m829.92,687.82c0-9.3-.09-12.06-.18-13.97h7.16c.12.85.33,5.14.27,7,1.85-4,5.85-7.88,13.15-7.88,8.26,0,14.2,4.66,14.2,16.71v28.79h-7.34v-27.66c0-6.49-2.19-11.46-8.84-11.46-7.97,0-11.14,5.91-11.14,15.27v23.85h-7.28v-30.65Z"/><path class="cls-1" d="m899.43,657.71h19.84c15.31,0,27.1,9.82,27.1,28.92s-10.31,31.84-28.13,31.84h-18.81v-60.76Zm7.55,54.55h10.94c13.87,0,20.6-9.47,20.6-25.4,0-14.82-8.23-22.88-20.51-22.88h-11.03v48.28Z"/><path class="cls-1" d="m961.76,697.56c-.06,8.93,3.75,15.67,11.62,15.67,7.18,0,9.38-5.04,10.23-7.37h7.19c-1.47,5.56-5.82,13.46-17.77,13.46-13.96,0-18.7-10.99-18.7-23.3,0-10.95,5.38-23.05,19.12-23.05s18.05,10.91,18.05,21.21c0,.25-.03,3.11-.06,3.39h-29.68Zm22.53-5.35c-.23-7.59-3.27-13.32-11.01-13.32-8.84,0-10.93,8-11.33,13.32h22.35Z"/><path class="cls-1" d="m1001.16,687.73c0-7.93-.09-11.89-.18-13.88h7.13c.15,1.24.3,4.8.27,6.33,2.07-3.84,5.94-7.21,12.5-7.21,5.91,0,9.71,2.66,11.41,7.69,1.97-4.03,6.44-7.69,13.22-7.69s13.36,3.49,13.36,15.22v30.28h-7.19v-29.02c0-5.43-1.75-10.13-8.15-10.13-6.95,0-9.86,5.79-9.86,12.94v26.21h-7.13v-29.43c0-5.49-2.25-9.69-8.01-9.69-6.29,0-10.15,4.81-10.15,13.66v25.46h-7.22v-30.74Z"/><path class="cls-1" d="m1102.25,708.57c0,3.08.29,7.55.67,9.9h-6.63c-.3-1.55-.62-3.96-.65-6.9-1.71,4.49-6.22,7.69-13.49,7.69-10.9,0-14.24-7.35-14.24-13.54,0-6.72,4.34-14.17,20.31-14.17h6.83v-4.33c0-4.23-1.2-8.6-8.77-8.6-6.49,0-8.74,2.98-9.49,7.91h-7.13c.67-7.47,4.98-13.56,16.85-13.56,9.33,0,15.73,3.75,15.73,13.92v21.68Zm-6.98-11.73h-7.07c-10.81,0-12.84,4.39-12.84,8.45,0,4.35,2.64,7.95,8.26,7.95,8.77,0,11.65-5.91,11.65-15.49v-.91Z"/><path class="cls-1" d="m1115.12,687.82c0-9.3-.09-12.06-.18-13.97h7.16c.12.85.33,5.14.27,7,1.85-4,5.85-7.88,13.15-7.88,8.26,0,14.2,4.66,14.2,16.71v28.79h-7.34v-27.66c0-6.49-2.19-11.46-8.84-11.46-7.97,0-11.14,5.91-11.14,15.27v23.85h-7.28v-30.65Z"/><path class="cls-1" d="m1197.26,654.38v52.46c0,4.29.03,8.88.18,11.63h-7.16c-.12-1.17-.27-3.99-.27-6.58-2.34,5.17-5.97,7.4-13.3,7.4-11.56,0-17.29-9.76-17.29-23.05s6.68-23.28,18.78-23.28c7.2,0,10.58,2.88,11.78,5.35v-23.94h7.28Zm-30.29,41.54c0,10.85,4.68,17.11,11.7,17.11,9.61,0,11.58-7.28,11.58-17.75,0-12.39-3.57-16.01-11.12-16.01s-12.16,6.01-12.16,16.66Z"/><path class="cls-1" d="m1233.3,657.71h21.21c10.94,0,17.77,5.6,17.77,15,0,8.05-4.98,11.5-8.69,12.68,4.2,1.48,10.63,5.4,10.63,15.11,0,11.62-8.46,17.96-20.46,17.96h-20.46v-60.76Zm19.46,25.06c8.65,0,12.03-3.49,12.03-9.5,0-5.58-3.63-9.53-11.42-9.53h-12.65v19.03h12.03Zm-12.03,29.71h12.4c7.66,0,13.41-3.66,13.41-11.85,0-7.31-4.65-11.74-14.16-11.74h-11.66v23.6Z"/><path class="cls-1" d="m1283.9,689c0-7.11-.06-12.94-.18-15.15h7.16c.15,2.11.18,4.95.18,9.05,2.09-5.53,7.01-9.75,14.44-9.87v7.6c-10.04.36-14.32,6.27-14.32,15.89v21.95h-7.28v-29.48Z"/><path class="cls-1" d="m1343.19,708.57c0,3.08.29,7.55.67,9.9h-6.63c-.3-1.55-.62-3.96-.65-6.9-1.71,4.49-6.22,7.69-13.49,7.69-10.9,0-14.24-7.35-14.24-13.54,0-6.72,4.34-14.17,20.31-14.17h6.83v-4.33c0-4.23-1.2-8.6-8.77-8.6-6.49,0-8.74,2.98-9.49,7.91h-7.13c.67-7.47,4.98-13.56,16.85-13.56,9.33,0,15.73,3.75,15.73,13.92v21.68Zm-6.98-11.73h-7.07c-10.81,0-12.84,4.39-12.84,8.45,0,4.35,2.64,7.95,8.26,7.95,8.77,0,11.65-5.91,11.65-15.49v-.91Z"/><path class="cls-1" d="m1356.06,687.82c0-9.3-.09-12.06-.18-13.97h7.16c.12.85.33,5.14.27,7,1.85-4,5.85-7.88,13.15-7.88,8.26,0,14.2,4.66,14.2,16.71v28.79h-7.34v-27.66c0-6.49-2.19-11.46-8.84-11.46-7.97,0-11.14,5.91-11.14,15.27v23.85h-7.28v-30.65Z"/><path class="cls-1" d="m1438.2,654.38v52.46c0,4.29.03,8.88.18,11.63h-7.16c-.12-1.17-.27-3.99-.27-6.58-2.34,5.17-5.97,7.4-13.3,7.4-11.56,0-17.29-9.76-17.29-23.05s6.68-23.28,18.78-23.28c7.2,0,10.58,2.88,11.78,5.35v-23.94h7.28Zm-30.29,41.54c0,10.85,4.68,17.11,11.7,17.11,9.61,0,11.58-7.28,11.58-17.75,0-12.39-3.57-16.01-11.12-16.01s-12.16,6.01-12.16,16.66Z"/><path class="cls-1" d="m1518.04,700.79c-1.81,9.67-8.14,18.56-22.41,18.56-17.79,0-24.54-13.51-24.54-31.68,0-16,7.73-30.8,24.96-30.8,13.97,0,20.52,8.49,21.7,18.72h-7.57c-1.54-7.1-5.34-12.34-14.4-12.34-11.98,0-16.87,11.62-16.87,24.45s3.9,25.3,16.93,25.3c9.02,0,12.79-5.35,14.66-12.21h7.54Z"/><path class="cls-1" d="m1527.57,689c0-7.11-.06-12.94-.18-15.15h7.16c.15,2.11.18,4.95.18,9.05,2.09-5.53,7.01-9.75,14.44-9.87v7.6c-10.04.36-14.32,6.27-14.32,15.89v21.95h-7.28v-29.48Z"/><path class="cls-1" d="m1560.59,697.56c-.06,8.93,3.75,15.67,11.62,15.67,7.18,0,9.38-5.04,10.23-7.37h7.19c-1.47,5.56-5.82,13.46-17.77,13.46-13.96,0-18.7-10.99-18.7-23.3,0-10.95,5.38-23.05,19.12-23.05s18.05,10.91,18.05,21.21c0,.25-.03,3.11-.06,3.39h-29.68Zm22.53-5.35c-.23-7.59-3.27-13.32-11.01-13.32-8.84,0-10.93,8-11.33,13.32h22.35Z"/><path class="cls-1" d="m1631.21,708.57c0,3.08.29,7.55.67,9.9h-6.63c-.3-1.55-.62-3.96-.65-6.9-1.71,4.49-6.22,7.69-13.49,7.69-10.9,0-14.24-7.35-14.24-13.54,0-6.72,4.34-14.17,20.31-14.17h6.83v-4.33c0-4.23-1.2-8.6-8.77-8.6-6.49,0-8.74,2.98-9.49,7.91h-7.13c.67-7.47,4.98-13.56,16.85-13.56,9.33,0,15.73,3.75,15.73,13.92v21.68Zm-6.98-11.73h-7.07c-10.81,0-12.84,4.39-12.84,8.45,0,4.35,2.64,7.95,8.26,7.95,8.77,0,11.65-5.91,11.65-15.49v-.91Z"/><path class="cls-1" d="m1637.4,673.85h7.16v-12.97h7.25v12.97h9v6h-9v27.92c0,3.73.93,5.3,4.74,5.3,1.23,0,2.48-.11,3.46-.29v5.48c-1.73.62-4.28.77-5.84.77-6.49,0-9.62-2.48-9.62-9.88v-29.3h-7.16v-6Z"/><path class="cls-1" d="m1668.63,654.38h7.28v9.48h-7.28v-9.48Zm0,19.47h7.28v44.62h-7.28v-44.62Z"/><path class="cls-1" d="m1725.03,695.43c0,12.92-5.66,23.81-19.93,23.81s-19.35-11.34-19.35-23.6,6.42-22.67,19.91-22.67c12.63,0,19.37,9.6,19.37,22.46Zm-31.77.14c0,10.27,4.19,17.58,12.28,17.58s11.95-7.14,11.95-17.69c0-9.68-4.04-16.41-12.19-16.41s-12.04,6.8-12.04,16.52Z"/><path class="cls-1" d="m1734.8,687.82c0-9.3-.09-12.06-.18-13.97h7.16c.12.85.33,5.14.27,7,1.85-4,5.85-7.88,13.15-7.88,8.26,0,14.2,4.66,14.2,16.71v28.79h-7.34v-27.66c0-6.49-2.19-11.46-8.84-11.46-7.97,0-11.14,5.91-11.14,15.27v23.85h-7.28v-30.65Z"/><path class="cls-1" d="m1804.22,718.47v-38.63h-6.87v-6h6.87v-5.58c0-7.9,2.76-14.59,12.1-14.59,1.4,0,3.14.18,4.2.59v6.17c-.88-.23-2.14-.38-3.62-.38-3.96,0-5.43,2.65-5.43,7.85v5.93h8.33v6h-8.33v38.63h-7.25Z"/><path class="cls-1" d="m1862.22,695.43c0,12.92-5.66,23.81-19.93,23.81s-19.35-11.34-19.35-23.6,6.42-22.67,19.91-22.67c12.63,0,19.37,9.6,19.37,22.46Zm-31.77.14c0,10.27,4.19,17.58,12.28,17.58s11.95-7.14,11.95-17.69c0-9.68-4.04-16.41-12.19-16.41s-12.04,6.8-12.04,16.52Z"/><path class="cls-1" d="m1871.99,689c0-7.11-.06-12.94-.18-15.15h7.16c.15,2.11.18,4.95.18,9.05,2.09-5.53,7.01-9.75,14.44-9.87v7.6c-10.04.36-14.32,6.27-14.32,15.89v21.95h-7.28v-29.48Z"/><path class="cls-1" d="m1931.01,699.98l-5.92,18.49h-7.54c4.26-12.67,15-46.38,19.78-60.76h9.55l20.63,60.76h-8.08l-6.1-18.49h-22.32Zm20.5-6.51c-5.14-15.65-8.4-24.69-9.58-29.53h-.14c-1.69,7.17-4.84,16.53-9.05,29.53h18.78Z"/><path class="cls-1" d="m1968.27,673.85h7.16v-12.97h7.25v12.97h9v6h-9v27.92c0,3.73.93,5.3,4.74,5.3,1.23,0,2.48-.11,3.46-.29v5.48c-1.73.62-4.28.77-5.84.77-6.49,0-9.62-2.48-9.62-9.88v-29.3h-7.16v-6Z"/><path class="cls-1" d="m2006.34,654.38v25.88c2.17-4.29,6.58-7.3,13.29-7.3s14.03,3.39,14.03,16.01v29.5h-7.22v-28.24c0-6.82-2.68-10.88-9.19-10.88-7.16,0-10.92,4.78-10.92,13.66v25.46h-7.28v-64.09h7.28Z"/><path class="cls-1" d="m2046.49,718.47v-64.09h7.28v64.09h-7.28Z"/><path class="cls-1" d="m2071.07,697.56c-.06,8.93,3.75,15.67,11.62,15.67,7.18,0,9.38-5.04,10.23-7.37h7.19c-1.47,5.56-5.82,13.46-17.77,13.46-13.96,0-18.7-10.99-18.7-23.3,0-10.95,5.38-23.05,19.12-23.05s18.05,10.91,18.05,21.21c0,.25-.03,3.11-.06,3.39h-29.68Zm22.53-5.35c-.23-7.59-3.27-13.32-11.01-13.32-8.84,0-10.93,8-11.33,13.32h22.35Z"/><path class="cls-1" d="m2105.2,673.85h7.16v-12.97h7.25v12.97h9v6h-9v27.92c0,3.73.93,5.3,4.74,5.3,1.23,0,2.48-.11,3.46-.29v5.48c-1.73.62-4.28.77-5.84.77-6.49,0-9.62-2.48-9.62-9.88v-29.3h-7.16v-6Z"/><path class="cls-1" d="m2140.58,697.56c-.06,8.93,3.75,15.67,11.62,15.67,7.18,0,9.38-5.04,10.23-7.37h7.19c-1.47,5.56-5.82,13.46-17.77,13.46-13.96,0-18.7-10.99-18.7-23.3,0-10.95,5.38-23.05,19.12-23.05s18.05,10.91,18.05,21.21c0,.25-.03,3.11-.06,3.39h-29.68Zm22.53-5.35c-.23-7.59-3.27-13.32-11.01-13.32-8.84,0-10.93,8-11.33,13.32h22.35Z"/><path class="cls-1" d="m2183.47,705.58c.84,5.14,4.64,7.99,10.03,7.99,6.17,0,8.6-3.28,8.6-7.09,0-4.04-2.84-6.14-10.41-8.19-10.87-2.95-13.75-6.92-13.75-12.9s4.03-12.43,14.96-12.43,14.96,5.96,15.54,12.83h-7.16c-.72-3.62-2.61-7.14-8.72-7.14-5.03,0-7.36,2.45-7.36,6.13,0,3.34,1.68,5.13,9.21,7.11,11.36,3.03,14.98,6.9,14.98,13.97,0,8.28-6.56,13.38-16.14,13.38s-16.16-4.37-17.01-13.68h7.21Z"/></g></svg>