<?xml version="1.0" encoding="UTF-8"?><svg id="Layer_2" xmlns="http://www.w3.org/2000/svg" viewBox="0 0 216.51 261.93"><defs><style>.cls-1{fill:none;stroke:#fff;stroke-miterlimit:10;stroke-width:.5px;}</style></defs><g id="Layer_1-2"><path class="cls-1" d="m126.73,120.45c-5.06,15.1-7,31.18-10.3,46.73-3.77,17.73-8.34,35.25-12.66,52.85-2.19,8.9-4.95,17.84-4.69,27.09-.29-8.28,2.03-16.22,3.98-24.18,2.2-8.99,4.43-17.96,6.68-26.94,4.39-17.57,8.28-35.27,11.61-53.07,1.43-7.65,2.91-15.09,5.39-22.49h0Z"/><path class="cls-1" d="m33.86,215.39c1.99-.4,3.77-2.41,5.25-3.73,3.28-2.93,6.4-6.03,9.44-9.2,5.42-5.67,10.48-11.66,15.78-17.44,13.53-14.72,27.13-29.38,41.02-43.77,6.82-7.07,13.6-14.76,21.39-20.8-6.89,5.34-12.9,12.06-18.96,18.3-7.48,7.7-14.86,15.51-22.2,23.36-11.88,12.69-23.37,25.75-35.23,38.45-3.34,3.58-6.79,7.07-10.41,10.37-1.66,1.51-3.82,4.02-6.09,4.49l.02-.02h0Z"/><path class="cls-1" d="m.5,191.78c11.18,7.63,23.94,13.65,33.36,23.61l-.02.02c-9.41-9.97-22.19-15.99-33.37-23.61h.02Z"/><path class="cls-1" d="m136.84.58c-23.08,16.3-37.71,40.33-53.27,63.35-18.42,27.25-36.83,54.51-54.76,82.08-5.12,7.88-10.21,15.78-15.22,23.73-2.37,3.76-4.72,7.52-7.05,11.31-2.05,3.32-5.05,6.94-6.04,10.73h-.02c.88-3.38,3.47-6.54,5.3-9.51,2.04-3.33,4.11-6.64,6.18-9.95,4.47-7.12,9-14.2,13.57-21.26,9.49-14.68,19.15-29.26,28.86-43.8,8.74-13.08,17.53-26.12,26.34-39.15,7.84-11.6,15.27-23.6,23.62-34.83,9.24-12.43,19.83-23.79,32.49-32.73v.02h0Z"/><path class="cls-1" d="m215.98,43.01c-23.51-5.83-46.57-16.3-65.89-30.96-4.64-3.52-9.21-7.27-13.25-11.48v-.02c16.66,17.38,39.47,29.14,61.91,37.12,5.66,2.01,11.41,3.87,17.25,5.32h-.02Z"/><path class="cls-1" d="m136.58,260.99l.15.05v.02c-12.66-4.37-25.01-9.56-37.66-13.94v-.02c12.6,4.36,24.9,9.53,37.5,13.89Z"/><path class="cls-1" d="m136.73,261.04c5.29-10.55,9.46-21.85,14.15-32.69,6.01-13.9,12.23-27.74,17.43-41.96,6.03-16.49,11.74-33.11,18.62-49.28,6.48-15.24,12.85-30.57,18.45-46.16,2.55-7.08,4.53-14.19,5.85-21.6,1.23-6.85,1.37-14.12,3.22-20.82.51-1.84,1.02-3.68,1.53-5.52h.02c-3.86,13.94-4.11,28.56-8.68,42.41-5.17,15.65-11.66,30.94-18.03,46.13-6.77,16.14-12.86,32.46-18.81,48.91-5.15,14.24-11.06,28.1-17.05,42.01-5.11,11.87-10.13,23.78-15.32,35.61-.44,1-.87,2-1.36,2.97v-.02h0Z"/><path class="cls-1" d="m34.06,215.38c.08-.02.15-.04.23-.07l-.23.07h0Z"/><path class="cls-1" d="m136.74,261.06c5.29-10.55,9.46-21.85,14.15-32.7,6.01-13.9,12.23-27.74,17.43-41.97,6.03-16.5,11.74-33.12,18.62-49.29,6.48-15.24,12.85-30.58,18.45-46.16,2.55-7.08,4.53-14.19,5.85-21.61,1.23-6.85,1.37-14.13,3.22-20.82.51-1.84,1.02-3.68,1.53-5.52-23.52-5.83-46.58-16.3-65.9-30.96-4.64-3.52-9.21-7.27-13.25-11.48-23.08,16.3-37.71,40.34-53.28,63.36-18.42,27.25-36.83,54.52-54.77,82.1-5.12,7.88-10.21,15.78-15.22,23.73-2.37,3.76-4.72,7.53-7.05,11.31-2.05,3.32-5.05,6.94-6.04,10.73,11.18,7.63,23.94,13.65,33.37,23.61,1.95-.4,3.69-2.34,5.14-3.63,3.28-2.92,6.4-6.01,9.43-9.18,5.42-5.67,10.49-11.67,15.8-17.44,13.45-14.64,26.98-29.22,40.78-43.53,6.94-7.19,13.82-15.03,21.74-21.17-5.03,15.03-6.96,31.03-10.25,46.5-3.77,17.74-8.34,35.27-12.66,52.88-2.2,8.94-5.07,17.99-4.74,27.29,12.64,4.38,25,9.57,37.66,13.94Z"/><path class="cls-1" d="m34.15,215.36c-.09.03-.19.04-.29.03-9.41-9.96-22.18-15.99-33.36-23.61.88-3.39,3.47-6.55,5.3-9.52,2.04-3.33,4.11-6.64,6.18-9.95,4.47-7.12,9-14.2,13.57-21.26,9.49-14.68,19.14-29.26,28.85-43.79,8.74-13.08,17.53-26.11,26.34-39.14,7.84-11.6,15.27-23.59,23.62-34.82,9.24-12.43,19.83-23.79,32.48-32.72,16.66,17.38,39.46,29.14,61.89,37.12,5.66,2.01,11.41,3.87,17.25,5.32-3.86,13.95-4.11,28.57-8.68,42.41-5.17,15.65-11.65,30.93-18.02,46.12-6.76,16.13-12.86,32.45-18.81,48.9-5.15,14.24-11.06,28.1-17.05,42.01-5.11,11.86-10.13,23.78-15.32,35.6-.44,1-.87,2-1.36,2.97-12.66-4.37-25.01-9.56-37.65-13.94-.29-8.28,2.03-16.22,3.98-24.18,2.2-8.98,4.43-17.96,6.67-26.93,4.39-17.57,8.28-35.26,11.61-53.06,1.43-7.65,2.91-15.09,5.39-22.48-6.88,5.33-12.9,12.06-18.96,18.29-7.48,7.7-14.86,15.51-22.19,23.35-11.84,12.65-23.29,25.64-35.1,38.31-3.3,3.54-6.7,6.99-10.26,10.25-1.79,1.64-3.77,3.8-6.07,4.7h0Z"/><path class="cls-1" d="m54.72,152.31l-.13-.24v-.06c.02-.92.08-1.84.13-2.77l-.2-.77.61-1.81.13-2.12c.47-1.32,1.16-2.7,1.22-4.13.74-1.22,1.2-2.86,1.5-4.24.85-1.31,1.23-2.87,1.72-4.33,2.53-4.08,3.91-9.06,6-13.39,2.32-4.8,4.72-9.56,7.09-14.33,4.42-8.88,9.29-17.62,14.33-26.18,5.38-9.12,11.2-17.93,17.29-26.6s13.6-18.32,23.12-23.74c10.69-6.09,21.19-1.7,31.35,3.21s20.3,9.73,28.94,16.46c18.21,14.21,8.07,41.63.59,59.21-8.23,19.35-18.17,37.91-29,55.84-1.47,2.43-3.15,4.77-4.42,7.32-1.07,1.33-1.9,2.49-2.7,4.01-1.05,1.22-1.98,2.26-2.75,3.69l-.44.35c-.74,1.04-1.8,1.74-2.39,2.89l-1.29.75-1.66,1.82h-.19s-3.07.88-3.07.88l-2-1.89c-.21-.93-.6-1.87-1.19-2.63-.09-.96-.26-1.94-.66-2.81-.67-8.78-1.04-17.53-1.35-26.38-.14-3.95-.25-7.89-.44-11.84-.21-4.25.1-9.29-1.62-13.25l-.17-1.56c-.33-.63-.55-1.31-.66-2.01l-.61-.73-.21-1.04-1.22-1.16-.03-.16c-.47-.26-.9-.6-1.26-1-.52-.31-1.05-.6-1.58-.87-.61-.02-1.2-.11-1.78-.29l-.09.03-1.91-.28-1.09.41-1.01-.04c-.69.3-1.41.51-2.16.6-8.14,3.99-15.55,8.23-22.96,13.52-6.94,4.96-13.87,10.04-20.68,15.15-3.75,2.82-8.25,4.54-11.94,7.28-.95.23-1.9.55-2.73,1.08-.96.16-1.94.25-2.85.59l-1.31-.07-2.26-2.38h0Z"/><path class="cls-1" d="m26.91,179.47c.1-1.29.36-2.57.38-3.87,2.57-7.38,5.23-14.26,8.95-21.18,3.38-6.29,6.92-12.47,10.45-18.69,7.48-13.16,15.42-26.07,23.15-39.11,7.15-12.05,14.99-23.69,22.5-35.52,8.12-12.79,16.94-25.74,28.23-35.97,5.62-5.09,12.6-9.74,20.5-7.96,7.1,1.6,13.83,5.93,20.13,9.41,6.92,3.82,13.95,7.4,20.99,10.98,6.34,3.23,14.61,6.77,18.75,12.81,4.36,6.36,3.49,15.39,2.41,22.61-1.13,7.54-3.2,14.84-5.72,22.03-4.92,14.07-11.18,27.54-17.36,41.07-6.06,13.28-12.17,26.55-17.82,39.98-5.81,13.78-12.21,27.39-19.73,40.31-1.7,2.93-4.16,5.62-5.65,8.65-1.12.95-1.94,2.24-2.9,3.35-1.07.78-2.16,1.52-3.1,2.47-1.12.38-2.22.81-3.29,1.32-1.17-.04-2.33-.01-3.48-.22l-2.56-1.91c-4.29-5.7-3.38-14.4-2.41-21.09.98-6.76,1.59-13.6,2.89-20.31,2.65-13.73,4.94-27.91,6.16-41.86.69-7.87,1.55-15.85,1.34-23.76l-.49-.94.05-.93-.45-.69-.15-.81-.33-.23-.46-.8-.65-.3-1.3.32-.33-.09-.67.24-1.17.07-1.14.69-.82.12c-13.45,7.41-24.38,18.98-35.59,29.26-11.19,10.26-21.57,21.47-33.45,30.96-6.59,5.27-15.15,12.64-23.37,6.08-.62-.96-1.24-1.92-1.86-2.89-.23-1.17-.44-2.34-.64-3.51v-.09h.01Z"/><path class="cls-1" d="m18.85,187.89c-.29-1.14-.47-2.3-.68-3.46.93-9.48,5.92-17.81,10.57-25.95s9.18-15.45,13.87-23.13c9.7-15.9,19.79-31.56,29.7-47.36,9.94-15.84,20.09-31.83,31.18-46.92,5.56-7.56,11.5-14.87,18.56-21.1,3.53-3.12,7.95-6.48,12.69-7.31,4.82-.84,9.68,1.8,13.76,4.06,8.3,4.58,16.35,9.57,24.79,13.94,8.47,4.38,17.71,7.83,25.71,13.03,2.06,1.34,3.73,2.77,5.46,4.52,6.53,11.83,1.24,28.59-2.47,40.63-4.04,13.09-9.68,25.64-15,38.23-5.25,12.41-10.59,24.79-15.86,37.17s-10.34,25.88-16.11,38.57c-3.24,7.13-6.64,14.19-10.33,21.08-3.58,6.67-6.82,13.06-12.55,18.17-8.97,4.32-19.47-.55-20.63-10.92-.99-8.82,1.81-18.26,3.25-26.89,2.91-17.31,7.49-34.32,9.8-51.77,1.34-10.16,3.62-20.54,3.92-30.81l-.59-.9.03-.48.14-.27-1-.64s-.06.05-.09.07l-1.44-.1-.91.65-.9.05c-7.77,4.7-14.31,11.21-20.89,17.38-6.5,6.1-12.83,12.37-19.12,18.69-6.1,6.14-12.03,12.5-18.32,18.45-6.46,6.1-12.33,12.91-19.5,18.22-4.25,3.15-8.97,6.3-14.52,5.11-5.51-1.18-10.01-5.07-12.5-10.01h0Z"/><path class="cls-1" d="m13.74,182.86c1.58-6.77,5.5-13.12,9.04-19.02s6.89-11.69,10.43-17.48c7.17-11.73,14.63-23.33,22.17-34.83,15.41-23.47,30.09-47.56,46.48-70.43,8.29-11.57,18.79-26.6,32.79-31.37,1.07-.01,2.14,0,3.21,0,9.69,3.21,18.06,9.94,26.92,14.95,8.79,4.97,17.89,9.24,27.08,13.39,5.27,2.38,10.44,4.75,14.81,8.56.55.91,1.09,1.83,1.63,2.75,3.02,13.84-1.37,29.33-5.87,42.43-4.35,12.65-9.53,25.11-14.89,37.35-11.04,25.19-20.09,51.16-31.29,76.22-6.05,13.53-11.49,28.66-20.86,40.32-1.05.82-2.08,1.66-3.18,2.41-8.26,2.76-18.8-1.21-23.48-8.51-2.53-8.08-.17-16.29,1.23-24.38,1.31-7.56,3.08-15.08,4.78-22.57,3.34-14.75,6.09-29.59,8.82-44.47,1.55-8.43,3.48-17.45,4.09-25.98l-.18-.28.07-1.18.35-.68-.87-.56c-.16.12-.32.25-.48.37l-1.11-.07c-12.77,9.09-23.88,20.62-34.72,31.87s-22.14,22.7-33.12,34.13c-6.3,6.56-12.53,13.31-20.97,17.01-9.07,1.51-20.47-6.79-23.18-15.26-.05-1.3.02-2.59.06-3.88l.26-.83h0Z"/><path class="cls-1" d="m9.96,186.35c3.59-14.36,13.87-27.31,21.58-39.73,7.16-11.54,14.69-22.84,22-34.3,15.01-23.51,30.8-46.56,46.32-69.77,4.53-6.77,9.5-13.34,15.06-19.3,5.81-6.24,11.8-12.47,19.81-15.67,1.07,0,2.13,0,3.2.03,9.72,3.95,18.14,11.13,27.27,16.33,8.85,5.03,18.03,9.51,27.43,13.43,5.48,2.29,11.05,4.49,15.79,8.08.56.9,1.1,1.82,1.62,2.74,2.7,27.98-10.67,55.31-21.35,80.45-11.11,26.15-20.28,53.07-31.8,79-6.35,14.29-11.84,30.39-21.72,42.67-1.05.65-2.14,1.22-3.21,1.82-8.27,1.63-18.11-3.46-24.45-8.26-.63-.87-1.22-1.77-1.78-2.69-2.03-7.94.48-16.2,2.03-24.05,1.52-7.71,3.32-15.41,5.17-23.04,3.81-15.75,7.33-31.71,9.84-47.74.65-4.19,1.36-8.39,2.08-12.57.7-4.09,2.26-8.43,2.32-12.59l.56-1.08-.75-.48c-.29.22-.58.45-.87.67l-.77-.05c-6.89,4.48-12.57,11.07-18.5,16.69s-10.99,11.13-16.43,16.72c-11.01,11.31-21.81,22.84-32.67,34.28-6.45,6.79-12.56,13.51-20.86,18.02-1.06.18-2.12.36-3.18.52-8.78-2.15-18.55-8.8-23.33-16.53-.13-1.2-.27-2.41-.4-3.61h0Z"/><path class="cls-1" d="m7.66,187.17c1.55-7.42,6.39-13.95,10.15-20.41,3.86-6.64,8.08-13.06,12.18-19.55,7.6-12.03,15.31-24.03,23.3-35.82,7.99-11.79,15.83-23.74,23.62-35.67s15.59-23.31,23.45-34.92,17.4-24.06,28.97-32.1c1.74-1.21,3.52-1.88,5.41-2.79,1.06-.02,2.13,0,3.19.05.99.52,1.96,1.06,3.02,1.43,3.56,3.01,8,5.59,11.89,8.19s7.57,4.9,11.44,7.21c8.5,5.06,17.48,9.29,26.58,13.15,5.3,2.25,10.76,4.97,16.19,6.8.86.69,1.82,1.24,2.77,1.81.57.89,1.12,1.8,1.66,2.71-.02,1.14.18,2.25.33,3.38-.78,28.83-12.58,55.94-24.14,81.94-11.34,25.52-19.77,52.19-30.85,77.8-3.13,7.24-6.39,14.43-9.67,21.6-3.28,7.17-6.29,16.56-12.41,21.81-1.04.37-2.08.79-3.15,1.04-9.5-.89-18.2-4.75-26.18-9.75-.62-.87-1.25-1.74-1.82-2.64-1.68-8.42,1.24-17.39,3.04-25.63,1.77-8.13,3.88-16.2,5.78-24.3,3.78-16.05,7.09-32.19,10.07-48.42.78-4.24,1.28-8.5,2.24-12.71.76-3.34.94-8.32,2.86-11.19l-.62-.4c-.42.32-.84.65-1.26.97l-.43-.03c-6.52,4.56-12.5,11.06-18.01,16.79-5.41,5.62-10.86,11.22-16.3,16.81-11.19,11.51-21.83,23.55-33.07,34.99-6.78,6.9-12.69,13.75-20.88,19.02-1.06.2-2.11.4-3.17.59-1.04-.36-2.11-.64-3.17-.93-7.81-5.18-15.59-9.49-22.21-16.28-.49-1-.72-2.07-1-3.15l.22-1.4h0Z"/><path class="cls-1" d="m7.23,193.09l-.11-.08c-.61-.82-1.05-1.75-1.54-2.64.05-1.42.17-2.73.39-4.13,6.25-12.57,13.93-24.22,21.38-36.12,7.73-12.34,15.71-24.6,23.93-36.63,16.46-24.09,32.38-48.61,48.67-72.86,4.81-7.16,10.21-13.84,15.98-20.24,5.42-6,11.46-12.33,18.79-15.86,1.06,0,2.11.02,3.17.04.9.73,1.91,1.17,2.95,1.68,7.03,6.36,16.04,11.78,24.21,16.56,8.88,5.2,18.17,9.47,27.67,13.36,4.93,2.01,10.18,4.73,15.31,6.06.89.65,1.87,1.24,2.91,1.59.59.89,1.17,1.78,1.75,2.68-.06,1.13-.06,2.3.01,3.43-1.38,7.1-1.24,14.55-2.65,21.72-1.4,7.12-3.41,13.94-5.86,20.78-4.83,13.47-10.45,26.64-15.92,39.86-10.63,25.71-19.36,52.2-30.57,77.65-6.48,14.72-12.38,29.88-20.3,43.9-1.01.93-1.95,1.86-3.19,2.49-1,.08-2.01.15-3.01.28-9.72-1.07-18.8-6.49-27.41-10.59-.63-.85-1.26-1.7-1.83-2.59-.14-1.1-.26-2.21-.45-3.3,1.32-15.88,6.22-31.76,10.02-47.22,3.93-15.95,7.5-32.05,10.28-48.25.75-4.36,1.49-8.73,2.38-13.07.74-3.61,1.36-8.11,3.19-11.34l-.5-.32c-.55.43-1.09.85-1.64,1.26h-.1c-12.01,10.07-22.83,21.8-33.56,33.21-11.41,12.13-23.01,24.11-34.1,36.52-2.95,3.3-5.94,6.57-9.11,9.66-3.64,3.55-7.42,6.41-11.34,9.57-1.06.23-2.11.47-3.16.73-.99-.5-2.05-.82-3.1-1.18-7.56-5.87-16.35-10.15-23.55-16.6h0Z"/><path class="cls-1" d="m4.44,187.22c6.13-12.81,14.38-24.75,22.07-36.68,8.03-12.47,16.24-24.81,24.39-37.21,7.93-12.06,15.91-24.09,24.03-36.02,8.55-12.56,16.96-25.22,25.44-37.84,7.87-11.7,17.68-23.99,28.97-32.56,1.68-1.28,3.59-2.12,5.29-3.34.97-.03,1.95-.08,2.91-.24l.48.18c.84.66,1.78,1.19,2.67,1.76,15.48,13.85,34.98,24.13,54.31,31.48,5.66,2.15,11.31,4.36,16.96,6.45.62.87,1.23,1.76,1.8,2.67-1.77,6.86-1.43,14.62-2.65,21.68-1.32,7.62-3.12,14.96-5.67,22.27-4.75,13.6-10.34,26.96-15.9,40.24-5.4,12.9-10.74,25.78-15.42,38.97-4.81,13.55-9.95,26.93-15.59,40.15-6,14.04-11.83,28.29-18.53,42-.89,1.81-1.95,3.72-3.08,5.4l-1.61,1.01-1.52.39c-10.81-2.62-21.25-6.12-31.21-11.24-.65-.83-1.23-1.7-1.82-2.57.34-16.8,5.9-33.88,10.09-50.17s7.81-33.41,10.83-50.23c1.36-7.59,1.93-16.52,5.55-23.48l-.37-.24c-12.83,9.93-23.84,22.84-34.92,34.63-11.51,12.24-23.14,24.38-34.42,36.83-3.24,3.57-6.32,7.28-9.75,10.68-3.38,3.35-7.31,6.1-10.7,9.34-1.05.3-2.12.56-3.14.95-.96-.61-2.02-1.02-3.06-1.49-8.14-5.74-16.31-11.55-24.53-17.19-.55-.79-1.24-1.51-2-2.1-.28-1.24-.41-2.42-.28-3.69l.4-.79h0Z"/><path class="cls-1" d="m5.35,183.91c6.63-12.84,15.28-25,23.18-37.1,7.8-11.95,15.76-23.81,23.54-35.78,7.81-12,15.9-23.83,23.93-35.68,8.12-11.99,16.07-24.1,24.26-36.04s18.39-25.16,30.33-33.91c1.39-1.02,2.91-1.83,4.31-2.81.59-.17,1.2-.3,1.81-.39.57.21,1.13.41,1.7.62l.1.08.03.04c8.46,6.67,16.61,13.36,25.9,18.94,10,6,20.68,10.97,31.63,14.99,5.46,2,11.01,3.78,16.43,5.84h.16s.32.11.32.11c.52.5.99,1.04,1.39,1.63l.25.85-.16.61-.25.43c-1.2,14.84-3.78,29.82-8.72,43.89-5.07,14.46-11.02,28.64-16.95,42.77-5.29,12.59-10.29,25.24-14.95,38.08-5.09,14.03-10.33,27.86-16.2,41.59-5.83,13.63-11.58,27.37-17.86,40.78-.76,1.63-1.39,2.93-2.4,4.41l-.15.47c-1.18.28-2.37.55-3.55.84-5.3-1.11-10.47-3.37-15.49-5.37-5.42-2.16-10.92-4.1-16.23-6.55-.5-.7-1.08-1.36-1.72-1.94-1.14-9.05,2.53-19.07,4.7-27.79,2.12-8.49,4.24-16.98,6.32-25.48,3.88-15.86,7.41-31.89,10.33-47.96,1.41-7.78,2.29-16.52,5.73-23.75l-.25-.16c-5.79,4.37-10.82,9.95-15.9,15.1-6.12,6.2-12.19,12.47-18.13,18.85-11.35,12.2-22.76,24.32-34.03,36.58-7.04,7.65-14,14.92-21.68,21.92-1.04.32-2.07.71-3.07,1.15-1.17-.66-2.28-1.38-3.41-2.09-3.57-3.14-7.67-5.86-11.64-8.5s-9.49-5.27-12.98-8.76c-1.09-.43-1.93-1.31-2.84-2.03-.29-.8-.5-1.65-.63-2.49l.23-1.09c.85-1.65,1.59-3.36,2.63-4.9h0Z"/><path class="cls-1" d="m1.32,191.33l.08-.92c.32-.49.54-1.03.64-1.6l.37-.4c.21-.45.43-.91.64-1.36,4.21-5.34,7.34-11.99,11.01-17.73,4.17-6.52,8.28-13.07,12.46-19.59,8.26-12.89,16.83-25.58,25.25-38.38,7.92-12.04,16.05-23.93,24.09-35.88,8.61-12.79,16.93-25.87,25.86-38.44,7.92-11.14,17.27-22.84,28.1-31.31,1.54-1.2,3.52-2.82,5.27-3.59l.46-.41c.34-.13.69-.27,1.04-.41v-.02s.06-.01.06-.01c.39.16.76.34,1.13.53.36.28.7.57,1.04.88l.32.48c17.2,14.23,35.34,25.61,56.39,33.4,5.37,1.99,11.03,3.48,16.32,5.64l.75.03c.37.12.75.24,1.12.35.5.34,1,.69,1.5,1.03v1.05s.05.16.05.16l-.26.55c.02.35-.02.7-.11,1.04l-.51.85c-.08,3.26-.98,6.91-1.41,10.19-.53,4.1-1.11,8.2-1.85,12.26-1.37,7.53-3.43,14.77-6.04,21.96-5.2,14.32-10.99,28.47-16.96,42.48-5.9,13.83-10.96,27.92-16.19,42.01-4.95,13.34-10.02,26.54-15.72,39.59-5.57,12.74-10.95,25.57-16.65,38.24-.74,1.65-1.31,3.42-2.15,5.02-.47.26-.9.6-1.26.99-.55-.06-1.13-.05-1.69.02-5.41-1.66-10.83-3.65-16.11-5.76-5.56-2.21-11.47-5.43-17.31-6.71-.28-.2-.59-.36-.91-.48-.22-.21-.43-.42-.64-.63-.12-.81-.14-1.61-.25-2.43.23-8.88,3.15-17.65,5.19-26.24,1.9-8,3.98-15.95,5.95-23.93,4.11-16.58,7.74-33.29,10.86-50.09,1.46-7.87,2.68-15.92,5.64-23.4l-.12-.08c-6.5,4.92-12.08,11.28-17.79,17.08-6.15,6.24-12.16,12.62-18.18,18.99-11.42,12.08-23.05,24.11-33.95,36.66-3.21,3.7-6.42,7.41-9.89,10.87-3.4,3.39-7,7.66-11.11,10.18-.37.1-.72.27-1.03.49-.36.06-.71.11-1.07.17h0s0,0,0,0c-.3-.31-.65-.58-1.02-.79l-.31-.4c-4.44-3.06-8.52-6.75-12.99-9.85-4.22-2.92-9.66-5.34-13.36-8.84-1.5-.71-3.03-1.56-4.29-2.66-.14-.3-.3-.6-.47-.88h0Z"/></g></svg>