<?xml version="1.0" encoding="UTF-8"?><svg id="Layer_2" xmlns="http://www.w3.org/2000/svg" viewBox="0 0 136.82 131.61"><defs><style>.cls-1{fill:none;stroke:#fff;stroke-miterlimit:10;stroke-width:.75px;}</style></defs><g id="Layer_1-2"><path class="cls-1" d="m.68,85.33c1.4,1.87,4.02,3.14,5.96,4.36,3.22,2.02,6.5,3.93,9.81,5.79,6.11,3.45,12.63,6.26,18.6,9.94,2.65,1.63,5.2,3.41,7.7,5.26,1.83,1.35,3.63,2.75,5.41,4.17.7.56,2.21,2.33,3.17,2.41,1.68.13,3.43-3.03,4.28-4.14,2.04-2.66,4.28-5.13,5.96-8.05,4.26-7.39,6.41-15.75,9.7-23.57-2.9,6.87-4.9,14.1-8.22,20.78-1.65,3.32-3.71,6.11-6.01,8.98-1.31,1.64-2.58,4.14-4.34,5.35-2.26,1.56-5.3-2.38-7.09-3.76-2.8-2.17-5.67-4.26-8.63-6.2-5.64-3.69-11.86-6.38-17.76-9.63-3.89-2.14-7.75-4.36-11.53-6.69-2.26-1.39-5.41-2.86-7.04-5.03h.01Z"/><path class="cls-1" d="m59.08.85c-7.88,10.98-17.26,20.9-25.43,31.69-8.09,10.69-15.75,21.74-22.59,33.27-3.76,6.34-7.24,12.84-10.37,19.52h-.01c5.57-11.85,12.26-23.13,19.55-34,7.93-11.83,16.53-23.2,25.6-34.18,4.48-5.42,9.16-10.59,13.26-16.31h0Z"/><path class="cls-1" d="m135.6,27.33c-21.86-4.82-43.17-11.95-63.75-20.72-4.29-1.83-8.57-3.71-12.77-5.76h0c18.18,8.87,37.48,15.94,56.91,21.52,6.49,1.86,13.03,3.5,19.62,4.95h0Z"/><path class="cls-1" d="m127.96,130.74h.11s0,.02,0,.02c-13.67-1.56-26.98-4.59-40.54-6.77-7.34-1.18-14.74-1.51-22.09-2.49-2.62-.35-2.04-1.6-1.57-3.85.76-3.7,1.49-7.41,2.23-11.11.93-4.68,1.89-9.34,3-13.98.83-3.48,2.3-7.43,2.17-11.04h0c.13,3.1-1.08,6.47-1.79,9.45-.97,4.06-1.9,8.13-2.71,12.22-.82,4.11-1.64,8.22-2.47,12.33-.28,1.39-1.61,4.73-.36,5.73.78.63,3.24.38,4.15.46,1.8.15,3.6.31,5.4.49,3.64.36,7.27.78,10.89,1.3,7.88,1.13,15.59,3.08,23.43,4.4,6.68,1.12,13.41,2.07,20.14,2.84Z"/><path class="cls-1" d="m128.07,130.76c3.31-13.14,5.21-26.62,6.47-40.09s1.87-28.08,1.87-42.14c0-7.1-.23-14.12-.81-21.19h0c1.14,13.79.97,27.66.39,41.48s-1.62,26.46-3.55,39.57c-1.11,7.52-2.5,15.01-4.36,22.39h0Z"/><path class="cls-1" d="m63.52,120.93c.04.05.08.11.12.16l-.12-.16h0Z"/><path class="cls-1" d="m51.13,117.21s.04.02.06.03l-.14-.06.08.04Z"/><path class="cls-1" d="m63.65,121.1s.03.03.05.04l-.05-.04h0Z"/><path class="cls-1" d="m63.57,120.99s.03.04.05.06c-.02-.03-.05-.06-.07-.09l.02.03h0Z"/><path class="cls-1" d="m63.59,121.02s-.03-.04-.04-.06l.03.04c-.47-1.24.23-2.97.49-4.24.58-2.9,1.17-5.81,1.75-8.71,1.26-6.3,2.62-12.54,4.09-18.79.58-2.46,1.49-5.19,1.39-7.74-2.45,5.82-4.27,11.89-6.79,17.68-2.45,5.64-5.91,10.13-9.64,14.94-.78,1.01-2.2,3.43-3.72,3.07l.05.02c-6.44-4.2-11.96-9.56-18.74-13.34-7.61-4.24-15.46-7.94-22.93-12.44-2.78-1.67-6.83-3.46-8.83-6.12,5.57-11.85,12.25-23.13,19.54-34,7.93-11.82,16.53-23.2,25.59-34.17,4.48-5.42,9.16-10.59,13.26-16.31,18.18,8.88,37.48,15.95,56.9,21.53,6.49,1.86,13.02,3.5,19.61,4.95,1.14,13.79.97,27.66.39,41.48s-1.62,26.46-3.55,39.57c-1.11,7.52-2.5,15.01-4.36,22.38-17.39-1.98-34.36-6.37-51.74-8.25-2.41-.26-4.81-.49-7.22-.7-1.67-.14-3.93.07-5.46-.71l.05.04c-.05-.04-.1-.08-.13-.14l.04.05-.02-.03h0Z"/><path class="cls-1" d="m51.24,117.25s.07.02.1.03l-.14-.04h.04Z"/><path class="cls-1" d="m51.17,117.23h0s-.05-.02-.05-.02l.04.02Z"/><path class="cls-1" d="m71.28,81.52l.45-1.79-.45,1.79c.13,3.16-1.11,6.6-1.83,9.63-.96,4.01-1.87,8.01-2.67,12.05s-1.66,8.31-2.49,12.47c-.28,1.38-1.58,4.6-.33,5.6.82.65,3.39.39,4.34.48,1.78.15,3.57.31,5.35.49,3.65.36,7.29.78,10.92,1.31,7.93,1.14,15.71,3.11,23.61,4.43,6.61,1.1,13.25,2.04,19.91,2.8,3.31-13.14,5.21-26.62,6.47-40.1,1.3-14.01,1.87-28.08,1.87-42.14,0-7.1-.23-14.12-.81-21.2-21.86-4.82-43.17-11.95-63.76-20.72-4.29-1.83-8.57-3.71-12.77-5.76-7.89,10.98-17.26,20.9-25.44,31.7-8.09,10.69-15.75,21.74-22.6,33.27-3.76,6.34-7.24,12.84-10.37,19.52,1.4,1.87,4.02,3.14,5.96,4.36,3.22,2.02,6.5,3.93,9.81,5.8,6.12,3.45,12.63,6.26,18.6,9.94,2.65,1.63,5.2,3.41,7.71,5.26,1.83,1.36,3.63,2.75,5.41,4.18.7.56,2.21,2.33,3.17,2.41,1.68.13,3.43-3.03,4.28-4.14,2.04-2.66,4.28-5.13,5.96-8.05,4.26-7.39,6.41-15.75,9.7-23.57h0Z"/><path class="cls-1" d="m32.64,77.84c-3.37-7.42-.85-15.24,2.52-22.24,3.35-6.96,7.71-13.49,12.73-19.34,5.23-6.1,11.67-11.98,19.96-13.01,7.66-.95,15.79,1.54,22.99,3.92,7.25,2.4,14.77,5.14,21.05,9.59,6.79,4.8,9.63,11.94,10.57,19.99.88,7.51.55,15.35-.66,22.8-1.18,7.29-2.7,15.43-7.42,21.37-5.15,6.48-14.19,7.6-21.49,4.15-7.96-3.76-9.61-12.25-12.74-19.62-.68-1.61-1.72-3.02-2.39-4.61-.37-.36-.74-.74-1.09-1.11-.32-.36-.63-.73-.94-1.1-1.68-1.24-3.21-1.91-5.3-2.13-.42.05-.85.1-1.27.14-.47.03-.96.04-1.43.03l-.65.27-.82.08c-5.44,2.24-10.29,6.07-15.97,7.78-6.77,2.04-14.01-1.01-17.66-6.97h0Z"/><path class="cls-1" d="m26.71,87.47c-8.61-7.39-5.94-17.59-1.7-26.58,3.89-8.24,9.02-16.03,14.53-23.27,5.49-7.22,11.74-15.72,20.13-19.73,9.12-4.36,20.35.28,29.24,3.23,9.25,3.06,19.09,6.01,27.58,10.87,9.93,5.69,11.57,15.78,11.95,26.45.34,9.4-.26,19.02-1.68,28.32-1.29,8.41-2.86,19.84-9.72,25.72-7.38,6.32-20.65,3.71-28.8.38-10.65-4.35-10.52-14.14-11.87-23.99-.28-2.04-.54-3.99-1.25-5.94l-.27-.35-.3-1.01-.89-.88v-.05s-.14-.09-.14-.09l-.63-.76c-.37-.16-.76-.31-1.15-.42l-.73.03-.16-.05-.02.02-1.1-.12-.46.36-.74.06c-5.26,3.39-8.59,8.79-13.42,12.67-5.93,4.77-12.53,3.91-19.12.96-3.4-1.52-6.37-3.54-9.28-5.85h0Z"/><path class="cls-1" d="m18.5,86.3c-6.83-8.76-.54-20.07,4.22-28.37,5.29-9.22,11.32-18.07,17.95-26.38,5.64-7.08,13.83-18.76,23.75-19.31,5.23-.29,10.56,1.56,15.49,3.13s10.26,3.44,15.37,5.22,10.03,3.48,15.02,5.32c4.73,1.74,9.83,3.47,13.84,6.61,8.17,6.4,7.31,20.71,7.13,30.05-.21,10.44-.79,20.95-2.55,31.26-1.56,9.14-3.3,23.4-14.04,26.05-9.39,2.32-21.57-.53-30.42-3.86-5.72-2.15-9.13-5.8-10.02-11.91-.73-4.99-.03-10.07-.07-15.07-.02-2.72-.45-5.12-1.11-7.73l-.56-.39-.11-.39-.62-.28-.08-.33-.12.18-.69-.22-.57.56-.39-.04c-6.62,4.62-8.88,13.69-15.39,18.58-7.56,5.67-17.08.09-24.16-3.77-4.37-2.38-8.52-5.17-11.87-8.89h0Z"/><path class="cls-1" d="m11.73,81.35c-.55-9.18,5.66-18.23,10.16-25.82,4.89-8.26,10.54-16.17,16.45-23.72s12.17-16.96,20.59-21.08c4.91-2.4,10.36-.6,15.27.94,4.55,1.43,9.05,3.03,13.55,4.61,9.33,3.27,18.7,6.42,28.01,9.75,4.52,1.62,10.25,3.31,13.27,7.3,3.04,4.01,3.34,9.92,3.64,14.77,1.21,19.27.08,39.92-4.39,58.74-1.07,4.48-2.41,9.8-5.77,13.15-3.56,3.54-9.14,3.43-13.81,3.19-4.73-.24-9.52-1.07-14.14-2.07-4.9-1.06-10-1.87-14.68-3.73-2.43-.96-4.3-2.19-6.12-4.05-2.75-5.02-2.26-10.66-1.8-16.18.39-4.72,2.01-10.56.52-15.2l-.1-.07-.25-.9-.32-.15-.17-.72-.27.4-.45-.15c-7.33,6.63-8.63,18.67-17.73,23.73-5,2.78-10.86-.08-15.46-2.41-4.54-2.3-9.09-4.54-13.44-7.19-5.34-3.26-10.73-6.87-12.55-13.13h0Z"/><path class="cls-1" d="m12.12,87.84c-7.92-7.71,1.52-21.09,5.89-28.48,5.17-8.75,10.99-17.21,17.16-25.28,6.17-8.09,12.55-17.02,20.5-23.46,4.77-3.86,9.08-3.36,14.67-1.65,4.87,1.49,9.63,3.38,14.41,5.11,10.03,3.63,20.12,7.11,30.28,10.4,4.79,1.55,10.92,2.97,14.69,6.44,3.63,3.34,3.73,9.33,4.04,13.92,1.36,19.83-.01,40.59-3.62,60.13-.94,5.1-1.88,10.8-4.58,15.31-3.14,5.24-9.08,5.12-14.52,4.8-10.2-.6-20.81-2.98-30.69-5.51-2.51-.64-4.7-1.62-7.02-2.73-.58-.52-1.16-1.03-1.73-1.55-.38-.7-.76-1.4-1.14-2.09-2.07-10.26,1.66-20.52,1.68-30.82-.1-.31-.19-.63-.28-.94h-.02s-.27-1.12-.27-1.12l-.42.62-.22-.07c-3.71,3.78-5.42,9.69-7.87,14.32-2.75,5.2-5.9,10.22-11.42,12.71-.77.12-1.54.22-2.32.31-6.96-1.3-12.98-5.51-19.24-8.69s-12.57-6.89-17.97-11.66h0Z"/><path class="cls-1" d="m7.47,84.93c-3.06-4.46,2.59-13.32,4.74-17.28,2.91-5.35,6.02-10.61,9.4-15.68,7-10.52,14.48-20.65,22.5-30.41,4.47-5.44,9.27-11.57,15.33-15.27.72-.17,1.45-.32,2.17-.48,9.39,1.19,18.45,5.78,27.32,9,9.46,3.43,19.02,6.5,28.59,9.57,4.97,1.6,10.57,2.82,14.5,6.39,2.43,4.5,2.49,9.62,2.73,14.63.22,4.57.25,9.15.17,13.72-.17,9.73-.73,19.44-1.6,29.13-.87,9.61-2.11,19.4-4.71,28.71-1.48,5.3-3.62,9.3-9.64,9.71-4.98.34-10.18-.56-15.08-1.34-5.37-.86-10.68-2.05-16.02-3.04-5.47-1.01-10.95-1.92-16.13-3.97-.6-.49-1.23-.95-1.85-1.42-.4-.68-.8-1.36-1.19-2.05-.93-5.47-.06-10.95.77-16.4.75-4.9,2.96-10.75,2.41-15.71l-.19-.63c.1-.54.04-1.08-.17-1.6-6.3,9.82-8.54,23.74-19.53,29.72-.77.1-1.54.19-2.31.27-6.04-1.47-11.21-5.38-16.64-8.31-5.78-3.12-11.72-5.9-17.19-9.58-3.21-2.16-6.39-4.32-8.39-7.68h0Z"/><path class="cls-1" d="m9.01,89.05c-1.5-1.32-3.26-2.82-3.86-4.81-.25-6,3.58-12.01,6.41-17.1,2.94-5.3,6.18-10.45,9.51-15.51,6.87-10.46,14.46-20.43,22.33-30.14,4.35-5.36,8.92-10.53,13.89-15.3.66-.44,1.32-.86,1.95-1.34.73-.13,1.45-.26,2.18-.4,9.45,2.26,18.42,6.48,27.55,9.83,8.88,3.26,17.86,6.28,26.92,8.99,5.18,1.55,10.47,2.95,15.43,5.11.57.47,1.14.94,1.72,1.41.34.68.67,1.36,1.01,2.03,2.54,11.82,1.68,24.87,1.11,36.89-.6,12.59-1.51,25.19-3.49,37.65-1.02,6.42-1.96,13.57-5.24,19.28-.67.55-1.3,1.15-2.04,1.6-7.02,1.4-14.46-.05-21.44-1.3-6.85-1.22-13.63-2.72-20.49-3.87-4.05-.68-8.11-1.3-12.02-2.55-.67-.4-1.34-.81-2.01-1.21-.4-.67-.81-1.35-1.21-2.03-.05-.88-.21-1.74-.35-2.61.33-5.26.98-10.48,2.01-15.66.93-4.68,2.9-10.11,2.74-14.88l-.09-.3c.18-.68.17-1.43-.06-2.1-3.11,4.5-4.72,10.22-6.86,15.22-2.54,5.92-5.81,10.39-10.25,14.97-.7.38-1.37.81-2.05,1.24-.76.1-1.52.19-2.29.27-.77-.29-1.57-.5-2.36-.73-6.42-3.45-12.4-7.62-18.96-10.88-6.85-3.41-13.48-7.3-19.71-11.76h0Z"/><path class="cls-1" d="m11.94,91.97c-2.77-1.73-5.58-3.6-7.76-6.05-.21-.8-.43-1.6-.66-2.4,1.49-6.25,4.91-11.97,8.09-17.49,3.1-5.38,6.45-10.62,9.89-15.78,6.82-10.22,14.27-20.03,22.02-29.56,4.38-5.38,9.07-10.42,13.69-15.57.64-.49,1.3-.94,1.86-1.51.74-.07,1.47-.16,2.2-.26,17.87,7.3,36.3,14.12,54.85,19.57,5.34,1.57,10.69,3.03,15.96,4.78.6.43,1.22.85,1.83,1.27.28.7.55,1.41.88,2.09,1.72,12.92,1.21,26.12.69,39.14s-1.72,25.21-3.6,37.7c-.51,3.41-1.16,6.79-1.89,10.16-.72,3.33-1.27,7.46-3.83,9.92-3.21,1.66-7.9.71-11.35.26-3.64-.47-7.29-.96-10.91-1.62-7.41-1.36-14.76-2.96-22.2-4.14-4.13-.66-8.23-1.26-12.32-2.06-.72-.34-1.41-.73-2.17-.96-.45-.64-.87-1.29-1.28-1.96.07-.9-.01-1.81-.15-2.69.68-5.85,1.63-11.63,2.78-17.43.61-3.05,1.33-6.08,1.98-9.13.43-2.03,1.51-5.27.89-7.35-3.07,4.83-4.53,10.99-6.78,16.26-1.14,2.67-2.43,5.26-3.96,7.72-1.75,2.8-4.09,4.88-6.15,7.41-.67.43-1.28.95-1.91,1.44-.75.1-1.51.2-2.26.3-.75-.4-1.53-.67-2.34-.96-5.78-3.71-11.4-7.74-17.55-10.85-6.32-3.2-12.46-6.62-18.53-10.28h0Z"/><path class="cls-1" d="m2.7,85.33l-.2-.15-.18-.52c3.54-11.78,11.09-22.87,17.95-33.03,7.09-10.5,14.57-20.74,22.6-30.55,2.34-2.85,4.69-5.68,7.09-8.48s5.31-5.32,7.21-8.34c.63-.58,1.24-1.19,1.89-1.74.63,0,1.26-.02,1.88-.07,18.22,7.54,36.57,14.82,55.55,20.31,5.23,1.51,10.84,3.64,16.19,4.49.61.43,1.27.8,1.96,1.1.53,3.49,1.26,6.74,1.35,10.34.08,3.15.18,6.3.18,9.46,0,6.61-.13,13.2-.36,19.8-.46,13.27-1.58,26.57-3.53,39.71-.99,6.68-1.86,13.95-4.36,20.27l-.6.71-1.41.8c-15.17.43-30.42-4.54-45.36-6.71-4.03-.58-8.09-1.14-12.12-1.6-.75-.24-1.48-.52-2.25-.64-.51-.61-.98-1.25-1.41-1.91.72-6.87,1.89-13.62,3.28-20.42.67-3.26,1.49-6.48,2.21-9.73.46-2.07,1.6-5.18,1.1-7.3-2.66,4.65-3.99,10.32-6.01,15.29-1.23,3.02-2.58,6.08-4.32,8.85-1.86,2.96-4.58,5.25-6.44,8.13-.65.48-1.16,1.07-1.72,1.66-.74.14-1.47.28-2.21.41-.69-.46-1.45-.76-2.2-1.12-11.26-8.67-24.1-14.2-36.16-21.59-3.34-2.05-7.48-4.04-9.62-7.42h0Z"/><path class="cls-1" d="m1.99,86.18c-.06-.04-.11-.09-.16-.15l-.39-.94c.01-.24.02-.48.03-.72l.22-.24c4.68-11.73,11.78-22.8,18.88-33.22,7.61-11.17,15.67-21.98,24.22-32.45,4.44-5.43,9.23-10.57,13.48-16.15.34-.22.65-.48.92-.78.35.08.69.12,1.04.13.21.09.43.17.64.25,3.34,2.42,8.5,3.76,12.34,5.35,4.68,1.94,9.38,3.82,14.12,5.61,9.73,3.67,19.6,6.94,29.59,9.83,5.3,1.54,10.65,2.91,16.01,4.23h.18c.3.09.61.17.92.25.37.24.77.42,1.19.53,1.15,4.56.98,9.57,1.09,14.25.12,5.12.06,10.25-.04,15.37-.2,10.6-.72,21.17-1.62,31.73-.5,5.83-1.33,11.61-1.99,17.42h0c-1.15,7.52-2.12,15.4-4.47,22.64-.26.22-.49.49-.68.78-.37.09-.75.21-1.11.35h-.53c-3.52-.87-7.54-.88-11.16-1.39-3.94-.56-7.88-1.16-11.8-1.89-7.62-1.42-15.11-3.12-22.8-4.11-4.72-.61-9.51-.94-14.19-1.73l-.26.06c-.18-.04-.37-.08-.55-.12-.26-.24-.55-.46-.85-.64-.09-.34-.21-.68-.37-1,.02-.21.05-.42.08-.62l.2-.33c1.49-10.31,3.78-20.45,6.12-30.6.46-1.98,1.32-4.53,1.02-6.58-4.77,9.49-6.4,20.05-13.27,28.53-1.81,2.23-3.73,4.33-5.59,6.51-.18.09-.37.18-.55.26-.39-.06-.79-.11-1.19-.15-.34-.34-.76-.6-1.21-.76-10.85-9.14-23.55-14.72-35.71-21.83-3.37-1.97-7.22-3.84-10.15-6.45-.29-.11-.56-.27-.81-.46l-.09-.13c-.27-.2-.53-.42-.77-.65h0Z"/></g></svg>