<?xml version="1.0" encoding="UTF-8"?><svg id="Layer_2" xmlns="http://www.w3.org/2000/svg" viewBox="0 0 273.39 266.88"><defs><style>.cls-1{fill:none;stroke:#fff;stroke-miterlimit:10;stroke-width:.75px;}</style></defs><g id="Layer_1-2"><path class="cls-1" d="m64.67,123.6c-7.89,13.44-15.89,26.8-22.94,40.72-2.66,5.26-5.51,9.36-2.7,15.01,2.83,5.69,7.16,10.63,11.56,15.15,10.27,10.55,22.37,19.29,34.7,27.26,12.7,8.21,25.96,15.75,40.06,21.29,11.31,4.45,25.38,9.16,37.72,7.02,1.06-.18,2.08-.38,3.04-.86,7.96-11.22,13.62-24.23,20.78-35.98,2.06-3.39,4.16-6.75,6.24-10.13h0c-7.36,11.99-14.28,24.17-21.25,36.38-1.86,3.26-3.6,6.68-5.76,9.74-4.84,2.43-12.12,1.27-17.19.51-6.16-.92-12.19-2.59-18.07-4.63-14.36-4.98-27.86-12.24-40.73-20.26s-25.33-16.7-36.28-27.11c-4.66-4.43-9.13-9.21-12.64-14.62-1.3-2-2.7-4.22-3.39-6.53-.86-2.91.47-5.16,1.71-7.8,6.39-13.62,14.14-26.62,21.82-39.54,1.11-1.87,2.21-3.75,3.31-5.63h.01Z"/><path class="cls-1" d="m242.13,44.36c1.13-3.9.9-9.03.89-13.07,0-4.71-1.94-5.79-5.71-7.93-8.81-5.01-17.46-10.32-26.3-15.29-2.11-1.19-4.3-2.29-6.34-3.59-1.53-.97-3.56-3.71-5.39-3.74-2.85-.66-5.6,1.17-7.96,2.51-2.6,1.48-5.85,2.54-8.05,4.6-11.71-.03-23.9-3.44-35.45-5.28-4.67-.75-10.21-2.43-14.96-2.15-4.39.26-9.04,3.03-12.75,5.14-9.74,5.53-18.28,13.01-26.52,20.52-9.38,8.55-18.52,17.47-26.97,26.95-16.61,18.65-32.67,37.43-47.68,57.39-5.2,6.91-9.92,14.37-15.54,20.95-1.18,1.39-3.01,2.65-3.01,4.69,0,2.42,2.84,4.06,4.44,5.58,3.69,3.51,7.23,7.17,10.86,10.74,3.37,3.31,5.63,6.83,10.1,3.32,3.95-3.1,6.69-7.61,10.72-10.71,7.48-5.76,14.8-12.15,22.53-17.56,1.86-1.31,3.75-2.58,5.64-3.85h-.01c-8.3,5.58-15.51,12.27-23.54,18.21-3.68,2.72-7.14,5.3-10.34,8.64-2.33,2.43-6,8.32-10.02,6.69-3.76-1.52-7.38-7-10.27-9.88-2.45-2.44-10.4-7.75-10.1-11.49.22-2.83,4.8-6.74,6.49-8.98,2.46-3.25,4.74-6.62,7.17-9.89,14.97-20.19,30.78-39.33,47.47-58.12,15.99-18,33.21-36.6,53.37-50,4.02-2.67,8.26-5.16,12.77-6.9,4.34-1.68,7.67-1.24,12.21-.56,11.34,1.72,22.68,3.54,33.96,5.59,3.15.57,6.24.93,9.44.94,2.2-2.06,5.45-3.13,8.05-4.6,2.36-1.34,5.1-3.18,7.96-2.51,1.69.03,3.05,2.18,4.38,3.11,1.9,1.34,4.07,2.38,6.1,3.52,4.02,2.25,8.01,4.54,11.95,6.92,4.7,2.83,9.46,5.57,14.23,8.29,3.27,1.86,6.48,2.82,7.02,6.91s.37,10.79-.82,14.88h-.01Z"/><path class="cls-1" d="m213.41,265.23c3.74-5.61,5.17-13.18,7.93-19.33,2.86-6.37,6.61-12.39,9.78-18.62,8.29-16.3,14.94-34.15,21.36-51.25,5.65-15.05,12.19-30.33,15.71-46.04,1.77-7.92,2.6-16.11,3.41-24.17.63-6.28,3.05-16.14-.59-21.69-8.01-12.22-17.69-23.39-25.95-35.47-.98-1.43-1.96-2.87-2.93-4.3h.01c5.75,8.45,11.6,16.81,17.82,24.94,2.73,3.57,5.47,7.13,8.14,10.75,3.62,4.91,4.75,7.44,4.48,13.56-.51,11.36-1.74,22.95-3.89,34.12-2.11,10.97-6.34,21.58-10.2,32.02-4.18,11.33-8.38,22.61-13.02,33.77-4.64,11.14-8.75,22.81-14.21,33.57-4.32,8.52-9.08,16.67-12.61,25.56-1.31,3.3-2.74,10.92-5.7,13.14-3.29,2.47-10.83-1.95-14.18-3.16-3.05-1.1-6.09-2.21-9.11-3.39-1.68-.66-5.13-1.39-6.38-2.79-2.7-3.01.54-11.15,1.53-14.53,2.84-9.76,4.81-19.87,6.7-29.9.56-2.96,1.1-5.92,1.63-8.89h0c-1.16,6.46-2.28,12.95-3.73,19.36-1.18,5.2-1.84,10.69-3.42,15.74-1.43,4.56-4.38,11.12-3.55,15.97.75,4.39,9.73,5.99,13.47,7.36,3.33,1.22,14.75,7.48,17.52,3.69h0Z"/><path class="cls-1" d="m165.66,249.43c.1-.04.19-.09.29-.13l-.29.13h0Z"/><polygon class="cls-1" points="184.49 7.07 182.95 7.96 183.27 7.86 184.49 7.07 184.49 7.07"/><polygon class="cls-1" points="166.05 249.23 166.11 249.2 165.95 249.3 166.05 249.23 166.05 249.23"/><polygon class="cls-1" points="242.04 43.69 242.13 44.36 242.74 45.45 242.04 43.69 242.04 43.69"/><path class="cls-1" d="m166.07,249.22l.03-.03s-.09.07-.14.1l.11-.07h0Z"/><path class="cls-1" d="m182.95,7.96l1.54-.89-1.22.79c2.2-2.06,5.45-3.13,8.05-4.6,2.36-1.34,5.1-3.18,7.96-2.51,1.69.03,3.05,2.17,4.38,3.11,1.9,1.34,4.07,2.38,6.1,3.52,4.01,2.25,8,4.54,11.95,6.92,4.7,2.83,9.46,5.57,14.22,8.29,3.27,1.86,6.48,2.82,7.02,6.9.56,4.19.37,10.79-.82,14.88l-.08-.66.7,1.76-.62-1.09c5.75,8.46,11.6,16.81,17.82,24.94,2.73,3.57,5.47,7.13,8.14,10.74,3.62,4.91,4.75,7.44,4.48,13.56-.51,11.36-1.74,22.94-3.89,34.12-2.11,10.97-6.34,21.57-10.19,32.01-4.18,11.33-8.38,22.61-13.02,33.76-4.63,11.14-8.75,22.8-14.21,33.57-4.32,8.51-9.08,16.67-12.61,25.55-1.31,3.3-2.74,10.91-5.7,13.13-3.29,2.47-10.82-1.95-14.18-3.16-3.05-1.1-6.09-2.21-9.1-3.39-1.68-.66-5.13-1.39-6.38-2.79-2.7-3.01.54-11.15,1.53-14.53,2.84-9.76,4.81-19.87,6.7-29.89.56-2.96,1.1-5.92,1.63-8.89-7.36,11.98-14.28,24.16-21.25,36.37-1.86,3.25-3.6,6.68-5.76,9.74l-.05.04.05-.04s-.09.07-.14.1l.09-.06c-4.86,2.33-11.93,1.24-17,.49-6.06-.9-12.01-2.52-17.81-4.51-14.44-4.95-28.01-12.24-40.94-20.28-12.81-7.97-25.36-16.69-36.33-27.1-4.7-4.46-9.23-9.29-12.77-14.74-1.3-2-2.7-4.22-3.38-6.53-.86-2.91.47-5.15,1.71-7.8,6.39-13.62,14.14-26.62,21.82-39.54,1.11-1.87,2.21-3.75,3.31-5.63-8.3,5.58-15.51,12.26-23.53,18.21-3.68,2.72-7.14,5.3-10.34,8.64-2.33,2.43-6,8.32-10.01,6.69-3.76-1.52-7.38-7-10.27-9.88-2.45-2.44-10.4-7.75-10.1-11.48.22-2.83,4.8-6.74,6.49-8.98,2.45-3.25,4.74-6.61,7.17-9.89,14.97-20.19,30.77-39.32,47.46-58.12,15.99-18,33.21-36.59,53.36-50,4.02-2.67,8.26-5.16,12.77-6.9,4.34-1.68,7.67-1.24,12.21-.56,11.34,1.72,22.67,3.54,33.96,5.59,3.15.57,6.23.93,9.44.94l-.33.1h0Z"/><path class="cls-1" d="m193.12,203.1l.57-1.06-.57,1.06c-1.98,11.03-3.77,22.45-6.55,33.29-1.24,4.83-3.11,9.4-3.85,14.39-.32,2.17-.8,4.25.83,5.82,1.4,1.34,4.51,2.01,6.28,2.7,5.72,2.23,11.51,4.48,17.36,6.33,5.72,1.81,6.66-.83,8.6-5.79,3.6-9.22,7.57-17.81,12.21-26.56,11.04-20.79,19.4-43.54,27.54-65.61,4.09-11.1,8.48-22.18,11.63-33.6,2.9-10.52,3.9-21.67,4.84-32.51.38-4.39,1.8-10.88.38-15.16-1.4-4.21-5.82-8.42-8.51-11.97-6.03-7.94-12-15.86-17.65-24.08-1.37-2-2.74-4-4.1-6,1.13-3.9.9-9.03.89-13.07,0-4.71-1.94-5.79-5.71-7.93-8.82-5.01-17.46-10.32-26.3-15.29-2.11-1.19-4.3-2.3-6.34-3.59-1.53-.97-3.56-3.71-5.39-3.74-2.85-.66-5.61,1.17-7.96,2.51-2.6,1.48-5.85,2.54-8.05,4.6-11.72-.03-23.91-3.44-35.46-5.28-4.67-.75-10.21-2.43-14.96-2.15-4.39.26-9.04,3.03-12.75,5.14-9.74,5.53-18.28,13.02-26.52,20.53-9.39,8.55-18.53,17.47-26.98,26.96-16.61,18.65-32.67,37.44-47.69,57.4-5.2,6.91-9.92,14.37-15.54,20.96-1.18,1.39-3.01,2.65-3.01,4.7,0,2.42,2.84,4.06,4.44,5.58,3.69,3.51,7.23,7.17,10.86,10.74,3.37,3.31,5.63,6.83,10.1,3.32,3.95-3.1,6.69-7.61,10.72-10.71,7.48-5.76,14.8-12.15,22.53-17.56,1.86-1.31,3.75-2.58,5.64-3.85-7.89,13.44-15.9,26.8-22.94,40.72-2.66,5.26-5.51,9.36-2.7,15.02,2.83,5.69,7.16,10.63,11.56,15.16,10.27,10.55,22.37,19.29,34.7,27.26s25.96,15.75,40.07,21.3c11.32,4.45,25.39,9.16,37.72,7.02,1.06-.18,2.08-.38,3.04-.86,7.96-11.22,13.62-24.23,20.78-35.98,2.06-3.39,4.16-6.75,6.24-10.13h0Z"/><path class="cls-1" d="m93.3,135.11c-.85-13.48-2.52-27.98,1.59-41.09,4.02-12.82,12.96-23.91,23.46-32.08,22.59-17.6,57.66-19.78,80.73-1.62,23.55,18.54,31.47,50.9,21.45,78.65-4.77,13.21-13.11,24.52-25.24,31.79-11.61,6.96-25.17,12.91-38.07,17.01-14.26,4.53-29.16,3.23-41.79-5.11-12.99-8.57-19.36-22.09-21.25-37.19-.43-3.44-.69-6.9-.89-10.36h0Z"/><path class="cls-1" d="m78.12,117.83c-1.9-8.8-3.91-17.4-1.6-26.35,2.26-8.75,7.32-16.67,12.84-23.72,10.9-13.94,25.54-26.91,42.39-32.97,16.31-5.87,35.37-4.76,52.1-1.26,19.34,4.06,32.4,15.99,42.81,32.26s16.57,31.79,15.49,50.4c-1.02,17.62-6.98,35.86-16.55,50.68-4.9,7.6-11.18,14.14-19.66,17.63-7.81,3.21-16.24,4.25-23.9,7.95-8.44,4.08-15.87,9.97-24.4,13.87-8.42,3.85-17.39,5.12-26.53,3.59-17.09-2.87-34.52-13.62-44.62-27.71-11.66-16.26-7.13-33.92-7.18-52.42-.01-4.04-.57-7.97-1.18-11.96h0Z"/><path class="cls-1" d="m66.86,110.71c-10.64-18.74,7.38-40.09,19.39-53.41,13.44-14.9,30.72-30.61,51.03-34.55,9.62-1.87,19.49-1.29,29.19-.49,10.01.82,20.58,1.22,30.25,4.11,21.7,6.48,32.39,25.78,43.17,44.09,5.11,8.68,9.66,17.72,11.28,27.75,1.68,10.43.66,21.21-1.47,31.5-3.84,18.55-11.2,38.84-23.14,53.77-6.53,8.17-14.13,12.17-24.62,11.89-10.06-.27-16.7,2-24.68,8.36-7.95,6.34-15.5,13.88-25.4,17.07s-20.92,1.43-30.68-1.99c-18.74-6.57-40.06-19.94-49.44-38.07-4.99-9.63-4.72-19.93-2.8-30.32,1.66-8.94,5.23-18.64,3.27-27.78-.92-4.3-3.18-8.14-5.36-11.92h0Z"/><path class="cls-1" d="m54.62,105.57c-3.01-13.71,7.11-27.16,15-37.47,8.46-11.05,18.09-21.25,28.55-30.43,10.48-9.2,22.41-18.38,36.37-21.24,13.63-2.8,27.96.1,41.62,1.19,7.06.56,14.31.15,21.25,1.74,7.52,1.73,14.67,5.47,20.79,10.12,11.57,8.79,17.42,23.64,25.03,35.68,7.76,12.29,14.7,24.17,15.08,39.09.35,13.95-2.52,27.83-6.83,41.03-4.27,13.08-9.45,26.16-16.35,38.09-3.44,5.94-7.43,12.06-12.84,16.39-6.76,5.41-13.16,4.85-20.71,1.68-2.55-1.07-4.91-2.23-7.71-2.4-.33.03-.67.02-1-.01-6.26,1.02-11,6.42-15.22,10.75-5.05,5.18-9.89,10.75-15.85,14.94-12.29,8.64-27.13,6.3-40.44,1.49-14.11-5.1-27.47-13.13-39.11-22.56-10.8-8.75-22.08-20.35-22.48-35.1-.23-8.35,2.55-16.54,5.04-24.39,1.98-6.26,6.14-14.95,3.82-21.56-.91-3.28-3.79-5.4-6.3-7.45-3.38-2.76-5.96-5.52-7.72-9.57h0Z"/><path class="cls-1" d="m59.31,148.34c2.58-7.1,8.77-16.55,7.75-24.33-.12-.32-.2-.64-.25-.98l-.12-.18-.18-.67-.33-.37-.11-.3c-.55-.47-1.15-.85-1.8-1.17h0c-1-.53-2.07-.96-3.14-1.33h-.12c-.7-.35-1.45-.58-2.22-.69-2.47-1.19-5.25-1.81-7.78-2.95-.75-.55-1.5-1.09-2.27-1.63-.59-.68-1.18-1.36-1.76-2.04-6.25-13.12,6.31-29,13.81-39.07,8.47-11.37,18-21.99,28.21-31.82,10.56-10.16,22.36-20.9,36.06-26.59,13.97-5.81,29.64-2.65,44.15-.94,7.38.87,14.4.68,21.8.53,7.78-.16,14.77,2.49,21.51,6.19,7.53,4.14,15.24,9.26,19.55,16.92,3.38,6.01,5.59,12.48,9.24,18.39,7.54,12.19,18.44,24.32,20.85,38.85,2.41,14.5-.54,30.64-4.58,44.57-3.76,12.95-8.62,25.74-14.17,38.03-5.26,11.62-11.52,25.3-21.83,33.33-3.21,2.5-6.49,3.62-10.54,3.51-.86-.29-1.73-.55-2.6-.79-4.27-2.64-7.37-6.09-10.75-9.71-1.34-1.18-2.72-1.88-4.47-2.22l-.25.11-.64-.04-.86.38-.2.02c-5.45,2.51-9.54,8.67-13.24,13.19s-7.59,9.59-12.06,13.74c-10.45,9.72-23.37,9.5-36.43,5.74-13.29-3.83-25.78-10.4-37.37-17.86-11.31-7.28-22.61-15.72-30.86-26.46-10.1-13.15-7.98-26.88-2.01-41.37h0Z"/><path class="cls-1" d="m50.07,164.5c2.16-7.09,5.03-13.84,8.1-20.57,2.75-6.01,6.74-12.38,7.79-18.97l-.03-.1.06-1.04-.27-.51.03-.28-.4-.44-.02-.06c-.3-.3-.65-.56-1.02-.77l-1.11-.09-.24-.11c-.51,0-1.02-.03-1.52-.1l-.3.07c-.93-.18-1.87-.17-2.8.02-5.85-.37-11.18.9-17.02-.64-.89-.52-1.76-1.08-2.6-1.69-.49-.75-1-1.48-1.53-2.2-.25-.85-.5-1.7-.74-2.56-.41-14.67,9.79-28.19,18.36-39.33,9.14-11.89,19.06-23.26,29.73-33.79s22.95-22.22,36.82-29.24c14.49-7.33,30.56-3.76,45.93-1.66,7.55,1.03,14.27,1.52,21.81.3,8.88-1.44,15.99,1.28,23.74,5.48,7.11,3.85,15.83,8.51,20.51,15.34,4.19,6.12,4.83,13.94,8.73,20.33,7.46,12.23,19.68,24.24,23.06,38.43,3.5,14.73-.22,33.11-4.34,47.37-4.16,14.41-9.59,28.66-15.61,42.4-5.65,12.91-11.98,26.81-21.61,37.28-2.93,3.18-6.21,5.52-10.15,7.24-.87.13-1.75.26-2.62.4-.88-.2-1.77-.38-2.67-.52-.92-.56-1.8-1.18-2.69-1.79-4.21-5.14-6.42-11.4-8.94-17.47l-.37-.39-.32-.97-.69-.63-.12-.51-.69-.52-.64-.09v-.03s-.03.02-.03.02h-.08c-.23-.07-.47-.14-.71-.2-5.22,2.4-8.79,8.61-12.07,13.13-3.58,4.92-7.02,9.97-10.92,14.65-4.61,5.53-9.65,10.04-17,11.15-6.35.96-13.03-.2-19.17-1.82-24.08-6.34-47.41-20.84-65.98-37.21-11.27-9.93-21.17-21.46-17.68-37.28h0Z"/><path class="cls-1" d="m27.79,129.54c-.48-.74-.99-1.48-1.51-2.19-.12-.87-.3-1.73-.56-2.57.12-.93.15-1.87.08-2.8,4.1-15.35,11.73-28.4,21.42-41,9.83-12.78,20.38-25.19,31.67-36.71,11.68-11.91,24.17-24.13,38.53-32.77,7.63-4.59,14.99-6.95,23.92-6.3,8.06.59,16.09,1.87,24.07,3.08,8.14,1.23,15.31,2.51,23.34.22,9.12-2.6,15.83.39,23.87,4.74,7.26,3.92,15.64,8.26,21.45,14.2s4.49,15.23,8.71,22.27c4.15,6.92,9.03,13.43,13.7,20.01,4.77,6.72,10.65,13.82,11.76,22.22,2.13,16.17-1.79,34.92-6.72,50.26-4.93,15.36-10.68,30.61-17.24,45.35-6.42,14.43-13.27,29.36-23.52,41.5-2.79,3.3-6.01,5.81-9.18,8.67-.86.36-1.69.8-2.48,1.31-.87.13-1.72.33-2.56.59-.88-.15-1.77-.3-2.65-.48-9.98-7.99-4.83-23.93-9.28-34.55-.07-.5-.18-1-.31-1.49l-.3-.23-.28-.04-.15-.56-.34.27-.49.04c-5.43,3.89-9.21,11.38-12.82,16.91-4.32,6.61-8.5,13.94-14.17,19.5-12.6,12.35-36.05,2.34-49.59-3.73-14.1-6.32-27.52-14.54-39.95-23.69-6.59-4.85-12.98-10.09-18.66-16s-11.89-12.96-12.4-21.21c-.47-7.63,3.76-15.46,6.89-22.18,3.46-7.41,7.47-14.55,10.96-21.94.87-1.84,1.66-3.69,2.29-5.63v-.15s-.02-.06-.02-.06l.11-.98-.29-.32.09-.36-.8-.26-.16.17-.31.12-.93-.16-1.06.35-.41-.05c-10.3,2.04-23.37,11.82-33.71,6.6h0Z"/><path class="cls-1" d="m14.96,135.18c-.92-8.61,4.91-17.19,9.19-24.29,4.39-7.27,8.86-14.43,13.95-21.24,10.12-13.54,21.28-26.48,32.72-38.92,11.93-12.97,24.89-25.65,39.07-36.14,7.14-5.29,15.99-11.48,25.22-11.53s18.35,2.03,27.27,3.42c8.7,1.36,17.06,3.88,25.5.63,4.11-1.58,8.28-3.39,12.68-1.9s8.77,4.22,12.87,6.5c7.62,4.22,16.4,8.6,22.86,14.49,3.8,3.47,4.09,8.11,4.5,12.95.38,4.59,1.27,7.33,3.8,11.2,4.82,7.35,10.03,14.4,15.2,21.5,2.52,3.46,5.13,6.92,7.33,10.6,2.84,4.76,3.32,9.35,3.18,14.79-.47,18.16-3.92,35.63-9.93,52.73-5.79,16.45-12.05,32.72-19.24,48.61-7.14,15.78-15.05,30.39-24.87,44.65-2.54,3.69-5.18,7.06-9.12,9.31-24.3,6.07-10.04-37.53-13.49-48.77,0-.13.02-.26.05-.39l-.25-.9-.63.51c-.33.34-.68.67-1.05.98-4.47,6.34-8.66,12.82-12.7,19.45s-8.21,15.41-14.36,20.46c-6.49,5.33-16.94,3.3-24.43,1.62-8.12-1.81-15.95-4.76-23.52-8.17-15.17-6.82-29.59-15.71-42.96-25.57-6.79-5.01-13.34-10.41-19.23-16.46-5.31-5.45-12.58-13.13-12.59-21.26,0-7.72,5.33-16.03,8.73-22.71,3.69-7.25,7.71-14.32,11.5-21.52.95-1.8,1.78-3.65,2.73-5.44l.06-.52-.13-.14.17-.73-.6-.19-.44.46-.84.31-.23-.04c-8.82,2.99-16.55,8.99-24.68,13.38-8.14,4.4-18.4,9.48-23.29-1.71h0Z"/><path class="cls-1" d="m12.83,144.34c-3.11-3-5.26-6.01-5.34-10.41,2.42-7.45,7.38-14.13,11.76-20.55,4.15-6.09,8.33-12.17,12.69-18.12,8.88-12.13,18.98-23.39,28.91-34.66,10.05-11.4,20.45-22.36,31.67-32.63,5.37-4.91,10.84-9.73,16.65-14.13,6.43-4.86,14.5-10.84,22.65-12.04,8.28-1.21,18.25,1.81,26.46,3.13,8.07,1.3,16.48,3.57,24.68,3.35,4.78-1.91,9.71-5.66,15.01-5.76.75.18,1.51.36,2.26.55,6.72,4.01,13.75,7.51,20.47,11.54s14.16,7.35,19.48,12.73c.33.69.66,1.38,1,2.06,1.06,4.58.71,9.65.68,14.32,1.42,6.27,8.22,13.36,11.97,18.51,4.56,6.27,9.47,12.3,13.83,18.72,4.97,7.29,4.07,14.45,3.37,22.92s-1.59,16.87-3.34,25.1c-3.28,15.4-9.67,30.3-15.17,45-5.33,14.25-11.59,28.17-17.78,42.06-3.05,6.85-6.42,13.44-10.25,19.89-3.89,6.57-6.91,13.88-11.28,20.12-1.21,1.72-2.31,2.79-4.17,3.82-6.91,1.45-15.79-2-20.44-7.2-.3-.76-.6-1.52-.9-2.28-1.06-7.55,1.44-16.56,2.71-24.04,1.18-6.95,2.33-13.92,2.83-20.96.05-.71.14-1.41.26-2.1l-.17-.6-.42.34c-.24.39-.51.76-.79,1.12-4.49,6.82-8.76,13.75-12.87,20.8-2.25,3.86-4.51,7.72-6.87,11.52-2.09,3.36-4.18,7.83-7.39,10.27-6.23,4.74-18.12,1.8-25.01.09-8.46-2.1-16.61-5.24-24.51-8.9-15.03-6.97-29.4-15.83-42.73-25.65-6.96-5.13-13.73-10.6-19.81-16.76-5.37-5.43-14.36-14.25-13.15-22.6,1.15-7.91,6.8-16.18,10.51-23.14,3.83-7.18,7.97-14.17,11.93-21.27.81-1.46,1.56-2.95,2.43-4.38l.23-.95-.4-.13c-2.13,2.26-5.91,3.5-8.53,5.2-3.22,2.09-6.13,4.61-9.27,6.82-6.9,4.87-13.98,9.53-20.95,14.25-.81.22-1.6.47-2.39.75-.83-.03-1.65-.07-2.48-.11-3.15-1.31-5.69-3.14-8.06-5.63h0Z"/><path class="cls-1" d="m3.57,138.37l-.51-.68-.38-1.04-.08-1.39c2.35-6.7,8.53-13.24,12.64-19,4.48-6.28,9.07-12.51,13.7-18.69,9.5-12.7,20.18-24.56,30.7-36.42,10.51-11.84,21.31-23.29,33.01-33.98,6.11-5.58,12.33-11.09,19.05-15.94,6.06-4.38,14.41-10.49,22.17-10.46,7.35.03,15.2,2.14,22.45,3.32,7.18,1.17,14.39,2.81,21.62,3.61,1.66.18,3.35.3,5.02.24,4.44-2.66,10.03-6.18,15.18-6.86.63.11,1.26.23,1.88.36,6.36,5.14,14.22,8.55,21.22,12.76,6.55,3.94,14.81,7.32,20.38,12.53,2.09,3.94,1.62,12.83.49,17.12,1.16,3.41,3.99,6.57,6.02,9.49,2.59,3.72,5.18,7.44,7.9,11.06s5.5,7.2,8.22,10.82c2.75,3.66,6.54,7.62,7.96,12.02.86,6.32-.22,13.18-.86,19.5s-1.41,12.88-2.52,19.24c-2.11,12.03-6.76,23.61-10.97,35.02-4.04,10.93-8.14,21.79-12.63,32.54-4.71,11.27-8.96,23.03-14.55,33.87-3.01,5.84-6.44,11.48-9.35,17.36-3.03,6.13-4.81,13.09-8.83,18.7l-.84.59-1.58.49c-7.6.27-17.32-4.65-23.89-8.15-.59-.57-1.18-1.14-1.77-1.71-.17-.79-.35-1.59-.52-2.38.24-4.55,1.24-8.87,2.51-13.25,1.23-4.25,1.54-8.64,2.61-12.94,1.86-7.47,3.26-15.29,4.31-22.92l-.08-.3-.21.17c-9.92,14.59-16.71,31.44-27.35,45.5-8.6,3.8-20.41.65-29.04-1.87-9.9-2.88-19.38-7.02-28.53-11.74-17.58-9.07-34.71-20.19-49.58-33.26-4.31-3.79-8.45-7.79-12.14-12.2-3.28-3.91-8.75-10.04-8.39-15.5,4.1-13.98,13.27-27.48,20.63-39.97,2-3.39,4.05-6.76,6.04-10.16l.11-.48-.2-.06c-2.64,2.23-5.84,3.88-8.62,5.93-3.32,2.43-6.36,5.3-9.6,7.86-7.03,5.54-14.21,10.42-20.57,16.78-.79.37-1.56.77-2.32,1.21-.8,0-1.61,0-2.41-.02-.75-.44-1.5-.88-2.26-1.31-5.07-4.77-11.55-9.37-15.23-15.4h0Z"/></g></svg>