<?xml version="1.0" encoding="UTF-8"?><svg id="Layer_2" xmlns="http://www.w3.org/2000/svg" viewBox="0 0 225.89 224.6"><defs><style>.cls-1{fill:none;stroke:#fff;stroke-miterlimit:10;stroke-width:.75px;}</style></defs><g id="Layer_1-2"><path class="cls-1" d="m65.98,149.94c7.54,8.88,15.49,17.49,23.44,26.01,2.14,2.29,4.27,5.08,6.88,6.84l.15-.04c16.02-13.45,31.07-28.31,46.38-42.55,7.71-7.17,15.42-14.34,23.13-21.51,4.08-3.79,8.16-7.58,12.23-11.38,1.11-1.03,3-2.09,2.84-3.74-.14-1.39-2.14-2.87-3.04-3.8-9.83-10.25-19.38-21.51-30.22-30.71h0c9.9,8.39,18.59,18.65,27.59,27.97,2.08,2.16,7.22,5.58,4.7,8.55-3.36,3.95-7.81,7.27-11.61,10.8-15.3,14.23-30.59,28.47-45.97,42.63-8.62,7.94-17.06,16.22-26.03,23.75l-.15.04c-4.7-3.15-8.59-8.65-12.38-12.81-3.31-3.63-6.6-7.29-9.88-10.95-2.7-3.01-5.44-6-8.06-9.09h0Z"/><path class="cls-1" d="m82.88,210.53c-1.83-5.46-4.85-12.61-3.94-18.44-3.39-10.99-6.48-22.08-9.99-33.03-.98-3.04-1.97-6.08-2.97-9.12h0c3.57,10.83,6.74,21.77,10.06,32.67.96,3.16,1.93,6.33,2.91,9.49-.91,5.83,2.11,12.98,3.94,18.44h0Z"/><path class="cls-1" d="m60.92,223.14c7.5-3.76,15.12-7.73,21.97-12.61h0c-6.85,4.9-14.47,8.86-21.97,12.63v-.02h0Z"/><path class="cls-1" d="m16.26,41.77c-2.07,4.83-3.79,9.82-6.14,14.53-2.85,5.7-6.56,10.74-8.37,16.95-3.93,13.45,1.88,27.45,6.21,40.08,4.48,13.08,9.19,26.09,14.27,38.96,5.18,13.11,10.78,26.05,17.6,38.4,2.94,5.32,6.03,10.67,9.78,15.46,3.34,4.25,7.14,7.89,9.58,12.8.68,1.36,1.25,2.77,1.73,4.21v.02c-1.9-5.74-5.44-10.29-9.4-14.74-3.74-4.21-6.72-9.05-9.54-13.91-6.95-11.97-12.64-24.6-17.84-37.42s-9.62-24.89-14.02-37.48C5.71,107-.96,92.47.61,78.8c.79-6.93,3.97-13.02,7.49-18.92,2.94-4.93,5.03-10.29,7.15-15.61.33-.83.66-1.67,1.01-2.5h0Z"/><path class="cls-1" d="m46.74,13.41c-.24,5.03-4.97,9.8-8.25,13.19-4.31,4.45-9.16,8.55-14.51,11.72-2.4,1.42-4.99,2.78-7.72,3.45h0c10.53-2.59,21.51-12.7,27.48-21.46,1.36-2,2.88-4.41,3-6.91h0Z"/><path class="cls-1" d="m224.64,71.96c-5.28-2.75-10.06-6.72-13.92-11.23-3.88-4.54-8.68-7.8-13.75-10.91-11.77-7.25-23.89-13.99-36.2-20.28-12.82-6.55-26.07-12.27-39.3-17.92C109.37,6.44,96.53-.29,82.97.63c-5.84.4-11.15,3.25-16.47,5.5-4.78,2.03-9.58,4.09-14.5,5.77-1.73.59-3.47,1.15-5.26,1.51h0c11.24-2.28,20.93-9.3,31.93-12.15,12.52-3.24,25.58,3.09,36.81,7.8,13.76,5.77,27.57,11.66,40.95,18.28,12.43,6.14,24.59,12.9,36.49,20.01,5.34,3.19,10.92,6.35,15.42,10.7s7.82,8.55,12.9,11.88c1.11.73,2.24,1.42,3.42,2.03h-.02Z"/><path class="cls-1" d="m208.58,91.94l.8.41h.01c-7.98-4.17-16.57-4.62-24.75-7.97-7.8-3.2-15.55-6.51-23.34-9.73-4.51-1.87-9.02-3.73-13.53-5.59h0c7.9,3.27,15.79,6.53,23.69,9.8,6.71,2.78,13.95,7.07,21.15,8.15,5.63.85,10.89,2.26,15.98,4.93h0Z"/><path class="cls-1" d="m209.37,92.35c5.09-6.8,10.18-13.6,15.26-20.4h.02c-5.09,6.8-10.18,13.6-15.27,20.4h-.01Z"/><path class="cls-1" d="m78.88,192.52c.03-.14.05-.29.06-.43l-.06.43h0Z"/><path class="cls-1" d="m78.91,192.31c-.74,5.82,2.14,12.76,3.97,18.22-6.85,4.88-14.46,8.85-21.97,12.61-1.89-5.74-5.44-10.29-9.4-14.74-3.74-4.21-6.72-9.05-9.54-13.91-6.95-11.97-12.64-24.6-17.84-37.41-5.01-12.36-9.62-24.88-14.02-37.47C5.72,106.99-.95,92.47.62,78.8c.79-6.93,3.97-13.02,7.48-18.92,2.94-4.93,5.02-10.29,7.15-15.61.33-.83.66-1.67,1.01-2.5,10.53-2.59,21.5-12.69,27.47-21.45,1.36-2,2.88-4.41,3-6.91,11.24-2.27,20.93-9.29,31.93-12.14,12.51-3.24,25.58,3.09,36.81,7.8,13.76,5.77,27.56,11.66,40.94,18.28,12.43,6.14,24.58,12.9,36.48,20,5.34,3.19,10.92,6.35,15.42,10.7,4.29,4.14,7.82,8.55,12.9,11.88,1.11.73,2.24,1.42,3.42,2.03-5.09,6.8-10.18,13.6-15.26,20.4-7.98-4.17-16.57-4.62-24.75-7.97-7.8-3.2-15.55-6.51-23.34-9.73-4.51-1.87-9.02-3.73-13.53-5.59,9.9,8.39,18.59,18.65,27.59,27.97,2.08,2.16,7.22,5.58,4.7,8.55-3.36,3.95-7.81,7.27-11.61,10.8-15.3,14.23-30.59,28.47-45.96,42.62-8.62,7.93-17.06,16.22-26.03,23.75l-.15.04c-4.7-3.15-8.59-8.65-12.38-12.81-3.31-3.63-6.6-7.29-9.88-10.95-2.7-3.01-5.44-6-8.06-9.09,3.57,10.82,6.74,21.76,10.06,32.66.96,3.16,1.93,6.33,2.91,9.49l-.03.22h0Z"/><path class="cls-1" d="m147.77,69.06l-.75-.63.75.63c8.05,3.32,16.09,6.65,24.13,9.98,6.76,2.81,13.98,7.06,21.26,8.02,5.73.75,11.12,2.6,16.22,5.29,5.09-6.8,10.18-13.6,15.27-20.4l-.21.23.21-.23c-5.28-2.75-10.06-6.72-13.92-11.23-3.88-4.54-8.68-7.8-13.75-10.91-11.77-7.25-23.9-13.99-36.2-20.28-12.82-6.55-26.08-12.27-39.31-17.93C109.37,6.43,96.53-.3,82.97.62c-5.84.4-11.15,3.25-16.47,5.5-4.79,2.03-9.58,4.09-14.5,5.77-1.73.59-3.47,1.15-5.26,1.51-.24,5.03-4.97,9.8-8.25,13.19-4.31,4.45-9.17,8.55-14.51,11.72-2.4,1.42-4.99,2.78-7.72,3.45-2.07,4.83-3.79,9.82-6.14,14.53-2.85,5.7-6.56,10.75-8.38,16.95-3.93,13.45,1.88,27.45,6.21,40.08,4.48,13.08,9.19,26.1,14.27,38.96,5.18,13.11,10.78,26.05,17.6,38.4,2.94,5.32,6.03,10.67,9.79,15.46,3.34,4.25,7.14,7.89,9.58,12.8.68,1.36,1.25,2.77,1.73,4.21l-.06-.21.06.21c7.5-3.76,15.12-7.73,21.97-12.61-1.83-5.46-4.85-12.61-3.94-18.44-3.39-10.99-6.48-22.08-9.99-33.03-.98-3.04-1.97-6.08-2.97-9.12l-.86-1.09c7.28,9.49,16.05,18.24,24.21,27,2.17,2.32,4.32,5.16,6.98,6.94l.15-.04c16.02-13.45,31.07-28.31,46.39-42.56,7.71-7.17,15.42-14.34,23.13-21.51,4.08-3.79,8.16-7.59,12.23-11.38,1.11-1.03,3-2.09,2.84-3.74-.14-1.39-2.14-2.87-3.04-3.8-9.84-10.25-19.38-21.52-30.23-30.71h0Z"/><path class="cls-1" d="m58.56,133.55c-22.64-4.32-32.46-33.93-28.5-54.32,4.1-21.14,24.12-40.74,44.33-47.15,11.26-3.57,23.18-2.38,33.98,2.13,10.1,4.22,20.27,11.38,22.93,22.61,1.23,5.21,1.29,10.67,1.97,15.97s1.89,10.15,2.7,15.25c1.84,11.58-.78,21.68-8.12,30.84-7.24,9.03-17.66,17.47-29.34,19.51-10.71,1.87-21.35-2.2-31.87-3.66-2.7-.38-5.4-.7-8.09-1.17h0Z"/><path class="cls-1" d="m50.49,145.71c-13.8.38-21.88-19.25-25.96-29.71-5.17-13.27-8.7-27.9-4.76-41.97,4.11-14.7,13.89-25.17,24.93-35.16,10.63-9.63,22.05-17.78,36.61-19.89,14.23-2.06,28.66,3.2,41.09,9.74,11.61,6.12,25.58,15.43,20.92,30.36-1.86,5.95-3.07,10.85-1.27,17.02,1.87,6.38,5.14,12.32,6.47,18.87,2.87,14.16-7.08,25.9-16.45,35.25-8.89,8.86-20.79,19.82-33.91,20.88-13.58,1.1-24.37-10.53-38.07-7.28-3.12.74-6.34,2-9.59,1.88h0Z"/><path class="cls-1" d="m55.1,153.5c-.96,1.01-2.2,1.48-3.31,2.28-.8.25-1.6.5-2.4.75-9.32-.03-15.22-8.89-19.5-16.19-4.58-7.82-8.19-16.26-11.22-24.79s-5.94-17.82-6.49-27.12c-.57-9.48,2.09-18.35,6.34-26.74,4.37-8.62,10.25-14.98,17.4-21.36,6.81-6.08,13.18-13.21,20.9-18.16,7.61-4.89,16.93-8.45,25.95-9.45,9.48-1.06,18.84,1.46,27.66,4.75,8.66,3.24,17.12,7.21,25.07,11.94,7.05,4.19,16.26,9.89,19.31,17.98.77,2.05.8,3.97.47,6.11-.37.75-.69,1.52-1.01,2.29-2.92,3.34-6.3,6.35-9.01,9.89-.12.33-.28.63-.48.92-.04.32-.12.63-.24.93l-.05.45-.19.5.03.33-.16.77c1.08,10.24,9.94,18.03,12.11,28.09,2.26,10.47-4.84,19.46-11.35,26.83-6.55,7.42-13.84,14.28-21.48,20.56-7.02,5.77-15.53,12.84-24.96,13.59-12.43.98-20.35-11.01-31.94-12.33-.36.06-.73.12-1.1.17-.36.03-.72.06-1.07.09-.3.15-.62.24-.96.29-3.25,1.63-5.29,4.79-8.29,6.64h0Z"/><path class="cls-1" d="m50.34,168.5l-2.24-.16c-8.81-4.12-14.3-12.5-18.94-20.78-4.64-8.29-8.35-17.08-11.68-25.96-3.79-10.11-7.61-20.68-8.85-31.46s1.6-19.44,6.11-28.58c2.25-4.56,4.59-9.29,7.88-13.21,3.19-3.79,7.29-6.75,11.04-9.94,7.85-6.69,14.56-15.65,23.62-20.71,8.32-4.64,18.5-8.72,28.11-9.06,10.2-.36,19.99,3.2,29.29,6.99s18.27,7.96,26.88,12.89c8.15,4.66,16.92,10.32,22.57,17.99,1.55,2.11,2.39,4.2,3.3,6.61-.05.92-.08,1.84-.09,2.76-.47.77-.93,1.55-1.38,2.34-.89.59-1.75,1.21-2.58,1.87-1.13.39-2.28.84-3.32,1.44-1.17.22-2.34.63-3.42,1.12-1.06.13-2.11.5-3.07.95-.56.14-1.12.27-1.68.41l-.8.47-.79.14-1.18.71-.3.04-1.16.8-.14.02c-.56.41-1.09.88-1.56,1.4l.02.43-.21.34c.03.32.05.65.05.97l.03.08-.03.97c1.19,4.8,5.09,9.15,7.81,13.14,2.9,4.26,6.06,8.74,7.65,13.7,3.44,10.7-4.85,19.88-11.59,27.23-7.61,8.3-15.9,16.05-24.45,23.37-7.39,6.33-17.15,15.77-27.46,16.23-12.49.56-19.61-12.68-30.55-16-.36.01-.73,0-1.09-.07l-.18.06-.79-.08c-.25.17-.54.29-.84.35l-.61.53c-.28.35-.57.7-.87,1.03l-.03.14-.86,1.14-.08.36-.75,1.09-.24.91-.44.65c-.22.61-.43,1.24-.62,1.85-.54.92-.98,1.95-1.2,3-.57,1.04-1.08,2.13-1.42,3.27-.67.95-1.22,1.99-1.74,3.03-.73.71-1.45,1.44-2.12,2.22-.83.33-1.66.66-2.48,1.02l-.55-.05h0Z"/><path class="cls-1" d="m51.04,182.47c-16.68-14.15-26.04-35.03-33.71-55.12-4.04-10.57-8.11-21.42-10.41-32.53-2.41-11.63-.52-21.92,4.82-32.43,2.52-4.97,4.8-10.44,8.28-14.83,3.36-4.24,8.21-7.19,12.36-10.59,8.77-7.21,15.47-17.54,25.84-22.46,9.65-4.58,20.33-9.21,31.22-8.48,11.63.78,22.91,6.1,33.44,10.72,19.57,8.59,39.49,18.73,54.44,34.35,1.9,1.98,3.46,4.17,5.28,6.21.49,1.04.95,2.09,1.6,3.04.03.94.18,1.86.36,2.78-.53.78-1.04,1.58-1.61,2.33-5.24,1.85-10.71,1.54-16.19,1.21-4.53-.28-11.27-1.57-15.59.01l-.57-.04c-.49.14-.98.23-1.48.29l-.23.15-1.1.14c-.38.3-.74.62-1.07.97l.02.41-.14.26.13.28-.11.58.36,1.03c5.7,9.01,14.24,16.79,18.35,26.73,4.8,11.62-7.92,22.55-15.23,29.96s-14.93,14.53-22.72,21.42c-4,3.54-8.05,7.02-12.26,10.3-4.55,3.56-9.9,7.83-15.71,8.93-12.51,2.35-22.02-13.49-31.67-18.83h-.15s-1.02-.44-1.02-.44l-.71.13-.09-.04-.51.07-.09-.06-.18.31-.17.04-.1.09c-.18.31-.39.6-.64.87l-.28,1.23-.07.1c-.13.5-.28.99-.47,1.47l-.02.85c-1.55,4.04-1.11,9.89-1.26,14.2-.18,4.91-.47,10.24-2.92,14.61-.75.59-1.58,1.09-2.42,1.53-.89-.17-1.8-.27-2.71-.27-.91-.59-1.89-1.01-2.87-1.46h0Z"/><path class="cls-1" d="m64.32,199.39c-.86.13-1.72.3-2.58.46-.9-.32-1.82-.56-2.75-.76-.91-.63-1.9-1.14-2.86-1.69-4.63-4.57-8.91-8.9-12.66-14.3-3.49-5.03-6.8-10.21-9.77-15.57-5.93-10.7-10.88-21.89-15.35-33.27-4.6-11.71-9.05-23.64-12.25-35.82-1.72-6.52-2.85-13.23-1.92-19.97.89-6.39,3.65-12.16,6.67-17.79,2.83-5.27,4.93-11.75,9.21-16.04,4.44-4.44,10.34-7.54,15.07-11.72,4.52-4,8.4-8.45,12.34-13,4.12-4.75,9.73-6.85,15.42-9.22,5.63-2.35,11.41-5.02,17.44-6.12,6.11-1.11,12.48-.36,18.43,1.28,12.04,3.31,23.69,8.9,34.99,14.15,11.4,5.3,22.35,11.17,32.95,17.92,9.57,6.1,19.75,12.84,27.74,20.93,2.46,2.49,4.43,4.99,6.12,8.07.22.96.43,1.91.73,2.85-.13.87-.27,1.73-.38,2.6-.62.77-1.33,1.48-2,2.2-8.05,3.12-17.09-.12-25.07-2.15-7.43-1.89-15.27-4.21-22.97-4.54l-.51.13-1-.17-1.16.3-.13-.02-.09-.05-.88.44.1.14-.23.43.46.96-.02.09.05.16c6.55,8.7,14.88,16.43,20.35,25.9,6.75,11.71-6.23,22.05-13.84,29.66-8.59,8.59-17.49,16.89-26.54,24.99-4.5,4.02-9.03,8.01-13.74,11.79-4.57,3.67-10.57,9.18-16.8,9.1-6.01-.08-11.07-5.29-15.26-9.03-4.78-4.26-9.5-8.63-14.22-12.95l-.53-.23-.29.05-.58-.28-.34.05-.38-.23-.25.43.11.37-.23.64.04.31-.38.99.1,1.31-.08.23c-.31,7.04,1.18,14.38,2.05,21.35.92,7.33,2.56,15.17-.09,22.31-.7.82-1.45,1.62-2.25,2.35h0Z"/><path class="cls-1" d="m68.6,208.52c-.83.32-1.7.54-2.56.79-.87-.04-1.74-.07-2.6-.13-.91-.4-1.83-.79-2.76-1.15-10.45-8.26-17.45-18.89-23.92-30.5-6.24-11.2-11.51-22.93-16.3-34.82-5.04-12.5-9.72-25.21-13.74-38.09-4.07-13.04-6.21-25.42-.18-38.24,2.88-6.13,6.09-12.28,9.26-18.27s9.8-8.75,15.04-12.86,10.06-8.77,14.1-14.03c2.09-2.71,3.76-5.34,6.86-7s6.31-2.79,9.47-4.11c6.24-2.6,12.67-5.9,19.37-7.04,6.77-1.15,13.93.04,20.4,2.14,12.71,4.13,25.07,9.93,37.17,15.58,12.12,5.66,23.95,11.82,35.24,19s23.74,13.49,31.94,23.72c2.15,2.69,3.62,5.4,4.83,8.6.04.87.06,1.75.05,2.62-.26.8-.5,1.6-.79,2.39-5.31,7.13-15.78,4.69-23.23,2.53-8.02-2.32-15.84-5.32-23.81-7.78-4.2-1.29-8.53-2.68-12.88-3.34l-.5.13-.68-.13-.46-.29-.7.35.26.38-.15.29.37.77c4.91,4.64,9.28,10.29,13.77,15.37,4.61,5.22,10.35,10.84,11.69,17.89-.93,7.05-7.51,12.57-12.28,17.38s-9.48,9.3-14.31,13.86c-10.23,9.67-20.57,19.28-31.27,28.43-5.41,4.63-10.83,9.62-17.74,11.69-.85,0-1.69-.07-2.53-.15-5.98-2.17-10.49-7.17-14.93-11.54-4.4-4.32-8.72-8.7-13.14-12.98l-.7-.34-.17.02-.66-.41-.2.35.25.84-.13.35.13,1.01-.11.3c1.17,14.85,7.93,29.27,7.86,44.22-.02,5.07-.46,8.98-4.62,12.19h0Z"/><path class="cls-1" d="m64.87,214.85c-.88-.15-1.77-.33-2.61-.63-11-7.73-18.32-20.05-24.6-31.68-6.65-12.31-12.26-25.1-17.42-38.1-4.91-12.37-9.45-24.9-13.56-37.56-4.54-13.94-7.65-27.21-.84-41.01,3-6.08,6.22-12,9.15-18.13,3.09-6.47,10.08-8.72,15.52-13.01,5.49-4.32,10.73-9.3,14.7-15.07,2.28-3.32,3.77-5.32,7.58-6.91,2.84-1.19,5.71-2.32,8.55-3.5,6.27-2.61,12.9-6.23,19.68-7.26,7.04-1.07,14.53.38,21.17,2.74,13.06,4.63,25.83,10.43,38.39,16.25,12.32,5.71,24.2,12.04,35.92,18.9,11.3,6.61,23.82,13.12,32.44,23.16,2.26,2.62,4.32,5.31,6.22,8.2.29.88.51,1.8.64,2.71-.69,4.8-4.38,10.85-9.59,11.67-4.35.68-10.28-.81-14.57-1.75-9.34-2.05-18.35-6.58-27.31-9.84-5.1-1.85-10.26-3.96-15.58-5.05l-.84-.52-.53.26.42.61-.08.15.19.4c5.17,4.08,9.51,9.91,14.01,14.71,5.02,5.36,10.65,10.85,13.73,17.57.01.85.01,1.7.01,2.54-2.21,6.38-9.04,11.71-13.75,16.3s-9.59,9.17-14.42,13.7c-9.55,8.96-19.17,17.86-28.93,26.6-6.07,5.44-12.4,12.18-19.9,15.56-.78.1-1.55.23-2.31.38-.92-.2-1.81-.48-2.7-.78-10.22-6.93-18.73-17.42-27.11-26.45h-.01s0,0,0,0l-.94-.59-.15.26.38,1.31-.02.07c1.09,9.08,4.34,18.34,6.66,27.17,2.23,8.51,5.35,18.24,4.34,27.14-.62,5.46-6.69,9.3-11.9,9.47h0Z"/><path class="cls-1" d="m61.3,217.59c-17.78-17.67-28.45-40.64-37.88-63.56-4.84-11.76-9.25-23.74-13.4-35.77C6.06,106.79.47,94.19.88,81.83c.25-7.7,3.3-14.54,7.14-21.08,1.83-3.13,3.4-6.31,4.85-9.63,1.29-2.94,2.22-6.55,4.54-8.85l.2-.05c11.6-6.59,24.34-14.88,29.91-27.66,4.74-3.34,11.55-4.87,16.9-7.13,5.75-2.42,11.69-5.64,17.98-6.25,12.53-1.22,24.34,4.6,35.56,9.32,23.58,9.92,46.47,20.94,68.47,33.99,5.8,3.44,11.78,6.86,17.12,11,5.53,4.29,9.58,10.11,14.67,14.87.5.86.85,1.78,1.28,2.68l.04.25c-1.44,5.68-5.2,9.94-9.14,14.15-.71.39-1.44.74-2.18,1.09-.76-.04-1.52-.06-2.28-.02-7.82-1.92-15.55-3.05-23.09-5.98-7.92-3.09-15.75-6.4-23.69-9.46-3.63-1.4-8.02-2.34-11.31-4.4l-.35.18.58.85h0s.01.03.01.03c5.5,4.23,10.09,10.26,14.91,15.25,4.91,5.09,9.53,10.32,14.05,15.73.41.93.76,1.88,1.08,2.84-.12.75-.35,1.49-.66,2.19-9.02,10.74-19.73,20.1-29.99,29.68s-21.18,19.68-31.91,29.37c-5.38,4.87-11.37,11.82-18.2,14.6-.84-.09-1.68-.16-2.52-.22-5.52-3.88-9.99-8.98-14.58-13.9-4.69-5.03-9.45-10.04-13.94-15.26l-.64-.4-.1.17c2.01,7.32,4.21,14.61,6.25,21.93,2.05,7.36,5.09,14.9,5.85,22.51.45,4.48,1.17,8.99,1.84,13.43-.17.74-.34,1.49-.52,2.23-3.88,4.44-9.44,7.21-15.11,8.56l-.63-.05-1.99-.8h0Z"/><path class="cls-1" d="m66.42,219.68c-1.16.59-2.31,1.05-3.55,1.43l-.82-.19-.32-.38-1.45-.87-.03-.07v-.04c-7.11-10.31-15.13-19.52-21.14-30.63-5.64-10.42-10.55-21.18-14.97-32.17-4.77-11.88-9.3-23.85-13.52-35.93C6.29,108.38-.22,94.32.55,80.91c.39-6.8,2.96-13.02,6.35-18.84,3.09-5.31,5.55-10.71,7.91-16.38.46-1.11.9-2.2,1.46-3.25.28-.24.56-.49.84-.73.31-.12.63-.22.96-.3,6.07-3.26,11.59-6.49,16.75-11.18,4.66-4.23,10.51-9.73,12.07-16.06l.06-.08c1.81-1.62,5.05-2.08,7.29-2.91,2.9-1.07,5.76-2.26,8.61-3.44,6.18-2.56,12.6-6.26,19.32-6.94,14.03-1.43,27.66,5.91,40.16,11.26,12.12,5.18,24.23,10.47,36.02,16.37,10.96,5.49,21.68,11.52,32.22,17.78,5.09,3.02,10.33,6,14.93,9.75,4.92,4.01,9.02,9.04,13.81,13.24,1.1.96,2.08,2.06,3.1,3.12-.38.73-.63,1.53-.78,2.34-3.25,5.41-7.31,10.18-11.14,15.18-.6.28-1.18.61-1.73.99-.78-.17-1.56-.34-2.34-.51l-.43-.24c-3.42-.78-6.62-2.26-10.1-2.9-4.95-.9-9.17-2.23-13.84-4.16-7.42-3.08-14.83-6.19-22.29-9.17-3.94-1.58-8.22-2.97-11.96-4.97l-.18.09.31.44c8.95,7.42,16.78,16.79,24.79,25.18,2.29,2.4,4.79,4.78,6.71,7.49l.5,1.71v.68c-7.86,9.09-17.17,17.08-25.99,25.29-12.99,12.11-26.03,24.17-39.13,36.16-5.52,5.05-11.12,9.98-16.79,14.84l-.12.09c-.89.18-1.8.27-2.71.28l-.31-.42c-4.89-3.6-8.85-8.59-12.94-13.05-3.56-3.89-7.1-7.81-10.62-11.73-1.75-1.96-3.49-3.94-5.19-5.94l-.32-.2-.05.09c3.15,10.69,6.47,21.37,9.74,32.03,1.02,3.32,2.05,6.63,2.98,9.98,0,5.38,1.34,10.97,2.93,16.09-.09.77-.1,1.55-.03,2.32-4.39,3.73-9.54,7.3-14.99,9.41h0Z"/></g></svg>